<svg width="1440" height="372" viewBox="0 0 1440 372" fill="none" xmlns="http://www.w3.org/2000/svg">
<g clip-path="url(#clip0_1_2)">
<rect width="1440" height="372" fill="url(#paint0_linear_1_2)" fill-opacity="0.4"/>
<path d="M-228.85 488.323C90.9919 450.02 749.59 345.367 825.245 233.178C900.9 120.988 1533.27 47.9101 1839.99 25.3948" stroke="#519D42" stroke-width="2"/>
<path d="M-220.207 509.853C99.6354 471.55 741.881 353.352 817.536 241.162C893.191 128.972 1541.91 69.4401 1848.63 46.9248" stroke="#519D42" stroke-width="2"/>
<path d="M-227.331 525.257C92.5107 486.954 734.756 368.756 810.411 256.566C886.066 144.377 1534.78 84.8444 1841.51 62.3291" stroke="#519D42" stroke-width="2"/>
<path d="M-227.331 525.257C92.5107 486.954 734.756 368.756 810.411 256.566C886.066 144.377 1534.78 84.8444 1841.51 62.3291" stroke="#519D42" stroke-width="2"/>
<path d="M-219.045 524.605C100.797 486.302 766.351 385.271 808.027 261.583C850.585 135.278 1543.07 84.1921 1849.8 61.6768" stroke="#519D42" stroke-width="2"/>
<path d="M-193.462 567.135C126.381 528.832 769.69 392.385 811.366 268.698C853.924 142.393 1568.65 126.722 1875.38 104.207" stroke="#519D42" stroke-width="2"/>
<path d="M-193.278 569.468C126.564 531.166 769.874 394.718 811.55 271.031C854.108 144.726 1568.84 129.056 1875.56 106.54" stroke="#519D42" stroke-width="2"/>
<path d="M-186.513 425.971C133.329 387.668 791.927 283.016 867.582 170.826C943.237 58.6364 1575.6 -14.4416 1882.33 -36.9569" stroke="#519D42" stroke-width="2"/>
<path d="M-177.869 447.501C141.973 409.198 784.218 291 859.873 178.81C935.528 66.6207 1584.25 7.08832 1890.97 -15.427" stroke="#519D42" stroke-width="2"/>
<path d="M-184.994 462.905C134.848 424.603 777.094 306.404 852.748 194.215C928.403 82.025 1577.12 22.4927 1883.85 -0.022605" stroke="#519D42" stroke-width="2"/>
<path d="M-184.994 462.905C134.848 424.603 777.094 306.404 852.748 194.215C928.403 82.025 1577.12 22.4927 1883.85 -0.022605" stroke="#519D42" stroke-width="2"/>
<path d="M-176.708 462.253C143.135 423.95 808.688 322.919 850.364 199.232C892.922 72.9267 1585.41 21.8404 1892.13 -0.674925" stroke="#519D42" stroke-width="2"/>
<path d="M-151.124 504.783C168.718 466.48 812.028 330.033 853.704 206.346C896.262 80.0409 1610.99 64.3704 1917.72 41.8551" stroke="#519D42" stroke-width="2"/>
<path d="M-150.941 507.116C168.902 468.814 812.211 332.367 853.888 208.679C896.446 82.3743 1611.18 66.7038 1917.9 44.1885" stroke="#519D42" stroke-width="2"/>
<path d="M-228.85 488.323C90.9919 450.02 749.59 345.367 825.245 233.178C900.9 120.988 1533.27 47.9101 1839.99 25.3948" stroke="#519D42" stroke-width="2"/>
<path d="M-220.207 509.853C99.6354 471.55 741.881 353.352 817.536 241.162C893.191 128.972 1541.91 69.4401 1848.63 46.9248" stroke="#519D42" stroke-width="2"/>
<path d="M-227.331 525.257C92.5107 486.954 734.756 368.756 810.411 256.566C886.066 144.377 1534.78 84.8444 1841.51 62.3291" stroke="#519D42" stroke-width="2"/>
<path d="M-227.331 525.257C92.5107 486.954 734.756 368.756 810.411 256.566C886.066 144.377 1534.78 84.8444 1841.51 62.3291" stroke="#519D42" stroke-width="2"/>
<path d="M-219.045 524.605C100.797 486.302 766.351 385.271 808.027 261.583C850.585 135.278 1543.07 84.1921 1849.8 61.6768" stroke="#519D42" stroke-width="2"/>
<path d="M-193.462 567.135C126.381 528.832 769.69 392.385 811.366 268.698C853.924 142.393 1568.65 126.722 1875.38 104.207" stroke="#519D42" stroke-width="2"/>
<path d="M-193.278 569.468C126.564 531.165 769.874 394.718 811.55 271.031C854.108 144.726 1568.84 129.055 1875.56 106.54" stroke="#519D42" stroke-width="2"/>
<path d="M-186.513 425.971C133.329 387.668 791.927 283.016 867.582 170.826C943.237 58.6363 1575.6 -14.4416 1882.33 -36.9569" stroke="#519D42" stroke-width="2"/>
<path d="M-177.869 447.501C141.973 409.198 784.218 291 859.873 178.81C935.528 66.6207 1584.25 7.08831 1890.97 -15.427" stroke="#519D42" stroke-width="2"/>
<path d="M-184.994 462.905C134.848 424.603 777.094 306.404 852.748 194.215C928.403 82.025 1577.12 22.4927 1883.85 -0.0226202" stroke="#519D42" stroke-width="2"/>
<path d="M-184.994 462.905C134.848 424.603 777.094 306.404 852.748 194.215C928.403 82.025 1577.12 22.4927 1883.85 -0.0226202" stroke="#519D42" stroke-width="2"/>
<path d="M-176.708 462.253C143.135 423.95 808.688 322.919 850.364 199.232C892.922 72.9267 1585.41 21.8403 1892.13 -0.674941" stroke="#519D42" stroke-width="2"/>
<path d="M-151.124 504.783C168.718 466.48 812.028 330.033 853.704 206.346C896.262 80.0409 1610.99 64.3704 1917.72 41.8551" stroke="#519D42" stroke-width="2"/>
<path d="M-150.941 507.116C168.902 468.814 812.211 332.367 853.888 208.679C896.446 82.3743 1611.18 66.7038 1917.9 44.1885" stroke="#519D42" stroke-width="2"/>
<path d="M1543.21 -630.925C1311.38 -407.277 849.564 73.7953 856.994 208.906C864.423 344.017 404.456 784.082 173.543 987.225" stroke="#519D42" stroke-width="2"/>
<path d="M1523.33 -642.869C1291.49 -419.221 850.889 62.776 858.318 197.887C865.748 332.998 384.566 772.138 153.654 975.281" stroke="#519D42" stroke-width="2"/>
<path d="M1519.7 -659.45C1287.87 -435.802 847.267 46.1947 854.697 181.306C862.127 316.417 380.945 755.556 150.033 958.7" stroke="#519D42" stroke-width="2"/>
<path d="M1519.7 -659.45C1287.87 -435.802 847.267 46.1947 854.697 181.306C862.127 316.417 380.945 755.556 150.033 958.7" stroke="#519D42" stroke-width="2"/>
<path d="M1513.49 -653.927C1281.66 -430.279 812.11 52.1061 853.568 175.867C895.904 302.247 374.733 761.08 143.821 964.223" stroke="#519D42" stroke-width="2"/>
<path d="M1467.42 -672.383C1235.58 -448.735 805.153 48.4513 846.611 172.212C888.946 298.592 328.661 742.623 97.7483 945.767" stroke="#519D42" stroke-width="2"/>
<path d="M1465.86 -674.132C1234.03 -450.485 803.598 46.7022 845.056 170.463C887.391 296.843 327.105 740.874 96.193 944.018" stroke="#519D42" stroke-width="2"/>
<path d="M1547.11 -555.659C1315.28 -332.011 853.462 149.062 860.891 284.173C868.321 419.284 408.353 859.348 177.441 1062.49" stroke="#519D42" stroke-width="2"/>
<path d="M1527.22 -567.602C1295.39 -343.955 854.786 138.042 862.216 273.153C869.646 408.264 388.464 847.404 157.552 1050.55" stroke="#519D42" stroke-width="2"/>
<path d="M1523.6 -584.184C1291.77 -360.536 851.165 121.461 858.595 256.572C866.024 391.683 384.843 830.823 153.93 1033.97" stroke="#519D42" stroke-width="2"/>
<path d="M1523.6 -584.184C1291.77 -360.536 851.165 121.461 858.595 256.572C866.024 391.683 384.843 830.823 153.93 1033.97" stroke="#519D42" stroke-width="2"/>
<path d="M1517.39 -578.661C1285.55 -355.013 816.008 127.372 857.466 251.133C899.801 377.513 378.631 836.346 147.719 1039.49" stroke="#519D42" stroke-width="2"/>
<path d="M1471.32 -597.117C1239.48 -373.469 809.051 123.718 850.508 247.478C892.844 373.858 332.558 817.89 101.646 1021.03" stroke="#519D42" stroke-width="2"/>
<path d="M1469.76 -598.866C1237.93 -375.218 807.495 121.968 848.953 245.729C891.288 372.109 331.003 816.141 100.09 1019.28" stroke="#519D42" stroke-width="2"/>
<path d="M44.3438 97.0703C43.7656 97.0703 43.3438 97 43.0781 96.8594C42.8125 96.7031 42.6797 96.4688 42.6797 96.1562V71.0078H34.6641C34.3672 71.0078 34.1562 70.9062 34.0312 70.7031C33.9062 70.5 33.8438 70.1875 33.8438 69.7656V69.0859C33.8438 68.6484 33.9062 68.3359 34.0312 68.1484C34.1562 67.9453 34.3672 67.8438 34.6641 67.8438H54.2109C54.5078 67.8438 54.7188 67.9453 54.8438 68.1484C54.9688 68.3359 55.0312 68.6484 55.0312 69.0859V69.7656C55.0312 70.1875 54.9688 70.5 54.8438 70.7031C54.7188 70.9062 54.5078 71.0078 54.2109 71.0078H46.3594V96.1562C46.3594 96.7656 45.7969 97.0703 44.6719 97.0703H44.3438ZM61.3125 97.0703C60.7188 97.0703 60.2891 97 60.0234 96.8594C59.7578 96.7031 59.625 96.4688 59.625 96.1562V81.5312C59.625 79.7188 59.5391 78.4141 59.3672 77.6172C59.1953 76.8047 59.1094 76.3594 59.1094 76.2812C59.1094 75.9375 59.3672 75.6953 59.8828 75.5547C60.4141 75.3984 60.9141 75.3203 61.3828 75.3203C61.7578 75.3203 62.0391 75.5234 62.2266 75.9297C62.4141 76.3203 62.5781 76.875 62.7188 77.5938L62.8359 78.0859C64.3203 76.0078 65.9297 74.9688 67.6641 74.9688C68.4609 74.9688 69.0625 75.1172 69.4688 75.4141C69.875 75.6953 70.0781 76.0781 70.0781 76.5625C70.0781 77.0312 69.9922 77.5312 69.8203 78.0625C69.6641 78.5781 69.4766 78.8359 69.2578 78.8359C69.1484 78.8359 68.9531 78.7891 68.6719 78.6953C68.4219 78.5859 68.1719 78.5078 67.9219 78.4609C67.6719 78.3984 67.3516 78.3672 66.9609 78.3672C66.3203 78.3672 65.7109 78.5547 65.1328 78.9297C64.5703 79.3047 64.0938 79.7188 63.7031 80.1719C63.3125 80.625 63.1172 80.875 63.1172 80.9219V96.1562C63.1172 96.4688 62.9844 96.7031 62.7188 96.8594C62.4531 97 62.0391 97.0703 61.4766 97.0703H61.3125ZM80.2734 97.2344C78.1484 97.2344 76.4297 96.7109 75.1172 95.6641C73.8047 94.6172 73.1484 93.0625 73.1484 91C73.1484 88.8281 73.8125 87.1953 75.1406 86.1016C76.4688 84.9922 78.0859 84.2812 79.9922 83.9688C81.9141 83.6406 84.2422 83.4531 86.9766 83.4062V81.4375C86.9766 80.3906 86.6172 79.5547 85.8984 78.9297C85.1953 78.2891 84.0312 77.9688 82.4062 77.9688C81.1719 77.9688 80.0859 78.1172 79.1484 78.4141C78.2266 78.6953 77.3594 79.0391 76.5469 79.4453C76.2031 79.6172 75.9922 79.7031 75.9141 79.7031C75.7266 79.7031 75.5156 79.5703 75.2812 79.3047C75.0625 79.0234 74.8672 78.7109 74.6953 78.3672C74.5391 78.0234 74.4609 77.7734 74.4609 77.6172C74.4609 77.2578 74.8281 76.8672 75.5625 76.4453C76.3125 76.0234 77.2891 75.6719 78.4922 75.3906C79.6953 75.1094 80.9531 74.9688 82.2656 74.9688C84.875 74.9688 86.8984 75.5391 88.3359 76.6797C89.7734 77.8203 90.4922 79.4219 90.4922 81.4844V90.8359C90.4922 92.6484 90.5703 93.9609 90.7266 94.7734C90.8984 95.5703 90.9844 96.0078 90.9844 96.0859C90.9844 96.4297 90.7188 96.6797 90.1875 96.8359C89.6719 96.9766 89.1875 97.0469 88.7344 97.0469C88.3594 97.0469 88.0781 96.8359 87.8906 96.4141C87.7188 95.9922 87.5469 95.3828 87.375 94.5859L87.2812 94.1172C86.4219 95.0703 85.4062 95.8281 84.2344 96.3906C83.0781 96.9531 81.7578 97.2344 80.2734 97.2344ZM80.4609 94.2109C81.8359 94.2109 83.0078 93.9609 83.9766 93.4609C84.9453 92.9609 85.9453 92.25 86.9766 91.3281V86.4062C84.9141 86.4219 83.2188 86.5078 81.8906 86.6641C80.5625 86.8203 79.3984 87.2188 78.3984 87.8594C77.3984 88.4844 76.8984 89.4609 76.8984 90.7891C76.8984 91.8984 77.1953 92.75 77.7891 93.3438C78.3984 93.9219 79.2891 94.2109 80.4609 94.2109ZM99.1172 97.0703C98.5234 97.0703 98.0938 97 97.8281 96.8594C97.5625 96.7031 97.4297 96.4688 97.4297 96.1562V81.5312C97.4297 79.7188 97.3438 78.4141 97.1719 77.6172C97 76.8047 96.9141 76.3594 96.9141 76.2812C96.9141 75.9375 97.1719 75.6953 97.6875 75.5547C98.2188 75.3984 98.7188 75.3203 99.1875 75.3203C99.5781 75.3203 99.8672 75.5312 100.055 75.9531C100.242 76.375 100.375 76.8047 100.453 77.2422C100.547 77.6797 100.609 77.9609 100.641 78.0859C101.516 77.1016 102.523 76.3359 103.664 75.7891C104.82 75.2422 105.984 74.9688 107.156 74.9688C109.281 74.9688 110.938 75.5703 112.125 76.7734C113.328 77.9609 113.93 79.6016 113.93 81.6953V96.1562C113.93 96.4688 113.797 96.7031 113.531 96.8594C113.266 97 112.844 97.0703 112.266 97.0703H112.078C111.516 97.0703 111.102 97 110.836 96.8594C110.57 96.7031 110.438 96.4688 110.438 96.1562V82.0469C110.438 80.7656 110.062 79.7734 109.312 79.0703C108.578 78.3516 107.539 77.9922 106.195 77.9922C105.258 77.9922 104.312 78.2578 103.359 78.7891C102.422 79.3047 101.609 80.0156 100.922 80.9219V96.1562C100.922 96.4688 100.789 96.7031 100.523 96.8594C100.258 97 99.8438 97.0703 99.2812 97.0703H99.1172ZM125.133 97.3984C123.961 97.3984 122.867 97.25 121.852 96.9531C120.836 96.6562 120.023 96.2969 119.414 95.875C118.82 95.4375 118.523 95.0547 118.523 94.7266C118.523 94.5703 118.602 94.3203 118.758 93.9766C118.93 93.6328 119.125 93.3281 119.344 93.0625C119.578 92.7812 119.789 92.6406 119.977 92.6406C120.023 92.6406 120.164 92.7188 120.398 92.875C121.023 93.2812 121.68 93.625 122.367 93.9062C123.07 94.1875 123.906 94.3281 124.875 94.3281C127.594 94.3281 128.953 93.2031 128.953 90.9531C128.953 90.3125 128.82 89.7734 128.555 89.3359C128.305 88.8984 127.875 88.5156 127.266 88.1875C126.672 87.8438 125.852 87.5156 124.805 87.2031C123.305 86.7656 122.133 86.2656 121.289 85.7031C120.461 85.1406 119.875 84.4844 119.531 83.7344C119.188 82.9688 119.016 82.0469 119.016 80.9688C119.016 79.8125 119.305 78.7734 119.883 77.8516C120.477 76.9297 121.297 76.2109 122.344 75.6953C123.406 75.1797 124.602 74.9219 125.93 74.9219C126.852 74.9219 127.734 75.0078 128.578 75.1797C129.438 75.3516 130.125 75.5781 130.641 75.8594C131.172 76.125 131.438 76.4062 131.438 76.7031C131.438 76.9219 131.359 77.2188 131.203 77.5938C131.062 77.9531 130.883 78.2734 130.664 78.5547C130.445 78.8203 130.25 78.9531 130.078 78.9531C130.047 78.9531 129.852 78.8594 129.492 78.6719C129.133 78.4688 128.672 78.2891 128.109 78.1328C127.562 77.9609 126.953 77.875 126.281 77.875C125.219 77.875 124.336 78.1172 123.633 78.6016C122.945 79.0703 122.602 79.7031 122.602 80.5C122.602 81.4375 122.852 82.1875 123.352 82.75C123.852 83.3125 124.68 83.7734 125.836 84.1328C127.617 84.6797 128.977 85.2266 129.914 85.7734C130.852 86.3203 131.516 86.9922 131.906 87.7891C132.312 88.5703 132.516 89.6016 132.516 90.8828C132.516 92.1016 132.188 93.2109 131.531 94.2109C130.875 95.1953 129.984 95.9766 128.859 96.5547C127.734 97.1172 126.492 97.3984 125.133 97.3984ZM140.414 97.0703C139.836 97.0703 139.414 97 139.148 96.8594C138.883 96.7031 138.75 96.4688 138.75 96.1562V78.2031H137.086C136.523 78.2031 136.242 77.7891 136.242 76.9609V76.4453C136.242 75.6172 136.523 75.2031 137.086 75.2031H138.75V71.2422C138.75 69.0547 139.289 67.5547 140.367 66.7422C141.461 65.9141 142.711 65.5 144.117 65.5C146.148 65.5 147.164 65.9219 147.164 66.7656C147.164 66.9062 147.125 67.1406 147.047 67.4688C146.984 67.7812 146.883 68.0625 146.742 68.3125C146.617 68.5625 146.469 68.6875 146.297 68.6875C146.203 68.6875 146.008 68.6562 145.711 68.5938C145.414 68.5312 145.008 68.5 144.492 68.5C144.023 68.5 143.625 68.5703 143.297 68.7109C142.984 68.8516 142.727 69.1484 142.523 69.6016C142.336 70.0547 142.242 70.7109 142.242 71.5703V75.2031H145.875C146.172 75.2031 146.383 75.3047 146.508 75.5078C146.648 75.6953 146.719 76.0078 146.719 76.4453V76.9609C146.719 77.3984 146.648 77.7188 146.508 77.9219C146.383 78.1094 146.172 78.2031 145.875 78.2031H142.242V96.1562C142.242 96.4688 142.109 96.7031 141.844 96.8594C141.578 97 141.164 97.0703 140.602 97.0703H140.414ZM159.75 97.2344C156.609 97.2344 154.211 96.2969 152.555 94.4219C150.914 92.5312 150.094 89.7891 150.094 86.1953C150.094 82.6016 150.93 79.8359 152.602 77.8984C154.273 75.9453 156.656 74.9688 159.75 74.9688C162.812 74.9688 165.156 75.9375 166.781 77.875C168.406 79.7969 169.219 82.5703 169.219 86.1953C169.219 89.8047 168.414 92.5469 166.805 94.4219C165.211 96.2969 162.859 97.2344 159.75 97.2344ZM159.633 94.2344C161.664 94.2344 163.164 93.5781 164.133 92.2656C165.102 90.9375 165.586 88.8906 165.586 86.125C165.586 83.3438 165.102 81.2891 164.133 79.9609C163.164 78.6328 161.664 77.9688 159.633 77.9688C157.617 77.9688 156.133 78.6328 155.18 79.9609C154.227 81.2734 153.75 83.3281 153.75 86.125C153.75 88.9062 154.219 90.9531 155.156 92.2656C156.109 93.5781 157.602 94.2344 159.633 94.2344ZM176.953 97.0703C176.359 97.0703 175.93 97 175.664 96.8594C175.398 96.7031 175.266 96.4688 175.266 96.1562V81.5312C175.266 79.7188 175.18 78.4141 175.008 77.6172C174.836 76.8047 174.75 76.3594 174.75 76.2812C174.75 75.9375 175.008 75.6953 175.523 75.5547C176.055 75.3984 176.555 75.3203 177.023 75.3203C177.398 75.3203 177.68 75.5234 177.867 75.9297C178.055 76.3203 178.219 76.875 178.359 77.5938L178.477 78.0859C179.961 76.0078 181.57 74.9688 183.305 74.9688C184.102 74.9688 184.703 75.1172 185.109 75.4141C185.516 75.6953 185.719 76.0781 185.719 76.5625C185.719 77.0312 185.633 77.5312 185.461 78.0625C185.305 78.5781 185.117 78.8359 184.898 78.8359C184.789 78.8359 184.594 78.7891 184.312 78.6953C184.062 78.5859 183.812 78.5078 183.562 78.4609C183.312 78.3984 182.992 78.3672 182.602 78.3672C181.961 78.3672 181.352 78.5547 180.773 78.9297C180.211 79.3047 179.734 79.7188 179.344 80.1719C178.953 80.625 178.758 80.875 178.758 80.9219V96.1562C178.758 96.4688 178.625 96.7031 178.359 96.8594C178.094 97 177.68 97.0703 177.117 97.0703H176.953ZM212.414 74.9688C214.148 74.9688 215.672 75.4609 216.984 76.4453C218.297 77.4297 218.953 79.1797 218.953 81.6953V96.1562C218.953 96.4688 218.82 96.7031 218.555 96.8594C218.289 97 217.867 97.0703 217.289 97.0703H217.148C216.555 97.0703 216.125 97 215.859 96.8594C215.594 96.7031 215.461 96.4688 215.461 96.1562V82.0469C215.461 80.7812 215.117 79.7891 214.43 79.0703C213.758 78.3516 212.766 77.9922 211.453 77.9922C210.359 77.9922 209.367 78.3125 208.477 78.9531C207.602 79.5781 206.891 80.2344 206.344 80.9219C206.375 81.2969 206.391 81.5781 206.391 81.7656V96.1562C206.391 96.7656 205.828 97.0703 204.703 97.0703H204.539C203.43 97.0703 202.875 96.7656 202.875 96.1562V82.0469C202.875 80.7812 202.531 79.7891 201.844 79.0703C201.172 78.3516 200.18 77.9922 198.867 77.9922C197.961 77.9922 197.133 78.2109 196.383 78.6484C195.633 79.0703 195.008 79.5312 194.508 80.0312C194.023 80.5312 193.781 80.8125 193.781 80.875V96.1562C193.781 96.4688 193.648 96.7031 193.383 96.8594C193.133 97 192.719 97.0703 192.141 97.0703H191.953C191.375 97.0703 190.953 97 190.688 96.8594C190.438 96.7031 190.312 96.4688 190.312 96.1562V81.5312C190.312 79.7188 190.227 78.4141 190.055 77.6172C189.883 76.8047 189.797 76.3594 189.797 76.2812C189.797 75.9375 190.055 75.6953 190.57 75.5547C191.102 75.3984 191.594 75.3203 192.047 75.3203C192.438 75.3203 192.727 75.5312 192.914 75.9531C193.102 76.375 193.234 76.8047 193.312 77.2422C193.406 77.6797 193.469 77.9609 193.5 78.0859C194.266 77.1953 195.203 76.4531 196.312 75.8594C197.422 75.2656 198.594 74.9688 199.828 74.9688C201.094 74.9688 202.273 75.2266 203.367 75.7422C204.461 76.2422 205.266 77.1328 205.781 78.4141C206.641 77.3984 207.648 76.5703 208.805 75.9297C209.961 75.2891 211.164 74.9688 212.414 74.9688ZM227.391 69.9531C226.281 69.9531 225.727 69.6484 225.727 69.0391V66.5781C225.727 65.9688 226.281 65.6641 227.391 65.6641H227.883C229.008 65.6641 229.57 65.9688 229.57 66.5781V69.0391C229.57 69.6484 229.008 69.9531 227.883 69.9531H227.391ZM227.555 97.0703C226.445 97.0703 225.891 96.7656 225.891 96.1562V76.0469C225.891 75.4375 226.445 75.1328 227.555 75.1328H227.719C228.844 75.1328 229.406 75.4375 229.406 76.0469V96.1562C229.406 96.7656 228.844 97.0703 227.719 97.0703H227.555ZM238.43 97.0703C237.836 97.0703 237.406 97 237.141 96.8594C236.875 96.7031 236.742 96.4688 236.742 96.1562V81.5312C236.742 79.7188 236.656 78.4141 236.484 77.6172C236.312 76.8047 236.227 76.3594 236.227 76.2812C236.227 75.9375 236.484 75.6953 237 75.5547C237.531 75.3984 238.031 75.3203 238.5 75.3203C238.891 75.3203 239.18 75.5312 239.367 75.9531C239.555 76.375 239.688 76.8047 239.766 77.2422C239.859 77.6797 239.922 77.9609 239.953 78.0859C240.828 77.1016 241.836 76.3359 242.977 75.7891C244.133 75.2422 245.297 74.9688 246.469 74.9688C248.594 74.9688 250.25 75.5703 251.438 76.7734C252.641 77.9609 253.242 79.6016 253.242 81.6953V96.1562C253.242 96.4688 253.109 96.7031 252.844 96.8594C252.578 97 252.156 97.0703 251.578 97.0703H251.391C250.828 97.0703 250.414 97 250.148 96.8594C249.883 96.7031 249.75 96.4688 249.75 96.1562V82.0469C249.75 80.7656 249.375 79.7734 248.625 79.0703C247.891 78.3516 246.852 77.9922 245.508 77.9922C244.57 77.9922 243.625 78.2578 242.672 78.7891C241.734 79.3047 240.922 80.0156 240.234 80.9219V96.1562C240.234 96.4688 240.102 96.7031 239.836 96.8594C239.57 97 239.156 97.0703 238.594 97.0703H238.43ZM266.906 105.836C264.25 105.836 262.148 105.422 260.602 104.594C259.055 103.766 258.281 102.461 258.281 100.68C258.281 99.4609 258.633 98.3984 259.336 97.4922C260.039 96.5859 260.953 95.9062 262.078 95.4531L262.125 95.3594C261.578 94.9375 261.156 94.4531 260.859 93.9062C260.578 93.3594 260.438 92.7109 260.438 91.9609C260.438 90.1484 261.219 88.6953 262.781 87.6016C261.609 87.0391 260.719 86.25 260.109 85.2344C259.5 84.2031 259.195 83.0469 259.195 81.7656C259.195 80.4844 259.508 79.3281 260.133 78.2969C260.773 77.2656 261.711 76.4531 262.945 75.8594C264.18 75.2656 265.664 74.9688 267.398 74.9688C268.32 74.9688 269.141 75.0469 269.859 75.2031H277.43C277.727 75.2031 277.938 75.3047 278.062 75.5078C278.203 75.6953 278.273 76.0078 278.273 76.4453V76.9609C278.273 77.3984 278.203 77.7188 278.062 77.9219C277.938 78.1094 277.727 78.2031 277.43 78.2031C276.383 78.2031 275.414 78.1641 274.523 78.0859L274.477 78.1562C274.836 78.6562 275.102 79.2188 275.273 79.8438C275.461 80.4531 275.555 81.0938 275.555 81.7656C275.555 83.0469 275.234 84.2031 274.594 85.2344C273.969 86.2656 273.039 87.0781 271.805 87.6719C270.586 88.2656 269.102 88.5625 267.352 88.5625C266.039 88.6094 265.047 88.8516 264.375 89.2891C263.719 89.7266 263.391 90.4453 263.391 91.4453C263.391 92.1797 263.625 92.7422 264.094 93.1328C264.578 93.5234 265.18 93.7969 265.898 93.9531C266.617 94.1094 267.617 94.2578 268.898 94.3984L270.117 94.5391C271.414 94.7109 272.5 94.9453 273.375 95.2422C274.25 95.5391 274.969 96.0312 275.531 96.7188C276.109 97.4062 276.398 98.3516 276.398 99.5547C276.398 101.57 275.594 103.117 273.984 104.195C272.375 105.289 270.016 105.836 266.906 105.836ZM267.352 85.7969C268.883 85.7969 270.102 85.4844 271.008 84.8594C271.914 84.2344 272.367 83.2109 272.367 81.7891C272.367 79.1016 270.695 77.7578 267.352 77.7578C264.055 77.7578 262.406 79.1016 262.406 81.7891C262.406 83.2109 262.852 84.2344 263.742 84.8594C264.648 85.4844 265.852 85.7969 267.352 85.7969ZM267.352 103C269.289 103 270.727 102.742 271.664 102.227C272.602 101.727 273.07 100.961 273.07 99.9297C273.07 99.2578 272.82 98.7344 272.32 98.3594C271.82 98 271.203 97.7422 270.469 97.5859C269.75 97.4453 268.797 97.3125 267.609 97.1875C266.797 97.0938 266.125 97.0078 265.594 96.9297C265.078 96.8516 264.602 96.7422 264.164 96.6016C262.32 97.3828 261.398 98.5156 261.398 100C261.398 102 263.383 103 267.352 103ZM294.469 97C294.031 97 293.711 96.8984 293.508 96.6953C293.305 96.4922 293.203 96.1797 293.203 95.7578V69.0859C293.203 68.6484 293.305 68.3359 293.508 68.1484C293.711 67.9453 294.031 67.8438 294.469 67.8438H309C309.297 67.8438 309.508 67.9375 309.633 68.125C309.773 68.3125 309.844 68.6328 309.844 69.0859V69.7656C309.844 70.1875 309.773 70.5 309.633 70.7031C309.508 70.9062 309.297 71.0078 309 71.0078H296.883V80.5H307.758C308.055 80.5 308.266 80.6016 308.391 80.8047C308.531 81.0078 308.602 81.3281 308.602 81.7656V82.3984C308.602 82.8359 308.531 83.1562 308.391 83.3594C308.266 83.5469 308.055 83.6406 307.758 83.6406H296.883V93.8359H309.047C309.344 93.8359 309.555 93.9375 309.68 94.1406C309.82 94.3281 309.891 94.6406 309.891 95.0781V95.7578C309.891 96.1797 309.82 96.4922 309.68 96.6953C309.555 96.8984 309.344 97 309.047 97H294.469ZM317.227 97.0703C316.633 97.0703 316.203 97 315.938 96.8594C315.672 96.7031 315.539 96.4688 315.539 96.1562V81.5312C315.539 79.7188 315.453 78.4141 315.281 77.6172C315.109 76.8047 315.023 76.3594 315.023 76.2812C315.023 75.9375 315.281 75.6953 315.797 75.5547C316.328 75.3984 316.828 75.3203 317.297 75.3203C317.688 75.3203 317.977 75.5312 318.164 75.9531C318.352 76.375 318.484 76.8047 318.562 77.2422C318.656 77.6797 318.719 77.9609 318.75 78.0859C319.625 77.1016 320.633 76.3359 321.773 75.7891C322.93 75.2422 324.094 74.9688 325.266 74.9688C327.391 74.9688 329.047 75.5703 330.234 76.7734C331.438 77.9609 332.039 79.6016 332.039 81.6953V96.1562C332.039 96.4688 331.906 96.7031 331.641 96.8594C331.375 97 330.953 97.0703 330.375 97.0703H330.188C329.625 97.0703 329.211 97 328.945 96.8594C328.68 96.7031 328.547 96.4688 328.547 96.1562V82.0469C328.547 80.7656 328.172 79.7734 327.422 79.0703C326.688 78.3516 325.648 77.9922 324.305 77.9922C323.367 77.9922 322.422 78.2578 321.469 78.7891C320.531 79.3047 319.719 80.0156 319.031 80.9219V96.1562C319.031 96.4688 318.898 96.7031 318.633 96.8594C318.367 97 317.953 97.0703 317.391 97.0703H317.227ZM345 97.2344C343.609 97.2344 342.367 96.8125 341.273 95.9688C340.18 95.125 339.633 93.6328 339.633 91.4922V78.2031H337.547C337.25 78.2031 337.031 78.1094 336.891 77.9219C336.766 77.7188 336.703 77.3984 336.703 76.9609V76.4453C336.703 76.0078 336.766 75.6953 336.891 75.5078C337.031 75.3047 337.25 75.2031 337.547 75.2031H339.633L340.125 70.8438C340.156 70.2344 340.602 69.9297 341.461 69.9297H341.859C342.297 69.9297 342.617 70.0078 342.82 70.1641C343.023 70.3047 343.125 70.5312 343.125 70.8438V75.2031H346.617C346.914 75.2031 347.125 75.3047 347.25 75.5078C347.391 75.6953 347.461 76.0078 347.461 76.4453V76.9609C347.461 77.3984 347.391 77.7188 347.25 77.9219C347.125 78.1094 346.914 78.2031 346.617 78.2031H343.125V91.1641C343.125 92.3047 343.32 93.1016 343.711 93.5547C344.117 94.0078 344.664 94.2344 345.352 94.2344C345.883 94.2344 346.289 94.2031 346.57 94.1406C346.867 94.0781 347.062 94.0469 347.156 94.0469C347.406 94.0469 347.609 94.2969 347.766 94.7969C347.938 95.2969 348.023 95.6953 348.023 95.9922C348.023 96.8203 347.016 97.2344 345 97.2344ZM361.969 97.2344C358.516 97.2344 355.945 96.3359 354.258 94.5391C352.586 92.7266 351.75 89.9609 351.75 86.2422C351.75 82.5547 352.57 79.7578 354.211 77.8516C355.852 75.9297 358.266 74.9688 361.453 74.9688C364.297 74.9688 366.438 75.8906 367.875 77.7344C369.328 79.5781 370.055 82.2812 370.055 85.8438C370.055 86 369.969 86.2188 369.797 86.5C369.641 86.7656 369.445 87.0078 369.211 87.2266C368.992 87.4297 368.805 87.5312 368.648 87.5312H355.5C355.672 89.8594 356.266 91.5625 357.281 92.6406C358.312 93.7031 359.859 94.2344 361.922 94.2344C363.078 94.2344 364.07 94.0938 364.898 93.8125C365.742 93.5312 366.555 93.1875 367.336 92.7812C367.414 92.75 367.531 92.6953 367.688 92.6172C367.844 92.5391 367.953 92.5 368.016 92.5C368.188 92.5 368.383 92.6406 368.602 92.9219C368.836 93.1875 369.031 93.4922 369.188 93.8359C369.359 94.1641 369.445 94.4062 369.445 94.5625C369.445 94.9062 369.102 95.2891 368.414 95.7109C367.727 96.1328 366.805 96.4922 365.648 96.7891C364.508 97.0859 363.281 97.2344 361.969 97.2344ZM366.328 84.5312C366.328 80.1562 364.664 77.9688 361.336 77.9688C357.758 77.9688 355.812 80.1562 355.5 84.5312H366.328ZM377.391 97.0703C376.797 97.0703 376.367 97 376.102 96.8594C375.836 96.7031 375.703 96.4688 375.703 96.1562V81.5312C375.703 79.7188 375.617 78.4141 375.445 77.6172C375.273 76.8047 375.188 76.3594 375.188 76.2812C375.188 75.9375 375.445 75.6953 375.961 75.5547C376.492 75.3984 376.992 75.3203 377.461 75.3203C377.836 75.3203 378.117 75.5234 378.305 75.9297C378.492 76.3203 378.656 76.875 378.797 77.5938L378.914 78.0859C380.398 76.0078 382.008 74.9688 383.742 74.9688C384.539 74.9688 385.141 75.1172 385.547 75.4141C385.953 75.6953 386.156 76.0781 386.156 76.5625C386.156 77.0312 386.07 77.5312 385.898 78.0625C385.742 78.5781 385.555 78.8359 385.336 78.8359C385.227 78.8359 385.031 78.7891 384.75 78.6953C384.5 78.5859 384.25 78.5078 384 78.4609C383.75 78.3984 383.43 78.3672 383.039 78.3672C382.398 78.3672 381.789 78.5547 381.211 78.9297C380.648 79.3047 380.172 79.7188 379.781 80.1719C379.391 80.625 379.195 80.875 379.195 80.9219V96.1562C379.195 96.4688 379.062 96.7031 378.797 96.8594C378.531 97 378.117 97.0703 377.555 97.0703H377.391ZM392.461 105.672C391.336 105.672 390.773 105.367 390.773 104.758V81.5312C390.773 79.7188 390.688 78.4141 390.516 77.6172C390.344 76.8047 390.258 76.3594 390.258 76.2812C390.258 75.9375 390.516 75.6953 391.031 75.5547C391.562 75.3984 392.062 75.3203 392.531 75.3203C392.922 75.3203 393.211 75.5312 393.398 75.9531C393.586 76.375 393.719 76.8047 393.797 77.2422C393.891 77.6797 393.953 77.9609 393.984 78.0859C395.969 76.0078 398.18 74.9688 400.617 74.9688C402.289 74.9688 403.734 75.4453 404.953 76.3984C406.172 77.3516 407.102 78.6719 407.742 80.3594C408.383 82.0469 408.703 83.9688 408.703 86.125C408.703 88.4688 408.344 90.4766 407.625 92.1484C406.922 93.8203 405.93 95.0859 404.648 95.9453C403.367 96.8047 401.891 97.2344 400.219 97.2344C399.016 97.2344 397.945 97.0547 397.008 96.6953C396.086 96.3359 395.172 95.8125 394.266 95.125V104.758C394.266 105.367 393.719 105.672 392.625 105.672H392.461ZM399.422 94.1641C401.281 94.1172 402.68 93.4375 403.617 92.125C404.555 90.8125 405.023 88.9062 405.023 86.4062C405.023 83.7188 404.578 81.6484 403.688 80.1953C402.812 78.7266 401.547 77.9922 399.891 77.9922C398.969 77.9922 398.008 78.2422 397.008 78.7422C396.023 79.2422 395.109 79.9531 394.266 80.875V92.2891C395.797 93.5391 397.516 94.1641 399.422 94.1641ZM416.531 97.0703C415.938 97.0703 415.508 97 415.242 96.8594C414.977 96.7031 414.844 96.4688 414.844 96.1562V81.5312C414.844 79.7188 414.758 78.4141 414.586 77.6172C414.414 76.8047 414.328 76.3594 414.328 76.2812C414.328 75.9375 414.586 75.6953 415.102 75.5547C415.633 75.3984 416.133 75.3203 416.602 75.3203C416.977 75.3203 417.258 75.5234 417.445 75.9297C417.633 76.3203 417.797 76.875 417.938 77.5938L418.055 78.0859C419.539 76.0078 421.148 74.9688 422.883 74.9688C423.68 74.9688 424.281 75.1172 424.688 75.4141C425.094 75.6953 425.297 76.0781 425.297 76.5625C425.297 77.0312 425.211 77.5312 425.039 78.0625C424.883 78.5781 424.695 78.8359 424.477 78.8359C424.367 78.8359 424.172 78.7891 423.891 78.6953C423.641 78.5859 423.391 78.5078 423.141 78.4609C422.891 78.3984 422.57 78.3672 422.18 78.3672C421.539 78.3672 420.93 78.5547 420.352 78.9297C419.789 79.3047 419.312 79.7188 418.922 80.1719C418.531 80.625 418.336 80.875 418.336 80.9219V96.1562C418.336 96.4688 418.203 96.7031 417.938 96.8594C417.672 97 417.258 97.0703 416.695 97.0703H416.531ZM431.625 69.9531C430.516 69.9531 429.961 69.6484 429.961 69.0391V66.5781C429.961 65.9688 430.516 65.6641 431.625 65.6641H432.117C433.242 65.6641 433.805 65.9688 433.805 66.5781V69.0391C433.805 69.6484 433.242 69.9531 432.117 69.9531H431.625ZM431.789 97.0703C430.68 97.0703 430.125 96.7656 430.125 96.1562V76.0469C430.125 75.4375 430.68 75.1328 431.789 75.1328H431.953C433.078 75.1328 433.641 75.4375 433.641 76.0469V96.1562C433.641 96.7656 433.078 97.0703 431.953 97.0703H431.789ZM445.477 97.3984C444.305 97.3984 443.211 97.25 442.195 96.9531C441.18 96.6562 440.367 96.2969 439.758 95.875C439.164 95.4375 438.867 95.0547 438.867 94.7266C438.867 94.5703 438.945 94.3203 439.102 93.9766C439.273 93.6328 439.469 93.3281 439.688 93.0625C439.922 92.7812 440.133 92.6406 440.32 92.6406C440.367 92.6406 440.508 92.7188 440.742 92.875C441.367 93.2812 442.023 93.625 442.711 93.9062C443.414 94.1875 444.25 94.3281 445.219 94.3281C447.938 94.3281 449.297 93.2031 449.297 90.9531C449.297 90.3125 449.164 89.7734 448.898 89.3359C448.648 88.8984 448.219 88.5156 447.609 88.1875C447.016 87.8438 446.195 87.5156 445.148 87.2031C443.648 86.7656 442.477 86.2656 441.633 85.7031C440.805 85.1406 440.219 84.4844 439.875 83.7344C439.531 82.9688 439.359 82.0469 439.359 80.9688C439.359 79.8125 439.648 78.7734 440.227 77.8516C440.82 76.9297 441.641 76.2109 442.688 75.6953C443.75 75.1797 444.945 74.9219 446.273 74.9219C447.195 74.9219 448.078 75.0078 448.922 75.1797C449.781 75.3516 450.469 75.5781 450.984 75.8594C451.516 76.125 451.781 76.4062 451.781 76.7031C451.781 76.9219 451.703 77.2188 451.547 77.5938C451.406 77.9531 451.227 78.2734 451.008 78.5547C450.789 78.8203 450.594 78.9531 450.422 78.9531C450.391 78.9531 450.195 78.8594 449.836 78.6719C449.477 78.4688 449.016 78.2891 448.453 78.1328C447.906 77.9609 447.297 77.875 446.625 77.875C445.562 77.875 444.68 78.1172 443.977 78.6016C443.289 79.0703 442.945 79.7031 442.945 80.5C442.945 81.4375 443.195 82.1875 443.695 82.75C444.195 83.3125 445.023 83.7734 446.18 84.1328C447.961 84.6797 449.32 85.2266 450.258 85.7734C451.195 86.3203 451.859 86.9922 452.25 87.7891C452.656 88.5703 452.859 89.6016 452.859 90.8828C452.859 92.1016 452.531 93.2109 451.875 94.2109C451.219 95.1953 450.328 95.9766 449.203 96.5547C448.078 97.1172 446.836 97.3984 445.477 97.3984ZM467.109 97.2344C463.656 97.2344 461.086 96.3359 459.398 94.5391C457.727 92.7266 456.891 89.9609 456.891 86.2422C456.891 82.5547 457.711 79.7578 459.352 77.8516C460.992 75.9297 463.406 74.9688 466.594 74.9688C469.438 74.9688 471.578 75.8906 473.016 77.7344C474.469 79.5781 475.195 82.2812 475.195 85.8438C475.195 86 475.109 86.2188 474.938 86.5C474.781 86.7656 474.586 87.0078 474.352 87.2266C474.133 87.4297 473.945 87.5312 473.789 87.5312H460.641C460.812 89.8594 461.406 91.5625 462.422 92.6406C463.453 93.7031 465 94.2344 467.062 94.2344C468.219 94.2344 469.211 94.0938 470.039 93.8125C470.883 93.5312 471.695 93.1875 472.477 92.7812C472.555 92.75 472.672 92.6953 472.828 92.6172C472.984 92.5391 473.094 92.5 473.156 92.5C473.328 92.5 473.523 92.6406 473.742 92.9219C473.977 93.1875 474.172 93.4922 474.328 93.8359C474.5 94.1641 474.586 94.4062 474.586 94.5625C474.586 94.9062 474.242 95.2891 473.555 95.7109C472.867 96.1328 471.945 96.4922 470.789 96.7891C469.648 97.0859 468.422 97.2344 467.109 97.2344ZM471.469 84.5312C471.469 80.1562 469.805 77.9688 466.477 77.9688C462.898 77.9688 460.953 80.1562 460.641 84.5312H471.469ZM485.18 97.3984C484.008 97.3984 482.914 97.25 481.898 96.9531C480.883 96.6562 480.07 96.2969 479.461 95.875C478.867 95.4375 478.57 95.0547 478.57 94.7266C478.57 94.5703 478.648 94.3203 478.805 93.9766C478.977 93.6328 479.172 93.3281 479.391 93.0625C479.625 92.7812 479.836 92.6406 480.023 92.6406C480.07 92.6406 480.211 92.7188 480.445 92.875C481.07 93.2812 481.727 93.625 482.414 93.9062C483.117 94.1875 483.953 94.3281 484.922 94.3281C487.641 94.3281 489 93.2031 489 90.9531C489 90.3125 488.867 89.7734 488.602 89.3359C488.352 88.8984 487.922 88.5156 487.312 88.1875C486.719 87.8438 485.898 87.5156 484.852 87.2031C483.352 86.7656 482.18 86.2656 481.336 85.7031C480.508 85.1406 479.922 84.4844 479.578 83.7344C479.234 82.9688 479.062 82.0469 479.062 80.9688C479.062 79.8125 479.352 78.7734 479.93 77.8516C480.523 76.9297 481.344 76.2109 482.391 75.6953C483.453 75.1797 484.648 74.9219 485.977 74.9219C486.898 74.9219 487.781 75.0078 488.625 75.1797C489.484 75.3516 490.172 75.5781 490.688 75.8594C491.219 76.125 491.484 76.4062 491.484 76.7031C491.484 76.9219 491.406 77.2188 491.25 77.5938C491.109 77.9531 490.93 78.2734 490.711 78.5547C490.492 78.8203 490.297 78.9531 490.125 78.9531C490.094 78.9531 489.898 78.8594 489.539 78.6719C489.18 78.4688 488.719 78.2891 488.156 78.1328C487.609 77.9609 487 77.875 486.328 77.875C485.266 77.875 484.383 78.1172 483.68 78.6016C482.992 79.0703 482.648 79.7031 482.648 80.5C482.648 81.4375 482.898 82.1875 483.398 82.75C483.898 83.3125 484.727 83.7734 485.883 84.1328C487.664 84.6797 489.023 85.2266 489.961 85.7734C490.898 86.3203 491.562 86.9922 491.953 87.7891C492.359 88.5703 492.562 89.6016 492.562 90.8828C492.562 92.1016 492.234 93.2109 491.578 94.2109C490.922 95.1953 490.031 95.9766 488.906 96.5547C487.781 97.1172 486.539 97.3984 485.18 97.3984ZM515.672 97.0703C515.094 97.0703 514.672 97 514.406 96.8594C514.141 96.7031 514.008 96.4688 514.008 96.1562V71.0078H505.992C505.695 71.0078 505.484 70.9062 505.359 70.7031C505.234 70.5 505.172 70.1875 505.172 69.7656V69.0859C505.172 68.6484 505.234 68.3359 505.359 68.1484C505.484 67.9453 505.695 67.8438 505.992 67.8438H525.539C525.836 67.8438 526.047 67.9453 526.172 68.1484C526.297 68.3359 526.359 68.6484 526.359 69.0859V69.7656C526.359 70.1875 526.297 70.5 526.172 70.7031C526.047 70.9062 525.836 71.0078 525.539 71.0078H517.688V96.1562C517.688 96.7656 517.125 97.0703 516 97.0703H515.672ZM532.711 97.0703C531.602 97.0703 531.047 96.7656 531.047 96.1562V66.5781C531.047 65.9688 531.602 65.6641 532.711 65.6641H532.875C534 65.6641 534.562 65.9688 534.562 66.5781V77.8281C535.375 77 536.328 76.3203 537.422 75.7891C538.516 75.2422 539.68 74.9688 540.914 74.9688C542.664 74.9688 544.203 75.4609 545.531 76.4453C546.875 77.4297 547.547 79.1797 547.547 81.6953V96.1562C547.547 96.7656 546.992 97.0703 545.883 97.0703H545.719C544.594 97.0703 544.031 96.7656 544.031 96.1562V82.0469C544.031 80.7812 543.672 79.7891 542.953 79.0703C542.234 78.3516 541.18 77.9922 539.789 77.9922C538.867 77.9922 538.016 78.2109 537.234 78.6484C536.469 79.0859 535.828 79.5625 535.312 80.0781C534.812 80.5781 534.562 80.8594 534.562 80.9219V96.1562C534.562 96.7656 534 97.0703 532.875 97.0703H532.711ZM556.219 97.0703C555.625 97.0703 555.195 97 554.93 96.8594C554.664 96.7031 554.531 96.4688 554.531 96.1562V81.5312C554.531 79.7188 554.445 78.4141 554.273 77.6172C554.102 76.8047 554.016 76.3594 554.016 76.2812C554.016 75.9375 554.273 75.6953 554.789 75.5547C555.32 75.3984 555.82 75.3203 556.289 75.3203C556.664 75.3203 556.945 75.5234 557.133 75.9297C557.32 76.3203 557.484 76.875 557.625 77.5938L557.742 78.0859C559.227 76.0078 560.836 74.9688 562.57 74.9688C563.367 74.9688 563.969 75.1172 564.375 75.4141C564.781 75.6953 564.984 76.0781 564.984 76.5625C564.984 77.0312 564.898 77.5312 564.727 78.0625C564.57 78.5781 564.383 78.8359 564.164 78.8359C564.055 78.8359 563.859 78.7891 563.578 78.6953C563.328 78.5859 563.078 78.5078 562.828 78.4609C562.578 78.3984 562.258 78.3672 561.867 78.3672C561.227 78.3672 560.617 78.5547 560.039 78.9297C559.477 79.3047 559 79.7188 558.609 80.1719C558.219 80.625 558.023 80.875 558.023 80.9219V96.1562C558.023 96.4688 557.891 96.7031 557.625 96.8594C557.359 97 556.945 97.0703 556.383 97.0703H556.219ZM577.969 97.2344C574.828 97.2344 572.43 96.2969 570.773 94.4219C569.133 92.5312 568.312 89.7891 568.312 86.1953C568.312 82.6016 569.148 79.8359 570.82 77.8984C572.492 75.9453 574.875 74.9688 577.969 74.9688C581.031 74.9688 583.375 75.9375 585 77.875C586.625 79.7969 587.438 82.5703 587.438 86.1953C587.438 89.8047 586.633 92.5469 585.023 94.4219C583.43 96.2969 581.078 97.2344 577.969 97.2344ZM577.852 94.2344C579.883 94.2344 581.383 93.5781 582.352 92.2656C583.32 90.9375 583.805 88.8906 583.805 86.125C583.805 83.3438 583.32 81.2891 582.352 79.9609C581.383 78.6328 579.883 77.9688 577.852 77.9688C575.836 77.9688 574.352 78.6328 573.398 79.9609C572.445 81.2734 571.969 83.3281 571.969 86.125C571.969 88.9062 572.438 90.9531 573.375 92.2656C574.328 93.5781 575.82 94.2344 577.852 94.2344ZM599.648 97.2344C597.523 97.2344 595.859 96.6406 594.656 95.4531C593.453 94.25 592.852 92.5938 592.852 90.4844V76.0469C592.852 75.4375 593.414 75.1328 594.539 75.1328H594.703C595.812 75.1328 596.367 75.4375 596.367 76.0469V90.1562C596.367 91.4375 596.734 92.4375 597.469 93.1562C598.219 93.8594 599.266 94.2109 600.609 94.2109C601.547 94.2109 602.484 93.9531 603.422 93.4375C604.359 92.9062 605.172 92.1875 605.859 91.2812V76.0469C605.859 75.4375 606.414 75.1328 607.523 75.1328H607.688C608.812 75.1328 609.375 75.4375 609.375 76.0469V90.8359C609.375 92.6484 609.453 93.9609 609.609 94.7734C609.766 95.5703 609.844 96.0078 609.844 96.0859C609.844 96.4297 609.586 96.6797 609.07 96.8359C608.555 96.9766 608.07 97.0469 607.617 97.0469C607.227 97.0469 606.938 96.8281 606.75 96.3906C606.562 95.9375 606.422 95.4766 606.328 95.0078C606.25 94.5391 606.195 94.2422 606.164 94.1172C605.289 95.1016 604.273 95.8672 603.117 96.4141C601.977 96.9609 600.82 97.2344 599.648 97.2344ZM623.484 105.836C620.828 105.836 618.727 105.422 617.18 104.594C615.633 103.766 614.859 102.461 614.859 100.68C614.859 99.4609 615.211 98.3984 615.914 97.4922C616.617 96.5859 617.531 95.9062 618.656 95.4531L618.703 95.3594C618.156 94.9375 617.734 94.4531 617.438 93.9062C617.156 93.3594 617.016 92.7109 617.016 91.9609C617.016 90.1484 617.797 88.6953 619.359 87.6016C618.188 87.0391 617.297 86.25 616.688 85.2344C616.078 84.2031 615.773 83.0469 615.773 81.7656C615.773 80.4844 616.086 79.3281 616.711 78.2969C617.352 77.2656 618.289 76.4531 619.523 75.8594C620.758 75.2656 622.242 74.9688 623.977 74.9688C624.898 74.9688 625.719 75.0469 626.438 75.2031H634.008C634.305 75.2031 634.516 75.3047 634.641 75.5078C634.781 75.6953 634.852 76.0078 634.852 76.4453V76.9609C634.852 77.3984 634.781 77.7188 634.641 77.9219C634.516 78.1094 634.305 78.2031 634.008 78.2031C632.961 78.2031 631.992 78.1641 631.102 78.0859L631.055 78.1562C631.414 78.6562 631.68 79.2188 631.852 79.8438C632.039 80.4531 632.133 81.0938 632.133 81.7656C632.133 83.0469 631.812 84.2031 631.172 85.2344C630.547 86.2656 629.617 87.0781 628.383 87.6719C627.164 88.2656 625.68 88.5625 623.93 88.5625C622.617 88.6094 621.625 88.8516 620.953 89.2891C620.297 89.7266 619.969 90.4453 619.969 91.4453C619.969 92.1797 620.203 92.7422 620.672 93.1328C621.156 93.5234 621.758 93.7969 622.477 93.9531C623.195 94.1094 624.195 94.2578 625.477 94.3984L626.695 94.5391C627.992 94.7109 629.078 94.9453 629.953 95.2422C630.828 95.5391 631.547 96.0312 632.109 96.7188C632.688 97.4062 632.977 98.3516 632.977 99.5547C632.977 101.57 632.172 103.117 630.562 104.195C628.953 105.289 626.594 105.836 623.484 105.836ZM623.93 85.7969C625.461 85.7969 626.68 85.4844 627.586 84.8594C628.492 84.2344 628.945 83.2109 628.945 81.7891C628.945 79.1016 627.273 77.7578 623.93 77.7578C620.633 77.7578 618.984 79.1016 618.984 81.7891C618.984 83.2109 619.43 84.2344 620.32 84.8594C621.227 85.4844 622.43 85.7969 623.93 85.7969ZM623.93 103C625.867 103 627.305 102.742 628.242 102.227C629.18 101.727 629.648 100.961 629.648 99.9297C629.648 99.2578 629.398 98.7344 628.898 98.3594C628.398 98 627.781 97.7422 627.047 97.5859C626.328 97.4453 625.375 97.3125 624.188 97.1875C623.375 97.0938 622.703 97.0078 622.172 96.9297C621.656 96.8516 621.18 96.7422 620.742 96.6016C618.898 97.3828 617.977 98.5156 617.977 100C617.977 102 619.961 103 623.93 103ZM641.227 97.0703C640.117 97.0703 639.562 96.7656 639.562 96.1562V66.5781C639.562 65.9688 640.117 65.6641 641.227 65.6641H641.391C642.516 65.6641 643.078 65.9688 643.078 66.5781V77.8281C643.891 77 644.844 76.3203 645.938 75.7891C647.031 75.2422 648.195 74.9688 649.43 74.9688C651.18 74.9688 652.719 75.4609 654.047 76.4453C655.391 77.4297 656.062 79.1797 656.062 81.6953V96.1562C656.062 96.7656 655.508 97.0703 654.398 97.0703H654.234C653.109 97.0703 652.547 96.7656 652.547 96.1562V82.0469C652.547 80.7812 652.188 79.7891 651.469 79.0703C650.75 78.3516 649.695 77.9922 648.305 77.9922C647.383 77.9922 646.531 78.2109 645.75 78.6484C644.984 79.0859 644.344 79.5625 643.828 80.0781C643.328 80.5781 643.078 80.8594 643.078 80.9219V96.1562C643.078 96.7656 642.516 97.0703 641.391 97.0703H641.227ZM38.7188 178.07C37.5938 178.07 37.0312 177.766 37.0312 177.156V149.664C37.0312 149.039 37.5938 148.727 38.7188 148.727H39.0469C40.1562 148.727 40.7109 149.039 40.7109 149.664V177.156C40.7109 177.766 40.1562 178.07 39.0469 178.07H38.7188ZM50.0391 178.07C49.4453 178.07 49.0156 178 48.75 177.859C48.4844 177.703 48.3516 177.469 48.3516 177.156V162.531C48.3516 160.719 48.2656 159.414 48.0938 158.617C47.9219 157.805 47.8359 157.359 47.8359 157.281C47.8359 156.938 48.0938 156.695 48.6094 156.555C49.1406 156.398 49.6406 156.32 50.1094 156.32C50.5 156.32 50.7891 156.531 50.9766 156.953C51.1641 157.375 51.2969 157.805 51.375 158.242C51.4688 158.68 51.5312 158.961 51.5625 159.086C52.4375 158.102 53.4453 157.336 54.5859 156.789C55.7422 156.242 56.9062 155.969 58.0781 155.969C60.2031 155.969 61.8594 156.57 63.0469 157.773C64.25 158.961 64.8516 160.602 64.8516 162.695V177.156C64.8516 177.469 64.7188 177.703 64.4531 177.859C64.1875 178 63.7656 178.07 63.1875 178.07H63C62.4375 178.07 62.0234 178 61.7578 177.859C61.4922 177.703 61.3594 177.469 61.3594 177.156V163.047C61.3594 161.766 60.9844 160.773 60.2344 160.07C59.5 159.352 58.4609 158.992 57.1172 158.992C56.1797 158.992 55.2344 159.258 54.2812 159.789C53.3438 160.305 52.5312 161.016 51.8438 161.922V177.156C51.8438 177.469 51.7109 177.703 51.4453 177.859C51.1797 178 50.7656 178.07 50.2031 178.07H50.0391ZM73.2422 178.07C72.6484 178.07 72.2188 178 71.9531 177.859C71.6875 177.703 71.5547 177.469 71.5547 177.156V162.531C71.5547 160.719 71.4688 159.414 71.2969 158.617C71.125 157.805 71.0391 157.359 71.0391 157.281C71.0391 156.938 71.2969 156.695 71.8125 156.555C72.3438 156.398 72.8438 156.32 73.3125 156.32C73.7031 156.32 73.9922 156.531 74.1797 156.953C74.3672 157.375 74.5 157.805 74.5781 158.242C74.6719 158.68 74.7344 158.961 74.7656 159.086C75.6406 158.102 76.6484 157.336 77.7891 156.789C78.9453 156.242 80.1094 155.969 81.2812 155.969C83.4062 155.969 85.0625 156.57 86.25 157.773C87.4531 158.961 88.0547 160.602 88.0547 162.695V177.156C88.0547 177.469 87.9219 177.703 87.6562 177.859C87.3906 178 86.9688 178.07 86.3906 178.07H86.2031C85.6406 178.07 85.2266 178 84.9609 177.859C84.6953 177.703 84.5625 177.469 84.5625 177.156V163.047C84.5625 161.766 84.1875 160.773 83.4375 160.07C82.7031 159.352 81.6641 158.992 80.3203 158.992C79.3828 158.992 78.4375 159.258 77.4844 159.789C76.5469 160.305 75.7344 161.016 75.0469 161.922V177.156C75.0469 177.469 74.9141 177.703 74.6484 177.859C74.3828 178 73.9688 178.07 73.4062 178.07H73.2422ZM103.125 178.234C99.9844 178.234 97.5859 177.297 95.9297 175.422C94.2891 173.531 93.4688 170.789 93.4688 167.195C93.4688 163.602 94.3047 160.836 95.9766 158.898C97.6484 156.945 100.031 155.969 103.125 155.969C106.188 155.969 108.531 156.938 110.156 158.875C111.781 160.797 112.594 163.57 112.594 167.195C112.594 170.805 111.789 173.547 110.18 175.422C108.586 177.297 106.234 178.234 103.125 178.234ZM103.008 175.234C105.039 175.234 106.539 174.578 107.508 173.266C108.477 171.938 108.961 169.891 108.961 167.125C108.961 164.344 108.477 162.289 107.508 160.961C106.539 159.633 105.039 158.969 103.008 158.969C100.992 158.969 99.5078 159.633 98.5547 160.961C97.6016 162.273 97.125 164.328 97.125 167.125C97.125 169.906 97.5938 171.953 98.5312 173.266C99.4844 174.578 100.977 175.234 103.008 175.234ZM124.289 178.07C123.305 178.07 122.742 177.852 122.602 177.414L115.898 157.375C115.805 157.094 115.758 156.914 115.758 156.836C115.758 156.617 115.906 156.445 116.203 156.32C116.5 156.195 116.953 156.133 117.562 156.133H117.773C118.742 156.133 119.297 156.352 119.438 156.789L123.68 170.078C124.023 171.109 124.422 172.516 124.875 174.297L125.133 175.281H125.32L125.602 174.039C125.945 172.398 126.266 171.109 126.562 170.172L130.852 156.789C130.992 156.352 131.562 156.133 132.562 156.133H132.68C133.727 156.133 134.25 156.367 134.25 156.836C134.25 156.992 134.195 157.18 134.086 157.398L127.406 177.414C127.266 177.852 126.703 178.07 125.719 178.07H124.289ZM144.258 178.234C142.133 178.234 140.414 177.711 139.102 176.664C137.789 175.617 137.133 174.062 137.133 172C137.133 169.828 137.797 168.195 139.125 167.102C140.453 165.992 142.07 165.281 143.977 164.969C145.898 164.641 148.227 164.453 150.961 164.406V162.438C150.961 161.391 150.602 160.555 149.883 159.93C149.18 159.289 148.016 158.969 146.391 158.969C145.156 158.969 144.07 159.117 143.133 159.414C142.211 159.695 141.344 160.039 140.531 160.445C140.188 160.617 139.977 160.703 139.898 160.703C139.711 160.703 139.5 160.57 139.266 160.305C139.047 160.023 138.852 159.711 138.68 159.367C138.523 159.023 138.445 158.773 138.445 158.617C138.445 158.258 138.812 157.867 139.547 157.445C140.297 157.023 141.273 156.672 142.477 156.391C143.68 156.109 144.938 155.969 146.25 155.969C148.859 155.969 150.883 156.539 152.32 157.68C153.758 158.82 154.477 160.422 154.477 162.484V171.836C154.477 173.648 154.555 174.961 154.711 175.773C154.883 176.57 154.969 177.008 154.969 177.086C154.969 177.43 154.703 177.68 154.172 177.836C153.656 177.977 153.172 178.047 152.719 178.047C152.344 178.047 152.062 177.836 151.875 177.414C151.703 176.992 151.531 176.383 151.359 175.586L151.266 175.117C150.406 176.07 149.391 176.828 148.219 177.391C147.062 177.953 145.742 178.234 144.258 178.234ZM144.445 175.211C145.82 175.211 146.992 174.961 147.961 174.461C148.93 173.961 149.93 173.25 150.961 172.328V167.406C148.898 167.422 147.203 167.508 145.875 167.664C144.547 167.82 143.383 168.219 142.383 168.859C141.383 169.484 140.883 170.461 140.883 171.789C140.883 172.898 141.18 173.75 141.773 174.344C142.383 174.922 143.273 175.211 144.445 175.211ZM167.672 178.234C166.281 178.234 165.039 177.812 163.945 176.969C162.852 176.125 162.305 174.633 162.305 172.492V159.203H160.219C159.922 159.203 159.703 159.109 159.562 158.922C159.438 158.719 159.375 158.398 159.375 157.961V157.445C159.375 157.008 159.438 156.695 159.562 156.508C159.703 156.305 159.922 156.203 160.219 156.203H162.305L162.797 151.844C162.828 151.234 163.273 150.93 164.133 150.93H164.531C164.969 150.93 165.289 151.008 165.492 151.164C165.695 151.305 165.797 151.531 165.797 151.844V156.203H169.289C169.586 156.203 169.797 156.305 169.922 156.508C170.062 156.695 170.133 157.008 170.133 157.445V157.961C170.133 158.398 170.062 158.719 169.922 158.922C169.797 159.109 169.586 159.203 169.289 159.203H165.797V172.164C165.797 173.305 165.992 174.102 166.383 174.555C166.789 175.008 167.336 175.234 168.023 175.234C168.555 175.234 168.961 175.203 169.242 175.141C169.539 175.078 169.734 175.047 169.828 175.047C170.078 175.047 170.281 175.297 170.438 175.797C170.609 176.297 170.695 176.695 170.695 176.992C170.695 177.82 169.688 178.234 167.672 178.234ZM177.422 150.953C176.312 150.953 175.758 150.648 175.758 150.039V147.578C175.758 146.969 176.312 146.664 177.422 146.664H177.914C179.039 146.664 179.602 146.969 179.602 147.578V150.039C179.602 150.648 179.039 150.953 177.914 150.953H177.422ZM177.586 178.07C176.477 178.07 175.922 177.766 175.922 177.156V157.047C175.922 156.438 176.477 156.133 177.586 156.133H177.75C178.875 156.133 179.438 156.438 179.438 157.047V177.156C179.438 177.766 178.875 178.07 177.75 178.07H177.586ZM195.141 178.234C192 178.234 189.602 177.297 187.945 175.422C186.305 173.531 185.484 170.789 185.484 167.195C185.484 163.602 186.32 160.836 187.992 158.898C189.664 156.945 192.047 155.969 195.141 155.969C198.203 155.969 200.547 156.938 202.172 158.875C203.797 160.797 204.609 163.57 204.609 167.195C204.609 170.805 203.805 173.547 202.195 175.422C200.602 177.297 198.25 178.234 195.141 178.234ZM195.023 175.234C197.055 175.234 198.555 174.578 199.523 173.266C200.492 171.938 200.977 169.891 200.977 167.125C200.977 164.344 200.492 162.289 199.523 160.961C198.555 159.633 197.055 158.969 195.023 158.969C193.008 158.969 191.523 159.633 190.57 160.961C189.617 162.273 189.141 164.328 189.141 167.125C189.141 169.906 189.609 171.953 190.547 173.266C191.5 174.578 192.992 175.234 195.023 175.234ZM212.18 178.07C211.586 178.07 211.156 178 210.891 177.859C210.625 177.703 210.492 177.469 210.492 177.156V162.531C210.492 160.719 210.406 159.414 210.234 158.617C210.062 157.805 209.977 157.359 209.977 157.281C209.977 156.938 210.234 156.695 210.75 156.555C211.281 156.398 211.781 156.32 212.25 156.32C212.641 156.32 212.93 156.531 213.117 156.953C213.305 157.375 213.438 157.805 213.516 158.242C213.609 158.68 213.672 158.961 213.703 159.086C214.578 158.102 215.586 157.336 216.727 156.789C217.883 156.242 219.047 155.969 220.219 155.969C222.344 155.969 224 156.57 225.188 157.773C226.391 158.961 226.992 160.602 226.992 162.695V177.156C226.992 177.469 226.859 177.703 226.594 177.859C226.328 178 225.906 178.07 225.328 178.07H225.141C224.578 178.07 224.164 178 223.898 177.859C223.633 177.703 223.5 177.469 223.5 177.156V163.047C223.5 161.766 223.125 160.773 222.375 160.07C221.641 159.352 220.602 158.992 219.258 158.992C218.32 158.992 217.375 159.258 216.422 159.789C215.484 160.305 214.672 161.016 213.984 161.922V177.156C213.984 177.469 213.852 177.703 213.586 177.859C213.32 178 212.906 178.07 212.344 178.07H212.18ZM245.859 178.07C244.734 178.07 244.172 177.766 244.172 177.156V149.664C244.172 149.039 244.734 148.727 245.859 148.727H246.188C247.297 148.727 247.852 149.039 247.852 149.664V177.156C247.852 177.766 247.297 178.07 246.188 178.07H245.859ZM257.18 178.07C256.586 178.07 256.156 178 255.891 177.859C255.625 177.703 255.492 177.469 255.492 177.156V162.531C255.492 160.719 255.406 159.414 255.234 158.617C255.062 157.805 254.977 157.359 254.977 157.281C254.977 156.938 255.234 156.695 255.75 156.555C256.281 156.398 256.781 156.32 257.25 156.32C257.641 156.32 257.93 156.531 258.117 156.953C258.305 157.375 258.438 157.805 258.516 158.242C258.609 158.68 258.672 158.961 258.703 159.086C259.578 158.102 260.586 157.336 261.727 156.789C262.883 156.242 264.047 155.969 265.219 155.969C267.344 155.969 269 156.57 270.188 157.773C271.391 158.961 271.992 160.602 271.992 162.695V177.156C271.992 177.469 271.859 177.703 271.594 177.859C271.328 178 270.906 178.07 270.328 178.07H270.141C269.578 178.07 269.164 178 268.898 177.859C268.633 177.703 268.5 177.469 268.5 177.156V163.047C268.5 161.766 268.125 160.773 267.375 160.07C266.641 159.352 265.602 158.992 264.258 158.992C263.32 158.992 262.375 159.258 261.422 159.789C260.484 160.305 259.672 161.016 258.984 161.922V177.156C258.984 177.469 258.852 177.703 258.586 177.859C258.32 178 257.906 178.07 257.344 178.07H257.18ZM296.484 178.07C295.906 178.07 295.484 178 295.219 177.859C294.953 177.703 294.82 177.469 294.82 177.156V152.008H286.805C286.508 152.008 286.297 151.906 286.172 151.703C286.047 151.5 285.984 151.188 285.984 150.766V150.086C285.984 149.648 286.047 149.336 286.172 149.148C286.297 148.945 286.508 148.844 286.805 148.844H306.352C306.648 148.844 306.859 148.945 306.984 149.148C307.109 149.336 307.172 149.648 307.172 150.086V150.766C307.172 151.188 307.109 151.5 306.984 151.703C306.859 151.906 306.648 152.008 306.352 152.008H298.5V177.156C298.5 177.766 297.938 178.07 296.812 178.07H296.484ZM319.453 178.234C316 178.234 313.43 177.336 311.742 175.539C310.07 173.727 309.234 170.961 309.234 167.242C309.234 163.555 310.055 160.758 311.695 158.852C313.336 156.93 315.75 155.969 318.938 155.969C321.781 155.969 323.922 156.891 325.359 158.734C326.812 160.578 327.539 163.281 327.539 166.844C327.539 167 327.453 167.219 327.281 167.5C327.125 167.766 326.93 168.008 326.695 168.227C326.477 168.43 326.289 168.531 326.133 168.531H312.984C313.156 170.859 313.75 172.562 314.766 173.641C315.797 174.703 317.344 175.234 319.406 175.234C320.562 175.234 321.555 175.094 322.383 174.812C323.227 174.531 324.039 174.188 324.82 173.781C324.898 173.75 325.016 173.695 325.172 173.617C325.328 173.539 325.438 173.5 325.5 173.5C325.672 173.5 325.867 173.641 326.086 173.922C326.32 174.188 326.516 174.492 326.672 174.836C326.844 175.164 326.93 175.406 326.93 175.562C326.93 175.906 326.586 176.289 325.898 176.711C325.211 177.133 324.289 177.492 323.133 177.789C321.992 178.086 320.766 178.234 319.453 178.234ZM323.812 165.531C323.812 161.156 322.148 158.969 318.82 158.969C315.242 158.969 313.297 161.156 312.984 165.531H323.812ZM341.859 178.234C338.406 178.234 335.828 177.352 334.125 175.586C332.438 173.805 331.594 170.945 331.594 167.008C331.594 163.023 332.539 160.188 334.43 158.5C336.32 156.812 338.672 155.969 341.484 155.969C342.531 155.969 343.539 156.062 344.508 156.25C345.477 156.422 346.258 156.656 346.852 156.953C347.445 157.25 347.742 157.562 347.742 157.891C347.742 158.109 347.664 158.398 347.508 158.758C347.367 159.117 347.188 159.438 346.969 159.719C346.766 159.984 346.578 160.117 346.406 160.117C346.359 160.117 346.289 160.102 346.195 160.07C346.102 160.023 346.016 159.984 345.938 159.953C344.531 159.297 343.016 158.969 341.391 158.969C339.469 158.969 337.984 159.602 336.938 160.867C335.891 162.117 335.367 164.133 335.367 166.914C335.367 168.883 335.578 170.477 336 171.695C336.422 172.898 337.102 173.789 338.039 174.367C338.992 174.945 340.258 175.234 341.836 175.234C343.57 175.234 345.133 174.875 346.523 174.156C346.664 174.125 346.766 174.094 346.828 174.062C346.906 174.016 346.961 173.992 346.992 173.992C347.164 173.992 347.359 174.125 347.578 174.391C347.797 174.656 347.984 174.961 348.141 175.305C348.312 175.648 348.398 175.922 348.398 176.125C348.398 176.453 348.102 176.781 347.508 177.109C346.914 177.438 346.109 177.711 345.094 177.93C344.094 178.133 343.016 178.234 341.859 178.234ZM355.148 178.07C354.039 178.07 353.484 177.766 353.484 177.156V147.578C353.484 146.969 354.039 146.664 355.148 146.664H355.312C356.438 146.664 357 146.969 357 147.578V158.828C357.812 158 358.766 157.32 359.859 156.789C360.953 156.242 362.117 155.969 363.352 155.969C365.102 155.969 366.641 156.461 367.969 157.445C369.312 158.43 369.984 160.18 369.984 162.695V177.156C369.984 177.766 369.43 178.07 368.32 178.07H368.156C367.031 178.07 366.469 177.766 366.469 177.156V163.047C366.469 161.781 366.109 160.789 365.391 160.07C364.672 159.352 363.617 158.992 362.227 158.992C361.305 158.992 360.453 159.211 359.672 159.648C358.906 160.086 358.266 160.562 357.75 161.078C357.25 161.578 357 161.859 357 161.922V177.156C357 177.766 356.438 178.07 355.312 178.07H355.148ZM378.492 178.07C377.898 178.07 377.469 178 377.203 177.859C376.938 177.703 376.805 177.469 376.805 177.156V162.531C376.805 160.719 376.719 159.414 376.547 158.617C376.375 157.805 376.289 157.359 376.289 157.281C376.289 156.938 376.547 156.695 377.062 156.555C377.594 156.398 378.094 156.32 378.562 156.32C378.953 156.32 379.242 156.531 379.43 156.953C379.617 157.375 379.75 157.805 379.828 158.242C379.922 158.68 379.984 158.961 380.016 159.086C380.891 158.102 381.898 157.336 383.039 156.789C384.195 156.242 385.359 155.969 386.531 155.969C388.656 155.969 390.312 156.57 391.5 157.773C392.703 158.961 393.305 160.602 393.305 162.695V177.156C393.305 177.469 393.172 177.703 392.906 177.859C392.641 178 392.219 178.07 391.641 178.07H391.453C390.891 178.07 390.477 178 390.211 177.859C389.945 177.703 389.812 177.469 389.812 177.156V163.047C389.812 161.766 389.438 160.773 388.688 160.07C387.953 159.352 386.914 158.992 385.57 158.992C384.633 158.992 383.688 159.258 382.734 159.789C381.797 160.305 380.984 161.016 380.297 161.922V177.156C380.297 177.469 380.164 177.703 379.898 177.859C379.633 178 379.219 178.07 378.656 178.07H378.492ZM408.375 178.234C405.234 178.234 402.836 177.297 401.18 175.422C399.539 173.531 398.719 170.789 398.719 167.195C398.719 163.602 399.555 160.836 401.227 158.898C402.898 156.945 405.281 155.969 408.375 155.969C411.438 155.969 413.781 156.938 415.406 158.875C417.031 160.797 417.844 163.57 417.844 167.195C417.844 170.805 417.039 173.547 415.43 175.422C413.836 177.297 411.484 178.234 408.375 178.234ZM408.258 175.234C410.289 175.234 411.789 174.578 412.758 173.266C413.727 171.938 414.211 169.891 414.211 167.125C414.211 164.344 413.727 162.289 412.758 160.961C411.789 159.633 410.289 158.969 408.258 158.969C406.242 158.969 404.758 159.633 403.805 160.961C402.852 162.273 402.375 164.328 402.375 167.125C402.375 169.906 402.844 171.953 403.781 173.266C404.734 174.578 406.227 175.234 408.258 175.234ZM428.93 178.234C427.539 178.234 426.297 177.812 425.203 176.969C424.109 176.125 423.562 174.633 423.562 172.492V147.578C423.562 146.969 424.117 146.664 425.227 146.664H425.414C426.508 146.664 427.055 146.969 427.055 147.578V172.164C427.055 173.305 427.258 174.102 427.664 174.555C428.07 175.008 428.617 175.234 429.305 175.234C429.82 175.234 430.227 175.203 430.523 175.141C430.82 175.078 431.016 175.047 431.109 175.047C431.359 175.047 431.562 175.297 431.719 175.797C431.891 176.297 431.977 176.695 431.977 176.992C431.977 177.82 430.961 178.234 428.93 178.234ZM444.516 178.234C441.375 178.234 438.977 177.297 437.32 175.422C435.68 173.531 434.859 170.789 434.859 167.195C434.859 163.602 435.695 160.836 437.367 158.898C439.039 156.945 441.422 155.969 444.516 155.969C447.578 155.969 449.922 156.938 451.547 158.875C453.172 160.797 453.984 163.57 453.984 167.195C453.984 170.805 453.18 173.547 451.57 175.422C449.977 177.297 447.625 178.234 444.516 178.234ZM444.398 175.234C446.43 175.234 447.93 174.578 448.898 173.266C449.867 171.938 450.352 169.891 450.352 167.125C450.352 164.344 449.867 162.289 448.898 160.961C447.93 159.633 446.43 158.969 444.398 158.969C442.383 158.969 440.898 159.633 439.945 160.961C438.992 162.273 438.516 164.328 438.516 167.125C438.516 169.906 438.984 171.953 439.922 173.266C440.875 174.578 442.367 175.234 444.398 175.234ZM466.828 186.836C464.172 186.836 462.07 186.422 460.523 185.594C458.977 184.766 458.203 183.461 458.203 181.68C458.203 180.461 458.555 179.398 459.258 178.492C459.961 177.586 460.875 176.906 462 176.453L462.047 176.359C461.5 175.938 461.078 175.453 460.781 174.906C460.5 174.359 460.359 173.711 460.359 172.961C460.359 171.148 461.141 169.695 462.703 168.602C461.531 168.039 460.641 167.25 460.031 166.234C459.422 165.203 459.117 164.047 459.117 162.766C459.117 161.484 459.43 160.328 460.055 159.297C460.695 158.266 461.633 157.453 462.867 156.859C464.102 156.266 465.586 155.969 467.32 155.969C468.242 155.969 469.062 156.047 469.781 156.203H477.352C477.648 156.203 477.859 156.305 477.984 156.508C478.125 156.695 478.195 157.008 478.195 157.445V157.961C478.195 158.398 478.125 158.719 477.984 158.922C477.859 159.109 477.648 159.203 477.352 159.203C476.305 159.203 475.336 159.164 474.445 159.086L474.398 159.156C474.758 159.656 475.023 160.219 475.195 160.844C475.383 161.453 475.477 162.094 475.477 162.766C475.477 164.047 475.156 165.203 474.516 166.234C473.891 167.266 472.961 168.078 471.727 168.672C470.508 169.266 469.023 169.562 467.273 169.562C465.961 169.609 464.969 169.852 464.297 170.289C463.641 170.727 463.312 171.445 463.312 172.445C463.312 173.18 463.547 173.742 464.016 174.133C464.5 174.523 465.102 174.797 465.82 174.953C466.539 175.109 467.539 175.258 468.82 175.398L470.039 175.539C471.336 175.711 472.422 175.945 473.297 176.242C474.172 176.539 474.891 177.031 475.453 177.719C476.031 178.406 476.32 179.352 476.32 180.555C476.32 182.57 475.516 184.117 473.906 185.195C472.297 186.289 469.938 186.836 466.828 186.836ZM467.273 166.797C468.805 166.797 470.023 166.484 470.93 165.859C471.836 165.234 472.289 164.211 472.289 162.789C472.289 160.102 470.617 158.758 467.273 158.758C463.977 158.758 462.328 160.102 462.328 162.789C462.328 164.211 462.773 165.234 463.664 165.859C464.57 166.484 465.773 166.797 467.273 166.797ZM467.273 184C469.211 184 470.648 183.742 471.586 183.227C472.523 182.727 472.992 181.961 472.992 180.93C472.992 180.258 472.742 179.734 472.242 179.359C471.742 179 471.125 178.742 470.391 178.586C469.672 178.445 468.719 178.312 467.531 178.188C466.719 178.094 466.047 178.008 465.516 177.93C465 177.852 464.523 177.742 464.086 177.602C462.242 178.383 461.32 179.516 461.32 181C461.32 183 463.305 184 467.273 184ZM484.898 186.672C483.992 186.672 483.539 186.445 483.539 185.992C483.539 185.883 483.602 185.656 483.727 185.312L487.219 176.828L479.93 157.375C479.914 157.312 479.891 157.227 479.859 157.117C479.828 156.992 479.812 156.898 479.812 156.836C479.812 156.617 479.961 156.445 480.258 156.32C480.555 156.195 481.008 156.133 481.617 156.133H481.945C482.883 156.133 483.438 156.352 483.609 156.789L487.852 168.086C488.227 169.07 488.672 170.469 489.188 172.281H489.258L489.75 170.734C489.828 170.5 489.961 170.102 490.148 169.539C490.336 168.961 490.508 168.477 490.664 168.086L494.812 156.789C494.953 156.352 495.523 156.133 496.523 156.133H496.664C497.758 156.133 498.305 156.367 498.305 156.836C498.305 156.945 498.266 157.133 498.188 157.398L487.5 185.805C487.25 186.383 486.594 186.672 485.531 186.672H484.898ZM518.32 178.234C516.195 178.234 514.477 177.711 513.164 176.664C511.852 175.617 511.195 174.062 511.195 172C511.195 169.828 511.859 168.195 513.188 167.102C514.516 165.992 516.133 165.281 518.039 164.969C519.961 164.641 522.289 164.453 525.023 164.406V162.438C525.023 161.391 524.664 160.555 523.945 159.93C523.242 159.289 522.078 158.969 520.453 158.969C519.219 158.969 518.133 159.117 517.195 159.414C516.273 159.695 515.406 160.039 514.594 160.445C514.25 160.617 514.039 160.703 513.961 160.703C513.773 160.703 513.562 160.57 513.328 160.305C513.109 160.023 512.914 159.711 512.742 159.367C512.586 159.023 512.508 158.773 512.508 158.617C512.508 158.258 512.875 157.867 513.609 157.445C514.359 157.023 515.336 156.672 516.539 156.391C517.742 156.109 519 155.969 520.312 155.969C522.922 155.969 524.945 156.539 526.383 157.68C527.82 158.82 528.539 160.422 528.539 162.484V171.836C528.539 173.648 528.617 174.961 528.773 175.773C528.945 176.57 529.031 177.008 529.031 177.086C529.031 177.43 528.766 177.68 528.234 177.836C527.719 177.977 527.234 178.047 526.781 178.047C526.406 178.047 526.125 177.836 525.938 177.414C525.766 176.992 525.594 176.383 525.422 175.586L525.328 175.117C524.469 176.07 523.453 176.828 522.281 177.391C521.125 177.953 519.805 178.234 518.32 178.234ZM518.508 175.211C519.883 175.211 521.055 174.961 522.023 174.461C522.992 173.961 523.992 173.25 525.023 172.328V167.406C522.961 167.422 521.266 167.508 519.938 167.664C518.609 167.82 517.445 168.219 516.445 168.859C515.445 169.484 514.945 170.461 514.945 171.789C514.945 172.898 515.242 173.75 515.836 174.344C516.445 174.922 517.336 175.211 518.508 175.211ZM537.164 178.07C536.57 178.07 536.141 178 535.875 177.859C535.609 177.703 535.477 177.469 535.477 177.156V162.531C535.477 160.719 535.391 159.414 535.219 158.617C535.047 157.805 534.961 157.359 534.961 157.281C534.961 156.938 535.219 156.695 535.734 156.555C536.266 156.398 536.766 156.32 537.234 156.32C537.625 156.32 537.914 156.531 538.102 156.953C538.289 157.375 538.422 157.805 538.5 158.242C538.594 158.68 538.656 158.961 538.688 159.086C539.562 158.102 540.57 157.336 541.711 156.789C542.867 156.242 544.031 155.969 545.203 155.969C547.328 155.969 548.984 156.57 550.172 157.773C551.375 158.961 551.977 160.602 551.977 162.695V177.156C551.977 177.469 551.844 177.703 551.578 177.859C551.312 178 550.891 178.07 550.312 178.07H550.125C549.562 178.07 549.148 178 548.883 177.859C548.617 177.703 548.484 177.469 548.484 177.156V163.047C548.484 161.766 548.109 160.773 547.359 160.07C546.625 159.352 545.586 158.992 544.242 158.992C543.305 158.992 542.359 159.258 541.406 159.789C540.469 160.305 539.656 161.016 538.969 161.922V177.156C538.969 177.469 538.836 177.703 538.57 177.859C538.305 178 537.891 178.07 537.328 178.07H537.164ZM565.336 178.234C563.711 178.234 562.289 177.766 561.07 176.828C559.852 175.875 558.906 174.555 558.234 172.867C557.578 171.18 557.25 169.266 557.25 167.125C557.25 164.766 557.602 162.75 558.305 161.078C559.023 159.391 560.023 158.117 561.305 157.258C562.586 156.398 564.062 155.969 565.734 155.969C566.938 155.969 568 156.148 568.922 156.508C569.859 156.867 570.781 157.391 571.688 158.078V147.578C571.688 146.969 572.234 146.664 573.328 146.664H573.516C574.625 146.664 575.18 146.969 575.18 147.578V171.836C575.18 173.648 575.266 174.961 575.438 175.773C575.609 176.57 575.695 177.008 575.695 177.086C575.695 177.43 575.43 177.68 574.898 177.836C574.383 177.977 573.898 178.047 573.445 178.047C573.133 178.047 572.883 177.898 572.695 177.602C572.508 177.305 572.375 177.008 572.297 176.711C572.234 176.398 572.125 175.867 571.969 175.117C569.984 177.195 567.773 178.234 565.336 178.234ZM566.062 175.211C566.984 175.211 567.938 174.961 568.922 174.461C569.922 173.961 570.844 173.25 571.688 172.328V160.914C570.188 159.664 568.477 159.039 566.555 159.039C564.695 159.086 563.289 159.766 562.336 161.078C561.398 162.391 560.93 164.297 560.93 166.797C560.93 169.484 561.367 171.562 562.242 173.031C563.133 174.484 564.406 175.211 566.062 175.211ZM594.422 178.07C593.297 178.07 592.734 177.766 592.734 177.156V150.086C592.734 149.648 592.836 149.336 593.039 149.148C593.242 148.945 593.562 148.844 594 148.844H601.008C604.336 148.844 606.836 149.43 608.508 150.602C610.195 151.773 611.039 153.641 611.039 156.203C611.039 157.938 610.617 159.398 609.773 160.586C608.945 161.758 607.773 162.641 606.258 163.234V163.398C607.07 163.68 607.734 164.227 608.25 165.039C608.781 165.836 609.367 167.023 610.008 168.602L613.266 176.828C613.344 177.109 613.383 177.305 613.383 177.414C613.383 177.852 612.797 178.07 611.625 178.07H611.203C610.781 178.07 610.414 178.016 610.102 177.906C609.805 177.781 609.617 177.617 609.539 177.414L606.375 169.234C605.969 168.172 605.492 167.344 604.945 166.75C604.398 166.156 603.75 165.742 603 165.508C602.25 165.273 601.305 165.156 600.164 165.156H596.414V177.156C596.414 177.766 595.859 178.07 594.75 178.07H594.422ZM601.898 161.992C602.883 161.992 603.781 161.758 604.594 161.289C605.422 160.82 606.07 160.195 606.539 159.414C607.023 158.617 607.266 157.773 607.266 156.883C607.266 155.242 606.766 154.023 605.766 153.227C604.766 152.414 603.383 152.008 601.617 152.008H596.414V161.992H601.898ZM626.672 178.234C623.219 178.234 620.648 177.336 618.961 175.539C617.289 173.727 616.453 170.961 616.453 167.242C616.453 163.555 617.273 160.758 618.914 158.852C620.555 156.93 622.969 155.969 626.156 155.969C629 155.969 631.141 156.891 632.578 158.734C634.031 160.578 634.758 163.281 634.758 166.844C634.758 167 634.672 167.219 634.5 167.5C634.344 167.766 634.148 168.008 633.914 168.227C633.695 168.43 633.508 168.531 633.352 168.531H620.203C620.375 170.859 620.969 172.562 621.984 173.641C623.016 174.703 624.562 175.234 626.625 175.234C627.781 175.234 628.773 175.094 629.602 174.812C630.445 174.531 631.258 174.188 632.039 173.781C632.117 173.75 632.234 173.695 632.391 173.617C632.547 173.539 632.656 173.5 632.719 173.5C632.891 173.5 633.086 173.641 633.305 173.922C633.539 174.188 633.734 174.492 633.891 174.836C634.062 175.164 634.148 175.406 634.148 175.562C634.148 175.906 633.805 176.289 633.117 176.711C632.43 177.133 631.508 177.492 630.352 177.789C629.211 178.086 627.984 178.234 626.672 178.234ZM631.031 165.531C631.031 161.156 629.367 158.969 626.039 158.969C622.461 158.969 620.516 161.156 620.203 165.531H631.031ZM647.203 186.836C644.547 186.836 642.445 186.422 640.898 185.594C639.352 184.766 638.578 183.461 638.578 181.68C638.578 180.461 638.93 179.398 639.633 178.492C640.336 177.586 641.25 176.906 642.375 176.453L642.422 176.359C641.875 175.938 641.453 175.453 641.156 174.906C640.875 174.359 640.734 173.711 640.734 172.961C640.734 171.148 641.516 169.695 643.078 168.602C641.906 168.039 641.016 167.25 640.406 166.234C639.797 165.203 639.492 164.047 639.492 162.766C639.492 161.484 639.805 160.328 640.43 159.297C641.07 158.266 642.008 157.453 643.242 156.859C644.477 156.266 645.961 155.969 647.695 155.969C648.617 155.969 649.438 156.047 650.156 156.203H657.727C658.023 156.203 658.234 156.305 658.359 156.508C658.5 156.695 658.57 157.008 658.57 157.445V157.961C658.57 158.398 658.5 158.719 658.359 158.922C658.234 159.109 658.023 159.203 657.727 159.203C656.68 159.203 655.711 159.164 654.82 159.086L654.773 159.156C655.133 159.656 655.398 160.219 655.57 160.844C655.758 161.453 655.852 162.094 655.852 162.766C655.852 164.047 655.531 165.203 654.891 166.234C654.266 167.266 653.336 168.078 652.102 168.672C650.883 169.266 649.398 169.562 647.648 169.562C646.336 169.609 645.344 169.852 644.672 170.289C644.016 170.727 643.688 171.445 643.688 172.445C643.688 173.18 643.922 173.742 644.391 174.133C644.875 174.523 645.477 174.797 646.195 174.953C646.914 175.109 647.914 175.258 649.195 175.398L650.414 175.539C651.711 175.711 652.797 175.945 653.672 176.242C654.547 176.539 655.266 177.031 655.828 177.719C656.406 178.406 656.695 179.352 656.695 180.555C656.695 182.57 655.891 184.117 654.281 185.195C652.672 186.289 650.312 186.836 647.203 186.836ZM647.648 166.797C649.18 166.797 650.398 166.484 651.305 165.859C652.211 165.234 652.664 164.211 652.664 162.789C652.664 160.102 650.992 158.758 647.648 158.758C644.352 158.758 642.703 160.102 642.703 162.789C642.703 164.211 643.148 165.234 644.039 165.859C644.945 166.484 646.148 166.797 647.648 166.797ZM647.648 184C649.586 184 651.023 183.742 651.961 183.227C652.898 182.727 653.367 181.961 653.367 180.93C653.367 180.258 653.117 179.734 652.617 179.359C652.117 179 651.5 178.742 650.766 178.586C650.047 178.445 649.094 178.312 647.906 178.188C647.094 178.094 646.422 178.008 645.891 177.93C645.375 177.852 644.898 177.742 644.461 177.602C642.617 178.383 641.695 179.516 641.695 181C641.695 183 643.68 184 647.648 184ZM669.352 178.234C667.227 178.234 665.562 177.641 664.359 176.453C663.156 175.25 662.555 173.594 662.555 171.484V157.047C662.555 156.438 663.117 156.133 664.242 156.133H664.406C665.516 156.133 666.07 156.438 666.07 157.047V171.156C666.07 172.438 666.438 173.438 667.172 174.156C667.922 174.859 668.969 175.211 670.312 175.211C671.25 175.211 672.188 174.953 673.125 174.438C674.062 173.906 674.875 173.188 675.562 172.281V157.047C675.562 156.438 676.117 156.133 677.227 156.133H677.391C678.516 156.133 679.078 156.438 679.078 157.047V171.836C679.078 173.648 679.156 174.961 679.312 175.773C679.469 176.57 679.547 177.008 679.547 177.086C679.547 177.43 679.289 177.68 678.773 177.836C678.258 177.977 677.773 178.047 677.32 178.047C676.93 178.047 676.641 177.828 676.453 177.391C676.266 176.938 676.125 176.477 676.031 176.008C675.953 175.539 675.898 175.242 675.867 175.117C674.992 176.102 673.977 176.867 672.82 177.414C671.68 177.961 670.523 178.234 669.352 178.234ZM691.43 178.234C690.039 178.234 688.797 177.812 687.703 176.969C686.609 176.125 686.062 174.633 686.062 172.492V147.578C686.062 146.969 686.617 146.664 687.727 146.664H687.914C689.008 146.664 689.555 146.969 689.555 147.578V172.164C689.555 173.305 689.758 174.102 690.164 174.555C690.57 175.008 691.117 175.234 691.805 175.234C692.32 175.234 692.727 175.203 693.023 175.141C693.32 175.078 693.516 175.047 693.609 175.047C693.859 175.047 694.062 175.297 694.219 175.797C694.391 176.297 694.477 176.695 694.477 176.992C694.477 177.82 693.461 178.234 691.43 178.234ZM704.227 178.234C702.102 178.234 700.383 177.711 699.07 176.664C697.758 175.617 697.102 174.062 697.102 172C697.102 169.828 697.766 168.195 699.094 167.102C700.422 165.992 702.039 165.281 703.945 164.969C705.867 164.641 708.195 164.453 710.93 164.406V162.438C710.93 161.391 710.57 160.555 709.852 159.93C709.148 159.289 707.984 158.969 706.359 158.969C705.125 158.969 704.039 159.117 703.102 159.414C702.18 159.695 701.312 160.039 700.5 160.445C700.156 160.617 699.945 160.703 699.867 160.703C699.68 160.703 699.469 160.57 699.234 160.305C699.016 160.023 698.82 159.711 698.648 159.367C698.492 159.023 698.414 158.773 698.414 158.617C698.414 158.258 698.781 157.867 699.516 157.445C700.266 157.023 701.242 156.672 702.445 156.391C703.648 156.109 704.906 155.969 706.219 155.969C708.828 155.969 710.852 156.539 712.289 157.68C713.727 158.82 714.445 160.422 714.445 162.484V171.836C714.445 173.648 714.523 174.961 714.68 175.773C714.852 176.57 714.938 177.008 714.938 177.086C714.938 177.43 714.672 177.68 714.141 177.836C713.625 177.977 713.141 178.047 712.688 178.047C712.312 178.047 712.031 177.836 711.844 177.414C711.672 176.992 711.5 176.383 711.328 175.586L711.234 175.117C710.375 176.07 709.359 176.828 708.188 177.391C707.031 177.953 705.711 178.234 704.227 178.234ZM704.414 175.211C705.789 175.211 706.961 174.961 707.93 174.461C708.898 173.961 709.898 173.25 710.93 172.328V167.406C708.867 167.422 707.172 167.508 705.844 167.664C704.516 167.82 703.352 168.219 702.352 168.859C701.352 169.484 700.852 170.461 700.852 171.789C700.852 172.898 701.148 173.75 701.742 174.344C702.352 174.922 703.242 175.211 704.414 175.211ZM727.641 178.234C726.25 178.234 725.008 177.812 723.914 176.969C722.82 176.125 722.273 174.633 722.273 172.492V159.203H720.188C719.891 159.203 719.672 159.109 719.531 158.922C719.406 158.719 719.344 158.398 719.344 157.961V157.445C719.344 157.008 719.406 156.695 719.531 156.508C719.672 156.305 719.891 156.203 720.188 156.203H722.273L722.766 151.844C722.797 151.234 723.242 150.93 724.102 150.93H724.5C724.938 150.93 725.258 151.008 725.461 151.164C725.664 151.305 725.766 151.531 725.766 151.844V156.203H729.258C729.555 156.203 729.766 156.305 729.891 156.508C730.031 156.695 730.102 157.008 730.102 157.445V157.961C730.102 158.398 730.031 158.719 729.891 158.922C729.766 159.109 729.555 159.203 729.258 159.203H725.766V172.164C725.766 173.305 725.961 174.102 726.352 174.555C726.758 175.008 727.305 175.234 727.992 175.234C728.523 175.234 728.93 175.203 729.211 175.141C729.508 175.078 729.703 175.047 729.797 175.047C730.047 175.047 730.25 175.297 730.406 175.797C730.578 176.297 730.664 176.695 730.664 176.992C730.664 177.82 729.656 178.234 727.641 178.234ZM744.047 178.234C740.906 178.234 738.508 177.297 736.852 175.422C735.211 173.531 734.391 170.789 734.391 167.195C734.391 163.602 735.227 160.836 736.898 158.898C738.57 156.945 740.953 155.969 744.047 155.969C747.109 155.969 749.453 156.938 751.078 158.875C752.703 160.797 753.516 163.57 753.516 167.195C753.516 170.805 752.711 173.547 751.102 175.422C749.508 177.297 747.156 178.234 744.047 178.234ZM743.93 175.234C745.961 175.234 747.461 174.578 748.43 173.266C749.398 171.938 749.883 169.891 749.883 167.125C749.883 164.344 749.398 162.289 748.43 160.961C747.461 159.633 745.961 158.969 743.93 158.969C741.914 158.969 740.43 159.633 739.477 160.961C738.523 162.273 738.047 164.328 738.047 167.125C738.047 169.906 738.516 171.953 739.453 173.266C740.406 174.578 741.898 175.234 743.93 175.234ZM761.25 178.07C760.656 178.07 760.227 178 759.961 177.859C759.695 177.703 759.562 177.469 759.562 177.156V162.531C759.562 160.719 759.477 159.414 759.305 158.617C759.133 157.805 759.047 157.359 759.047 157.281C759.047 156.938 759.305 156.695 759.82 156.555C760.352 156.398 760.852 156.32 761.32 156.32C761.695 156.32 761.977 156.523 762.164 156.93C762.352 157.32 762.516 157.875 762.656 158.594L762.773 159.086C764.258 157.008 765.867 155.969 767.602 155.969C768.398 155.969 769 156.117 769.406 156.414C769.812 156.695 770.016 157.078 770.016 157.562C770.016 158.031 769.93 158.531 769.758 159.062C769.602 159.578 769.414 159.836 769.195 159.836C769.086 159.836 768.891 159.789 768.609 159.695C768.359 159.586 768.109 159.508 767.859 159.461C767.609 159.398 767.289 159.367 766.898 159.367C766.258 159.367 765.648 159.555 765.07 159.93C764.508 160.305 764.031 160.719 763.641 161.172C763.25 161.625 763.055 161.875 763.055 161.922V177.156C763.055 177.469 762.922 177.703 762.656 177.859C762.391 178 761.977 178.07 761.414 178.07H761.25ZM776.883 186.672C775.977 186.672 775.523 186.445 775.523 185.992C775.523 185.883 775.586 185.656 775.711 185.312L779.203 176.828L771.914 157.375C771.898 157.312 771.875 157.227 771.844 157.117C771.812 156.992 771.797 156.898 771.797 156.836C771.797 156.617 771.945 156.445 772.242 156.32C772.539 156.195 772.992 156.133 773.602 156.133H773.93C774.867 156.133 775.422 156.352 775.594 156.789L779.836 168.086C780.211 169.07 780.656 170.469 781.172 172.281H781.242L781.734 170.734C781.812 170.5 781.945 170.102 782.133 169.539C782.32 168.961 782.492 168.477 782.648 168.086L786.797 156.789C786.938 156.352 787.508 156.133 788.508 156.133H788.648C789.742 156.133 790.289 156.367 790.289 156.836C790.289 156.945 790.25 157.133 790.172 157.398L779.484 185.805C779.234 186.383 778.578 186.672 777.516 186.672H776.883ZM48.7969 259.234C44.2344 259.234 40.8594 258.031 38.6719 255.625C36.4844 253.219 35.3906 249.477 35.3906 244.398C35.3906 234.508 39.8828 229.562 48.8672 229.562C50.1797 229.562 51.4531 229.703 52.6875 229.984C53.9219 230.25 54.9219 230.586 55.6875 230.992C56.4531 231.398 56.8359 231.789 56.8359 232.164C56.8359 232.398 56.75 232.711 56.5781 233.102C56.4219 233.492 56.2344 233.836 56.0156 234.133C55.7969 234.43 55.6016 234.578 55.4297 234.578C55.3516 234.578 55.1328 234.477 54.7734 234.273C53.9609 233.836 53.1094 233.469 52.2188 233.172C51.3281 232.875 50.2422 232.727 48.9609 232.727C45.6016 232.727 43.125 233.664 41.5312 235.539C39.9531 237.398 39.1641 240.367 39.1641 244.445C39.1641 248.43 39.9453 251.367 41.5078 253.258C43.0859 255.133 45.5156 256.07 48.7969 256.07C50.1719 256.07 51.3516 255.906 52.3359 255.578C53.3203 255.25 54.2656 254.844 55.1719 254.359C55.6094 254.125 55.875 254.008 55.9688 254.008C56.1406 254.008 56.3359 254.156 56.5547 254.453C56.7891 254.75 56.9922 255.086 57.1641 255.461C57.3359 255.82 57.4219 256.078 57.4219 256.234C57.4219 256.625 57.0234 257.062 56.2266 257.547C55.4453 258.016 54.3906 258.414 53.0625 258.742C51.75 259.07 50.3281 259.234 48.7969 259.234ZM70.7812 259.234C67.6406 259.234 65.2422 258.297 63.5859 256.422C61.9453 254.531 61.125 251.789 61.125 248.195C61.125 244.602 61.9609 241.836 63.6328 239.898C65.3047 237.945 67.6875 236.969 70.7812 236.969C73.8438 236.969 76.1875 237.938 77.8125 239.875C79.4375 241.797 80.25 244.57 80.25 248.195C80.25 251.805 79.4453 254.547 77.8359 256.422C76.2422 258.297 73.8906 259.234 70.7812 259.234ZM70.6641 256.234C72.6953 256.234 74.1953 255.578 75.1641 254.266C76.1328 252.938 76.6172 250.891 76.6172 248.125C76.6172 245.344 76.1328 243.289 75.1641 241.961C74.1953 240.633 72.6953 239.969 70.6641 239.969C68.6484 239.969 67.1641 240.633 66.2109 241.961C65.2578 243.273 64.7812 245.328 64.7812 248.125C64.7812 250.906 65.25 252.953 66.1875 254.266C67.1406 255.578 68.6328 256.234 70.6641 256.234ZM108.211 236.969C109.945 236.969 111.469 237.461 112.781 238.445C114.094 239.43 114.75 241.18 114.75 243.695V258.156C114.75 258.469 114.617 258.703 114.352 258.859C114.086 259 113.664 259.07 113.086 259.07H112.945C112.352 259.07 111.922 259 111.656 258.859C111.391 258.703 111.258 258.469 111.258 258.156V244.047C111.258 242.781 110.914 241.789 110.227 241.07C109.555 240.352 108.562 239.992 107.25 239.992C106.156 239.992 105.164 240.312 104.273 240.953C103.398 241.578 102.688 242.234 102.141 242.922C102.172 243.297 102.188 243.578 102.188 243.766V258.156C102.188 258.766 101.625 259.07 100.5 259.07H100.336C99.2266 259.07 98.6719 258.766 98.6719 258.156V244.047C98.6719 242.781 98.3281 241.789 97.6406 241.07C96.9688 240.352 95.9766 239.992 94.6641 239.992C93.7578 239.992 92.9297 240.211 92.1797 240.648C91.4297 241.07 90.8047 241.531 90.3047 242.031C89.8203 242.531 89.5781 242.812 89.5781 242.875V258.156C89.5781 258.469 89.4453 258.703 89.1797 258.859C88.9297 259 88.5156 259.07 87.9375 259.07H87.75C87.1719 259.07 86.75 259 86.4844 258.859C86.2344 258.703 86.1094 258.469 86.1094 258.156V243.531C86.1094 241.719 86.0234 240.414 85.8516 239.617C85.6797 238.805 85.5938 238.359 85.5938 238.281C85.5938 237.938 85.8516 237.695 86.3672 237.555C86.8984 237.398 87.3906 237.32 87.8438 237.32C88.2344 237.32 88.5234 237.531 88.7109 237.953C88.8984 238.375 89.0312 238.805 89.1094 239.242C89.2031 239.68 89.2656 239.961 89.2969 240.086C90.0625 239.195 91 238.453 92.1094 237.859C93.2188 237.266 94.3906 236.969 95.625 236.969C96.8906 236.969 98.0703 237.227 99.1641 237.742C100.258 238.242 101.062 239.133 101.578 240.414C102.438 239.398 103.445 238.57 104.602 237.93C105.758 237.289 106.961 236.969 108.211 236.969ZM123.164 267.672C122.039 267.672 121.477 267.367 121.477 266.758V243.531C121.477 241.719 121.391 240.414 121.219 239.617C121.047 238.805 120.961 238.359 120.961 238.281C120.961 237.938 121.219 237.695 121.734 237.555C122.266 237.398 122.766 237.32 123.234 237.32C123.625 237.32 123.914 237.531 124.102 237.953C124.289 238.375 124.422 238.805 124.5 239.242C124.594 239.68 124.656 239.961 124.688 240.086C126.672 238.008 128.883 236.969 131.32 236.969C132.992 236.969 134.438 237.445 135.656 238.398C136.875 239.352 137.805 240.672 138.445 242.359C139.086 244.047 139.406 245.969 139.406 248.125C139.406 250.469 139.047 252.477 138.328 254.148C137.625 255.82 136.633 257.086 135.352 257.945C134.07 258.805 132.594 259.234 130.922 259.234C129.719 259.234 128.648 259.055 127.711 258.695C126.789 258.336 125.875 257.812 124.969 257.125V266.758C124.969 267.367 124.422 267.672 123.328 267.672H123.164ZM130.125 256.164C131.984 256.117 133.383 255.438 134.32 254.125C135.258 252.812 135.727 250.906 135.727 248.406C135.727 245.719 135.281 243.648 134.391 242.195C133.516 240.727 132.25 239.992 130.594 239.992C129.672 239.992 128.711 240.242 127.711 240.742C126.727 241.242 125.812 241.953 124.969 242.875V254.289C126.5 255.539 128.219 256.164 130.125 256.164ZM150.586 259.234C149.195 259.234 147.953 258.812 146.859 257.969C145.766 257.125 145.219 255.633 145.219 253.492V228.578C145.219 227.969 145.773 227.664 146.883 227.664H147.07C148.164 227.664 148.711 227.969 148.711 228.578V253.164C148.711 254.305 148.914 255.102 149.32 255.555C149.727 256.008 150.273 256.234 150.961 256.234C151.477 256.234 151.883 256.203 152.18 256.141C152.477 256.078 152.672 256.047 152.766 256.047C153.016 256.047 153.219 256.297 153.375 256.797C153.547 257.297 153.633 257.695 153.633 257.992C153.633 258.82 152.617 259.234 150.586 259.234ZM159.516 231.953C158.406 231.953 157.852 231.648 157.852 231.039V228.578C157.852 227.969 158.406 227.664 159.516 227.664H160.008C161.133 227.664 161.695 227.969 161.695 228.578V231.039C161.695 231.648 161.133 231.953 160.008 231.953H159.516ZM159.68 259.07C158.57 259.07 158.016 258.766 158.016 258.156V238.047C158.016 237.438 158.57 237.133 159.68 237.133H159.844C160.969 237.133 161.531 237.438 161.531 238.047V258.156C161.531 258.766 160.969 259.07 159.844 259.07H159.68ZM174.445 259.234C172.32 259.234 170.602 258.711 169.289 257.664C167.977 256.617 167.32 255.062 167.32 253C167.32 250.828 167.984 249.195 169.312 248.102C170.641 246.992 172.258 246.281 174.164 245.969C176.086 245.641 178.414 245.453 181.148 245.406V243.438C181.148 242.391 180.789 241.555 180.07 240.93C179.367 240.289 178.203 239.969 176.578 239.969C175.344 239.969 174.258 240.117 173.32 240.414C172.398 240.695 171.531 241.039 170.719 241.445C170.375 241.617 170.164 241.703 170.086 241.703C169.898 241.703 169.688 241.57 169.453 241.305C169.234 241.023 169.039 240.711 168.867 240.367C168.711 240.023 168.633 239.773 168.633 239.617C168.633 239.258 169 238.867 169.734 238.445C170.484 238.023 171.461 237.672 172.664 237.391C173.867 237.109 175.125 236.969 176.438 236.969C179.047 236.969 181.07 237.539 182.508 238.68C183.945 239.82 184.664 241.422 184.664 243.484V252.836C184.664 254.648 184.742 255.961 184.898 256.773C185.07 257.57 185.156 258.008 185.156 258.086C185.156 258.43 184.891 258.68 184.359 258.836C183.844 258.977 183.359 259.047 182.906 259.047C182.531 259.047 182.25 258.836 182.062 258.414C181.891 257.992 181.719 257.383 181.547 256.586L181.453 256.117C180.594 257.07 179.578 257.828 178.406 258.391C177.25 258.953 175.93 259.234 174.445 259.234ZM174.633 256.211C176.008 256.211 177.18 255.961 178.148 255.461C179.117 254.961 180.117 254.25 181.148 253.328V248.406C179.086 248.422 177.391 248.508 176.062 248.664C174.734 248.82 173.57 249.219 172.57 249.859C171.57 250.484 171.07 251.461 171.07 252.789C171.07 253.898 171.367 254.75 171.961 255.344C172.57 255.922 173.461 256.211 174.633 256.211ZM193.289 259.07C192.695 259.07 192.266 259 192 258.859C191.734 258.703 191.602 258.469 191.602 258.156V243.531C191.602 241.719 191.516 240.414 191.344 239.617C191.172 238.805 191.086 238.359 191.086 238.281C191.086 237.938 191.344 237.695 191.859 237.555C192.391 237.398 192.891 237.32 193.359 237.32C193.75 237.32 194.039 237.531 194.227 237.953C194.414 238.375 194.547 238.805 194.625 239.242C194.719 239.68 194.781 239.961 194.812 240.086C195.688 239.102 196.695 238.336 197.836 237.789C198.992 237.242 200.156 236.969 201.328 236.969C203.453 236.969 205.109 237.57 206.297 238.773C207.5 239.961 208.102 241.602 208.102 243.695V258.156C208.102 258.469 207.969 258.703 207.703 258.859C207.438 259 207.016 259.07 206.438 259.07H206.25C205.688 259.07 205.273 259 205.008 258.859C204.742 258.703 204.609 258.469 204.609 258.156V244.047C204.609 242.766 204.234 241.773 203.484 241.07C202.75 240.352 201.711 239.992 200.367 239.992C199.43 239.992 198.484 240.258 197.531 240.789C196.594 241.305 195.781 242.016 195.094 242.922V258.156C195.094 258.469 194.961 258.703 194.695 258.859C194.43 259 194.016 259.07 193.453 259.07H193.289ZM223.641 259.234C220.188 259.234 217.609 258.352 215.906 256.586C214.219 254.805 213.375 251.945 213.375 248.008C213.375 244.023 214.32 241.188 216.211 239.5C218.102 237.812 220.453 236.969 223.266 236.969C224.312 236.969 225.32 237.062 226.289 237.25C227.258 237.422 228.039 237.656 228.633 237.953C229.227 238.25 229.523 238.562 229.523 238.891C229.523 239.109 229.445 239.398 229.289 239.758C229.148 240.117 228.969 240.438 228.75 240.719C228.547 240.984 228.359 241.117 228.188 241.117C228.141 241.117 228.07 241.102 227.977 241.07C227.883 241.023 227.797 240.984 227.719 240.953C226.312 240.297 224.797 239.969 223.172 239.969C221.25 239.969 219.766 240.602 218.719 241.867C217.672 243.117 217.148 245.133 217.148 247.914C217.148 249.883 217.359 251.477 217.781 252.695C218.203 253.898 218.883 254.789 219.82 255.367C220.773 255.945 222.039 256.234 223.617 256.234C225.352 256.234 226.914 255.875 228.305 255.156C228.445 255.125 228.547 255.094 228.609 255.062C228.688 255.016 228.742 254.992 228.773 254.992C228.945 254.992 229.141 255.125 229.359 255.391C229.578 255.656 229.766 255.961 229.922 256.305C230.094 256.648 230.18 256.922 230.18 257.125C230.18 257.453 229.883 257.781 229.289 258.109C228.695 258.438 227.891 258.711 226.875 258.93C225.875 259.133 224.797 259.234 223.641 259.234ZM243.938 259.234C240.484 259.234 237.914 258.336 236.227 256.539C234.555 254.727 233.719 251.961 233.719 248.242C233.719 244.555 234.539 241.758 236.18 239.852C237.82 237.93 240.234 236.969 243.422 236.969C246.266 236.969 248.406 237.891 249.844 239.734C251.297 241.578 252.023 244.281 252.023 247.844C252.023 248 251.938 248.219 251.766 248.5C251.609 248.766 251.414 249.008 251.18 249.227C250.961 249.43 250.773 249.531 250.617 249.531H237.469C237.641 251.859 238.234 253.562 239.25 254.641C240.281 255.703 241.828 256.234 243.891 256.234C245.047 256.234 246.039 256.094 246.867 255.812C247.711 255.531 248.523 255.188 249.305 254.781C249.383 254.75 249.5 254.695 249.656 254.617C249.812 254.539 249.922 254.5 249.984 254.5C250.156 254.5 250.352 254.641 250.57 254.922C250.805 255.188 251 255.492 251.156 255.836C251.328 256.164 251.414 256.406 251.414 256.562C251.414 256.906 251.07 257.289 250.383 257.711C249.695 258.133 248.773 258.492 247.617 258.789C246.477 259.086 245.25 259.234 243.938 259.234ZM248.297 246.531C248.297 242.156 246.633 239.969 243.305 239.969C239.727 239.969 237.781 242.156 237.469 246.531H248.297ZM257.719 259.07C257.141 259.07 256.719 259 256.453 258.859C256.188 258.703 256.055 258.469 256.055 258.156V255.414C256.055 254.805 256.609 254.5 257.719 254.5H258.422C259.531 254.5 260.086 254.805 260.086 255.414V258.156C260.086 258.469 259.953 258.703 259.688 258.859C259.422 259 259 259.07 258.422 259.07H257.719Z" fill="#41553E"/>
</g>
<defs>
<linearGradient id="paint0_linear_1_2" x1="417.5" y1="101.5" x2="1423.5" y2="358" gradientUnits="userSpaceOnUse">
<stop stop-color="#FFE155"/>
<stop offset="0.362451" stop-color="#AA972B"/>
<stop offset="0.559467" stop-color="#758B48"/>
<stop offset="0.814208" stop-color="#417E35" stop-opacity="0.71"/>
<stop offset="1" stop-color="white"/>
</linearGradient>
<clipPath id="clip0_1_2">
<rect width="1440" height="372" fill="white"/>
</clipPath>
</defs>
</svg>
