<svg width="1715" height="551" viewBox="0 0 1715 551" fill="none" xmlns="http://www.w3.org/2000/svg">
<rect x="52" y="37" width="1663" height="476" fill="#222222"/>
<path d="M805.828 377H719.285L721.473 365.516L743.211 356.629L730.906 320.125C707.299 321.401 685.014 321.993 664.051 321.902L652.156 356.355L677.449 365.926L675.262 377H603.621L606.082 364.148L627.957 355.672L688.934 187.781L720.926 182.996L787.918 356.629L809.52 363.738L805.828 377ZM697.137 219.09C696.225 224.923 687.749 251.674 671.707 299.344H724.07L697.137 219.09ZM813.348 253.133L859.559 245.75L866.941 266.941C886.173 251.447 903.354 243.699 918.484 243.699C925.138 243.699 931.518 245.477 937.625 249.031C943.823 252.586 948.517 258.419 951.707 266.531C960.092 259.513 968.797 253.953 977.82 249.852C986.935 245.75 994.773 243.699 1001.34 243.699C1010.36 243.699 1017.79 245.522 1023.62 249.168C1029.55 252.723 1034.01 258.647 1037.02 266.941C1040.12 275.236 1041.67 286.31 1041.67 300.164V358.543L1063.13 367.43L1060.95 377H989.031L991.082 366.746L1003.11 357.449V309.188C1003.11 288.497 1000.65 275.783 995.73 271.043C995.001 269.858 994.227 269.083 993.406 268.719C992.677 268.354 991.538 268.172 989.988 268.172C986.616 268.172 981.056 268.764 973.309 269.949C965.561 271.043 959.135 272.547 954.031 274.461C954.943 277.833 955.535 282.345 955.809 287.996C956.082 293.647 956.219 301.577 956.219 311.785V358.543L975.223 367.703L972.898 377H903.719L905.496 367.02L917.664 357.449V308.641C917.664 288.771 914.839 275.737 909.188 269.539C908.276 268.628 907.137 268.172 905.77 268.172C901.85 268.172 896.199 268.719 888.816 269.812C881.434 270.906 874.962 272.365 869.402 274.188C870.04 276.648 870.359 279.611 870.359 283.074V358.543L889.637 367.703L887.723 377H811.16L813.211 366.473L831.805 357.176V271.727L812.117 259.832L813.348 253.133ZM1140.38 243.699C1152.87 243.699 1164.08 246.069 1174.01 250.809C1184.04 255.548 1191.97 262.84 1197.8 272.684C1203.73 282.436 1206.69 294.604 1206.69 309.188C1206.69 321.583 1203.77 333.25 1197.94 344.188C1192.2 355.125 1184.22 363.921 1174.01 370.574C1163.8 377.137 1152.41 380.418 1139.83 380.418C1127.16 380.418 1115.77 378.094 1105.65 373.445C1095.63 368.706 1087.65 361.46 1081.73 351.707C1075.89 341.954 1072.98 329.741 1072.98 315.066C1072.98 302.671 1075.85 291.004 1081.59 280.066C1087.33 269.129 1095.31 260.333 1105.52 253.68C1115.82 247.026 1127.44 243.699 1140.38 243.699ZM1163.35 356.355C1165.08 354.077 1166.4 349.884 1167.31 343.777C1168.32 337.671 1168.82 331.518 1168.82 325.32C1168.82 312.742 1167.18 301.759 1163.89 292.371C1160.61 282.892 1156.06 275.646 1150.22 270.633C1144.39 265.529 1137.74 262.977 1130.26 262.977C1123.61 262.977 1118.96 264.572 1116.32 267.762C1114.77 270.132 1113.45 274.37 1112.35 280.477C1111.35 286.492 1110.85 292.645 1110.85 298.934C1110.85 310.691 1112.35 321.264 1115.36 330.652C1118.37 340.04 1122.74 347.469 1128.48 352.938C1134.23 358.406 1141.06 361.141 1148.99 361.141C1152.18 361.141 1155.05 360.73 1157.61 359.91C1160.16 358.999 1162.07 357.814 1163.35 356.355ZM1220.09 247.117H1276.69V323.953C1276.69 333.341 1277.33 340.314 1278.6 344.871C1279.97 349.428 1281.88 352.892 1284.34 355.262C1285.35 356.173 1286.35 356.857 1287.35 357.312C1288.45 357.677 1289.72 357.859 1291.18 357.859C1296.01 357.859 1301.39 357.449 1307.31 356.629C1313.24 355.809 1318.11 354.715 1321.94 353.348V270.496L1302.25 258.875L1304.44 247.117H1360.5V350.203C1362.5 353.849 1365.96 356.902 1370.89 359.363C1375.9 361.824 1380.32 363.419 1384.15 364.148L1382.1 372.488C1378.36 374.311 1373.07 376.089 1366.24 377.82C1359.4 379.552 1352.7 380.418 1346.14 380.418C1344.77 377.41 1342.18 373.536 1338.35 368.797C1334.61 363.966 1330.83 360.503 1327 358.406C1321.08 364.786 1314.19 370.073 1306.36 374.266C1298.52 378.367 1290.36 380.418 1281.88 380.418C1252.72 380.418 1238.13 364.148 1238.13 331.609V270.496L1217.62 258.602L1220.09 247.117ZM1510.61 334.07L1510.89 377H1400.42L1393.04 362.098L1473.7 259.969L1426.53 263.523L1415.59 287.176L1400.14 288.406V247.117H1507.74L1514.17 263.66L1437.47 364.012L1484.91 359.363L1495.44 335.027L1510.61 334.07ZM1652.39 290.184C1652.39 297.384 1651.25 303.764 1648.97 309.324C1648.33 310.874 1647.38 312.059 1646.1 312.879C1644.92 313.608 1643.23 313.973 1641.04 313.973H1568.99C1569.99 321.538 1572.23 328.693 1575.69 335.438C1579.15 342.182 1583.48 347.605 1588.68 351.707C1593.88 355.809 1599.48 357.859 1605.5 357.859C1610.96 357.859 1618.03 357.085 1626.69 355.535C1635.44 353.895 1641.32 352.573 1644.32 351.57L1646.79 356.219C1641.23 363.237 1633.57 369.025 1623.82 373.582C1614.06 378.139 1603.99 380.418 1593.6 380.418C1582.66 380.418 1572.46 378.094 1562.98 373.445C1553.5 368.706 1545.8 361.368 1539.87 351.434C1534.04 341.499 1531.12 329.057 1531.12 314.109C1531.12 301.531 1533.99 289.865 1539.73 279.109C1545.48 268.354 1553.59 259.786 1564.07 253.406C1574.64 246.935 1586.86 243.699 1600.71 243.699C1611.19 243.699 1620.31 245.75 1628.05 249.852C1635.89 253.953 1641.91 259.513 1646.1 266.531C1650.29 273.549 1652.39 281.434 1652.39 290.184ZM1586.63 262.156C1584.35 262.156 1582.39 262.339 1580.75 262.703C1579.2 263.068 1577.92 263.842 1576.92 265.027C1574.64 268.126 1572.68 272.866 1571.04 279.246C1569.49 285.535 1568.63 293.328 1568.45 302.625L1619.17 296.609C1618.62 289.318 1616.8 283.074 1613.7 277.879C1610.69 272.684 1606.82 268.764 1602.08 266.121C1597.43 263.478 1592.28 262.156 1586.63 262.156Z" fill="#FFCF40"/>
<path d="M267.973 181.169C285.405 179.442 302.998 178.67 320.232 175.768C347.064 171.248 370.845 160.072 388.719 138.634C392.239 134.413 395.154 129.688 398.765 124.608C403.948 128.468 409.108 132.31 415.476 137.053C408.427 144.09 402.239 150.935 395.355 156.989C383.985 166.99 371.334 175.132 357.406 181.269C344.437 186.984 330.945 190.601 317.011 193.105C298.093 196.504 279.069 197.304 259.93 197.019C252.272 196.904 244.612 197.008 236.234 197.373C235.344 204.877 235.092 212.02 235.098 219.162C235.099 220.1 236.424 221.036 237.135 221.972C246.128 221.982 255.14 222.371 264.111 221.929C290.871 220.608 317.7 219.59 343.672 211.961C364.315 205.898 383.718 196.986 400.506 183.541C411.119 175.04 420.33 164.788 430.172 155.324C430.645 154.869 431.139 154.436 432.262 153.409C436.191 158.045 440.049 162.596 444.707 168.091C432.217 178.478 420.184 189.058 407.543 198.853C391.299 211.441 373.178 220.82 353.297 226.136C341.901 229.183 330.194 231.474 318.479 232.812C305.4 234.305 292.154 234.351 278.978 234.993C271.393 235.362 263.805 235.901 256.216 235.927C249.796 235.948 243.374 235.341 236.234 235.373C235.345 242.876 235.093 250.019 235.1 257.162C235.101 258.1 236.425 259.036 237.136 259.973C251.631 259.982 266.15 260.515 280.617 259.886C306.731 258.75 332.854 257.417 358.233 250.051C382.966 242.873 405.193 230.824 425.682 215.541C434.092 209.269 441.614 201.81 449.58 194.936C452.03 192.822 454.611 190.859 457.532 188.504C484.532 243.068 485.19 297.249 460.211 351.896C451.447 344.1 443.457 336.14 434.59 329.321C423.414 320.725 411.86 312.51 399.856 305.128C383.655 295.164 365.869 288.651 347.255 284.748C337.558 282.715 327.719 281.182 317.87 280.101C307.572 278.97 297.184 278.653 286.033 277.678C270.837 277.285 256.444 277.193 241.642 277.06C239.483 277.374 237.732 277.728 235.98 278.082C235.98 278.082 235.978 277.981 235.731 278.277C235.669 286.348 235.853 294.121 236.037 301.895C242.366 301.93 248.696 301.897 255.023 302.013C270.788 302.304 286.601 301.999 302.304 303.161C321.863 304.608 341.303 307.114 360.018 313.847C375.117 319.278 388.988 326.691 402.379 335.464C418.847 346.253 433.117 359.428 447.193 373.673C443.489 378.438 439.817 383.164 435.95 388.139C430.048 381.668 424.756 375.272 418.853 369.499C394.983 346.157 366.865 330.162 334.163 323.203C319.543 320.092 304.506 318.895 289.63 317.054C284.083 316.367 278.457 316.319 272.067 315.674C259.537 315.297 247.808 315.226 235.79 315.443C235.709 323.837 235.918 331.943 236.126 340.049C236.126 340.049 235.961 340.044 236.283 340.235C248.44 340.602 260.275 340.779 272.11 340.955C293.914 341.062 315.579 342.912 336.505 349.181C347.799 352.564 359.076 356.794 369.42 362.383C386.647 371.691 401.213 384.618 413.459 399.997C415.088 402.042 417.659 404.553 417.394 406.526C417.156 408.298 413.585 409.587 411.539 411.159C408.352 413.606 405.212 416.112 402.248 418.44C397.551 411.673 393.474 405.434 389.028 399.469C379.317 386.442 366.361 377.486 351.658 371.071C335.48 364.012 318.429 360.299 300.84 358.985C292.493 358.361 284.152 357.651 275.009 356.682C261.508 356.3 248.806 356.216 235.806 356.416C235.713 364.788 235.919 372.877 236.124 380.965C245.124 380.974 254.153 380.518 263.117 381.083C284.436 382.425 305.751 382.863 326.745 388.533C342.543 392.8 356.399 399.461 367.468 411.192C372.792 416.834 376.573 423.933 381.164 430.533C297.213 470.906 205.508 438.962 161.1 370.949C106.725 287.67 132.594 189.146 192.33 138.455C227.23 108.84 268.068 93.8733 314.146 97.2296C343.697 99.382 371.653 107.93 376.952 113.788C365.309 133.97 346.954 144.779 325.004 149.845C313.938 152.399 302.533 153.636 291.219 154.911C283.521 155.779 275.713 155.68 267.024 156.022C257.548 156.017 249.003 155.944 240.461 156.044C238.963 156.061 237.473 156.801 235.98 157.208C235.98 157.208 236.003 157.584 235.718 158.121C235.661 166.092 235.89 173.527 236.119 180.962C236.119 180.962 236.581 181.007 237.154 181.292C247.809 181.442 257.891 181.305 267.973 181.169ZM228.001 282.611C228.001 280.844 228.001 279.077 228.001 277.28C223.067 277.28 218.681 277.28 214.274 277.28C214.274 285.607 214.274 293.65 214.274 301.715C218.941 301.715 223.327 301.715 228.001 301.715C228.001 295.485 228.001 289.535 228.001 282.611ZM227.906 380.23C227.906 372.18 227.906 364.129 227.906 356.214C222.966 356.214 218.695 356.214 214.216 356.214C214.216 364.472 214.216 372.516 214.216 380.905C218.684 380.905 222.955 380.905 227.906 380.23ZM214 325.521C214 330.268 214 335.015 214 339.686C219 339.686 223.385 339.686 227.694 339.686C227.694 331.325 227.694 323.282 227.694 315.314C222.997 315.314 218.612 315.314 214 315.314C214 318.597 214 321.565 214 325.521ZM214 201.672C214 208.397 214 215.123 214 221.622C219.1 221.622 223.488 221.622 227.642 221.622C227.642 213.548 227.642 205.837 227.642 198C223.807 198 220.31 197.797 216.863 198.124C215.836 198.221 214.951 199.804 214 201.672ZM228.001 247.506C228.001 243.75 228.001 239.994 228.001 236.306C223.01 236.306 218.625 236.306 214.3 236.306C214.3 244.328 214.3 252.038 214.3 259.691C218.991 259.691 223.376 259.691 228.001 259.691C228.001 255.754 228.001 252.123 228.001 247.506ZM221.485 181C223.573 181 225.661 181 227.698 181C227.698 172.695 227.698 164.997 227.698 157.353C223.005 157.353 218.62 157.353 214.307 157.353C214.307 165.358 214.307 173.06 214.307 181C216.581 181 218.55 181 221.485 181Z" fill="#FFCF41"/>
</svg>
