<svg width="1715" height="551" viewBox="0 0 1715 551" fill="none" xmlns="http://www.w3.org/2000/svg">
<rect x="52" y="37" width="1663" height="476" fill="#417E35"/>
<path d="M805.828 377H719.285L721.473 365.516L743.211 356.629L730.906 320.125C707.299 321.401 685.014 321.993 664.051 321.902L652.156 356.355L677.449 365.926L675.262 377H603.621L606.082 364.148L627.957 355.672L688.934 187.781L720.926 182.996L787.918 356.629L809.52 363.738L805.828 377ZM697.137 219.09C696.225 224.923 687.749 251.674 671.707 299.344H724.07L697.137 219.09ZM813.348 253.133L859.559 245.75L866.941 266.941C886.173 251.447 903.354 243.699 918.484 243.699C925.138 243.699 931.518 245.477 937.625 249.031C943.823 252.586 948.517 258.419 951.707 266.531C960.092 259.513 968.797 253.953 977.82 249.852C986.935 245.75 994.773 243.699 1001.34 243.699C1010.36 243.699 1017.79 245.522 1023.62 249.168C1029.55 252.723 1034.01 258.647 1037.02 266.941C1040.12 275.236 1041.67 286.31 1041.67 300.164V358.543L1063.13 367.43L1060.95 377H989.031L991.082 366.746L1003.11 357.449V309.188C1003.11 288.497 1000.65 275.783 995.73 271.043C995.001 269.858 994.227 269.083 993.406 268.719C992.677 268.354 991.538 268.172 989.988 268.172C986.616 268.172 981.056 268.764 973.309 269.949C965.561 271.043 959.135 272.547 954.031 274.461C954.943 277.833 955.535 282.345 955.809 287.996C956.082 293.647 956.219 301.577 956.219 311.785V358.543L975.223 367.703L972.898 377H903.719L905.496 367.02L917.664 357.449V308.641C917.664 288.771 914.839 275.737 909.188 269.539C908.276 268.628 907.137 268.172 905.77 268.172C901.85 268.172 896.199 268.719 888.816 269.812C881.434 270.906 874.962 272.365 869.402 274.188C870.04 276.648 870.359 279.611 870.359 283.074V358.543L889.637 367.703L887.723 377H811.16L813.211 366.473L831.805 357.176V271.727L812.117 259.832L813.348 253.133ZM1140.38 243.699C1152.87 243.699 1164.08 246.069 1174.01 250.809C1184.04 255.548 1191.97 262.84 1197.8 272.684C1203.73 282.436 1206.69 294.604 1206.69 309.188C1206.69 321.583 1203.77 333.25 1197.94 344.188C1192.2 355.125 1184.22 363.921 1174.01 370.574C1163.8 377.137 1152.41 380.418 1139.83 380.418C1127.16 380.418 1115.77 378.094 1105.65 373.445C1095.63 368.706 1087.65 361.46 1081.73 351.707C1075.89 341.954 1072.98 329.741 1072.98 315.066C1072.98 302.671 1075.85 291.004 1081.59 280.066C1087.33 269.129 1095.31 260.333 1105.52 253.68C1115.82 247.026 1127.44 243.699 1140.38 243.699ZM1163.35 356.355C1165.08 354.077 1166.4 349.884 1167.31 343.777C1168.32 337.671 1168.82 331.518 1168.82 325.32C1168.82 312.742 1167.18 301.759 1163.89 292.371C1160.61 282.892 1156.06 275.646 1150.22 270.633C1144.39 265.529 1137.74 262.977 1130.26 262.977C1123.61 262.977 1118.96 264.572 1116.32 267.762C1114.77 270.132 1113.45 274.37 1112.35 280.477C1111.35 286.492 1110.85 292.645 1110.85 298.934C1110.85 310.691 1112.35 321.264 1115.36 330.652C1118.37 340.04 1122.74 347.469 1128.48 352.938C1134.23 358.406 1141.06 361.141 1148.99 361.141C1152.18 361.141 1155.05 360.73 1157.61 359.91C1160.16 358.999 1162.07 357.814 1163.35 356.355ZM1220.09 247.117H1276.69V323.953C1276.69 333.341 1277.33 340.314 1278.6 344.871C1279.97 349.428 1281.88 352.892 1284.34 355.262C1285.35 356.173 1286.35 356.857 1287.35 357.312C1288.45 357.677 1289.72 357.859 1291.18 357.859C1296.01 357.859 1301.39 357.449 1307.31 356.629C1313.24 355.809 1318.11 354.715 1321.94 353.348V270.496L1302.25 258.875L1304.44 247.117H1360.5V350.203C1362.5 353.849 1365.96 356.902 1370.89 359.363C1375.9 361.824 1380.32 363.419 1384.15 364.148L1382.1 372.488C1378.36 374.311 1373.07 376.089 1366.24 377.82C1359.4 379.552 1352.7 380.418 1346.14 380.418C1344.77 377.41 1342.18 373.536 1338.35 368.797C1334.61 363.966 1330.83 360.503 1327 358.406C1321.08 364.786 1314.19 370.073 1306.36 374.266C1298.52 378.367 1290.36 380.418 1281.88 380.418C1252.72 380.418 1238.13 364.148 1238.13 331.609V270.496L1217.62 258.602L1220.09 247.117ZM1510.61 334.07L1510.89 377H1400.42L1393.04 362.098L1473.7 259.969L1426.53 263.523L1415.59 287.176L1400.14 288.406V247.117H1507.74L1514.17 263.66L1437.47 364.012L1484.91 359.363L1495.44 335.027L1510.61 334.07ZM1652.39 290.184C1652.39 297.384 1651.25 303.764 1648.97 309.324C1648.33 310.874 1647.38 312.059 1646.1 312.879C1644.92 313.608 1643.23 313.973 1641.04 313.973H1568.99C1569.99 321.538 1572.23 328.693 1575.69 335.438C1579.15 342.182 1583.48 347.605 1588.68 351.707C1593.88 355.809 1599.48 357.859 1605.5 357.859C1610.96 357.859 1618.03 357.085 1626.69 355.535C1635.44 353.895 1641.32 352.573 1644.32 351.57L1646.79 356.219C1641.23 363.237 1633.57 369.025 1623.82 373.582C1614.06 378.139 1603.99 380.418 1593.6 380.418C1582.66 380.418 1572.46 378.094 1562.98 373.445C1553.5 368.706 1545.8 361.368 1539.87 351.434C1534.04 341.499 1531.12 329.057 1531.12 314.109C1531.12 301.531 1533.99 289.865 1539.73 279.109C1545.48 268.354 1553.59 259.786 1564.07 253.406C1574.64 246.935 1586.86 243.699 1600.71 243.699C1611.19 243.699 1620.31 245.75 1628.05 249.852C1635.89 253.953 1641.91 259.513 1646.1 266.531C1650.29 273.549 1652.39 281.434 1652.39 290.184ZM1586.63 262.156C1584.35 262.156 1582.39 262.339 1580.75 262.703C1579.2 263.068 1577.92 263.842 1576.92 265.027C1574.64 268.126 1572.68 272.866 1571.04 279.246C1569.49 285.535 1568.63 293.328 1568.45 302.625L1619.17 296.609C1618.62 289.318 1616.8 283.074 1613.7 277.879C1610.69 272.684 1606.82 268.764 1602.08 266.121C1597.43 263.478 1592.28 262.156 1586.63 262.156Z" fill="#FFCF40"/>
<path d="M267.972 181.169C285.404 179.442 302.997 178.67 320.231 175.768C347.063 171.248 370.844 160.072 388.718 138.634C392.238 134.413 395.153 129.688 398.764 124.608C403.947 128.468 409.107 132.31 415.475 137.053C408.426 144.09 402.238 150.935 395.354 156.989C383.984 166.99 371.333 175.132 357.405 181.269C344.436 186.984 330.944 190.601 317.01 193.105C298.092 196.504 279.068 197.304 259.929 197.019C252.271 196.904 244.611 197.008 236.233 197.373C235.343 204.877 235.091 212.02 235.097 219.162C235.098 220.1 236.423 221.036 237.134 221.972C246.127 221.982 255.139 222.371 264.11 221.929C290.87 220.608 317.699 219.59 343.671 211.961C364.314 205.898 383.717 196.986 400.505 183.541C411.118 175.04 420.329 164.788 430.171 155.324C430.644 154.869 431.138 154.436 432.261 153.409C436.19 158.045 440.048 162.596 444.706 168.091C432.216 178.478 420.183 189.058 407.542 198.853C391.298 211.441 373.177 220.82 353.296 226.136C341.9 229.183 330.193 231.474 318.478 232.812C305.399 234.305 292.153 234.351 278.977 234.993C271.392 235.362 263.804 235.901 256.215 235.927C249.795 235.948 243.373 235.341 236.233 235.373C235.344 242.876 235.092 250.019 235.099 257.162C235.1 258.1 236.424 259.036 237.135 259.973C251.63 259.982 266.149 260.515 280.616 259.886C306.73 258.75 332.853 257.417 358.232 250.051C382.965 242.873 405.192 230.824 425.681 215.541C434.091 209.269 441.613 201.81 449.579 194.936C452.029 192.822 454.61 190.859 457.531 188.504C484.531 243.068 485.189 297.249 460.21 351.896C451.446 344.1 443.456 336.14 434.589 329.321C423.413 320.725 411.859 312.51 399.855 305.128C383.654 295.164 365.868 288.651 347.254 284.748C337.557 282.715 327.718 281.182 317.869 280.101C307.571 278.97 297.183 278.653 286.032 277.678C270.836 277.285 256.443 277.193 241.641 277.06C239.482 277.374 237.731 277.728 235.979 278.082C235.979 278.082 235.977 277.981 235.73 278.277C235.668 286.348 235.852 294.121 236.036 301.895C242.365 301.93 248.695 301.897 255.022 302.013C270.787 302.304 286.6 301.999 302.303 303.161C321.862 304.608 341.302 307.114 360.017 313.847C375.116 319.278 388.987 326.691 402.378 335.464C418.846 346.253 433.116 359.428 447.192 373.673C443.488 378.438 439.816 383.164 435.949 388.139C430.047 381.668 424.755 375.272 418.852 369.499C394.982 346.157 366.864 330.162 334.162 323.203C319.542 320.092 304.505 318.895 289.629 317.054C284.082 316.367 278.456 316.319 272.066 315.674C259.536 315.297 247.807 315.226 235.789 315.443C235.708 323.837 235.917 331.943 236.125 340.049C236.125 340.049 235.961 340.044 236.282 340.235C248.439 340.602 260.274 340.779 272.109 340.955C293.913 341.062 315.578 342.912 336.504 349.181C347.798 352.564 359.075 356.794 369.419 362.383C386.646 371.691 401.212 384.618 413.458 399.997C415.087 402.042 417.658 404.553 417.393 406.526C417.155 408.298 413.584 409.587 411.538 411.159C408.351 413.606 405.211 416.112 402.247 418.44C397.55 411.673 393.473 405.434 389.027 399.469C379.316 386.442 366.36 377.486 351.657 371.071C335.479 364.012 318.428 360.299 300.839 358.985C292.492 358.361 284.151 357.651 275.008 356.682C261.507 356.3 248.805 356.216 235.805 356.416C235.712 364.788 235.918 372.877 236.123 380.965C245.123 380.974 254.152 380.518 263.116 381.083C284.435 382.425 305.75 382.863 326.744 388.533C342.542 392.8 356.398 399.461 367.467 411.192C372.791 416.834 376.572 423.933 381.163 430.533C297.212 470.906 205.507 438.962 161.099 370.949C106.724 287.67 132.593 189.146 192.329 138.455C227.229 108.84 268.067 93.8733 314.145 97.2296C343.696 99.382 371.652 107.93 376.951 113.788C365.308 133.97 346.953 144.779 325.003 149.845C313.937 152.399 302.532 153.636 291.218 154.911C283.52 155.779 275.712 155.68 267.023 156.022C257.548 156.017 249.003 155.944 240.46 156.044C238.962 156.061 237.472 156.801 235.979 157.208C235.979 157.208 236.002 157.584 235.717 158.121C235.66 166.092 235.889 173.527 236.118 180.962C236.118 180.962 236.58 181.007 237.153 181.292C247.808 181.442 257.89 181.305 267.972 181.169ZM228 282.611C228 280.844 228 279.077 228 277.28C223.066 277.28 218.68 277.28 214.273 277.28C214.273 285.607 214.273 293.65 214.273 301.715C218.94 301.715 223.326 301.715 228 301.715C228 295.485 228 289.535 228 282.611ZM227.905 380.23C227.905 372.18 227.905 364.129 227.905 356.214C222.965 356.214 218.694 356.214 214.215 356.214C214.215 364.472 214.215 372.516 214.215 380.905C218.683 380.905 222.954 380.905 227.905 380.23ZM213.999 325.521C213.999 330.268 213.999 335.015 213.999 339.686C218.999 339.686 223.384 339.686 227.694 339.686C227.694 331.325 227.694 323.282 227.694 315.314C222.996 315.314 218.611 315.314 213.999 315.314C213.999 318.597 213.999 321.565 213.999 325.521ZM213.999 201.672C213.999 208.397 213.999 215.123 213.999 221.622C219.099 221.622 223.487 221.622 227.641 221.622C227.641 213.548 227.641 205.837 227.641 198C223.806 198 220.309 197.797 216.862 198.124C215.835 198.221 214.95 199.804 213.999 201.672ZM228 247.506C228 243.75 228 239.994 228 236.306C223.009 236.306 218.624 236.306 214.299 236.306C214.299 244.328 214.299 252.038 214.299 259.691C218.99 259.691 223.375 259.691 228 259.691C228 255.754 228 252.123 228 247.506ZM221.484 181C223.572 181 225.66 181 227.697 181C227.697 172.695 227.697 164.997 227.697 157.353C223.004 157.353 218.619 157.353 214.306 157.353C214.306 165.358 214.306 173.06 214.306 181C216.58 181 218.549 181 221.484 181Z" fill="#FFCF41"/>
</svg>
