<svg width="1440" height="372" viewBox="0 0 1440 372" fill="none" xmlns="http://www.w3.org/2000/svg">
<g clip-path="url(#clip0_1_2)">
<rect width="1440" height="372" fill="url(#paint0_linear_1_2)" fill-opacity="0.4"/>
<path d="M-228.85 488.323C90.9919 450.02 749.59 345.367 825.245 233.178C900.9 120.988 1533.27 47.9101 1839.99 25.3948" stroke="#519D42" stroke-width="2"/>
<path d="M-220.207 509.853C99.6354 471.55 741.881 353.352 817.536 241.162C893.191 128.972 1541.91 69.4401 1848.63 46.9248" stroke="#519D42" stroke-width="2"/>
<path d="M-227.331 525.257C92.5107 486.954 734.756 368.756 810.411 256.566C886.066 144.377 1534.78 84.8444 1841.51 62.3291" stroke="#519D42" stroke-width="2"/>
<path d="M-227.331 525.257C92.5107 486.954 734.756 368.756 810.411 256.566C886.066 144.377 1534.78 84.8444 1841.51 62.3291" stroke="#519D42" stroke-width="2"/>
<path d="M-219.045 524.605C100.797 486.302 766.351 385.271 808.027 261.583C850.585 135.278 1543.07 84.1921 1849.8 61.6768" stroke="#519D42" stroke-width="2"/>
<path d="M-193.462 567.135C126.381 528.832 769.69 392.385 811.366 268.698C853.924 142.393 1568.65 126.722 1875.38 104.207" stroke="#519D42" stroke-width="2"/>
<path d="M-193.278 569.468C126.564 531.165 769.874 394.718 811.55 271.031C854.108 144.726 1568.84 129.055 1875.56 106.54" stroke="#519D42" stroke-width="2"/>
<path d="M-186.513 425.971C133.329 387.668 791.927 283.016 867.582 170.826C943.237 58.6363 1575.6 -14.4416 1882.33 -36.9569" stroke="#519D42" stroke-width="2"/>
<path d="M-177.869 447.501C141.973 409.198 784.218 291 859.873 178.81C935.528 66.6207 1584.25 7.08832 1890.97 -15.427" stroke="#519D42" stroke-width="2"/>
<path d="M-184.994 462.905C134.848 424.603 777.094 306.404 852.748 194.215C928.403 82.025 1577.12 22.4927 1883.85 -0.0226126" stroke="#519D42" stroke-width="2"/>
<path d="M-184.994 462.905C134.848 424.603 777.094 306.404 852.748 194.215C928.403 82.025 1577.12 22.4927 1883.85 -0.0226126" stroke="#519D42" stroke-width="2"/>
<path d="M-176.708 462.253C143.135 423.95 808.688 322.919 850.364 199.232C892.922 72.9267 1585.41 21.8404 1892.13 -0.674933" stroke="#519D42" stroke-width="2"/>
<path d="M-151.124 504.783C168.718 466.48 812.028 330.033 853.704 206.346C896.262 80.0409 1610.99 64.3704 1917.72 41.8551" stroke="#519D42" stroke-width="2"/>
<path d="M-150.941 507.116C168.902 468.814 812.211 332.367 853.888 208.679C896.446 82.3743 1611.18 66.7038 1917.9 44.1885" stroke="#519D42" stroke-width="2"/>
<path d="M-228.85 488.323C90.9919 450.02 749.59 345.367 825.245 233.178C900.9 120.988 1533.27 47.9101 1839.99 25.3948" stroke="#519D42" stroke-width="2"/>
<path d="M-220.207 509.853C99.6354 471.55 741.881 353.352 817.536 241.162C893.191 128.972 1541.91 69.4401 1848.63 46.9248" stroke="#519D42" stroke-width="2"/>
<path d="M-227.331 525.257C92.5107 486.954 734.756 368.756 810.411 256.566C886.066 144.377 1534.78 84.8444 1841.51 62.3291" stroke="#519D42" stroke-width="2"/>
<path d="M-227.331 525.257C92.5107 486.954 734.756 368.756 810.411 256.566C886.066 144.377 1534.78 84.8444 1841.51 62.3291" stroke="#519D42" stroke-width="2"/>
<path d="M-219.045 524.605C100.797 486.302 766.351 385.271 808.027 261.583C850.585 135.278 1543.07 84.1921 1849.8 61.6768" stroke="#519D42" stroke-width="2"/>
<path d="M-193.462 567.135C126.381 528.832 769.69 392.385 811.366 268.698C853.924 142.393 1568.65 126.722 1875.38 104.207" stroke="#519D42" stroke-width="2"/>
<path d="M-193.278 569.468C126.564 531.165 769.874 394.718 811.55 271.031C854.108 144.726 1568.84 129.055 1875.56 106.54" stroke="#519D42" stroke-width="2"/>
<path d="M-186.513 425.971C133.329 387.668 791.927 283.016 867.582 170.826C943.237 58.6363 1575.6 -14.4417 1882.33 -36.9569" stroke="#519D42" stroke-width="2"/>
<path d="M-177.869 447.501C141.973 409.198 784.218 291 859.873 178.81C935.528 66.6206 1584.25 7.0883 1890.97 -15.427" stroke="#519D42" stroke-width="2"/>
<path d="M-184.994 462.905C134.848 424.603 777.094 306.404 852.748 194.215C928.403 82.025 1577.12 22.4927 1883.85 -0.0226279" stroke="#519D42" stroke-width="2"/>
<path d="M-184.994 462.905C134.848 424.603 777.094 306.404 852.748 194.215C928.403 82.025 1577.12 22.4927 1883.85 -0.0226279" stroke="#519D42" stroke-width="2"/>
<path d="M-176.708 462.253C143.135 423.95 808.688 322.919 850.364 199.232C892.922 72.9267 1585.41 21.8403 1892.13 -0.674948" stroke="#519D42" stroke-width="2"/>
<path d="M-151.124 504.783C168.718 466.48 812.028 330.033 853.704 206.346C896.262 80.0409 1610.99 64.3704 1917.72 41.8551" stroke="#519D42" stroke-width="2"/>
<path d="M-150.941 507.116C168.902 468.814 812.211 332.367 853.888 208.679C896.446 82.3743 1611.18 66.7038 1917.9 44.1885" stroke="#519D42" stroke-width="2"/>
<path d="M1543.21 -630.925C1311.38 -407.277 849.564 73.7953 856.994 208.906C864.423 344.017 404.456 784.082 173.543 987.225" stroke="#519D42" stroke-width="2"/>
<path d="M1523.33 -642.869C1291.49 -419.221 850.889 62.776 858.318 197.887C865.748 332.998 384.566 772.138 153.654 975.281" stroke="#519D42" stroke-width="2"/>
<path d="M1519.7 -659.45C1287.87 -435.802 847.267 46.1947 854.697 181.306C862.127 316.417 380.945 755.556 150.033 958.7" stroke="#519D42" stroke-width="2"/>
<path d="M1519.7 -659.45C1287.87 -435.802 847.267 46.1947 854.697 181.306C862.127 316.417 380.945 755.556 150.033 958.7" stroke="#519D42" stroke-width="2"/>
<path d="M1513.49 -653.927C1281.66 -430.279 812.11 52.1061 853.568 175.867C895.904 302.247 374.733 761.08 143.821 964.223" stroke="#519D42" stroke-width="2"/>
<path d="M1467.42 -672.383C1235.58 -448.735 805.153 48.4513 846.611 172.212C888.946 298.592 328.661 742.623 97.7483 945.767" stroke="#519D42" stroke-width="2"/>
<path d="M1465.86 -674.132C1234.03 -450.485 803.598 46.7022 845.056 170.463C887.391 296.843 327.105 740.874 96.193 944.018" stroke="#519D42" stroke-width="2"/>
<path d="M1547.11 -555.659C1315.28 -332.011 853.462 149.062 860.891 284.173C868.321 419.284 408.353 859.348 177.441 1062.49" stroke="#519D42" stroke-width="2"/>
<path d="M1527.22 -567.602C1295.39 -343.955 854.786 138.042 862.216 273.153C869.646 408.264 388.464 847.404 157.552 1050.55" stroke="#519D42" stroke-width="2"/>
<path d="M1523.6 -584.184C1291.77 -360.536 851.165 121.461 858.595 256.572C866.024 391.683 384.843 830.823 153.93 1033.97" stroke="#519D42" stroke-width="2"/>
<path d="M1523.6 -584.184C1291.77 -360.536 851.165 121.461 858.595 256.572C866.024 391.683 384.843 830.823 153.93 1033.97" stroke="#519D42" stroke-width="2"/>
<path d="M1517.39 -578.661C1285.55 -355.013 816.008 127.372 857.466 251.133C899.801 377.513 378.631 836.346 147.719 1039.49" stroke="#519D42" stroke-width="2"/>
<path d="M1471.32 -597.117C1239.48 -373.469 809.051 123.718 850.508 247.478C892.844 373.858 332.558 817.89 101.646 1021.03" stroke="#519D42" stroke-width="2"/>
<path d="M1469.76 -598.866C1237.93 -375.218 807.495 121.968 848.953 245.729C891.288 372.109 331.003 816.141 100.09 1019.28" stroke="#519D42" stroke-width="2"/>
<path d="M36.0625 196.094C35.2292 196.094 34.625 196.021 34.25 195.875C33.875 195.708 33.6875 195.469 33.6875 195.156C33.6875 195.01 33.7396 194.76 33.8438 194.406L47 157.875C47.2083 157.271 47.9479 156.969 49.2188 156.969H50.8438C52.1146 156.969 52.8542 157.271 53.0625 157.875L66.2188 194.438C66.3229 194.667 66.375 194.906 66.375 195.156C66.375 195.781 65.5938 196.094 64.0312 196.094H63.5625C62.2708 196.094 61.5208 195.802 61.3125 195.219L58.0625 186.094H41.75L38.5625 195.219C38.375 195.802 37.6354 196.094 36.3438 196.094H36.0625ZM56.5625 181.875L50.75 165.344C50.5833 164.885 50.4479 164.365 50.3438 163.781C50.2396 163.198 50.1458 162.635 50.0625 162.094H49.9375C49.6875 163.49 49.4062 164.573 49.0938 165.344L43.2812 181.875H56.5625ZM84.9062 196.312C81.6562 196.312 78.7083 194.927 76.0625 192.156C75.8958 193.302 75.5938 194.396 75.1562 195.438C75.0729 195.688 74.9062 195.865 74.6562 195.969C74.4271 196.052 74.1042 196.094 73.6875 196.094H73.4688C72.8854 196.094 72.4583 196 72.1875 195.812C71.9375 195.604 71.8125 195.292 71.8125 194.875V155.438C71.8125 154.625 72.5417 154.219 74 154.219H74.25C75.7083 154.219 76.4375 154.625 76.4375 155.438V169.438C77.6458 168.521 78.875 167.823 80.125 167.344C81.375 166.865 82.8021 166.625 84.4062 166.625C86.6146 166.625 88.5729 167.198 90.2812 168.344C91.9896 169.49 93.3125 171.177 94.25 173.406C95.2083 175.635 95.6875 178.312 95.6875 181.438C95.6875 184.312 95.25 186.885 94.375 189.156C93.5 191.406 92.25 193.167 90.625 194.438C89 195.688 87.0938 196.312 84.9062 196.312ZM83.9688 192.281C86.1562 192.281 87.8333 191.312 89 189.375C90.1875 187.417 90.7812 184.646 90.7812 181.062C90.7812 177.729 90.1562 175.188 88.9062 173.438C87.6562 171.688 85.8021 170.781 83.3438 170.719C82.1146 170.719 80.9062 170.927 79.7188 171.344C78.5312 171.76 77.4375 172.385 76.4375 173.219V188.438C77.5833 189.667 78.8125 190.615 80.125 191.281C81.4375 191.948 82.7188 192.281 83.9688 192.281ZM114.625 196.312C110.438 196.312 107.24 195.062 105.031 192.562C102.844 190.042 101.75 186.385 101.75 181.594C101.75 176.802 102.865 173.115 105.094 170.531C107.323 167.927 110.5 166.625 114.625 166.625C118.708 166.625 121.833 167.917 124 170.5C126.167 173.062 127.25 176.76 127.25 181.594C127.25 186.406 126.177 190.062 124.031 192.562C121.906 195.062 118.771 196.312 114.625 196.312ZM114.469 192.312C117.177 192.312 119.177 191.438 120.469 189.688C121.76 187.917 122.406 185.188 122.406 181.5C122.406 177.792 121.76 175.052 120.469 173.281C119.177 171.51 117.177 170.625 114.469 170.625C111.781 170.625 109.802 171.51 108.531 173.281C107.26 175.031 106.625 177.771 106.625 181.5C106.625 185.208 107.25 187.938 108.5 189.688C109.771 191.438 111.76 192.312 114.469 192.312ZM143.531 196.312C140.698 196.312 138.479 195.521 136.875 193.938C135.271 192.333 134.469 190.125 134.469 187.312V168.062C134.469 167.25 135.219 166.844 136.719 166.844H136.938C138.417 166.844 139.156 167.25 139.156 168.062V186.875C139.156 188.583 139.646 189.917 140.625 190.875C141.625 191.812 143.021 192.281 144.812 192.281C146.062 192.281 147.312 191.938 148.562 191.25C149.812 190.542 150.896 189.583 151.812 188.375V168.062C151.812 167.25 152.552 166.844 154.031 166.844H154.25C155.75 166.844 156.5 167.25 156.5 168.062V187.781C156.5 190.198 156.604 191.948 156.812 193.031C157.021 194.094 157.125 194.677 157.125 194.781C157.125 195.24 156.781 195.573 156.094 195.781C155.406 195.969 154.76 196.062 154.156 196.062C153.635 196.062 153.25 195.771 153 195.188C152.75 194.583 152.562 193.969 152.438 193.344C152.333 192.719 152.26 192.323 152.219 192.156C151.052 193.469 149.698 194.49 148.156 195.219C146.635 195.948 145.094 196.312 143.531 196.312ZM174.375 196.312C172.521 196.312 170.865 195.75 169.406 194.625C167.948 193.5 167.219 191.51 167.219 188.656V170.938H164.438C164.042 170.938 163.75 170.812 163.562 170.562C163.396 170.292 163.312 169.865 163.312 169.281V168.594C163.312 168.01 163.396 167.594 163.562 167.344C163.75 167.073 164.042 166.938 164.438 166.938H167.219L167.875 161.125C167.917 160.312 168.51 159.906 169.656 159.906H170.188C170.771 159.906 171.198 160.01 171.469 160.219C171.74 160.406 171.875 160.708 171.875 161.125V166.938H176.531C176.927 166.938 177.208 167.073 177.375 167.344C177.562 167.594 177.656 168.01 177.656 168.594V169.281C177.656 169.865 177.562 170.292 177.375 170.562C177.208 170.812 176.927 170.938 176.531 170.938H171.875V188.219C171.875 189.74 172.135 190.802 172.656 191.406C173.198 192.01 173.927 192.312 174.844 192.312C175.552 192.312 176.094 192.271 176.469 192.188C176.865 192.104 177.125 192.062 177.25 192.062C177.583 192.062 177.854 192.396 178.062 193.062C178.292 193.729 178.406 194.26 178.406 194.656C178.406 195.76 177.062 196.312 174.375 196.312ZM213.469 196.312C210.24 196.312 207.49 195.812 205.219 194.812C202.948 193.792 201.229 192.323 200.062 190.406C198.896 188.49 198.312 186.198 198.312 183.531V158.219C198.312 157.385 199.052 156.969 200.531 156.969H200.969C202.448 156.969 203.188 157.385 203.188 158.219V183.719C203.188 185.344 203.635 186.792 204.531 188.062C205.427 189.333 206.656 190.323 208.219 191.031C209.781 191.74 211.531 192.094 213.469 192.094C215.427 192.094 217.188 191.74 218.75 191.031C220.312 190.302 221.531 189.302 222.406 188.031C223.302 186.76 223.75 185.323 223.75 183.719V158.219C223.75 157.385 224.49 156.969 225.969 156.969H226.438C227.896 156.969 228.625 157.385 228.625 158.219V183.531C228.625 186.198 228.042 188.49 226.875 190.406C225.708 192.323 223.99 193.792 221.719 194.812C219.448 195.812 216.698 196.312 213.469 196.312ZM244.031 196.531C242.469 196.531 241.01 196.333 239.656 195.938C238.302 195.542 237.219 195.062 236.406 194.5C235.615 193.917 235.219 193.406 235.219 192.969C235.219 192.76 235.323 192.427 235.531 191.969C235.76 191.51 236.021 191.104 236.312 190.75C236.625 190.375 236.906 190.188 237.156 190.188C237.219 190.188 237.406 190.292 237.719 190.5C238.552 191.042 239.427 191.5 240.344 191.875C241.281 192.25 242.396 192.438 243.688 192.438C247.312 192.438 249.125 190.938 249.125 187.938C249.125 187.083 248.948 186.365 248.594 185.781C248.26 185.198 247.688 184.688 246.875 184.25C246.083 183.792 244.99 183.354 243.594 182.938C241.594 182.354 240.031 181.688 238.906 180.938C237.802 180.188 237.021 179.312 236.562 178.312C236.104 177.292 235.875 176.062 235.875 174.625C235.875 173.083 236.26 171.698 237.031 170.469C237.823 169.24 238.917 168.281 240.312 167.594C241.729 166.906 243.323 166.562 245.094 166.562C246.323 166.562 247.5 166.677 248.625 166.906C249.771 167.135 250.688 167.438 251.375 167.812C252.083 168.167 252.438 168.542 252.438 168.938C252.438 169.229 252.333 169.625 252.125 170.125C251.938 170.604 251.698 171.031 251.406 171.406C251.115 171.76 250.854 171.938 250.625 171.938C250.583 171.938 250.323 171.812 249.844 171.562C249.365 171.292 248.75 171.052 248 170.844C247.271 170.615 246.458 170.5 245.562 170.5C244.146 170.5 242.969 170.823 242.031 171.469C241.115 172.094 240.656 172.938 240.656 174C240.656 175.25 240.99 176.25 241.656 177C242.323 177.75 243.427 178.365 244.969 178.844C247.344 179.573 249.156 180.302 250.406 181.031C251.656 181.76 252.542 182.656 253.062 183.719C253.604 184.76 253.875 186.135 253.875 187.844C253.875 189.469 253.438 190.948 252.562 192.281C251.688 193.594 250.5 194.635 249 195.406C247.5 196.156 245.844 196.531 244.031 196.531Z" fill="#41553E"/>
</g>
<defs>
<linearGradient id="paint0_linear_1_2" x1="417.5" y1="101.5" x2="1423.5" y2="358" gradientUnits="userSpaceOnUse">
<stop stop-color="#FFE155"/>
<stop offset="0.362451" stop-color="#AA972B"/>
<stop offset="0.559467" stop-color="#758B48"/>
<stop offset="0.814208" stop-color="#417E35" stop-opacity="0.71"/>
<stop offset="1" stop-color="white"/>
</linearGradient>
<clipPath id="clip0_1_2">
<rect width="1440" height="372" fill="white"/>
</clipPath>
</defs>
</svg>
