<svg width="1440" height="372" viewBox="0 0 1440 372" fill="none" xmlns="http://www.w3.org/2000/svg">
<g clip-path="url(#clip0_20_1203)">
<rect width="1440" height="372" fill="url(#paint0_linear_20_1203)" fill-opacity="0.4"/>
<path d="M-228.851 488.323C90.9916 450.02 749.59 345.367 825.245 233.178C900.9 120.988 1533.27 47.9101 1839.99 25.3948" stroke="#519D42" stroke-width="2"/>
<path d="M-220.207 509.853C99.6353 471.55 741.881 353.352 817.536 241.162C893.19 128.972 1541.91 69.44 1848.63 46.9247" stroke="#519D42" stroke-width="2"/>
<path d="M-227.332 525.257C92.5105 486.954 734.756 368.756 810.411 256.566C886.066 144.377 1534.78 84.8444 1841.51 62.3291" stroke="#519D42" stroke-width="2"/>
<path d="M-227.332 525.257C92.5105 486.954 734.756 368.756 810.411 256.566C886.066 144.377 1534.78 84.8444 1841.51 62.3291" stroke="#519D42" stroke-width="2"/>
<path d="M-219.045 524.605C100.797 486.302 766.351 385.271 808.027 261.583C850.585 135.278 1543.07 84.1921 1849.8 61.6768" stroke="#519D42" stroke-width="2"/>
<path d="M-193.462 567.135C126.38 528.832 769.69 392.385 811.366 268.698C853.924 142.393 1568.65 126.722 1875.38 104.207" stroke="#519D42" stroke-width="2"/>
<path d="M-193.278 569.468C126.564 531.165 769.874 394.718 811.55 271.031C854.108 144.726 1568.84 129.055 1875.56 106.54" stroke="#519D42" stroke-width="2"/>
<path d="M-186.513 425.971C133.329 387.668 791.927 283.016 867.582 170.826C943.237 58.6364 1575.6 -14.4416 1882.33 -36.9569" stroke="#519D42" stroke-width="2"/>
<path d="M-177.87 447.501C141.973 409.198 784.218 291 859.873 178.81C935.528 66.6206 1584.25 7.08829 1890.97 -15.427" stroke="#519D42" stroke-width="2"/>
<path d="M-184.994 462.905C134.848 424.603 777.093 306.404 852.748 194.215C928.403 82.0251 1577.12 22.4927 1883.85 -0.0225744" stroke="#519D42" stroke-width="2"/>
<path d="M-184.994 462.905C134.848 424.603 777.093 306.404 852.748 194.215C928.403 82.0251 1577.12 22.4927 1883.85 -0.0225744" stroke="#519D42" stroke-width="2"/>
<path d="M-176.708 462.253C143.134 423.95 808.688 322.919 850.364 199.232C892.922 72.9267 1585.41 21.8404 1892.13 -0.674918" stroke="#519D42" stroke-width="2"/>
<path d="M-151.124 504.783C168.718 466.48 812.027 330.033 853.704 206.346C896.262 80.041 1610.99 64.3705 1917.72 41.8552" stroke="#519D42" stroke-width="2"/>
<path d="M-150.941 507.116C168.902 468.814 812.211 332.367 853.887 208.679C896.445 82.3744 1611.17 66.7038 1917.9 44.1886" stroke="#519D42" stroke-width="2"/>
<path d="M-228.851 488.323C90.9916 450.02 749.59 345.367 825.245 233.178C900.9 120.988 1533.27 47.9101 1839.99 25.3948" stroke="#519D42" stroke-width="2"/>
<path d="M-220.207 509.853C99.6353 471.55 741.881 353.352 817.536 241.162C893.19 128.972 1541.91 69.44 1848.63 46.9247" stroke="#519D42" stroke-width="2"/>
<path d="M-227.332 525.257C92.5105 486.954 734.756 368.756 810.411 256.566C886.066 144.377 1534.78 84.8444 1841.51 62.3291" stroke="#519D42" stroke-width="2"/>
<path d="M-227.332 525.257C92.5105 486.954 734.756 368.756 810.411 256.566C886.066 144.377 1534.78 84.8444 1841.51 62.3291" stroke="#519D42" stroke-width="2"/>
<path d="M-219.045 524.605C100.797 486.302 766.351 385.271 808.027 261.583C850.585 135.278 1543.07 84.1921 1849.8 61.6768" stroke="#519D42" stroke-width="2"/>
<path d="M-193.462 567.135C126.38 528.832 769.69 392.385 811.366 268.698C853.924 142.393 1568.65 126.722 1875.38 104.207" stroke="#519D42" stroke-width="2"/>
<path d="M-193.278 569.468C126.564 531.165 769.874 394.718 811.55 271.031C854.108 144.726 1568.84 129.055 1875.56 106.54" stroke="#519D42" stroke-width="2"/>
<path d="M-186.513 425.971C133.329 387.668 791.927 283.016 867.582 170.826C943.237 58.6364 1575.6 -14.4416 1882.33 -36.9569" stroke="#519D42" stroke-width="2"/>
<path d="M-177.87 447.501C141.973 409.198 784.218 291 859.873 178.81C935.528 66.6206 1584.25 7.08829 1890.97 -15.427" stroke="#519D42" stroke-width="2"/>
<path d="M-184.994 462.905C134.848 424.603 777.093 306.404 852.748 194.215C928.403 82.0251 1577.12 22.4927 1883.85 -0.0225744" stroke="#519D42" stroke-width="2"/>
<path d="M-184.994 462.905C134.848 424.603 777.093 306.404 852.748 194.215C928.403 82.0251 1577.12 22.4927 1883.85 -0.0225744" stroke="#519D42" stroke-width="2"/>
<path d="M-176.708 462.253C143.134 423.95 808.688 322.919 850.364 199.232C892.922 72.9267 1585.41 21.8404 1892.13 -0.674918" stroke="#519D42" stroke-width="2"/>
<path d="M-151.124 504.783C168.718 466.48 812.027 330.033 853.704 206.346C896.262 80.041 1610.99 64.3705 1917.72 41.8552" stroke="#519D42" stroke-width="2"/>
<path d="M-150.941 507.116C168.902 468.814 812.211 332.367 853.887 208.679C896.445 82.3744 1611.17 66.7038 1917.9 44.1886" stroke="#519D42" stroke-width="2"/>
<path d="M1543.22 -630.925C1311.38 -407.277 849.565 73.7953 856.994 208.906C864.424 344.017 404.456 784.082 173.544 987.225" stroke="#519D42" stroke-width="2"/>
<path d="M1523.33 -642.869C1291.49 -419.221 850.889 62.776 858.318 197.887C865.748 332.998 384.566 772.138 153.654 975.281" stroke="#519D42" stroke-width="2"/>
<path d="M1519.7 -659.45C1287.87 -435.803 847.268 46.1946 854.697 181.306C862.127 316.417 380.945 755.556 150.033 958.699" stroke="#519D42" stroke-width="2"/>
<path d="M1519.7 -659.45C1287.87 -435.803 847.268 46.1946 854.697 181.306C862.127 316.417 380.945 755.556 150.033 958.699" stroke="#519D42" stroke-width="2"/>
<path d="M1513.49 -653.927C1281.66 -430.279 812.11 52.1061 853.568 175.867C895.904 302.247 374.733 761.08 143.821 964.223" stroke="#519D42" stroke-width="2"/>
<path d="M1467.42 -672.383C1235.58 -448.735 805.153 48.4513 846.611 172.212C888.946 298.592 328.661 742.623 97.7483 945.767" stroke="#519D42" stroke-width="2"/>
<path d="M1465.86 -674.132C1234.03 -450.485 803.598 46.7022 845.056 170.463C887.391 296.843 327.106 740.874 96.1931 944.018" stroke="#519D42" stroke-width="2"/>
<path d="M1547.11 -555.659C1315.28 -332.011 853.462 149.062 860.892 284.173C868.321 419.284 408.354 859.348 177.441 1062.49" stroke="#519D42" stroke-width="2"/>
<path d="M1527.22 -567.602C1295.39 -343.955 854.786 138.042 862.216 273.153C869.646 408.264 388.464 847.404 157.551 1050.55" stroke="#519D42" stroke-width="2"/>
<path d="M1523.6 -584.184C1291.77 -360.536 851.165 121.461 858.595 256.572C866.024 391.683 384.843 830.823 153.93 1033.97" stroke="#519D42" stroke-width="2"/>
<path d="M1523.6 -584.184C1291.77 -360.536 851.165 121.461 858.595 256.572C866.024 391.683 384.843 830.823 153.93 1033.97" stroke="#519D42" stroke-width="2"/>
<path d="M1517.39 -578.661C1285.55 -355.013 816.008 127.372 857.466 251.133C899.801 377.513 378.631 836.346 147.718 1039.49" stroke="#519D42" stroke-width="2"/>
<path d="M1471.32 -597.117C1239.48 -373.469 809.05 123.717 850.508 247.478C892.844 373.858 332.558 817.89 101.646 1021.03" stroke="#519D42" stroke-width="2"/>
<path d="M1469.76 -598.866C1237.93 -375.218 807.495 121.968 848.953 245.729C891.288 372.109 331.003 816.141 100.091 1019.28" stroke="#519D42" stroke-width="2"/>
<path d="M44.4609 178.07C43.3516 178.07 42.7969 177.766 42.7969 177.156V163.047L34.0781 150.203C33.8594 149.906 33.75 149.656 33.75 149.453C33.75 148.969 34.3906 148.727 35.6719 148.727H36.1172C36.5859 148.727 36.9609 148.773 37.2422 148.867C37.5391 148.961 37.7656 149.125 37.9219 149.359L44.7656 159.602L51.75 149.336C52 148.93 52.625 148.727 53.625 148.727H53.9062C54.4844 148.758 54.8984 148.836 55.1484 148.961C55.4141 149.07 55.5469 149.234 55.5469 149.453C55.5469 149.594 55.4297 149.844 55.1953 150.203L46.4766 163.164V177.156C46.4766 177.766 45.9141 178.07 44.7891 178.07H44.4609ZM66.5625 178.234C63.4219 178.234 61.0234 177.297 59.3672 175.422C57.7266 173.531 56.9062 170.789 56.9062 167.195C56.9062 163.602 57.7422 160.836 59.4141 158.898C61.0859 156.945 63.4688 155.969 66.5625 155.969C69.625 155.969 71.9688 156.938 73.5938 158.875C75.2188 160.797 76.0312 163.57 76.0312 167.195C76.0312 170.805 75.2266 173.547 73.6172 175.422C72.0234 177.297 69.6719 178.234 66.5625 178.234ZM66.4453 175.234C68.4766 175.234 69.9766 174.578 70.9453 173.266C71.9141 171.938 72.3984 169.891 72.3984 167.125C72.3984 164.344 71.9141 162.289 70.9453 160.961C69.9766 159.633 68.4766 158.969 66.4453 158.969C64.4297 158.969 62.9453 159.633 61.9922 160.961C61.0391 162.273 60.5625 164.328 60.5625 167.125C60.5625 169.906 61.0312 171.953 61.9688 173.266C62.9219 174.578 64.4141 175.234 66.4453 175.234ZM88.2422 178.234C86.1172 178.234 84.4531 177.641 83.25 176.453C82.0469 175.25 81.4453 173.594 81.4453 171.484V157.047C81.4453 156.438 82.0078 156.133 83.1328 156.133H83.2969C84.4062 156.133 84.9609 156.438 84.9609 157.047V171.156C84.9609 172.438 85.3281 173.438 86.0625 174.156C86.8125 174.859 87.8594 175.211 89.2031 175.211C90.1406 175.211 91.0781 174.953 92.0156 174.438C92.9531 173.906 93.7656 173.188 94.4531 172.281V157.047C94.4531 156.438 95.0078 156.133 96.1172 156.133H96.2812C97.4062 156.133 97.9688 156.438 97.9688 157.047V171.836C97.9688 173.648 98.0469 174.961 98.2031 175.773C98.3594 176.57 98.4375 177.008 98.4375 177.086C98.4375 177.43 98.1797 177.68 97.6641 177.836C97.1484 177.977 96.6641 178.047 96.2109 178.047C95.8203 178.047 95.5312 177.828 95.3438 177.391C95.1562 176.938 95.0156 176.477 94.9219 176.008C94.8438 175.539 94.7891 175.242 94.7578 175.117C93.8828 176.102 92.8672 176.867 91.7109 177.414C90.5703 177.961 89.4141 178.234 88.2422 178.234ZM117.07 178.07C115.961 178.07 115.406 177.766 115.406 177.156V147.578C115.406 146.969 115.961 146.664 117.07 146.664H117.234C118.359 146.664 118.922 146.969 118.922 147.578V158.828C119.734 158 120.688 157.32 121.781 156.789C122.875 156.242 124.039 155.969 125.273 155.969C127.023 155.969 128.562 156.461 129.891 157.445C131.234 158.43 131.906 160.18 131.906 162.695V177.156C131.906 177.766 131.352 178.07 130.242 178.07H130.078C128.953 178.07 128.391 177.766 128.391 177.156V163.047C128.391 161.781 128.031 160.789 127.312 160.07C126.594 159.352 125.539 158.992 124.148 158.992C123.227 158.992 122.375 159.211 121.594 159.648C120.828 160.086 120.188 160.562 119.672 161.078C119.172 161.578 118.922 161.859 118.922 161.922V177.156C118.922 177.766 118.359 178.07 117.234 178.07H117.07ZM144.305 178.234C142.18 178.234 140.461 177.711 139.148 176.664C137.836 175.617 137.18 174.062 137.18 172C137.18 169.828 137.844 168.195 139.172 167.102C140.5 165.992 142.117 165.281 144.023 164.969C145.945 164.641 148.273 164.453 151.008 164.406V162.438C151.008 161.391 150.648 160.555 149.93 159.93C149.227 159.289 148.062 158.969 146.438 158.969C145.203 158.969 144.117 159.117 143.18 159.414C142.258 159.695 141.391 160.039 140.578 160.445C140.234 160.617 140.023 160.703 139.945 160.703C139.758 160.703 139.547 160.57 139.312 160.305C139.094 160.023 138.898 159.711 138.727 159.367C138.57 159.023 138.492 158.773 138.492 158.617C138.492 158.258 138.859 157.867 139.594 157.445C140.344 157.023 141.32 156.672 142.523 156.391C143.727 156.109 144.984 155.969 146.297 155.969C148.906 155.969 150.93 156.539 152.367 157.68C153.805 158.82 154.523 160.422 154.523 162.484V171.836C154.523 173.648 154.602 174.961 154.758 175.773C154.93 176.57 155.016 177.008 155.016 177.086C155.016 177.43 154.75 177.68 154.219 177.836C153.703 177.977 153.219 178.047 152.766 178.047C152.391 178.047 152.109 177.836 151.922 177.414C151.75 176.992 151.578 176.383 151.406 175.586L151.312 175.117C150.453 176.07 149.438 176.828 148.266 177.391C147.109 177.953 145.789 178.234 144.305 178.234ZM144.492 175.211C145.867 175.211 147.039 174.961 148.008 174.461C148.977 173.961 149.977 173.25 151.008 172.328V167.406C148.945 167.422 147.25 167.508 145.922 167.664C144.594 167.82 143.43 168.219 142.43 168.859C141.43 169.484 140.93 170.461 140.93 171.789C140.93 172.898 141.227 173.75 141.82 174.344C142.43 174.922 143.32 175.211 144.492 175.211ZM167.273 178.07C166.289 178.07 165.727 177.852 165.586 177.414L158.883 157.375C158.789 157.094 158.742 156.914 158.742 156.836C158.742 156.617 158.891 156.445 159.188 156.32C159.484 156.195 159.938 156.133 160.547 156.133H160.758C161.727 156.133 162.281 156.352 162.422 156.789L166.664 170.078C167.008 171.109 167.406 172.516 167.859 174.297L168.117 175.281H168.305L168.586 174.039C168.93 172.398 169.25 171.109 169.547 170.172L173.836 156.789C173.977 156.352 174.547 156.133 175.547 156.133H175.664C176.711 156.133 177.234 156.367 177.234 156.836C177.234 156.992 177.18 157.18 177.07 157.398L170.391 177.414C170.25 177.852 169.688 178.07 168.703 178.07H167.273ZM190.594 178.234C187.141 178.234 184.57 177.336 182.883 175.539C181.211 173.727 180.375 170.961 180.375 167.242C180.375 163.555 181.195 160.758 182.836 158.852C184.477 156.93 186.891 155.969 190.078 155.969C192.922 155.969 195.062 156.891 196.5 158.734C197.953 160.578 198.68 163.281 198.68 166.844C198.68 167 198.594 167.219 198.422 167.5C198.266 167.766 198.07 168.008 197.836 168.227C197.617 168.43 197.43 168.531 197.273 168.531H184.125C184.297 170.859 184.891 172.562 185.906 173.641C186.938 174.703 188.484 175.234 190.547 175.234C191.703 175.234 192.695 175.094 193.523 174.812C194.367 174.531 195.18 174.188 195.961 173.781C196.039 173.75 196.156 173.695 196.312 173.617C196.469 173.539 196.578 173.5 196.641 173.5C196.812 173.5 197.008 173.641 197.227 173.922C197.461 174.188 197.656 174.492 197.812 174.836C197.984 175.164 198.07 175.406 198.07 175.562C198.07 175.906 197.727 176.289 197.039 176.711C196.352 177.133 195.43 177.492 194.273 177.789C193.133 178.086 191.906 178.234 190.594 178.234ZM194.953 165.531C194.953 161.156 193.289 158.969 189.961 158.969C186.383 158.969 184.438 161.156 184.125 165.531H194.953ZM219.773 178.234C217.648 178.234 215.93 177.711 214.617 176.664C213.305 175.617 212.648 174.062 212.648 172C212.648 169.828 213.312 168.195 214.641 167.102C215.969 165.992 217.586 165.281 219.492 164.969C221.414 164.641 223.742 164.453 226.477 164.406V162.438C226.477 161.391 226.117 160.555 225.398 159.93C224.695 159.289 223.531 158.969 221.906 158.969C220.672 158.969 219.586 159.117 218.648 159.414C217.727 159.695 216.859 160.039 216.047 160.445C215.703 160.617 215.492 160.703 215.414 160.703C215.227 160.703 215.016 160.57 214.781 160.305C214.562 160.023 214.367 159.711 214.195 159.367C214.039 159.023 213.961 158.773 213.961 158.617C213.961 158.258 214.328 157.867 215.062 157.445C215.812 157.023 216.789 156.672 217.992 156.391C219.195 156.109 220.453 155.969 221.766 155.969C224.375 155.969 226.398 156.539 227.836 157.68C229.273 158.82 229.992 160.422 229.992 162.484V171.836C229.992 173.648 230.07 174.961 230.227 175.773C230.398 176.57 230.484 177.008 230.484 177.086C230.484 177.43 230.219 177.68 229.688 177.836C229.172 177.977 228.688 178.047 228.234 178.047C227.859 178.047 227.578 177.836 227.391 177.414C227.219 176.992 227.047 176.383 226.875 175.586L226.781 175.117C225.922 176.07 224.906 176.828 223.734 177.391C222.578 177.953 221.258 178.234 219.773 178.234ZM219.961 175.211C221.336 175.211 222.508 174.961 223.477 174.461C224.445 173.961 225.445 173.25 226.477 172.328V167.406C224.414 167.422 222.719 167.508 221.391 167.664C220.062 167.82 218.898 168.219 217.898 168.859C216.898 169.484 216.398 170.461 216.398 171.789C216.398 172.898 216.695 173.75 217.289 174.344C217.898 174.922 218.789 175.211 219.961 175.211ZM269.039 155.969C270.773 155.969 272.297 156.461 273.609 157.445C274.922 158.43 275.578 160.18 275.578 162.695V177.156C275.578 177.469 275.445 177.703 275.18 177.859C274.914 178 274.492 178.07 273.914 178.07H273.773C273.18 178.07 272.75 178 272.484 177.859C272.219 177.703 272.086 177.469 272.086 177.156V163.047C272.086 161.781 271.742 160.789 271.055 160.07C270.383 159.352 269.391 158.992 268.078 158.992C266.984 158.992 265.992 159.312 265.102 159.953C264.227 160.578 263.516 161.234 262.969 161.922C263 162.297 263.016 162.578 263.016 162.766V177.156C263.016 177.766 262.453 178.07 261.328 178.07H261.164C260.055 178.07 259.5 177.766 259.5 177.156V163.047C259.5 161.781 259.156 160.789 258.469 160.07C257.797 159.352 256.805 158.992 255.492 158.992C254.586 158.992 253.758 159.211 253.008 159.648C252.258 160.07 251.633 160.531 251.133 161.031C250.648 161.531 250.406 161.812 250.406 161.875V177.156C250.406 177.469 250.273 177.703 250.008 177.859C249.758 178 249.344 178.07 248.766 178.07H248.578C248 178.07 247.578 178 247.312 177.859C247.062 177.703 246.938 177.469 246.938 177.156V162.531C246.938 160.719 246.852 159.414 246.68 158.617C246.508 157.805 246.422 157.359 246.422 157.281C246.422 156.938 246.68 156.695 247.195 156.555C247.727 156.398 248.219 156.32 248.672 156.32C249.062 156.32 249.352 156.531 249.539 156.953C249.727 157.375 249.859 157.805 249.938 158.242C250.031 158.68 250.094 158.961 250.125 159.086C250.891 158.195 251.828 157.453 252.938 156.859C254.047 156.266 255.219 155.969 256.453 155.969C257.719 155.969 258.898 156.227 259.992 156.742C261.086 157.242 261.891 158.133 262.406 159.414C263.266 158.398 264.273 157.57 265.43 156.93C266.586 156.289 267.789 155.969 269.039 155.969ZM284.016 150.953C282.906 150.953 282.352 150.648 282.352 150.039V147.578C282.352 146.969 282.906 146.664 284.016 146.664H284.508C285.633 146.664 286.195 146.969 286.195 147.578V150.039C286.195 150.648 285.633 150.953 284.508 150.953H284.016ZM284.18 178.07C283.07 178.07 282.516 177.766 282.516 177.156V157.047C282.516 156.438 283.07 156.133 284.18 156.133H284.344C285.469 156.133 286.031 156.438 286.031 157.047V177.156C286.031 177.766 285.469 178.07 284.344 178.07H284.18ZM297.867 178.398C296.695 178.398 295.602 178.25 294.586 177.953C293.57 177.656 292.758 177.297 292.148 176.875C291.555 176.438 291.258 176.055 291.258 175.727C291.258 175.57 291.336 175.32 291.492 174.977C291.664 174.633 291.859 174.328 292.078 174.062C292.312 173.781 292.523 173.641 292.711 173.641C292.758 173.641 292.898 173.719 293.133 173.875C293.758 174.281 294.414 174.625 295.102 174.906C295.805 175.188 296.641 175.328 297.609 175.328C300.328 175.328 301.688 174.203 301.688 171.953C301.688 171.312 301.555 170.773 301.289 170.336C301.039 169.898 300.609 169.516 300 169.188C299.406 168.844 298.586 168.516 297.539 168.203C296.039 167.766 294.867 167.266 294.023 166.703C293.195 166.141 292.609 165.484 292.266 164.734C291.922 163.969 291.75 163.047 291.75 161.969C291.75 160.812 292.039 159.773 292.617 158.852C293.211 157.93 294.031 157.211 295.078 156.695C296.141 156.18 297.336 155.922 298.664 155.922C299.586 155.922 300.469 156.008 301.312 156.18C302.172 156.352 302.859 156.578 303.375 156.859C303.906 157.125 304.172 157.406 304.172 157.703C304.172 157.922 304.094 158.219 303.938 158.594C303.797 158.953 303.617 159.273 303.398 159.555C303.18 159.82 302.984 159.953 302.812 159.953C302.781 159.953 302.586 159.859 302.227 159.672C301.867 159.469 301.406 159.289 300.844 159.133C300.297 158.961 299.688 158.875 299.016 158.875C297.953 158.875 297.07 159.117 296.367 159.602C295.68 160.07 295.336 160.703 295.336 161.5C295.336 162.438 295.586 163.188 296.086 163.75C296.586 164.312 297.414 164.773 298.57 165.133C300.352 165.68 301.711 166.227 302.648 166.773C303.586 167.32 304.25 167.992 304.641 168.789C305.047 169.57 305.25 170.602 305.25 171.883C305.25 173.102 304.922 174.211 304.266 175.211C303.609 176.195 302.719 176.977 301.594 177.555C300.469 178.117 299.227 178.398 297.867 178.398ZM315.07 178.398C313.898 178.398 312.805 178.25 311.789 177.953C310.773 177.656 309.961 177.297 309.352 176.875C308.758 176.438 308.461 176.055 308.461 175.727C308.461 175.57 308.539 175.32 308.695 174.977C308.867 174.633 309.062 174.328 309.281 174.062C309.516 173.781 309.727 173.641 309.914 173.641C309.961 173.641 310.102 173.719 310.336 173.875C310.961 174.281 311.617 174.625 312.305 174.906C313.008 175.188 313.844 175.328 314.812 175.328C317.531 175.328 318.891 174.203 318.891 171.953C318.891 171.312 318.758 170.773 318.492 170.336C318.242 169.898 317.812 169.516 317.203 169.188C316.609 168.844 315.789 168.516 314.742 168.203C313.242 167.766 312.07 167.266 311.227 166.703C310.398 166.141 309.812 165.484 309.469 164.734C309.125 163.969 308.953 163.047 308.953 161.969C308.953 160.812 309.242 159.773 309.82 158.852C310.414 157.93 311.234 157.211 312.281 156.695C313.344 156.18 314.539 155.922 315.867 155.922C316.789 155.922 317.672 156.008 318.516 156.18C319.375 156.352 320.062 156.578 320.578 156.859C321.109 157.125 321.375 157.406 321.375 157.703C321.375 157.922 321.297 158.219 321.141 158.594C321 158.953 320.82 159.273 320.602 159.555C320.383 159.82 320.188 159.953 320.016 159.953C319.984 159.953 319.789 159.859 319.43 159.672C319.07 159.469 318.609 159.289 318.047 159.133C317.5 158.961 316.891 158.875 316.219 158.875C315.156 158.875 314.273 159.117 313.57 159.602C312.883 160.07 312.539 160.703 312.539 161.5C312.539 162.438 312.789 163.188 313.289 163.75C313.789 164.312 314.617 164.773 315.773 165.133C317.555 165.68 318.914 166.227 319.852 166.773C320.789 167.32 321.453 167.992 321.844 168.789C322.25 169.57 322.453 170.602 322.453 171.883C322.453 173.102 322.125 174.211 321.469 175.211C320.812 176.195 319.922 176.977 318.797 177.555C317.672 178.117 316.43 178.398 315.07 178.398ZM329.484 150.953C328.375 150.953 327.82 150.648 327.82 150.039V147.578C327.82 146.969 328.375 146.664 329.484 146.664H329.977C331.102 146.664 331.664 146.969 331.664 147.578V150.039C331.664 150.648 331.102 150.953 329.977 150.953H329.484ZM329.648 178.07C328.539 178.07 327.984 177.766 327.984 177.156V157.047C327.984 156.438 328.539 156.133 329.648 156.133H329.812C330.938 156.133 331.5 156.438 331.5 157.047V177.156C331.5 177.766 330.938 178.07 329.812 178.07H329.648ZM347.203 178.234C344.062 178.234 341.664 177.297 340.008 175.422C338.367 173.531 337.547 170.789 337.547 167.195C337.547 163.602 338.383 160.836 340.055 158.898C341.727 156.945 344.109 155.969 347.203 155.969C350.266 155.969 352.609 156.938 354.234 158.875C355.859 160.797 356.672 163.57 356.672 167.195C356.672 170.805 355.867 173.547 354.258 175.422C352.664 177.297 350.312 178.234 347.203 178.234ZM347.086 175.234C349.117 175.234 350.617 174.578 351.586 173.266C352.555 171.938 353.039 169.891 353.039 167.125C353.039 164.344 352.555 162.289 351.586 160.961C350.617 159.633 349.117 158.969 347.086 158.969C345.07 158.969 343.586 159.633 342.633 160.961C341.68 162.273 341.203 164.328 341.203 167.125C341.203 169.906 341.672 171.953 342.609 173.266C343.562 174.578 345.055 175.234 347.086 175.234ZM364.242 178.07C363.648 178.07 363.219 178 362.953 177.859C362.688 177.703 362.555 177.469 362.555 177.156V162.531C362.555 160.719 362.469 159.414 362.297 158.617C362.125 157.805 362.039 157.359 362.039 157.281C362.039 156.938 362.297 156.695 362.812 156.555C363.344 156.398 363.844 156.32 364.312 156.32C364.703 156.32 364.992 156.531 365.18 156.953C365.367 157.375 365.5 157.805 365.578 158.242C365.672 158.68 365.734 158.961 365.766 159.086C366.641 158.102 367.648 157.336 368.789 156.789C369.945 156.242 371.109 155.969 372.281 155.969C374.406 155.969 376.062 156.57 377.25 157.773C378.453 158.961 379.055 160.602 379.055 162.695V177.156C379.055 177.469 378.922 177.703 378.656 177.859C378.391 178 377.969 178.07 377.391 178.07H377.203C376.641 178.07 376.227 178 375.961 177.859C375.695 177.703 375.562 177.469 375.562 177.156V163.047C375.562 161.766 375.188 160.773 374.438 160.07C373.703 159.352 372.664 158.992 371.32 158.992C370.383 158.992 369.438 159.258 368.484 159.789C367.547 160.305 366.734 161.016 366.047 161.922V177.156C366.047 177.469 365.914 177.703 365.648 177.859C365.383 178 364.969 178.07 364.406 178.07H364.242ZM383.883 182.828C383.57 182.828 383.289 182.781 383.039 182.688C382.805 182.594 382.688 182.43 382.688 182.195C382.688 182.086 382.734 181.914 382.828 181.68C382.938 181.461 383.008 181.305 383.039 181.211C383.523 180.273 383.883 179.289 384.117 178.258C384.352 177.242 384.469 176.102 384.469 174.836C384.469 174.43 384.609 174.109 384.891 173.875C385.172 173.625 385.586 173.5 386.133 173.5H386.531C387.047 173.5 387.445 173.609 387.727 173.828C388.023 174.031 388.172 174.305 388.172 174.648C388.172 176.195 387.922 177.594 387.422 178.844C386.922 180.094 386.328 181.07 385.641 181.773C384.969 182.477 384.383 182.828 383.883 182.828ZM409.125 178.07C408.109 178.07 407.555 177.852 407.461 177.414L401.977 157.656C401.82 157.219 401.742 156.945 401.742 156.836C401.742 156.367 402.383 156.133 403.664 156.133C404.664 156.133 405.219 156.352 405.328 156.789L408.844 170.125C408.906 170.344 409.109 171.234 409.453 172.797C409.531 173.219 409.68 173.914 409.898 174.883C410.211 172.961 410.555 171.359 410.93 170.078L414.375 156.836C414.484 156.367 415.031 156.133 416.016 156.133H416.297C417.25 156.133 417.797 156.367 417.938 156.836L421.406 170.078C421.781 171.453 422.094 172.805 422.344 174.133C422.359 174.227 422.398 174.461 422.461 174.836C422.898 172.523 423.219 170.969 423.422 170.172L426.938 156.789C427.047 156.352 427.609 156.133 428.625 156.133C429.734 156.133 430.289 156.367 430.289 156.836C430.289 157.008 430.25 157.195 430.172 157.398L424.57 177.414C424.477 177.852 423.93 178.07 422.93 178.07H421.664C420.68 178.07 420.141 177.852 420.047 177.414L416.695 164.195C416.492 163.336 416.289 162.258 416.086 160.961C415.883 162.32 415.672 163.391 415.453 164.172L412.055 177.414C411.961 177.852 411.398 178.07 410.367 178.07H409.125ZM444.141 178.234C440.688 178.234 438.117 177.336 436.43 175.539C434.758 173.727 433.922 170.961 433.922 167.242C433.922 163.555 434.742 160.758 436.383 158.852C438.023 156.93 440.438 155.969 443.625 155.969C446.469 155.969 448.609 156.891 450.047 158.734C451.5 160.578 452.227 163.281 452.227 166.844C452.227 167 452.141 167.219 451.969 167.5C451.812 167.766 451.617 168.008 451.383 168.227C451.164 168.43 450.977 168.531 450.82 168.531H437.672C437.844 170.859 438.438 172.562 439.453 173.641C440.484 174.703 442.031 175.234 444.094 175.234C445.25 175.234 446.242 175.094 447.07 174.812C447.914 174.531 448.727 174.188 449.508 173.781C449.586 173.75 449.703 173.695 449.859 173.617C450.016 173.539 450.125 173.5 450.188 173.5C450.359 173.5 450.555 173.641 450.773 173.922C451.008 174.188 451.203 174.492 451.359 174.836C451.531 175.164 451.617 175.406 451.617 175.562C451.617 175.906 451.273 176.289 450.586 176.711C449.898 177.133 448.977 177.492 447.82 177.789C446.68 178.086 445.453 178.234 444.141 178.234ZM448.5 165.531C448.5 161.156 446.836 158.969 443.508 158.969C439.93 158.969 437.984 161.156 437.672 165.531H448.5ZM469.664 178.07C468.555 178.07 468 177.766 468 177.156V147.578C468 146.969 468.555 146.664 469.664 146.664H469.828C470.953 146.664 471.516 146.969 471.516 147.578V158.828C472.328 158 473.281 157.32 474.375 156.789C475.469 156.242 476.633 155.969 477.867 155.969C479.617 155.969 481.156 156.461 482.484 157.445C483.828 158.43 484.5 160.18 484.5 162.695V177.156C484.5 177.766 483.945 178.07 482.836 178.07H482.672C481.547 178.07 480.984 177.766 480.984 177.156V163.047C480.984 161.781 480.625 160.789 479.906 160.07C479.188 159.352 478.133 158.992 476.742 158.992C475.82 158.992 474.969 159.211 474.188 159.648C473.422 160.086 472.781 160.562 472.266 161.078C471.766 161.578 471.516 161.859 471.516 161.922V177.156C471.516 177.766 470.953 178.07 469.828 178.07H469.664ZM496.898 178.234C494.773 178.234 493.055 177.711 491.742 176.664C490.43 175.617 489.773 174.062 489.773 172C489.773 169.828 490.438 168.195 491.766 167.102C493.094 165.992 494.711 165.281 496.617 164.969C498.539 164.641 500.867 164.453 503.602 164.406V162.438C503.602 161.391 503.242 160.555 502.523 159.93C501.82 159.289 500.656 158.969 499.031 158.969C497.797 158.969 496.711 159.117 495.773 159.414C494.852 159.695 493.984 160.039 493.172 160.445C492.828 160.617 492.617 160.703 492.539 160.703C492.352 160.703 492.141 160.57 491.906 160.305C491.688 160.023 491.492 159.711 491.32 159.367C491.164 159.023 491.086 158.773 491.086 158.617C491.086 158.258 491.453 157.867 492.188 157.445C492.938 157.023 493.914 156.672 495.117 156.391C496.32 156.109 497.578 155.969 498.891 155.969C501.5 155.969 503.523 156.539 504.961 157.68C506.398 158.82 507.117 160.422 507.117 162.484V171.836C507.117 173.648 507.195 174.961 507.352 175.773C507.523 176.57 507.609 177.008 507.609 177.086C507.609 177.43 507.344 177.68 506.812 177.836C506.297 177.977 505.812 178.047 505.359 178.047C504.984 178.047 504.703 177.836 504.516 177.414C504.344 176.992 504.172 176.383 504 175.586L503.906 175.117C503.047 176.07 502.031 176.828 500.859 177.391C499.703 177.953 498.383 178.234 496.898 178.234ZM497.086 175.211C498.461 175.211 499.633 174.961 500.602 174.461C501.57 173.961 502.57 173.25 503.602 172.328V167.406C501.539 167.422 499.844 167.508 498.516 167.664C497.188 167.82 496.023 168.219 495.023 168.859C494.023 169.484 493.523 170.461 493.523 171.789C493.523 172.898 493.82 173.75 494.414 174.344C495.023 174.922 495.914 175.211 497.086 175.211ZM519.867 178.07C518.883 178.07 518.32 177.852 518.18 177.414L511.477 157.375C511.383 157.094 511.336 156.914 511.336 156.836C511.336 156.617 511.484 156.445 511.781 156.32C512.078 156.195 512.531 156.133 513.141 156.133H513.352C514.32 156.133 514.875 156.352 515.016 156.789L519.258 170.078C519.602 171.109 520 172.516 520.453 174.297L520.711 175.281H520.898L521.18 174.039C521.523 172.398 521.844 171.109 522.141 170.172L526.43 156.789C526.57 156.352 527.141 156.133 528.141 156.133H528.258C529.305 156.133 529.828 156.367 529.828 156.836C529.828 156.992 529.773 157.18 529.664 157.398L522.984 177.414C522.844 177.852 522.281 178.07 521.297 178.07H519.867ZM543.188 178.234C539.734 178.234 537.164 177.336 535.477 175.539C533.805 173.727 532.969 170.961 532.969 167.242C532.969 163.555 533.789 160.758 535.43 158.852C537.07 156.93 539.484 155.969 542.672 155.969C545.516 155.969 547.656 156.891 549.094 158.734C550.547 160.578 551.273 163.281 551.273 166.844C551.273 167 551.188 167.219 551.016 167.5C550.859 167.766 550.664 168.008 550.43 168.227C550.211 168.43 550.023 168.531 549.867 168.531H536.719C536.891 170.859 537.484 172.562 538.5 173.641C539.531 174.703 541.078 175.234 543.141 175.234C544.297 175.234 545.289 175.094 546.117 174.812C546.961 174.531 547.773 174.188 548.555 173.781C548.633 173.75 548.75 173.695 548.906 173.617C549.062 173.539 549.172 173.5 549.234 173.5C549.406 173.5 549.602 173.641 549.82 173.922C550.055 174.188 550.25 174.492 550.406 174.836C550.578 175.164 550.664 175.406 550.664 175.562C550.664 175.906 550.32 176.289 549.633 176.711C548.945 177.133 548.023 177.492 546.867 177.789C545.727 178.086 544.5 178.234 543.188 178.234ZM547.547 165.531C547.547 161.156 545.883 158.969 542.555 158.969C538.977 158.969 537.031 161.156 536.719 165.531H547.547ZM573.047 178.234C571.656 178.234 570.414 177.812 569.32 176.969C568.227 176.125 567.68 174.633 567.68 172.492V159.203H565.594C565.297 159.203 565.078 159.109 564.938 158.922C564.812 158.719 564.75 158.398 564.75 157.961V157.445C564.75 157.008 564.812 156.695 564.938 156.508C565.078 156.305 565.297 156.203 565.594 156.203H567.68L568.172 151.844C568.203 151.234 568.648 150.93 569.508 150.93H569.906C570.344 150.93 570.664 151.008 570.867 151.164C571.07 151.305 571.172 151.531 571.172 151.844V156.203H574.664C574.961 156.203 575.172 156.305 575.297 156.508C575.438 156.695 575.508 157.008 575.508 157.445V157.961C575.508 158.398 575.438 158.719 575.297 158.922C575.172 159.109 574.961 159.203 574.664 159.203H571.172V172.164C571.172 173.305 571.367 174.102 571.758 174.555C572.164 175.008 572.711 175.234 573.398 175.234C573.93 175.234 574.336 175.203 574.617 175.141C574.914 175.078 575.109 175.047 575.203 175.047C575.453 175.047 575.656 175.297 575.812 175.797C575.984 176.297 576.07 176.695 576.07 176.992C576.07 177.82 575.062 178.234 573.047 178.234ZM583.008 178.07C581.898 178.07 581.344 177.766 581.344 177.156V147.578C581.344 146.969 581.898 146.664 583.008 146.664H583.172C584.297 146.664 584.859 146.969 584.859 147.578V158.828C585.672 158 586.625 157.32 587.719 156.789C588.812 156.242 589.977 155.969 591.211 155.969C592.961 155.969 594.5 156.461 595.828 157.445C597.172 158.43 597.844 160.18 597.844 162.695V177.156C597.844 177.766 597.289 178.07 596.18 178.07H596.016C594.891 178.07 594.328 177.766 594.328 177.156V163.047C594.328 161.781 593.969 160.789 593.25 160.07C592.531 159.352 591.477 158.992 590.086 158.992C589.164 158.992 588.312 159.211 587.531 159.648C586.766 160.086 586.125 160.562 585.609 161.078C585.109 161.578 584.859 161.859 584.859 161.922V177.156C584.859 177.766 584.297 178.07 583.172 178.07H583.008ZM613.594 178.234C610.141 178.234 607.57 177.336 605.883 175.539C604.211 173.727 603.375 170.961 603.375 167.242C603.375 163.555 604.195 160.758 605.836 158.852C607.477 156.93 609.891 155.969 613.078 155.969C615.922 155.969 618.062 156.891 619.5 158.734C620.953 160.578 621.68 163.281 621.68 166.844C621.68 167 621.594 167.219 621.422 167.5C621.266 167.766 621.07 168.008 620.836 168.227C620.617 168.43 620.43 168.531 620.273 168.531H607.125C607.297 170.859 607.891 172.562 608.906 173.641C609.938 174.703 611.484 175.234 613.547 175.234C614.703 175.234 615.695 175.094 616.523 174.812C617.367 174.531 618.18 174.188 618.961 173.781C619.039 173.75 619.156 173.695 619.312 173.617C619.469 173.539 619.578 173.5 619.641 173.5C619.812 173.5 620.008 173.641 620.227 173.922C620.461 174.188 620.656 174.492 620.812 174.836C620.984 175.164 621.07 175.406 621.07 175.562C621.07 175.906 620.727 176.289 620.039 176.711C619.352 177.133 618.43 177.492 617.273 177.789C616.133 178.086 614.906 178.234 613.594 178.234ZM617.953 165.531C617.953 161.156 616.289 158.969 612.961 158.969C609.383 158.969 607.438 161.156 607.125 165.531H617.953ZM659.273 155.969C661.008 155.969 662.531 156.461 663.844 157.445C665.156 158.43 665.812 160.18 665.812 162.695V177.156C665.812 177.469 665.68 177.703 665.414 177.859C665.148 178 664.727 178.07 664.148 178.07H664.008C663.414 178.07 662.984 178 662.719 177.859C662.453 177.703 662.32 177.469 662.32 177.156V163.047C662.32 161.781 661.977 160.789 661.289 160.07C660.617 159.352 659.625 158.992 658.312 158.992C657.219 158.992 656.227 159.312 655.336 159.953C654.461 160.578 653.75 161.234 653.203 161.922C653.234 162.297 653.25 162.578 653.25 162.766V177.156C653.25 177.766 652.688 178.07 651.562 178.07H651.398C650.289 178.07 649.734 177.766 649.734 177.156V163.047C649.734 161.781 649.391 160.789 648.703 160.07C648.031 159.352 647.039 158.992 645.727 158.992C644.82 158.992 643.992 159.211 643.242 159.648C642.492 160.07 641.867 160.531 641.367 161.031C640.883 161.531 640.641 161.812 640.641 161.875V177.156C640.641 177.469 640.508 177.703 640.242 177.859C639.992 178 639.578 178.07 639 178.07H638.812C638.234 178.07 637.812 178 637.547 177.859C637.297 177.703 637.172 177.469 637.172 177.156V162.531C637.172 160.719 637.086 159.414 636.914 158.617C636.742 157.805 636.656 157.359 636.656 157.281C636.656 156.938 636.914 156.695 637.43 156.555C637.961 156.398 638.453 156.32 638.906 156.32C639.297 156.32 639.586 156.531 639.773 156.953C639.961 157.375 640.094 157.805 640.172 158.242C640.266 158.68 640.328 158.961 640.359 159.086C641.125 158.195 642.062 157.453 643.172 156.859C644.281 156.266 645.453 155.969 646.688 155.969C647.953 155.969 649.133 156.227 650.227 156.742C651.32 157.242 652.125 158.133 652.641 159.414C653.5 158.398 654.508 157.57 655.664 156.93C656.82 156.289 658.023 155.969 659.273 155.969ZM681.469 178.234C678.016 178.234 675.445 177.336 673.758 175.539C672.086 173.727 671.25 170.961 671.25 167.242C671.25 163.555 672.07 160.758 673.711 158.852C675.352 156.93 677.766 155.969 680.953 155.969C683.797 155.969 685.938 156.891 687.375 158.734C688.828 160.578 689.555 163.281 689.555 166.844C689.555 167 689.469 167.219 689.297 167.5C689.141 167.766 688.945 168.008 688.711 168.227C688.492 168.43 688.305 168.531 688.148 168.531H675C675.172 170.859 675.766 172.562 676.781 173.641C677.812 174.703 679.359 175.234 681.422 175.234C682.578 175.234 683.57 175.094 684.398 174.812C685.242 174.531 686.055 174.188 686.836 173.781C686.914 173.75 687.031 173.695 687.188 173.617C687.344 173.539 687.453 173.5 687.516 173.5C687.688 173.5 687.883 173.641 688.102 173.922C688.336 174.188 688.531 174.492 688.688 174.836C688.859 175.164 688.945 175.406 688.945 175.562C688.945 175.906 688.602 176.289 687.914 176.711C687.227 177.133 686.305 177.492 685.148 177.789C684.008 178.086 682.781 178.234 681.469 178.234ZM685.828 165.531C685.828 161.156 684.164 158.969 680.836 158.969C677.258 158.969 675.312 161.156 675 165.531H685.828ZM700.617 178.234C698.492 178.234 696.773 177.711 695.461 176.664C694.148 175.617 693.492 174.062 693.492 172C693.492 169.828 694.156 168.195 695.484 167.102C696.812 165.992 698.43 165.281 700.336 164.969C702.258 164.641 704.586 164.453 707.32 164.406V162.438C707.32 161.391 706.961 160.555 706.242 159.93C705.539 159.289 704.375 158.969 702.75 158.969C701.516 158.969 700.43 159.117 699.492 159.414C698.57 159.695 697.703 160.039 696.891 160.445C696.547 160.617 696.336 160.703 696.258 160.703C696.07 160.703 695.859 160.57 695.625 160.305C695.406 160.023 695.211 159.711 695.039 159.367C694.883 159.023 694.805 158.773 694.805 158.617C694.805 158.258 695.172 157.867 695.906 157.445C696.656 157.023 697.633 156.672 698.836 156.391C700.039 156.109 701.297 155.969 702.609 155.969C705.219 155.969 707.242 156.539 708.68 157.68C710.117 158.82 710.836 160.422 710.836 162.484V171.836C710.836 173.648 710.914 174.961 711.07 175.773C711.242 176.57 711.328 177.008 711.328 177.086C711.328 177.43 711.062 177.68 710.531 177.836C710.016 177.977 709.531 178.047 709.078 178.047C708.703 178.047 708.422 177.836 708.234 177.414C708.062 176.992 707.891 176.383 707.719 175.586L707.625 175.117C706.766 176.07 705.75 176.828 704.578 177.391C703.422 177.953 702.102 178.234 700.617 178.234ZM700.805 175.211C702.18 175.211 703.352 174.961 704.32 174.461C705.289 173.961 706.289 173.25 707.32 172.328V167.406C705.258 167.422 703.562 167.508 702.234 167.664C700.906 167.82 699.742 168.219 698.742 168.859C697.742 169.484 697.242 170.461 697.242 171.789C697.242 172.898 697.539 173.75 698.133 174.344C698.742 174.922 699.633 175.211 700.805 175.211ZM719.461 178.07C718.867 178.07 718.438 178 718.172 177.859C717.906 177.703 717.773 177.469 717.773 177.156V162.531C717.773 160.719 717.688 159.414 717.516 158.617C717.344 157.805 717.258 157.359 717.258 157.281C717.258 156.938 717.516 156.695 718.031 156.555C718.562 156.398 719.062 156.32 719.531 156.32C719.922 156.32 720.211 156.531 720.398 156.953C720.586 157.375 720.719 157.805 720.797 158.242C720.891 158.68 720.953 158.961 720.984 159.086C721.859 158.102 722.867 157.336 724.008 156.789C725.164 156.242 726.328 155.969 727.5 155.969C729.625 155.969 731.281 156.57 732.469 157.773C733.672 158.961 734.273 160.602 734.273 162.695V177.156C734.273 177.469 734.141 177.703 733.875 177.859C733.609 178 733.188 178.07 732.609 178.07H732.422C731.859 178.07 731.445 178 731.18 177.859C730.914 177.703 730.781 177.469 730.781 177.156V163.047C730.781 161.766 730.406 160.773 729.656 160.07C728.922 159.352 727.883 158.992 726.539 158.992C725.602 158.992 724.656 159.258 723.703 159.789C722.766 160.305 721.953 161.016 721.266 161.922V177.156C721.266 177.469 721.133 177.703 720.867 177.859C720.602 178 720.188 178.07 719.625 178.07H719.461ZM745.477 178.398C744.305 178.398 743.211 178.25 742.195 177.953C741.18 177.656 740.367 177.297 739.758 176.875C739.164 176.438 738.867 176.055 738.867 175.727C738.867 175.57 738.945 175.32 739.102 174.977C739.273 174.633 739.469 174.328 739.688 174.062C739.922 173.781 740.133 173.641 740.32 173.641C740.367 173.641 740.508 173.719 740.742 173.875C741.367 174.281 742.023 174.625 742.711 174.906C743.414 175.188 744.25 175.328 745.219 175.328C747.938 175.328 749.297 174.203 749.297 171.953C749.297 171.312 749.164 170.773 748.898 170.336C748.648 169.898 748.219 169.516 747.609 169.188C747.016 168.844 746.195 168.516 745.148 168.203C743.648 167.766 742.477 167.266 741.633 166.703C740.805 166.141 740.219 165.484 739.875 164.734C739.531 163.969 739.359 163.047 739.359 161.969C739.359 160.812 739.648 159.773 740.227 158.852C740.82 157.93 741.641 157.211 742.688 156.695C743.75 156.18 744.945 155.922 746.273 155.922C747.195 155.922 748.078 156.008 748.922 156.18C749.781 156.352 750.469 156.578 750.984 156.859C751.516 157.125 751.781 157.406 751.781 157.703C751.781 157.922 751.703 158.219 751.547 158.594C751.406 158.953 751.227 159.273 751.008 159.555C750.789 159.82 750.594 159.953 750.422 159.953C750.391 159.953 750.195 159.859 749.836 159.672C749.477 159.469 749.016 159.289 748.453 159.133C747.906 158.961 747.297 158.875 746.625 158.875C745.562 158.875 744.68 159.117 743.977 159.602C743.289 160.07 742.945 160.703 742.945 161.5C742.945 162.438 743.195 163.188 743.695 163.75C744.195 164.312 745.023 164.773 746.18 165.133C747.961 165.68 749.32 166.227 750.258 166.773C751.195 167.32 751.859 167.992 752.25 168.789C752.656 169.57 752.859 170.602 752.859 171.883C752.859 173.102 752.531 174.211 751.875 175.211C751.219 176.195 750.328 176.977 749.203 177.555C748.078 178.117 746.836 178.398 745.477 178.398ZM758.391 178.07C757.812 178.07 757.391 178 757.125 177.859C756.859 177.703 756.727 177.469 756.727 177.156V174.414C756.727 173.805 757.281 173.5 758.391 173.5H759.094C760.203 173.5 760.758 173.805 760.758 174.414V177.156C760.758 177.469 760.625 177.703 760.359 177.859C760.094 178 759.672 178.07 759.094 178.07H758.391ZM766.688 178.07C766.109 178.07 765.688 178 765.422 177.859C765.156 177.703 765.023 177.469 765.023 177.156V174.414C765.023 173.805 765.578 173.5 766.688 173.5H767.391C768.5 173.5 769.055 173.805 769.055 174.414V177.156C769.055 177.469 768.922 177.703 768.656 177.859C768.391 178 767.969 178.07 767.391 178.07H766.688ZM774.984 178.07C774.406 178.07 773.984 178 773.719 177.859C773.453 177.703 773.32 177.469 773.32 177.156V174.414C773.32 173.805 773.875 173.5 774.984 173.5H775.688C776.797 173.5 777.352 173.805 777.352 174.414V177.156C777.352 177.469 777.219 177.703 776.953 177.859C776.688 178 776.266 178.07 775.688 178.07H774.984Z" fill="#41553E"/>
</g>
<defs>
<linearGradient id="paint0_linear_20_1203" x1="417.5" y1="101.5" x2="1423.5" y2="358" gradientUnits="userSpaceOnUse">
<stop stop-color="#FFE155"/>
<stop offset="0.362451" stop-color="#AA972B"/>
<stop offset="0.559467" stop-color="#758B48"/>
<stop offset="0.814208" stop-color="#417E35" stop-opacity="0.71"/>
<stop offset="1" stop-color="white"/>
</linearGradient>
<clipPath id="clip0_20_1203">
<rect width="1440" height="372" fill="white"/>
</clipPath>
</defs>
</svg>
