<svg width="1440" height="372" viewBox="0 0 1440 372" fill="none" xmlns="http://www.w3.org/2000/svg">
<g clip-path="url(#clip0_1_2)">
<rect width="1440" height="372" fill="url(#paint0_linear_1_2)" fill-opacity="0.4"/>
<path d="M-228.85 488.323C90.9919 450.02 749.59 345.367 825.245 233.178C900.9 120.988 1533.27 47.9101 1839.99 25.3948" stroke="#519D42" stroke-width="2"/>
<path d="M-220.207 509.853C99.6354 471.55 741.881 353.352 817.536 241.162C893.191 128.972 1541.91 69.4401 1848.63 46.9248" stroke="#519D42" stroke-width="2"/>
<path d="M-227.331 525.257C92.5107 486.954 734.756 368.756 810.411 256.566C886.066 144.377 1534.78 84.8444 1841.51 62.3291" stroke="#519D42" stroke-width="2"/>
<path d="M-227.331 525.257C92.5107 486.954 734.756 368.756 810.411 256.566C886.066 144.377 1534.78 84.8444 1841.51 62.3291" stroke="#519D42" stroke-width="2"/>
<path d="M-219.045 524.605C100.797 486.302 766.351 385.271 808.027 261.583C850.585 135.278 1543.07 84.1921 1849.8 61.6768" stroke="#519D42" stroke-width="2"/>
<path d="M-193.462 567.135C126.381 528.832 769.69 392.385 811.366 268.698C853.924 142.393 1568.65 126.722 1875.38 104.207" stroke="#519D42" stroke-width="2"/>
<path d="M-193.278 569.468C126.564 531.165 769.874 394.718 811.55 271.031C854.108 144.726 1568.84 129.055 1875.56 106.54" stroke="#519D42" stroke-width="2"/>
<path d="M-186.513 425.971C133.329 387.668 791.927 283.016 867.582 170.826C943.237 58.6363 1575.6 -14.4416 1882.33 -36.9569" stroke="#519D42" stroke-width="2"/>
<path d="M-177.869 447.501C141.973 409.198 784.218 291 859.873 178.81C935.528 66.6207 1584.25 7.08832 1890.97 -15.427" stroke="#519D42" stroke-width="2"/>
<path d="M-184.994 462.905C134.848 424.603 777.094 306.404 852.748 194.215C928.403 82.025 1577.12 22.4927 1883.85 -0.0226126" stroke="#519D42" stroke-width="2"/>
<path d="M-184.994 462.905C134.848 424.603 777.094 306.404 852.748 194.215C928.403 82.025 1577.12 22.4927 1883.85 -0.0226126" stroke="#519D42" stroke-width="2"/>
<path d="M-176.708 462.253C143.135 423.95 808.688 322.919 850.364 199.232C892.922 72.9267 1585.41 21.8404 1892.13 -0.674933" stroke="#519D42" stroke-width="2"/>
<path d="M-151.124 504.783C168.718 466.48 812.028 330.033 853.704 206.346C896.262 80.0409 1610.99 64.3704 1917.72 41.8551" stroke="#519D42" stroke-width="2"/>
<path d="M-150.941 507.116C168.902 468.814 812.211 332.367 853.888 208.679C896.446 82.3743 1611.18 66.7038 1917.9 44.1885" stroke="#519D42" stroke-width="2"/>
<path d="M-228.85 488.323C90.9919 450.02 749.59 345.367 825.245 233.178C900.9 120.988 1533.27 47.9101 1839.99 25.3948" stroke="#519D42" stroke-width="2"/>
<path d="M-220.207 509.853C99.6354 471.55 741.881 353.352 817.536 241.162C893.191 128.972 1541.91 69.4401 1848.63 46.9248" stroke="#519D42" stroke-width="2"/>
<path d="M-227.331 525.257C92.5107 486.954 734.756 368.756 810.411 256.566C886.066 144.377 1534.78 84.8444 1841.51 62.3291" stroke="#519D42" stroke-width="2"/>
<path d="M-227.331 525.257C92.5107 486.954 734.756 368.756 810.411 256.566C886.066 144.377 1534.78 84.8444 1841.51 62.3291" stroke="#519D42" stroke-width="2"/>
<path d="M-219.045 524.605C100.797 486.302 766.351 385.271 808.027 261.583C850.585 135.278 1543.07 84.1921 1849.8 61.6768" stroke="#519D42" stroke-width="2"/>
<path d="M-193.462 567.135C126.381 528.832 769.69 392.385 811.366 268.698C853.924 142.393 1568.65 126.722 1875.38 104.207" stroke="#519D42" stroke-width="2"/>
<path d="M-193.278 569.468C126.564 531.165 769.874 394.718 811.55 271.031C854.108 144.726 1568.84 129.055 1875.56 106.54" stroke="#519D42" stroke-width="2"/>
<path d="M-186.513 425.971C133.329 387.668 791.927 283.016 867.582 170.826C943.237 58.6363 1575.6 -14.4417 1882.33 -36.9569" stroke="#519D42" stroke-width="2"/>
<path d="M-177.869 447.501C141.973 409.198 784.218 291 859.873 178.81C935.528 66.6206 1584.25 7.0883 1890.97 -15.427" stroke="#519D42" stroke-width="2"/>
<path d="M-184.994 462.905C134.848 424.603 777.094 306.404 852.748 194.215C928.403 82.025 1577.12 22.4927 1883.85 -0.0226279" stroke="#519D42" stroke-width="2"/>
<path d="M-184.994 462.905C134.848 424.603 777.094 306.404 852.748 194.215C928.403 82.025 1577.12 22.4927 1883.85 -0.0226279" stroke="#519D42" stroke-width="2"/>
<path d="M-176.708 462.253C143.135 423.95 808.688 322.919 850.364 199.232C892.922 72.9267 1585.41 21.8403 1892.13 -0.674948" stroke="#519D42" stroke-width="2"/>
<path d="M-151.124 504.783C168.718 466.48 812.028 330.033 853.704 206.346C896.262 80.0409 1610.99 64.3704 1917.72 41.8551" stroke="#519D42" stroke-width="2"/>
<path d="M-150.941 507.116C168.902 468.814 812.211 332.367 853.888 208.679C896.446 82.3743 1611.18 66.7038 1917.9 44.1885" stroke="#519D42" stroke-width="2"/>
<path d="M1543.21 -630.925C1311.38 -407.277 849.564 73.7953 856.994 208.906C864.423 344.017 404.456 784.082 173.543 987.225" stroke="#519D42" stroke-width="2"/>
<path d="M1523.33 -642.869C1291.49 -419.221 850.889 62.776 858.318 197.887C865.748 332.998 384.566 772.138 153.654 975.281" stroke="#519D42" stroke-width="2"/>
<path d="M1519.7 -659.45C1287.87 -435.802 847.267 46.1947 854.697 181.306C862.127 316.417 380.945 755.556 150.033 958.7" stroke="#519D42" stroke-width="2"/>
<path d="M1519.7 -659.45C1287.87 -435.802 847.267 46.1947 854.697 181.306C862.127 316.417 380.945 755.556 150.033 958.7" stroke="#519D42" stroke-width="2"/>
<path d="M1513.49 -653.927C1281.66 -430.279 812.11 52.1061 853.568 175.867C895.904 302.247 374.733 761.08 143.821 964.223" stroke="#519D42" stroke-width="2"/>
<path d="M1467.42 -672.383C1235.58 -448.735 805.153 48.4513 846.611 172.212C888.946 298.592 328.661 742.623 97.7483 945.767" stroke="#519D42" stroke-width="2"/>
<path d="M1465.86 -674.132C1234.03 -450.485 803.598 46.7022 845.056 170.463C887.391 296.843 327.105 740.874 96.193 944.018" stroke="#519D42" stroke-width="2"/>
<path d="M1547.11 -555.659C1315.28 -332.011 853.462 149.062 860.891 284.173C868.321 419.284 408.353 859.348 177.441 1062.49" stroke="#519D42" stroke-width="2"/>
<path d="M1527.22 -567.602C1295.39 -343.955 854.786 138.042 862.216 273.153C869.646 408.264 388.464 847.404 157.552 1050.55" stroke="#519D42" stroke-width="2"/>
<path d="M1523.6 -584.184C1291.77 -360.536 851.165 121.461 858.595 256.572C866.024 391.683 384.843 830.823 153.93 1033.97" stroke="#519D42" stroke-width="2"/>
<path d="M1523.6 -584.184C1291.77 -360.536 851.165 121.461 858.595 256.572C866.024 391.683 384.843 830.823 153.93 1033.97" stroke="#519D42" stroke-width="2"/>
<path d="M1517.39 -578.661C1285.55 -355.013 816.008 127.372 857.466 251.133C899.801 377.513 378.631 836.346 147.719 1039.49" stroke="#519D42" stroke-width="2"/>
<path d="M1471.32 -597.117C1239.48 -373.469 809.051 123.718 850.508 247.478C892.844 373.858 332.558 817.89 101.646 1021.03" stroke="#519D42" stroke-width="2"/>
<path d="M1469.76 -598.866C1237.93 -375.218 807.495 121.968 848.953 245.729C891.288 372.109 331.003 816.141 100.09 1019.28" stroke="#519D42" stroke-width="2"/>
<path d="M54.0625 196.312C47.9792 196.312 43.4792 194.708 40.5625 191.5C37.6458 188.292 36.1875 183.302 36.1875 176.531C36.1875 163.344 42.1771 156.75 54.1562 156.75C55.9062 156.75 57.6042 156.938 59.25 157.312C60.8958 157.667 62.2292 158.115 63.25 158.656C64.2708 159.198 64.7812 159.719 64.7812 160.219C64.7812 160.531 64.6667 160.948 64.4375 161.469C64.2292 161.99 63.9792 162.448 63.6875 162.844C63.3958 163.24 63.1354 163.438 62.9062 163.438C62.8021 163.438 62.5104 163.302 62.0312 163.031C60.9479 162.448 59.8125 161.958 58.625 161.562C57.4375 161.167 55.9896 160.969 54.2812 160.969C49.8021 160.969 46.5 162.219 44.375 164.719C42.2708 167.198 41.2188 171.156 41.2188 176.594C41.2188 181.906 42.2604 185.823 44.3438 188.344C46.4479 190.844 49.6875 192.094 54.0625 192.094C55.8958 192.094 57.4688 191.875 58.7812 191.438C60.0938 191 61.3542 190.458 62.5625 189.812C63.1458 189.5 63.5 189.344 63.625 189.344C63.8542 189.344 64.1146 189.542 64.4062 189.938C64.7188 190.333 64.9896 190.781 65.2188 191.281C65.4479 191.76 65.5625 192.104 65.5625 192.312C65.5625 192.833 65.0312 193.417 63.9688 194.062C62.9271 194.688 61.5208 195.219 59.75 195.656C58 196.094 56.1042 196.312 54.0625 196.312ZM79.6562 196.312C76.8229 196.312 74.5312 195.615 72.7812 194.219C71.0312 192.823 70.1562 190.75 70.1562 188C70.1562 185.104 71.0417 182.927 72.8125 181.469C74.5833 179.99 76.7396 179.042 79.2812 178.625C81.8438 178.188 84.9479 177.938 88.5938 177.875V175.25C88.5938 173.854 88.1146 172.74 87.1562 171.906C86.2188 171.052 84.6667 170.625 82.5 170.625C80.8542 170.625 79.4062 170.823 78.1562 171.219C76.9271 171.594 75.7708 172.052 74.6875 172.594C74.2292 172.823 73.9479 172.938 73.8438 172.938C73.5938 172.938 73.3125 172.76 73 172.406C72.7083 172.031 72.4479 171.615 72.2188 171.156C72.0104 170.698 71.9062 170.365 71.9062 170.156C71.9062 169.677 72.3958 169.156 73.375 168.594C74.375 168.031 75.6771 167.562 77.2812 167.188C78.8854 166.812 80.5625 166.625 82.3125 166.625C85.7917 166.625 88.4896 167.385 90.4062 168.906C92.3229 170.427 93.2812 172.562 93.2812 175.312V187.781C93.2812 190.198 93.3854 191.948 93.5938 193.031C93.8229 194.094 93.9375 194.677 93.9375 194.781C93.9375 195.24 93.5833 195.573 92.875 195.781C92.1875 195.969 91.5417 196.062 90.9375 196.062C90.4375 196.062 90.0625 195.781 89.8125 195.219C89.5833 194.656 89.3542 193.844 89.125 192.781L89 192.156C87.8542 193.427 86.5 194.438 84.9375 195.188C83.3958 195.938 81.6354 196.312 79.6562 196.312ZM79.9062 192.281C81.7396 192.281 83.3021 191.948 84.5938 191.281C85.8854 190.615 87.2188 189.667 88.5938 188.438V181.875C85.8438 181.896 83.5833 182.01 81.8125 182.219C80.0417 182.427 78.4896 182.958 77.1562 183.812C75.8229 184.646 75.1562 185.948 75.1562 187.719C75.1562 189.198 75.5521 190.333 76.3438 191.125C77.1562 191.896 78.3438 192.281 79.9062 192.281ZM105 196.094C104.208 196.094 103.635 196 103.281 195.812C102.927 195.604 102.75 195.292 102.75 194.875V175.375C102.75 172.958 102.635 171.219 102.406 170.156C102.177 169.073 102.062 168.479 102.062 168.375C102.062 167.917 102.406 167.594 103.094 167.406C103.802 167.198 104.469 167.094 105.094 167.094C105.594 167.094 105.969 167.365 106.219 167.906C106.469 168.427 106.688 169.167 106.875 170.125L107.031 170.781C109.01 168.01 111.156 166.625 113.469 166.625C114.531 166.625 115.333 166.823 115.875 167.219C116.417 167.594 116.688 168.104 116.688 168.75C116.688 169.375 116.573 170.042 116.344 170.75C116.135 171.438 115.885 171.781 115.594 171.781C115.448 171.781 115.188 171.719 114.812 171.594C114.479 171.448 114.146 171.344 113.812 171.281C113.479 171.198 113.052 171.156 112.531 171.156C111.677 171.156 110.865 171.406 110.094 171.906C109.344 172.406 108.708 172.958 108.188 173.562C107.667 174.167 107.406 174.5 107.406 174.562V194.875C107.406 195.292 107.229 195.604 106.875 195.812C106.521 196 105.969 196.094 105.219 196.094H105ZM134.75 196.312C130.146 196.312 126.719 195.115 124.469 192.719C122.24 190.302 121.125 186.615 121.125 181.656C121.125 176.74 122.219 173.01 124.406 170.469C126.594 167.906 129.812 166.625 134.062 166.625C137.854 166.625 140.708 167.854 142.625 170.312C144.562 172.771 145.531 176.375 145.531 181.125C145.531 181.333 145.417 181.625 145.188 182C144.979 182.354 144.719 182.677 144.406 182.969C144.115 183.24 143.865 183.375 143.656 183.375H126.125C126.354 186.479 127.146 188.75 128.5 190.188C129.875 191.604 131.938 192.312 134.688 192.312C136.229 192.312 137.552 192.125 138.656 191.75C139.781 191.375 140.865 190.917 141.906 190.375C142.01 190.333 142.167 190.26 142.375 190.156C142.583 190.052 142.729 190 142.812 190C143.042 190 143.302 190.188 143.594 190.562C143.906 190.917 144.167 191.323 144.375 191.781C144.604 192.219 144.719 192.542 144.719 192.75C144.719 193.208 144.26 193.719 143.344 194.281C142.427 194.844 141.198 195.323 139.656 195.719C138.135 196.115 136.5 196.312 134.75 196.312ZM140.562 179.375C140.562 173.542 138.344 170.625 133.906 170.625C129.135 170.625 126.542 173.542 126.125 179.375H140.562ZM164.75 196.312C160.146 196.312 156.719 195.115 154.469 192.719C152.24 190.302 151.125 186.615 151.125 181.656C151.125 176.74 152.219 173.01 154.406 170.469C156.594 167.906 159.812 166.625 164.062 166.625C167.854 166.625 170.708 167.854 172.625 170.312C174.562 172.771 175.531 176.375 175.531 181.125C175.531 181.333 175.417 181.625 175.188 182C174.979 182.354 174.719 182.677 174.406 182.969C174.115 183.24 173.865 183.375 173.656 183.375H156.125C156.354 186.479 157.146 188.75 158.5 190.188C159.875 191.604 161.938 192.312 164.688 192.312C166.229 192.312 167.552 192.125 168.656 191.75C169.781 191.375 170.865 190.917 171.906 190.375C172.01 190.333 172.167 190.26 172.375 190.156C172.583 190.052 172.729 190 172.812 190C173.042 190 173.302 190.188 173.594 190.562C173.906 190.917 174.167 191.323 174.375 191.781C174.604 192.219 174.719 192.542 174.719 192.75C174.719 193.208 174.26 193.719 173.344 194.281C172.427 194.844 171.198 195.323 169.656 195.719C168.135 196.115 166.5 196.312 164.75 196.312ZM170.562 179.375C170.562 173.542 168.344 170.625 163.906 170.625C159.135 170.625 156.542 173.542 156.125 179.375H170.562ZM185.312 196.094C184.521 196.094 183.948 196 183.594 195.812C183.24 195.604 183.062 195.292 183.062 194.875V175.375C183.062 172.958 182.948 171.219 182.719 170.156C182.49 169.073 182.375 168.479 182.375 168.375C182.375 167.917 182.719 167.594 183.406 167.406C184.115 167.198 184.781 167.094 185.406 167.094C185.906 167.094 186.281 167.365 186.531 167.906C186.781 168.427 187 169.167 187.188 170.125L187.344 170.781C189.323 168.01 191.469 166.625 193.781 166.625C194.844 166.625 195.646 166.823 196.188 167.219C196.729 167.594 197 168.104 197 168.75C197 169.375 196.885 170.042 196.656 170.75C196.448 171.438 196.198 171.781 195.906 171.781C195.76 171.781 195.5 171.719 195.125 171.594C194.792 171.448 194.458 171.344 194.125 171.281C193.792 171.198 193.365 171.156 192.844 171.156C191.99 171.156 191.177 171.406 190.406 171.906C189.656 172.406 189.021 172.958 188.5 173.562C187.979 174.167 187.719 174.5 187.719 174.562V194.875C187.719 195.292 187.542 195.604 187.188 195.812C186.833 196 186.281 196.094 185.531 196.094H185.312ZM209.156 196.531C207.594 196.531 206.135 196.333 204.781 195.938C203.427 195.542 202.344 195.062 201.531 194.5C200.74 193.917 200.344 193.406 200.344 192.969C200.344 192.76 200.448 192.427 200.656 191.969C200.885 191.51 201.146 191.104 201.438 190.75C201.75 190.375 202.031 190.188 202.281 190.188C202.344 190.188 202.531 190.292 202.844 190.5C203.677 191.042 204.552 191.5 205.469 191.875C206.406 192.25 207.521 192.438 208.812 192.438C212.438 192.438 214.25 190.938 214.25 187.938C214.25 187.083 214.073 186.365 213.719 185.781C213.385 185.198 212.812 184.688 212 184.25C211.208 183.792 210.115 183.354 208.719 182.938C206.719 182.354 205.156 181.688 204.031 180.938C202.927 180.188 202.146 179.312 201.688 178.312C201.229 177.292 201 176.062 201 174.625C201 173.083 201.385 171.698 202.156 170.469C202.948 169.24 204.042 168.281 205.438 167.594C206.854 166.906 208.448 166.562 210.219 166.562C211.448 166.562 212.625 166.677 213.75 166.906C214.896 167.135 215.812 167.438 216.5 167.812C217.208 168.167 217.562 168.542 217.562 168.938C217.562 169.229 217.458 169.625 217.25 170.125C217.062 170.604 216.823 171.031 216.531 171.406C216.24 171.76 215.979 171.938 215.75 171.938C215.708 171.938 215.448 171.812 214.969 171.562C214.49 171.292 213.875 171.052 213.125 170.844C212.396 170.615 211.583 170.5 210.688 170.5C209.271 170.5 208.094 170.823 207.156 171.469C206.24 172.094 205.781 172.938 205.781 174C205.781 175.25 206.115 176.25 206.781 177C207.448 177.75 208.552 178.365 210.094 178.844C212.469 179.573 214.281 180.302 215.531 181.031C216.781 181.76 217.667 182.656 218.188 183.719C218.729 184.76 219 186.135 219 187.844C219 189.469 218.562 190.948 217.688 192.281C216.812 193.594 215.625 194.635 214.125 195.406C212.625 196.156 210.969 196.531 209.156 196.531Z" fill="#41553E"/>
</g>
<defs>
<linearGradient id="paint0_linear_1_2" x1="417.5" y1="101.5" x2="1423.5" y2="358" gradientUnits="userSpaceOnUse">
<stop stop-color="#FFE155"/>
<stop offset="0.362451" stop-color="#AA972B"/>
<stop offset="0.559467" stop-color="#758B48"/>
<stop offset="0.814208" stop-color="#417E35" stop-opacity="0.71"/>
<stop offset="1" stop-color="white"/>
</linearGradient>
<clipPath id="clip0_1_2">
<rect width="1440" height="372" fill="white"/>
</clipPath>
</defs>
</svg>
