<svg width="1440" height="372" viewBox="0 0 1440 372" fill="none" xmlns="http://www.w3.org/2000/svg">
<g clip-path="url(#clip0_1_2)">
<rect width="1440" height="372" fill="url(#paint0_linear_1_2)" fill-opacity="0.4"/>
<path d="M-228.85 488.323C90.9919 450.02 749.59 345.367 825.245 233.178C900.9 120.988 1533.27 47.9101 1839.99 25.3948" stroke="#519D42" stroke-width="2"/>
<path d="M-220.207 509.853C99.6354 471.55 741.881 353.352 817.536 241.162C893.191 128.972 1541.91 69.4401 1848.63 46.9248" stroke="#519D42" stroke-width="2"/>
<path d="M-227.331 525.257C92.5107 486.954 734.756 368.756 810.411 256.566C886.066 144.377 1534.78 84.8444 1841.51 62.3291" stroke="#519D42" stroke-width="2"/>
<path d="M-227.331 525.257C92.5107 486.954 734.756 368.756 810.411 256.566C886.066 144.377 1534.78 84.8444 1841.51 62.3291" stroke="#519D42" stroke-width="2"/>
<path d="M-219.045 524.605C100.797 486.302 766.351 385.271 808.027 261.583C850.585 135.278 1543.07 84.1921 1849.8 61.6768" stroke="#519D42" stroke-width="2"/>
<path d="M-193.462 567.135C126.381 528.832 769.69 392.385 811.366 268.698C853.924 142.393 1568.65 126.722 1875.38 104.207" stroke="#519D42" stroke-width="2"/>
<path d="M-193.278 569.468C126.564 531.166 769.874 394.718 811.55 271.031C854.108 144.726 1568.84 129.056 1875.56 106.54" stroke="#519D42" stroke-width="2"/>
<path d="M-186.513 425.971C133.329 387.668 791.927 283.016 867.582 170.826C943.237 58.6364 1575.6 -14.4416 1882.33 -36.9569" stroke="#519D42" stroke-width="2"/>
<path d="M-177.869 447.501C141.973 409.198 784.218 291 859.873 178.81C935.528 66.6207 1584.25 7.08832 1890.97 -15.427" stroke="#519D42" stroke-width="2"/>
<path d="M-184.994 462.905C134.848 424.603 777.094 306.404 852.748 194.215C928.403 82.025 1577.12 22.4927 1883.85 -0.022605" stroke="#519D42" stroke-width="2"/>
<path d="M-184.994 462.905C134.848 424.603 777.094 306.404 852.748 194.215C928.403 82.025 1577.12 22.4927 1883.85 -0.022605" stroke="#519D42" stroke-width="2"/>
<path d="M-176.708 462.253C143.135 423.95 808.688 322.919 850.364 199.232C892.922 72.9267 1585.41 21.8404 1892.13 -0.674925" stroke="#519D42" stroke-width="2"/>
<path d="M-151.124 504.783C168.718 466.48 812.028 330.033 853.704 206.346C896.262 80.0409 1610.99 64.3704 1917.72 41.8551" stroke="#519D42" stroke-width="2"/>
<path d="M-150.941 507.116C168.902 468.814 812.211 332.367 853.888 208.679C896.446 82.3743 1611.18 66.7038 1917.9 44.1885" stroke="#519D42" stroke-width="2"/>
<path d="M-228.85 488.323C90.9919 450.02 749.59 345.367 825.245 233.178C900.9 120.988 1533.27 47.9101 1839.99 25.3948" stroke="#519D42" stroke-width="2"/>
<path d="M-220.207 509.853C99.6354 471.55 741.881 353.352 817.536 241.162C893.191 128.972 1541.91 69.4401 1848.63 46.9248" stroke="#519D42" stroke-width="2"/>
<path d="M-227.331 525.257C92.5107 486.954 734.756 368.756 810.411 256.566C886.066 144.377 1534.78 84.8444 1841.51 62.3291" stroke="#519D42" stroke-width="2"/>
<path d="M-227.331 525.257C92.5107 486.954 734.756 368.756 810.411 256.566C886.066 144.377 1534.78 84.8444 1841.51 62.3291" stroke="#519D42" stroke-width="2"/>
<path d="M-219.045 524.605C100.797 486.302 766.351 385.271 808.027 261.583C850.585 135.278 1543.07 84.1921 1849.8 61.6768" stroke="#519D42" stroke-width="2"/>
<path d="M-193.462 567.135C126.381 528.832 769.69 392.385 811.366 268.698C853.924 142.393 1568.65 126.722 1875.38 104.207" stroke="#519D42" stroke-width="2"/>
<path d="M-193.278 569.468C126.564 531.165 769.874 394.718 811.55 271.031C854.108 144.726 1568.84 129.055 1875.56 106.54" stroke="#519D42" stroke-width="2"/>
<path d="M-186.513 425.971C133.329 387.668 791.927 283.016 867.582 170.826C943.237 58.6363 1575.6 -14.4416 1882.33 -36.9569" stroke="#519D42" stroke-width="2"/>
<path d="M-177.869 447.501C141.973 409.198 784.218 291 859.873 178.81C935.528 66.6207 1584.25 7.08831 1890.97 -15.427" stroke="#519D42" stroke-width="2"/>
<path d="M-184.994 462.905C134.848 424.603 777.094 306.404 852.748 194.215C928.403 82.025 1577.12 22.4927 1883.85 -0.0226202" stroke="#519D42" stroke-width="2"/>
<path d="M-184.994 462.905C134.848 424.603 777.094 306.404 852.748 194.215C928.403 82.025 1577.12 22.4927 1883.85 -0.0226202" stroke="#519D42" stroke-width="2"/>
<path d="M-176.708 462.253C143.135 423.95 808.688 322.919 850.364 199.232C892.922 72.9267 1585.41 21.8403 1892.13 -0.674941" stroke="#519D42" stroke-width="2"/>
<path d="M-151.124 504.783C168.718 466.48 812.028 330.033 853.704 206.346C896.262 80.0409 1610.99 64.3704 1917.72 41.8551" stroke="#519D42" stroke-width="2"/>
<path d="M-150.941 507.116C168.902 468.814 812.211 332.367 853.888 208.679C896.446 82.3743 1611.18 66.7038 1917.9 44.1885" stroke="#519D42" stroke-width="2"/>
<path d="M1543.21 -630.925C1311.38 -407.277 849.564 73.7953 856.994 208.906C864.423 344.017 404.456 784.082 173.543 987.225" stroke="#519D42" stroke-width="2"/>
<path d="M1523.33 -642.869C1291.49 -419.221 850.889 62.776 858.318 197.887C865.748 332.998 384.566 772.138 153.654 975.281" stroke="#519D42" stroke-width="2"/>
<path d="M1519.7 -659.45C1287.87 -435.802 847.267 46.1947 854.697 181.306C862.127 316.417 380.945 755.556 150.033 958.7" stroke="#519D42" stroke-width="2"/>
<path d="M1519.7 -659.45C1287.87 -435.802 847.267 46.1947 854.697 181.306C862.127 316.417 380.945 755.556 150.033 958.7" stroke="#519D42" stroke-width="2"/>
<path d="M1513.49 -653.927C1281.66 -430.279 812.11 52.1061 853.568 175.867C895.904 302.247 374.733 761.08 143.821 964.223" stroke="#519D42" stroke-width="2"/>
<path d="M1467.42 -672.383C1235.58 -448.735 805.153 48.4513 846.611 172.212C888.946 298.592 328.661 742.623 97.7483 945.767" stroke="#519D42" stroke-width="2"/>
<path d="M1465.86 -674.132C1234.03 -450.485 803.598 46.7022 845.056 170.463C887.391 296.843 327.105 740.874 96.193 944.018" stroke="#519D42" stroke-width="2"/>
<path d="M1547.11 -555.659C1315.28 -332.011 853.462 149.062 860.891 284.173C868.321 419.284 408.353 859.348 177.441 1062.49" stroke="#519D42" stroke-width="2"/>
<path d="M1527.22 -567.602C1295.39 -343.955 854.786 138.042 862.216 273.153C869.646 408.264 388.464 847.404 157.552 1050.55" stroke="#519D42" stroke-width="2"/>
<path d="M1523.6 -584.184C1291.77 -360.536 851.165 121.461 858.595 256.572C866.024 391.683 384.843 830.823 153.93 1033.97" stroke="#519D42" stroke-width="2"/>
<path d="M1523.6 -584.184C1291.77 -360.536 851.165 121.461 858.595 256.572C866.024 391.683 384.843 830.823 153.93 1033.97" stroke="#519D42" stroke-width="2"/>
<path d="M1517.39 -578.661C1285.55 -355.013 816.008 127.372 857.466 251.133C899.801 377.513 378.631 836.346 147.719 1039.49" stroke="#519D42" stroke-width="2"/>
<path d="M1471.32 -597.117C1239.48 -373.469 809.051 123.718 850.508 247.478C892.844 373.858 332.558 817.89 101.646 1021.03" stroke="#519D42" stroke-width="2"/>
<path d="M1469.76 -598.866C1237.93 -375.218 807.495 121.968 848.953 245.729C891.288 372.109 331.003 816.141 100.09 1019.28" stroke="#519D42" stroke-width="2"/>
<path d="M36.3105 180C36.0371 180 35.8369 179.937 35.71 179.81C35.583 179.683 35.5195 179.487 35.5195 179.224V162.554C35.5195 162.28 35.583 162.085 35.71 161.968C35.8369 161.841 36.0371 161.777 36.3105 161.777H45.3926C45.5781 161.777 45.71 161.836 45.7881 161.953C45.876 162.07 45.9199 162.271 45.9199 162.554V162.979C45.9199 163.242 45.876 163.438 45.7881 163.564C45.71 163.691 45.5781 163.755 45.3926 163.755H37.8193V169.688H44.6162C44.8018 169.688 44.9336 169.751 45.0117 169.878C45.0996 170.005 45.1436 170.205 45.1436 170.479V170.874C45.1436 171.147 45.0996 171.348 45.0117 171.475C44.9336 171.592 44.8018 171.65 44.6162 171.65H37.8193V178.022H45.4219C45.6074 178.022 45.7393 178.086 45.8174 178.213C45.9053 178.33 45.9492 178.525 45.9492 178.799V179.224C45.9492 179.487 45.9053 179.683 45.8174 179.81C45.7393 179.937 45.6074 180 45.4219 180H36.3105ZM63.2783 166.23C64.3623 166.23 65.3145 166.538 66.1348 167.153C66.9551 167.769 67.3652 168.862 67.3652 170.435V179.473C67.3652 179.668 67.2822 179.814 67.1162 179.912C66.9502 180 66.6865 180.044 66.3252 180.044H66.2373C65.8662 180.044 65.5977 180 65.4316 179.912C65.2656 179.814 65.1826 179.668 65.1826 179.473V170.654C65.1826 169.863 64.9678 169.243 64.5381 168.794C64.1182 168.345 63.498 168.12 62.6777 168.12C61.9941 168.12 61.374 168.32 60.8174 168.721C60.2705 169.111 59.8262 169.521 59.4844 169.951C59.5039 170.186 59.5137 170.361 59.5137 170.479V179.473C59.5137 179.854 59.1621 180.044 58.459 180.044H58.3564C57.6631 180.044 57.3164 179.854 57.3164 179.473V170.654C57.3164 169.863 57.1016 169.243 56.6719 168.794C56.252 168.345 55.6318 168.12 54.8115 168.12C54.2451 168.12 53.7275 168.257 53.2588 168.53C52.79 168.794 52.3994 169.082 52.0869 169.395C51.7842 169.707 51.6328 169.883 51.6328 169.922V179.473C51.6328 179.668 51.5498 179.814 51.3838 179.912C51.2275 180 50.9688 180.044 50.6074 180.044H50.4902C50.1289 180.044 49.8652 180 49.6992 179.912C49.543 179.814 49.4648 179.668 49.4648 179.473V170.332C49.4648 169.199 49.4111 168.384 49.3037 167.886C49.1963 167.378 49.1426 167.1 49.1426 167.051C49.1426 166.836 49.3037 166.685 49.626 166.597C49.958 166.499 50.2656 166.45 50.5488 166.45C50.793 166.45 50.9736 166.582 51.0908 166.846C51.208 167.109 51.291 167.378 51.3398 167.651C51.3984 167.925 51.4375 168.101 51.457 168.179C51.9355 167.622 52.5215 167.158 53.2148 166.787C53.9082 166.416 54.6406 166.23 55.4121 166.23C56.2031 166.23 56.9404 166.392 57.624 166.714C58.3076 167.026 58.8105 167.583 59.1328 168.384C59.6699 167.749 60.2998 167.231 61.0225 166.831C61.7451 166.431 62.4971 166.23 63.2783 166.23ZM72.624 185.42C71.9209 185.42 71.5693 185.229 71.5693 184.849V170.332C71.5693 169.199 71.5156 168.384 71.4082 167.886C71.3008 167.378 71.2471 167.1 71.2471 167.051C71.2471 166.836 71.4082 166.685 71.7305 166.597C72.0625 166.499 72.375 166.45 72.668 166.45C72.9121 166.45 73.0928 166.582 73.21 166.846C73.3271 167.109 73.4102 167.378 73.459 167.651C73.5176 167.925 73.5566 168.101 73.5762 168.179C74.8164 166.88 76.1982 166.23 77.7217 166.23C78.7666 166.23 79.6699 166.528 80.4316 167.124C81.1934 167.72 81.7744 168.545 82.1748 169.6C82.5752 170.654 82.7754 171.855 82.7754 173.203C82.7754 174.668 82.5508 175.923 82.1016 176.968C81.6621 178.013 81.042 178.804 80.2412 179.341C79.4404 179.878 78.5176 180.146 77.4727 180.146C76.7207 180.146 76.0518 180.034 75.4658 179.81C74.8896 179.585 74.3184 179.258 73.752 178.828V184.849C73.752 185.229 73.4102 185.42 72.7266 185.42H72.624ZM76.9746 178.228C78.1367 178.198 79.0107 177.773 79.5967 176.953C80.1826 176.133 80.4756 174.941 80.4756 173.379C80.4756 171.699 80.1973 170.405 79.6406 169.497C79.0938 168.579 78.3027 168.12 77.2676 168.12C76.6914 168.12 76.0908 168.276 75.4658 168.589C74.8506 168.901 74.2793 169.346 73.752 169.922V177.056C74.709 177.837 75.7832 178.228 76.9746 178.228ZM91.7402 180.146C89.7773 180.146 88.2783 179.561 87.2432 178.389C86.2178 177.207 85.7051 175.493 85.7051 173.247C85.7051 171.001 86.2275 169.272 87.2725 168.062C88.3174 166.841 89.8066 166.23 91.7402 166.23C93.6543 166.23 95.1191 166.836 96.1348 168.047C97.1504 169.248 97.6582 170.981 97.6582 173.247C97.6582 175.503 97.1553 177.217 96.1494 178.389C95.1533 179.561 93.6836 180.146 91.7402 180.146ZM91.667 178.271C92.9365 178.271 93.874 177.861 94.4795 177.041C95.085 176.211 95.3877 174.932 95.3877 173.203C95.3877 171.465 95.085 170.181 94.4795 169.351C93.874 168.521 92.9365 168.105 91.667 168.105C90.4072 168.105 89.4795 168.521 88.8838 169.351C88.2881 170.171 87.9902 171.455 87.9902 173.203C87.9902 174.941 88.2832 176.221 88.8691 177.041C89.4648 177.861 90.3975 178.271 91.667 178.271ZM104.484 180.044C103.85 180.044 103.503 179.907 103.444 179.634L100.017 167.285C99.9189 167.012 99.8701 166.841 99.8701 166.772C99.8701 166.479 100.271 166.333 101.071 166.333C101.696 166.333 102.043 166.47 102.111 166.743L104.309 175.078C104.348 175.215 104.475 175.771 104.689 176.748C104.738 177.012 104.831 177.446 104.968 178.052C105.163 176.851 105.378 175.85 105.612 175.049L107.766 166.772C107.834 166.479 108.176 166.333 108.791 166.333H108.967C109.562 166.333 109.904 166.479 109.992 166.772L112.16 175.049C112.395 175.908 112.59 176.753 112.746 177.583C112.756 177.642 112.78 177.788 112.819 178.022C113.093 176.577 113.293 175.605 113.42 175.107L115.617 166.743C115.686 166.47 116.037 166.333 116.672 166.333C117.365 166.333 117.712 166.479 117.712 166.772C117.712 166.88 117.688 166.997 117.639 167.124L114.138 179.634C114.079 179.907 113.737 180.044 113.112 180.044H112.321C111.706 180.044 111.369 179.907 111.311 179.634L109.216 171.372C109.089 170.835 108.962 170.161 108.835 169.351C108.708 170.2 108.576 170.869 108.439 171.357L106.315 179.634C106.257 179.907 105.905 180.044 105.261 180.044H104.484ZM126.369 180.146C124.211 180.146 122.604 179.585 121.55 178.462C120.505 177.329 119.982 175.601 119.982 173.276C119.982 170.972 120.495 169.224 121.521 168.032C122.546 166.831 124.055 166.23 126.047 166.23C127.824 166.23 129.162 166.807 130.061 167.959C130.969 169.111 131.423 170.801 131.423 173.027C131.423 173.125 131.369 173.262 131.262 173.438C131.164 173.604 131.042 173.755 130.896 173.892C130.759 174.019 130.642 174.082 130.544 174.082H122.326C122.434 175.537 122.805 176.602 123.439 177.275C124.084 177.939 125.051 178.271 126.34 178.271C127.062 178.271 127.683 178.184 128.2 178.008C128.728 177.832 129.235 177.617 129.724 177.363C129.772 177.344 129.846 177.31 129.943 177.261C130.041 177.212 130.109 177.188 130.148 177.188C130.256 177.188 130.378 177.275 130.515 177.451C130.661 177.617 130.783 177.808 130.881 178.022C130.988 178.228 131.042 178.379 131.042 178.477C131.042 178.691 130.827 178.931 130.397 179.194C129.968 179.458 129.392 179.683 128.669 179.868C127.956 180.054 127.189 180.146 126.369 180.146ZM129.094 172.207C129.094 169.473 128.054 168.105 125.974 168.105C123.737 168.105 122.521 169.473 122.326 172.207H129.094ZM136.008 180.044C135.637 180.044 135.368 180 135.202 179.912C135.036 179.814 134.953 179.668 134.953 179.473V170.332C134.953 169.199 134.899 168.384 134.792 167.886C134.685 167.378 134.631 167.1 134.631 167.051C134.631 166.836 134.792 166.685 135.114 166.597C135.446 166.499 135.759 166.45 136.052 166.45C136.286 166.45 136.462 166.577 136.579 166.831C136.696 167.075 136.799 167.422 136.887 167.871L136.96 168.179C137.888 166.88 138.894 166.23 139.978 166.23C140.476 166.23 140.852 166.323 141.105 166.509C141.359 166.685 141.486 166.924 141.486 167.227C141.486 167.52 141.433 167.832 141.325 168.164C141.228 168.486 141.11 168.647 140.974 168.647C140.905 168.647 140.783 168.618 140.607 168.56C140.451 168.491 140.295 168.442 140.139 168.413C139.982 168.374 139.782 168.354 139.538 168.354C139.138 168.354 138.757 168.472 138.396 168.706C138.044 168.94 137.746 169.199 137.502 169.482C137.258 169.766 137.136 169.922 137.136 169.951V179.473C137.136 179.668 137.053 179.814 136.887 179.912C136.721 180 136.462 180.044 136.11 180.044H136.008ZM145.441 163.096C144.748 163.096 144.401 162.905 144.401 162.524V160.986C144.401 160.605 144.748 160.415 145.441 160.415H145.749C146.452 160.415 146.804 160.605 146.804 160.986V162.524C146.804 162.905 146.452 163.096 145.749 163.096H145.441ZM145.544 180.044C144.851 180.044 144.504 179.854 144.504 179.473V166.904C144.504 166.523 144.851 166.333 145.544 166.333H145.646C146.35 166.333 146.701 166.523 146.701 166.904V179.473C146.701 179.854 146.35 180.044 145.646 180.044H145.544ZM152.341 180.044C151.97 180.044 151.701 180 151.535 179.912C151.369 179.814 151.286 179.668 151.286 179.473V170.332C151.286 169.199 151.232 168.384 151.125 167.886C151.018 167.378 150.964 167.1 150.964 167.051C150.964 166.836 151.125 166.685 151.447 166.597C151.779 166.499 152.092 166.45 152.385 166.45C152.629 166.45 152.81 166.582 152.927 166.846C153.044 167.109 153.127 167.378 153.176 167.651C153.234 167.925 153.273 168.101 153.293 168.179C153.84 167.563 154.47 167.085 155.183 166.743C155.905 166.401 156.633 166.23 157.365 166.23C158.693 166.23 159.729 166.606 160.471 167.358C161.223 168.101 161.599 169.126 161.599 170.435V179.473C161.599 179.668 161.516 179.814 161.35 179.912C161.184 180 160.92 180.044 160.559 180.044H160.441C160.09 180.044 159.831 180 159.665 179.912C159.499 179.814 159.416 179.668 159.416 179.473V170.654C159.416 169.854 159.182 169.233 158.713 168.794C158.254 168.345 157.604 168.12 156.765 168.12C156.179 168.12 155.588 168.286 154.992 168.618C154.406 168.94 153.898 169.385 153.469 169.951V179.473C153.469 179.668 153.386 179.814 153.22 179.912C153.054 180 152.795 180.044 152.443 180.044H152.341ZM170.139 185.522C168.479 185.522 167.165 185.264 166.198 184.746C165.231 184.229 164.748 183.413 164.748 182.3C164.748 181.538 164.968 180.874 165.407 180.308C165.847 179.741 166.418 179.316 167.121 179.033L167.15 178.975C166.809 178.711 166.545 178.408 166.359 178.066C166.184 177.725 166.096 177.319 166.096 176.851C166.096 175.718 166.584 174.81 167.561 174.126C166.828 173.774 166.271 173.281 165.891 172.646C165.51 172.002 165.319 171.279 165.319 170.479C165.319 169.678 165.515 168.955 165.905 168.311C166.306 167.666 166.892 167.158 167.663 166.787C168.435 166.416 169.362 166.23 170.446 166.23C171.022 166.23 171.535 166.279 171.984 166.377H176.716C176.901 166.377 177.033 166.44 177.111 166.567C177.199 166.685 177.243 166.88 177.243 167.153V167.476C177.243 167.749 177.199 167.949 177.111 168.076C177.033 168.193 176.901 168.252 176.716 168.252C176.062 168.252 175.456 168.228 174.899 168.179L174.87 168.223C175.095 168.535 175.261 168.887 175.368 169.277C175.485 169.658 175.544 170.059 175.544 170.479C175.544 171.279 175.344 172.002 174.943 172.646C174.553 173.291 173.972 173.799 173.2 174.17C172.438 174.541 171.511 174.727 170.417 174.727C169.597 174.756 168.977 174.907 168.557 175.181C168.146 175.454 167.941 175.903 167.941 176.528C167.941 176.987 168.088 177.339 168.381 177.583C168.684 177.827 169.06 177.998 169.509 178.096C169.958 178.193 170.583 178.286 171.384 178.374L172.146 178.462C172.956 178.569 173.635 178.716 174.182 178.901C174.729 179.087 175.178 179.395 175.529 179.824C175.891 180.254 176.071 180.845 176.071 181.597C176.071 182.856 175.568 183.823 174.562 184.497C173.557 185.181 172.082 185.522 170.139 185.522ZM170.417 172.998C171.374 172.998 172.136 172.803 172.702 172.412C173.269 172.021 173.552 171.382 173.552 170.493C173.552 168.813 172.507 167.974 170.417 167.974C168.356 167.974 167.326 168.813 167.326 170.493C167.326 171.382 167.604 172.021 168.161 172.412C168.728 172.803 169.479 172.998 170.417 172.998ZM170.417 183.75C171.628 183.75 172.526 183.589 173.112 183.267C173.698 182.954 173.991 182.476 173.991 181.831C173.991 181.411 173.835 181.084 173.522 180.85C173.21 180.625 172.824 180.464 172.365 180.366C171.916 180.278 171.32 180.195 170.578 180.117C170.07 180.059 169.65 180.005 169.318 179.956C168.996 179.907 168.698 179.839 168.425 179.751C167.272 180.239 166.696 180.947 166.696 181.875C166.696 183.125 167.937 183.75 170.417 183.75ZM192.419 180.146C190.896 180.146 189.514 179.497 188.273 178.198C188.195 178.735 188.054 179.248 187.849 179.736C187.81 179.854 187.731 179.937 187.614 179.985C187.507 180.024 187.355 180.044 187.16 180.044H187.058C186.784 180.044 186.584 180 186.457 179.912C186.34 179.814 186.281 179.668 186.281 179.473V160.986C186.281 160.605 186.623 160.415 187.307 160.415H187.424C188.107 160.415 188.449 160.605 188.449 160.986V167.549C189.016 167.119 189.592 166.792 190.178 166.567C190.764 166.343 191.433 166.23 192.185 166.23C193.22 166.23 194.138 166.499 194.938 167.036C195.739 167.573 196.359 168.364 196.799 169.409C197.248 170.454 197.473 171.709 197.473 173.174C197.473 174.521 197.268 175.728 196.857 176.792C196.447 177.847 195.861 178.672 195.1 179.268C194.338 179.854 193.444 180.146 192.419 180.146ZM191.979 178.257C193.005 178.257 193.791 177.803 194.338 176.895C194.895 175.977 195.173 174.678 195.173 172.998C195.173 171.436 194.88 170.244 194.294 169.424C193.708 168.604 192.839 168.179 191.687 168.149C191.11 168.149 190.544 168.247 189.987 168.442C189.431 168.638 188.918 168.931 188.449 169.321V176.455C188.986 177.031 189.562 177.476 190.178 177.788C190.793 178.101 191.394 178.257 191.979 178.257ZM205.075 180.146C203.747 180.146 202.707 179.775 201.955 179.033C201.203 178.281 200.827 177.246 200.827 175.928V166.904C200.827 166.523 201.179 166.333 201.882 166.333H201.984C202.678 166.333 203.024 166.523 203.024 166.904V175.723C203.024 176.523 203.254 177.148 203.713 177.598C204.182 178.037 204.836 178.257 205.676 178.257C206.262 178.257 206.848 178.096 207.434 177.773C208.02 177.441 208.527 176.992 208.957 176.426V166.904C208.957 166.523 209.304 166.333 209.997 166.333H210.1C210.803 166.333 211.154 166.523 211.154 166.904V176.147C211.154 177.28 211.203 178.101 211.301 178.608C211.398 179.106 211.447 179.38 211.447 179.429C211.447 179.644 211.286 179.8 210.964 179.897C210.642 179.985 210.339 180.029 210.056 180.029C209.812 180.029 209.631 179.893 209.514 179.619C209.396 179.336 209.309 179.048 209.25 178.755C209.201 178.462 209.167 178.276 209.147 178.198C208.601 178.813 207.966 179.292 207.243 179.634C206.53 179.976 205.808 180.146 205.075 180.146ZM218.435 180.249C217.702 180.249 217.019 180.156 216.384 179.971C215.749 179.785 215.241 179.561 214.86 179.297C214.489 179.023 214.304 178.784 214.304 178.579C214.304 178.481 214.353 178.325 214.45 178.11C214.558 177.896 214.68 177.705 214.816 177.539C214.963 177.363 215.095 177.275 215.212 177.275C215.241 177.275 215.329 177.324 215.476 177.422C215.866 177.676 216.276 177.891 216.706 178.066C217.146 178.242 217.668 178.33 218.273 178.33C219.973 178.33 220.822 177.627 220.822 176.221C220.822 175.82 220.739 175.483 220.573 175.21C220.417 174.937 220.148 174.697 219.768 174.492C219.396 174.277 218.884 174.072 218.229 173.877C217.292 173.604 216.56 173.291 216.032 172.939C215.515 172.588 215.148 172.178 214.934 171.709C214.719 171.23 214.611 170.654 214.611 169.98C214.611 169.258 214.792 168.608 215.153 168.032C215.524 167.456 216.037 167.007 216.691 166.685C217.355 166.362 218.103 166.201 218.933 166.201C219.509 166.201 220.061 166.255 220.588 166.362C221.125 166.47 221.555 166.611 221.877 166.787C222.209 166.953 222.375 167.129 222.375 167.314C222.375 167.451 222.326 167.637 222.229 167.871C222.141 168.096 222.028 168.296 221.892 168.472C221.755 168.638 221.633 168.721 221.525 168.721C221.506 168.721 221.384 168.662 221.159 168.545C220.935 168.418 220.646 168.306 220.295 168.208C219.953 168.101 219.572 168.047 219.152 168.047C218.488 168.047 217.937 168.198 217.497 168.501C217.067 168.794 216.853 169.189 216.853 169.688C216.853 170.273 217.009 170.742 217.321 171.094C217.634 171.445 218.151 171.733 218.874 171.958C219.987 172.3 220.837 172.642 221.423 172.983C222.009 173.325 222.424 173.745 222.668 174.243C222.922 174.731 223.049 175.376 223.049 176.177C223.049 176.938 222.844 177.632 222.434 178.257C222.023 178.872 221.467 179.36 220.764 179.722C220.061 180.073 219.284 180.249 218.435 180.249ZM227.443 163.096C226.75 163.096 226.403 162.905 226.403 162.524V160.986C226.403 160.605 226.75 160.415 227.443 160.415H227.751C228.454 160.415 228.806 160.605 228.806 160.986V162.524C228.806 162.905 228.454 163.096 227.751 163.096H227.443ZM227.546 180.044C226.853 180.044 226.506 179.854 226.506 179.473V166.904C226.506 166.523 226.853 166.333 227.546 166.333H227.648C228.352 166.333 228.703 166.523 228.703 166.904V179.473C228.703 179.854 228.352 180.044 227.648 180.044H227.546ZM234.343 180.044C233.972 180.044 233.703 180 233.537 179.912C233.371 179.814 233.288 179.668 233.288 179.473V170.332C233.288 169.199 233.234 168.384 233.127 167.886C233.02 167.378 232.966 167.1 232.966 167.051C232.966 166.836 233.127 166.685 233.449 166.597C233.781 166.499 234.094 166.45 234.387 166.45C234.631 166.45 234.812 166.582 234.929 166.846C235.046 167.109 235.129 167.378 235.178 167.651C235.236 167.925 235.275 168.101 235.295 168.179C235.842 167.563 236.472 167.085 237.185 166.743C237.907 166.401 238.635 166.23 239.367 166.23C240.695 166.23 241.73 166.606 242.473 167.358C243.225 168.101 243.601 169.126 243.601 170.435V179.473C243.601 179.668 243.518 179.814 243.352 179.912C243.186 180 242.922 180.044 242.561 180.044H242.443C242.092 180.044 241.833 180 241.667 179.912C241.501 179.814 241.418 179.668 241.418 179.473V170.654C241.418 169.854 241.184 169.233 240.715 168.794C240.256 168.345 239.606 168.12 238.767 168.12C238.181 168.12 237.59 168.286 236.994 168.618C236.408 168.94 235.9 169.385 235.471 169.951V179.473C235.471 179.668 235.388 179.814 235.222 179.912C235.056 180 234.797 180.044 234.445 180.044H234.343ZM253.371 180.146C251.213 180.146 249.606 179.585 248.552 178.462C247.507 177.329 246.984 175.601 246.984 173.276C246.984 170.972 247.497 169.224 248.522 168.032C249.548 166.831 251.057 166.23 253.049 166.23C254.826 166.23 256.164 166.807 257.062 167.959C257.971 169.111 258.425 170.801 258.425 173.027C258.425 173.125 258.371 173.262 258.264 173.438C258.166 173.604 258.044 173.755 257.897 173.892C257.761 174.019 257.644 174.082 257.546 174.082H249.328C249.436 175.537 249.807 176.602 250.441 177.275C251.086 177.939 252.053 178.271 253.342 178.271C254.064 178.271 254.685 178.184 255.202 178.008C255.729 177.832 256.237 177.617 256.726 177.363C256.774 177.344 256.848 177.31 256.945 177.261C257.043 177.212 257.111 177.188 257.15 177.188C257.258 177.188 257.38 177.275 257.517 177.451C257.663 177.617 257.785 177.808 257.883 178.022C257.99 178.228 258.044 178.379 258.044 178.477C258.044 178.691 257.829 178.931 257.399 179.194C256.97 179.458 256.394 179.683 255.671 179.868C254.958 180.054 254.191 180.146 253.371 180.146ZM256.096 172.207C256.096 169.473 255.056 168.105 252.976 168.105C250.739 168.105 249.523 169.473 249.328 172.207H256.096ZM264.665 180.249C263.933 180.249 263.249 180.156 262.614 179.971C261.979 179.785 261.472 179.561 261.091 179.297C260.72 179.023 260.534 178.784 260.534 178.579C260.534 178.481 260.583 178.325 260.681 178.11C260.788 177.896 260.91 177.705 261.047 177.539C261.193 177.363 261.325 177.275 261.442 177.275C261.472 177.275 261.56 177.324 261.706 177.422C262.097 177.676 262.507 177.891 262.937 178.066C263.376 178.242 263.898 178.33 264.504 178.33C266.203 178.33 267.053 177.627 267.053 176.221C267.053 175.82 266.97 175.483 266.804 175.21C266.647 174.937 266.379 174.697 265.998 174.492C265.627 174.277 265.114 174.072 264.46 173.877C263.522 173.604 262.79 173.291 262.263 172.939C261.745 172.588 261.379 172.178 261.164 171.709C260.949 171.23 260.842 170.654 260.842 169.98C260.842 169.258 261.022 168.608 261.384 168.032C261.755 167.456 262.268 167.007 262.922 166.685C263.586 166.362 264.333 166.201 265.163 166.201C265.739 166.201 266.291 166.255 266.818 166.362C267.355 166.47 267.785 166.611 268.107 166.787C268.439 166.953 268.605 167.129 268.605 167.314C268.605 167.451 268.557 167.637 268.459 167.871C268.371 168.096 268.259 168.296 268.122 168.472C267.985 168.638 267.863 168.721 267.756 168.721C267.736 168.721 267.614 168.662 267.39 168.545C267.165 168.418 266.877 168.306 266.525 168.208C266.184 168.101 265.803 168.047 265.383 168.047C264.719 168.047 264.167 168.198 263.728 168.501C263.298 168.794 263.083 169.189 263.083 169.688C263.083 170.273 263.239 170.742 263.552 171.094C263.864 171.445 264.382 171.733 265.104 171.958C266.218 172.3 267.067 172.642 267.653 172.983C268.239 173.325 268.654 173.745 268.898 174.243C269.152 174.731 269.279 175.376 269.279 176.177C269.279 176.938 269.074 177.632 268.664 178.257C268.254 178.872 267.697 179.36 266.994 179.722C266.291 180.073 265.515 180.249 264.665 180.249ZM275.417 180.249C274.685 180.249 274.001 180.156 273.366 179.971C272.731 179.785 272.224 179.561 271.843 179.297C271.472 179.023 271.286 178.784 271.286 178.579C271.286 178.481 271.335 178.325 271.433 178.11C271.54 177.896 271.662 177.705 271.799 177.539C271.945 177.363 272.077 177.275 272.194 177.275C272.224 177.275 272.312 177.324 272.458 177.422C272.849 177.676 273.259 177.891 273.688 178.066C274.128 178.242 274.65 178.33 275.256 178.33C276.955 178.33 277.805 177.627 277.805 176.221C277.805 175.82 277.722 175.483 277.556 175.21C277.399 174.937 277.131 174.697 276.75 174.492C276.379 174.277 275.866 174.072 275.212 173.877C274.274 173.604 273.542 173.291 273.015 172.939C272.497 172.588 272.131 172.178 271.916 171.709C271.701 171.23 271.594 170.654 271.594 169.98C271.594 169.258 271.774 168.608 272.136 168.032C272.507 167.456 273.02 167.007 273.674 166.685C274.338 166.362 275.085 166.201 275.915 166.201C276.491 166.201 277.043 166.255 277.57 166.362C278.107 166.47 278.537 166.611 278.859 166.787C279.191 166.953 279.357 167.129 279.357 167.314C279.357 167.451 279.309 167.637 279.211 167.871C279.123 168.096 279.011 168.296 278.874 168.472C278.737 168.638 278.615 168.721 278.508 168.721C278.488 168.721 278.366 168.662 278.142 168.545C277.917 168.418 277.629 168.306 277.277 168.208C276.936 168.101 276.555 168.047 276.135 168.047C275.471 168.047 274.919 168.198 274.479 168.501C274.05 168.794 273.835 169.189 273.835 169.688C273.835 170.273 273.991 170.742 274.304 171.094C274.616 171.445 275.134 171.733 275.856 171.958C276.97 172.3 277.819 172.642 278.405 172.983C278.991 173.325 279.406 173.745 279.65 174.243C279.904 174.731 280.031 175.376 280.031 176.177C280.031 176.938 279.826 177.632 279.416 178.257C279.006 178.872 278.449 179.36 277.746 179.722C277.043 180.073 276.267 180.249 275.417 180.249ZM288.938 180.146C286.779 180.146 285.173 179.585 284.118 178.462C283.073 177.329 282.551 175.601 282.551 173.276C282.551 170.972 283.063 169.224 284.089 168.032C285.114 166.831 286.623 166.23 288.615 166.23C290.393 166.23 291.73 166.807 292.629 167.959C293.537 169.111 293.991 170.801 293.991 173.027C293.991 173.125 293.938 173.262 293.83 173.438C293.732 173.604 293.61 173.755 293.464 173.892C293.327 174.019 293.21 174.082 293.112 174.082H284.895C285.002 175.537 285.373 176.602 286.008 177.275C286.652 177.939 287.619 178.271 288.908 178.271C289.631 178.271 290.251 178.184 290.769 178.008C291.296 177.832 291.804 177.617 292.292 177.363C292.341 177.344 292.414 177.31 292.512 177.261C292.609 177.212 292.678 177.188 292.717 177.188C292.824 177.188 292.946 177.275 293.083 177.451C293.229 177.617 293.352 177.808 293.449 178.022C293.557 178.228 293.61 178.379 293.61 178.477C293.61 178.691 293.396 178.931 292.966 179.194C292.536 179.458 291.96 179.683 291.237 179.868C290.524 180.054 289.758 180.146 288.938 180.146ZM291.662 172.207C291.662 169.473 290.622 168.105 288.542 168.105C286.306 168.105 285.09 169.473 284.895 172.207H291.662ZM300.231 180.249C299.499 180.249 298.815 180.156 298.181 179.971C297.546 179.785 297.038 179.561 296.657 179.297C296.286 179.023 296.101 178.784 296.101 178.579C296.101 178.481 296.149 178.325 296.247 178.11C296.354 177.896 296.477 177.705 296.613 177.539C296.76 177.363 296.892 177.275 297.009 177.275C297.038 177.275 297.126 177.324 297.272 177.422C297.663 177.676 298.073 177.891 298.503 178.066C298.942 178.242 299.465 178.33 300.07 178.33C301.77 178.33 302.619 177.627 302.619 176.221C302.619 175.82 302.536 175.483 302.37 175.21C302.214 174.937 301.945 174.697 301.564 174.492C301.193 174.277 300.681 174.072 300.026 173.877C299.089 173.604 298.356 173.291 297.829 172.939C297.312 172.588 296.945 172.178 296.73 171.709C296.516 171.23 296.408 170.654 296.408 169.98C296.408 169.258 296.589 168.608 296.95 168.032C297.321 167.456 297.834 167.007 298.488 166.685C299.152 166.362 299.899 166.201 300.729 166.201C301.306 166.201 301.857 166.255 302.385 166.362C302.922 166.47 303.352 166.611 303.674 166.787C304.006 166.953 304.172 167.129 304.172 167.314C304.172 167.451 304.123 167.637 304.025 167.871C303.938 168.096 303.825 168.296 303.688 168.472C303.552 168.638 303.43 168.721 303.322 168.721C303.303 168.721 303.181 168.662 302.956 168.545C302.731 168.418 302.443 168.306 302.092 168.208C301.75 168.101 301.369 168.047 300.949 168.047C300.285 168.047 299.733 168.198 299.294 168.501C298.864 168.794 298.649 169.189 298.649 169.688C298.649 170.273 298.806 170.742 299.118 171.094C299.431 171.445 299.948 171.733 300.671 171.958C301.784 172.3 302.634 172.642 303.22 172.983C303.806 173.325 304.221 173.745 304.465 174.243C304.719 174.731 304.846 175.376 304.846 176.177C304.846 176.938 304.641 177.632 304.23 178.257C303.82 178.872 303.264 179.36 302.561 179.722C301.857 180.073 301.081 180.249 300.231 180.249ZM318.352 180.146C317.482 180.146 316.706 179.883 316.022 179.355C315.339 178.828 314.997 177.896 314.997 176.558V168.252H313.693C313.508 168.252 313.371 168.193 313.283 168.076C313.205 167.949 313.166 167.749 313.166 167.476V167.153C313.166 166.88 313.205 166.685 313.283 166.567C313.371 166.44 313.508 166.377 313.693 166.377H314.997L315.305 163.652C315.324 163.271 315.603 163.081 316.14 163.081H316.389C316.662 163.081 316.862 163.13 316.989 163.228C317.116 163.315 317.18 163.457 317.18 163.652V166.377H319.362C319.548 166.377 319.68 166.44 319.758 166.567C319.846 166.685 319.89 166.88 319.89 167.153V167.476C319.89 167.749 319.846 167.949 319.758 168.076C319.68 168.193 319.548 168.252 319.362 168.252H317.18V176.353C317.18 177.065 317.302 177.563 317.546 177.847C317.8 178.13 318.142 178.271 318.571 178.271C318.903 178.271 319.157 178.252 319.333 178.213C319.519 178.174 319.641 178.154 319.699 178.154C319.855 178.154 319.982 178.311 320.08 178.623C320.188 178.936 320.241 179.185 320.241 179.37C320.241 179.888 319.611 180.146 318.352 180.146ZM328.605 180.146C326.643 180.146 325.144 179.561 324.108 178.389C323.083 177.207 322.57 175.493 322.57 173.247C322.57 171.001 323.093 169.272 324.138 168.062C325.183 166.841 326.672 166.23 328.605 166.23C330.52 166.23 331.984 166.836 333 168.047C334.016 169.248 334.523 170.981 334.523 173.247C334.523 175.503 334.021 177.217 333.015 178.389C332.019 179.561 330.549 180.146 328.605 180.146ZM328.532 178.271C329.802 178.271 330.739 177.861 331.345 177.041C331.95 176.211 332.253 174.932 332.253 173.203C332.253 171.465 331.95 170.181 331.345 169.351C330.739 168.521 329.802 168.105 328.532 168.105C327.272 168.105 326.345 168.521 325.749 169.351C325.153 170.171 324.855 171.455 324.855 173.203C324.855 174.941 325.148 176.221 325.734 177.041C326.33 177.861 327.263 178.271 328.532 178.271ZM348.381 180.146C347.512 180.146 346.735 179.883 346.052 179.355C345.368 178.828 345.026 177.896 345.026 176.558V168.252H343.723C343.537 168.252 343.4 168.193 343.312 168.076C343.234 167.949 343.195 167.749 343.195 167.476V167.153C343.195 166.88 343.234 166.685 343.312 166.567C343.4 166.44 343.537 166.377 343.723 166.377H345.026L345.334 163.652C345.354 163.271 345.632 163.081 346.169 163.081H346.418C346.691 163.081 346.892 163.13 347.019 163.228C347.146 163.315 347.209 163.457 347.209 163.652V166.377H349.392C349.577 166.377 349.709 166.44 349.787 166.567C349.875 166.685 349.919 166.88 349.919 167.153V167.476C349.919 167.749 349.875 167.949 349.787 168.076C349.709 168.193 349.577 168.252 349.392 168.252H347.209V176.353C347.209 177.065 347.331 177.563 347.575 177.847C347.829 178.13 348.171 178.271 348.601 178.271C348.933 178.271 349.187 178.252 349.362 178.213C349.548 178.174 349.67 178.154 349.729 178.154C349.885 178.154 350.012 178.311 350.109 178.623C350.217 178.936 350.271 179.185 350.271 179.37C350.271 179.888 349.641 180.146 348.381 180.146ZM354.562 180.044C354.191 180.044 353.923 180 353.757 179.912C353.591 179.814 353.508 179.668 353.508 179.473V170.332C353.508 169.199 353.454 168.384 353.347 167.886C353.239 167.378 353.186 167.1 353.186 167.051C353.186 166.836 353.347 166.685 353.669 166.597C354.001 166.499 354.313 166.45 354.606 166.45C354.841 166.45 355.017 166.577 355.134 166.831C355.251 167.075 355.354 167.422 355.441 167.871L355.515 168.179C356.442 166.88 357.448 166.23 358.532 166.23C359.03 166.23 359.406 166.323 359.66 166.509C359.914 166.685 360.041 166.924 360.041 167.227C360.041 167.52 359.987 167.832 359.88 168.164C359.782 168.486 359.665 168.647 359.528 168.647C359.46 168.647 359.338 168.618 359.162 168.56C359.006 168.491 358.85 168.442 358.693 168.413C358.537 168.374 358.337 168.354 358.093 168.354C357.692 168.354 357.312 168.472 356.95 168.706C356.599 168.94 356.301 169.199 356.057 169.482C355.812 169.766 355.69 169.922 355.69 169.951V179.473C355.69 179.668 355.607 179.814 355.441 179.912C355.275 180 355.017 180.044 354.665 180.044H354.562ZM366.413 180.146C365.085 180.146 364.011 179.819 363.19 179.165C362.37 178.511 361.96 177.539 361.96 176.25C361.96 174.893 362.375 173.872 363.205 173.188C364.035 172.495 365.046 172.051 366.237 171.855C367.438 171.65 368.894 171.533 370.603 171.504V170.273C370.603 169.619 370.378 169.097 369.929 168.706C369.489 168.306 368.762 168.105 367.746 168.105C366.975 168.105 366.296 168.198 365.71 168.384C365.134 168.56 364.592 168.774 364.084 169.028C363.869 169.136 363.737 169.189 363.688 169.189C363.571 169.189 363.439 169.106 363.293 168.94C363.156 168.765 363.034 168.569 362.927 168.354C362.829 168.14 362.78 167.983 362.78 167.886C362.78 167.661 363.01 167.417 363.469 167.153C363.938 166.89 364.548 166.67 365.3 166.494C366.052 166.318 366.838 166.23 367.658 166.23C369.289 166.23 370.554 166.587 371.452 167.3C372.351 168.013 372.8 169.014 372.8 170.303V176.147C372.8 177.28 372.849 178.101 372.946 178.608C373.054 179.106 373.107 179.38 373.107 179.429C373.107 179.644 372.941 179.8 372.609 179.897C372.287 179.985 371.984 180.029 371.701 180.029C371.467 180.029 371.291 179.897 371.174 179.634C371.066 179.37 370.959 178.989 370.852 178.491L370.793 178.198C370.256 178.794 369.621 179.268 368.889 179.619C368.166 179.971 367.341 180.146 366.413 180.146ZM366.53 178.257C367.39 178.257 368.122 178.101 368.728 177.788C369.333 177.476 369.958 177.031 370.603 176.455V173.379C369.313 173.389 368.254 173.442 367.424 173.54C366.594 173.638 365.866 173.887 365.241 174.287C364.616 174.678 364.304 175.288 364.304 176.118C364.304 176.812 364.489 177.344 364.86 177.715C365.241 178.076 365.798 178.257 366.53 178.257ZM378.19 180.044C377.819 180.044 377.551 180 377.385 179.912C377.219 179.814 377.136 179.668 377.136 179.473V170.332C377.136 169.199 377.082 168.384 376.975 167.886C376.867 167.378 376.813 167.1 376.813 167.051C376.813 166.836 376.975 166.685 377.297 166.597C377.629 166.499 377.941 166.45 378.234 166.45C378.479 166.45 378.659 166.582 378.776 166.846C378.894 167.109 378.977 167.378 379.025 167.651C379.084 167.925 379.123 168.101 379.143 168.179C379.689 167.563 380.319 167.085 381.032 166.743C381.755 166.401 382.482 166.23 383.215 166.23C384.543 166.23 385.578 166.606 386.32 167.358C387.072 168.101 387.448 169.126 387.448 170.435V179.473C387.448 179.668 387.365 179.814 387.199 179.912C387.033 180 386.77 180.044 386.408 180.044H386.291C385.939 180.044 385.681 180 385.515 179.912C385.349 179.814 385.266 179.668 385.266 179.473V170.654C385.266 169.854 385.031 169.233 384.562 168.794C384.104 168.345 383.454 168.12 382.614 168.12C382.028 168.12 381.438 168.286 380.842 168.618C380.256 168.94 379.748 169.385 379.318 169.951V179.473C379.318 179.668 379.235 179.814 379.069 179.912C378.903 180 378.645 180.044 378.293 180.044H378.19ZM394.45 180.249C393.718 180.249 393.034 180.156 392.399 179.971C391.765 179.785 391.257 179.561 390.876 179.297C390.505 179.023 390.319 178.784 390.319 178.579C390.319 178.481 390.368 178.325 390.466 178.11C390.573 177.896 390.695 177.705 390.832 177.539C390.979 177.363 391.11 177.275 391.228 177.275C391.257 177.275 391.345 177.324 391.491 177.422C391.882 177.676 392.292 177.891 392.722 178.066C393.161 178.242 393.684 178.33 394.289 178.33C395.988 178.33 396.838 177.627 396.838 176.221C396.838 175.82 396.755 175.483 396.589 175.21C396.433 174.937 396.164 174.697 395.783 174.492C395.412 174.277 394.899 174.072 394.245 173.877C393.308 173.604 392.575 173.291 392.048 172.939C391.53 172.588 391.164 172.178 390.949 171.709C390.734 171.23 390.627 170.654 390.627 169.98C390.627 169.258 390.808 168.608 391.169 168.032C391.54 167.456 392.053 167.007 392.707 166.685C393.371 166.362 394.118 166.201 394.948 166.201C395.524 166.201 396.076 166.255 396.604 166.362C397.141 166.47 397.57 166.611 397.893 166.787C398.225 166.953 398.391 167.129 398.391 167.314C398.391 167.451 398.342 167.637 398.244 167.871C398.156 168.096 398.044 168.296 397.907 168.472C397.771 168.638 397.648 168.721 397.541 168.721C397.521 168.721 397.399 168.662 397.175 168.545C396.95 168.418 396.662 168.306 396.311 168.208C395.969 168.101 395.588 168.047 395.168 168.047C394.504 168.047 393.952 168.198 393.513 168.501C393.083 168.794 392.868 169.189 392.868 169.688C392.868 170.273 393.024 170.742 393.337 171.094C393.649 171.445 394.167 171.733 394.89 171.958C396.003 172.3 396.853 172.642 397.438 172.983C398.024 173.325 398.439 173.745 398.684 174.243C398.938 174.731 399.064 175.376 399.064 176.177C399.064 176.938 398.859 177.632 398.449 178.257C398.039 178.872 397.482 179.36 396.779 179.722C396.076 180.073 395.3 180.249 394.45 180.249ZM404.001 180.044C403.64 180.044 403.376 180 403.21 179.912C403.044 179.814 402.961 179.668 402.961 179.473V168.252H401.921C401.569 168.252 401.394 167.993 401.394 167.476V167.153C401.394 166.636 401.569 166.377 401.921 166.377H402.961V163.901C402.961 162.534 403.298 161.597 403.972 161.089C404.655 160.571 405.437 160.312 406.315 160.312C407.585 160.312 408.22 160.576 408.22 161.104C408.22 161.191 408.195 161.338 408.146 161.543C408.107 161.738 408.044 161.914 407.956 162.07C407.878 162.227 407.785 162.305 407.678 162.305C407.619 162.305 407.497 162.285 407.312 162.246C407.126 162.207 406.872 162.188 406.55 162.188C406.257 162.188 406.008 162.231 405.803 162.319C405.607 162.407 405.446 162.593 405.319 162.876C405.202 163.159 405.144 163.569 405.144 164.106V166.377H407.414C407.6 166.377 407.731 166.44 407.81 166.567C407.897 166.685 407.941 166.88 407.941 167.153V167.476C407.941 167.749 407.897 167.949 407.81 168.076C407.731 168.193 407.6 168.252 407.414 168.252H405.144V179.473C405.144 179.668 405.061 179.814 404.895 179.912C404.729 180 404.47 180.044 404.118 180.044H404.001ZM416.086 180.146C414.123 180.146 412.624 179.561 411.589 178.389C410.563 177.207 410.051 175.493 410.051 173.247C410.051 171.001 410.573 169.272 411.618 168.062C412.663 166.841 414.152 166.23 416.086 166.23C418 166.23 419.465 166.836 420.48 168.047C421.496 169.248 422.004 170.981 422.004 173.247C422.004 175.503 421.501 177.217 420.495 178.389C419.499 179.561 418.029 180.146 416.086 180.146ZM416.013 178.271C417.282 178.271 418.22 177.861 418.825 177.041C419.431 176.211 419.733 174.932 419.733 173.203C419.733 171.465 419.431 170.181 418.825 169.351C418.22 168.521 417.282 168.105 416.013 168.105C414.753 168.105 413.825 168.521 413.229 169.351C412.634 170.171 412.336 171.455 412.336 173.203C412.336 174.941 412.629 176.221 413.215 177.041C413.811 177.861 414.743 178.271 416.013 178.271ZM426.838 180.044C426.467 180.044 426.198 180 426.032 179.912C425.866 179.814 425.783 179.668 425.783 179.473V170.332C425.783 169.199 425.729 168.384 425.622 167.886C425.515 167.378 425.461 167.1 425.461 167.051C425.461 166.836 425.622 166.685 425.944 166.597C426.276 166.499 426.589 166.45 426.882 166.45C427.116 166.45 427.292 166.577 427.409 166.831C427.526 167.075 427.629 167.422 427.717 167.871L427.79 168.179C428.718 166.88 429.724 166.23 430.808 166.23C431.306 166.23 431.682 166.323 431.936 166.509C432.189 166.685 432.316 166.924 432.316 167.227C432.316 167.52 432.263 167.832 432.155 168.164C432.058 168.486 431.94 168.647 431.804 168.647C431.735 168.647 431.613 168.618 431.438 168.56C431.281 168.491 431.125 168.442 430.969 168.413C430.812 168.374 430.612 168.354 430.368 168.354C429.968 168.354 429.587 168.472 429.226 168.706C428.874 168.94 428.576 169.199 428.332 169.482C428.088 169.766 427.966 169.922 427.966 169.951V179.473C427.966 179.668 427.883 179.814 427.717 179.912C427.551 180 427.292 180.044 426.94 180.044H426.838ZM449.001 166.23C450.085 166.23 451.037 166.538 451.857 167.153C452.678 167.769 453.088 168.862 453.088 170.435V179.473C453.088 179.668 453.005 179.814 452.839 179.912C452.673 180 452.409 180.044 452.048 180.044H451.96C451.589 180.044 451.32 180 451.154 179.912C450.988 179.814 450.905 179.668 450.905 179.473V170.654C450.905 169.863 450.69 169.243 450.261 168.794C449.841 168.345 449.221 168.12 448.4 168.12C447.717 168.12 447.097 168.32 446.54 168.721C445.993 169.111 445.549 169.521 445.207 169.951C445.227 170.186 445.236 170.361 445.236 170.479V179.473C445.236 179.854 444.885 180.044 444.182 180.044H444.079C443.386 180.044 443.039 179.854 443.039 179.473V170.654C443.039 169.863 442.824 169.243 442.395 168.794C441.975 168.345 441.354 168.12 440.534 168.12C439.968 168.12 439.45 168.257 438.981 168.53C438.513 168.794 438.122 169.082 437.81 169.395C437.507 169.707 437.355 169.883 437.355 169.922V179.473C437.355 179.668 437.272 179.814 437.106 179.912C436.95 180 436.691 180.044 436.33 180.044H436.213C435.852 180.044 435.588 180 435.422 179.912C435.266 179.814 435.188 179.668 435.188 179.473V170.332C435.188 169.199 435.134 168.384 435.026 167.886C434.919 167.378 434.865 167.1 434.865 167.051C434.865 166.836 435.026 166.685 435.349 166.597C435.681 166.499 435.988 166.45 436.271 166.45C436.516 166.45 436.696 166.582 436.813 166.846C436.931 167.109 437.014 167.378 437.062 167.651C437.121 167.925 437.16 168.101 437.18 168.179C437.658 167.622 438.244 167.158 438.938 166.787C439.631 166.416 440.363 166.23 441.135 166.23C441.926 166.23 442.663 166.392 443.347 166.714C444.03 167.026 444.533 167.583 444.855 168.384C445.393 167.749 446.022 167.231 446.745 166.831C447.468 166.431 448.22 166.23 449.001 166.23ZM467.048 180.146C465.72 180.146 464.646 179.819 463.825 179.165C463.005 178.511 462.595 177.539 462.595 176.25C462.595 174.893 463.01 173.872 463.84 173.188C464.67 172.495 465.681 172.051 466.872 171.855C468.073 171.65 469.528 171.533 471.237 171.504V170.273C471.237 169.619 471.013 169.097 470.563 168.706C470.124 168.306 469.396 168.105 468.381 168.105C467.609 168.105 466.931 168.198 466.345 168.384C465.769 168.56 465.227 168.774 464.719 169.028C464.504 169.136 464.372 169.189 464.323 169.189C464.206 169.189 464.074 169.106 463.928 168.94C463.791 168.765 463.669 168.569 463.562 168.354C463.464 168.14 463.415 167.983 463.415 167.886C463.415 167.661 463.645 167.417 464.104 167.153C464.572 166.89 465.183 166.67 465.935 166.494C466.687 166.318 467.473 166.23 468.293 166.23C469.924 166.23 471.188 166.587 472.087 167.3C472.985 168.013 473.435 169.014 473.435 170.303V176.147C473.435 177.28 473.483 178.101 473.581 178.608C473.688 179.106 473.742 179.38 473.742 179.429C473.742 179.644 473.576 179.8 473.244 179.897C472.922 179.985 472.619 180.029 472.336 180.029C472.102 180.029 471.926 179.897 471.809 179.634C471.701 179.37 471.594 178.989 471.486 178.491L471.428 178.198C470.891 178.794 470.256 179.268 469.523 179.619C468.801 179.971 467.976 180.146 467.048 180.146ZM467.165 178.257C468.024 178.257 468.757 178.101 469.362 177.788C469.968 177.476 470.593 177.031 471.237 176.455V173.379C469.948 173.389 468.889 173.442 468.059 173.54C467.229 173.638 466.501 173.887 465.876 174.287C465.251 174.678 464.938 175.288 464.938 176.118C464.938 176.812 465.124 177.344 465.495 177.715C465.876 178.076 466.433 178.257 467.165 178.257ZM478.825 180.044C478.454 180.044 478.186 180 478.02 179.912C477.854 179.814 477.771 179.668 477.771 179.473V170.332C477.771 169.199 477.717 168.384 477.609 167.886C477.502 167.378 477.448 167.1 477.448 167.051C477.448 166.836 477.609 166.685 477.932 166.597C478.264 166.499 478.576 166.45 478.869 166.45C479.113 166.45 479.294 166.582 479.411 166.846C479.528 167.109 479.611 167.378 479.66 167.651C479.719 167.925 479.758 168.101 479.777 168.179C480.324 167.563 480.954 167.085 481.667 166.743C482.39 166.401 483.117 166.23 483.85 166.23C485.178 166.23 486.213 166.606 486.955 167.358C487.707 168.101 488.083 169.126 488.083 170.435V179.473C488.083 179.668 488 179.814 487.834 179.912C487.668 180 487.404 180.044 487.043 180.044H486.926C486.574 180.044 486.315 180 486.149 179.912C485.983 179.814 485.9 179.668 485.9 179.473V170.654C485.9 169.854 485.666 169.233 485.197 168.794C484.738 168.345 484.089 168.12 483.249 168.12C482.663 168.12 482.072 168.286 481.477 168.618C480.891 168.94 480.383 169.385 479.953 169.951V179.473C479.953 179.668 479.87 179.814 479.704 179.912C479.538 180 479.279 180.044 478.928 180.044H478.825ZM496.433 180.146C495.417 180.146 494.528 179.854 493.767 179.268C493.005 178.672 492.414 177.847 491.994 176.792C491.584 175.737 491.379 174.541 491.379 173.203C491.379 171.729 491.599 170.469 492.038 169.424C492.487 168.369 493.112 167.573 493.913 167.036C494.714 166.499 495.637 166.23 496.682 166.23C497.434 166.23 498.098 166.343 498.674 166.567C499.26 166.792 499.836 167.119 500.402 167.549V160.986C500.402 160.605 500.744 160.415 501.428 160.415H501.545C502.238 160.415 502.585 160.605 502.585 160.986V176.147C502.585 177.28 502.639 178.101 502.746 178.608C502.854 179.106 502.907 179.38 502.907 179.429C502.907 179.644 502.741 179.8 502.409 179.897C502.087 179.985 501.784 180.029 501.501 180.029C501.306 180.029 501.149 179.937 501.032 179.751C500.915 179.565 500.832 179.38 500.783 179.194C500.744 178.999 500.676 178.667 500.578 178.198C499.338 179.497 497.956 180.146 496.433 180.146ZM496.887 178.257C497.463 178.257 498.059 178.101 498.674 177.788C499.299 177.476 499.875 177.031 500.402 176.455V169.321C499.465 168.54 498.396 168.149 497.194 168.149C496.032 168.179 495.153 168.604 494.558 169.424C493.972 170.244 493.679 171.436 493.679 172.998C493.679 174.678 493.952 175.977 494.499 176.895C495.056 177.803 495.852 178.257 496.887 178.257ZM516.091 180.249C515.358 180.249 514.675 180.156 514.04 179.971C513.405 179.785 512.897 179.561 512.517 179.297C512.146 179.023 511.96 178.784 511.96 178.579C511.96 178.481 512.009 178.325 512.106 178.11C512.214 177.896 512.336 177.705 512.473 177.539C512.619 177.363 512.751 177.275 512.868 177.275C512.897 177.275 512.985 177.324 513.132 177.422C513.522 177.676 513.933 177.891 514.362 178.066C514.802 178.242 515.324 178.33 515.93 178.33C517.629 178.33 518.479 177.627 518.479 176.221C518.479 175.82 518.396 175.483 518.229 175.21C518.073 174.937 517.805 174.697 517.424 174.492C517.053 174.277 516.54 174.072 515.886 173.877C514.948 173.604 514.216 173.291 513.688 172.939C513.171 172.588 512.805 172.178 512.59 171.709C512.375 171.23 512.268 170.654 512.268 169.98C512.268 169.258 512.448 168.608 512.81 168.032C513.181 167.456 513.693 167.007 514.348 166.685C515.012 166.362 515.759 166.201 516.589 166.201C517.165 166.201 517.717 166.255 518.244 166.362C518.781 166.47 519.211 166.611 519.533 166.787C519.865 166.953 520.031 167.129 520.031 167.314C520.031 167.451 519.982 167.637 519.885 167.871C519.797 168.096 519.685 168.296 519.548 168.472C519.411 168.638 519.289 168.721 519.182 168.721C519.162 168.721 519.04 168.662 518.815 168.545C518.591 168.418 518.303 168.306 517.951 168.208C517.609 168.101 517.229 168.047 516.809 168.047C516.145 168.047 515.593 168.198 515.153 168.501C514.724 168.794 514.509 169.189 514.509 169.688C514.509 170.273 514.665 170.742 514.978 171.094C515.29 171.445 515.808 171.733 516.53 171.958C517.644 172.3 518.493 172.642 519.079 172.983C519.665 173.325 520.08 173.745 520.324 174.243C520.578 174.731 520.705 175.376 520.705 176.177C520.705 176.938 520.5 177.632 520.09 178.257C519.68 178.872 519.123 179.36 518.42 179.722C517.717 180.073 516.94 180.249 516.091 180.249ZM527.985 180.146C526.657 180.146 525.617 179.775 524.865 179.033C524.113 178.281 523.737 177.246 523.737 175.928V166.904C523.737 166.523 524.089 166.333 524.792 166.333H524.895C525.588 166.333 525.935 166.523 525.935 166.904V175.723C525.935 176.523 526.164 177.148 526.623 177.598C527.092 178.037 527.746 178.257 528.586 178.257C529.172 178.257 529.758 178.096 530.344 177.773C530.93 177.441 531.438 176.992 531.867 176.426V166.904C531.867 166.523 532.214 166.333 532.907 166.333H533.01C533.713 166.333 534.064 166.523 534.064 166.904V176.147C534.064 177.28 534.113 178.101 534.211 178.608C534.309 179.106 534.357 179.38 534.357 179.429C534.357 179.644 534.196 179.8 533.874 179.897C533.552 179.985 533.249 180.029 532.966 180.029C532.722 180.029 532.541 179.893 532.424 179.619C532.307 179.336 532.219 179.048 532.16 178.755C532.111 178.462 532.077 178.276 532.058 178.198C531.511 178.813 530.876 179.292 530.153 179.634C529.44 179.976 528.718 180.146 527.985 180.146ZM544.055 180.146C541.896 180.146 540.285 179.595 539.221 178.491C538.166 177.378 537.639 175.591 537.639 173.13C537.639 170.64 538.229 168.867 539.411 167.812C540.593 166.758 542.062 166.23 543.82 166.23C544.475 166.23 545.104 166.289 545.71 166.406C546.315 166.514 546.804 166.66 547.175 166.846C547.546 167.031 547.731 167.227 547.731 167.432C547.731 167.568 547.683 167.749 547.585 167.974C547.497 168.198 547.385 168.398 547.248 168.574C547.121 168.74 547.004 168.823 546.896 168.823C546.867 168.823 546.823 168.813 546.765 168.794C546.706 168.765 546.652 168.74 546.604 168.721C545.725 168.311 544.777 168.105 543.762 168.105C542.561 168.105 541.633 168.501 540.979 169.292C540.324 170.073 539.997 171.333 539.997 173.071C539.997 174.302 540.129 175.298 540.393 176.06C540.656 176.812 541.081 177.368 541.667 177.729C542.263 178.091 543.054 178.271 544.04 178.271C545.124 178.271 546.101 178.047 546.97 177.598C547.058 177.578 547.121 177.559 547.16 177.539C547.209 177.51 547.243 177.495 547.263 177.495C547.37 177.495 547.492 177.578 547.629 177.744C547.766 177.91 547.883 178.101 547.98 178.315C548.088 178.53 548.142 178.701 548.142 178.828C548.142 179.033 547.956 179.238 547.585 179.443C547.214 179.648 546.711 179.819 546.076 179.956C545.451 180.083 544.777 180.146 544.055 180.146ZM556.682 180.146C554.523 180.146 552.912 179.595 551.848 178.491C550.793 177.378 550.266 175.591 550.266 173.13C550.266 170.64 550.856 168.867 552.038 167.812C553.22 166.758 554.689 166.23 556.447 166.23C557.102 166.23 557.731 166.289 558.337 166.406C558.942 166.514 559.431 166.66 559.802 166.846C560.173 167.031 560.358 167.227 560.358 167.432C560.358 167.568 560.31 167.749 560.212 167.974C560.124 168.198 560.012 168.398 559.875 168.574C559.748 168.74 559.631 168.823 559.523 168.823C559.494 168.823 559.45 168.813 559.392 168.794C559.333 168.765 559.279 168.74 559.23 168.721C558.352 168.311 557.404 168.105 556.389 168.105C555.188 168.105 554.26 168.501 553.605 169.292C552.951 170.073 552.624 171.333 552.624 173.071C552.624 174.302 552.756 175.298 553.02 176.06C553.283 176.812 553.708 177.368 554.294 177.729C554.89 178.091 555.681 178.271 556.667 178.271C557.751 178.271 558.728 178.047 559.597 177.598C559.685 177.578 559.748 177.559 559.787 177.539C559.836 177.51 559.87 177.495 559.89 177.495C559.997 177.495 560.119 177.578 560.256 177.744C560.393 177.91 560.51 178.101 560.607 178.315C560.715 178.53 560.769 178.701 560.769 178.828C560.769 179.033 560.583 179.238 560.212 179.443C559.841 179.648 559.338 179.819 558.703 179.956C558.078 180.083 557.404 180.146 556.682 180.146ZM569.367 180.146C567.209 180.146 565.603 179.585 564.548 178.462C563.503 177.329 562.98 175.601 562.98 173.276C562.98 170.972 563.493 169.224 564.519 168.032C565.544 166.831 567.053 166.23 569.045 166.23C570.822 166.23 572.16 166.807 573.059 167.959C573.967 169.111 574.421 170.801 574.421 173.027C574.421 173.125 574.367 173.262 574.26 173.438C574.162 173.604 574.04 173.755 573.894 173.892C573.757 174.019 573.64 174.082 573.542 174.082H565.324C565.432 175.537 565.803 176.602 566.438 177.275C567.082 177.939 568.049 178.271 569.338 178.271C570.061 178.271 570.681 178.184 571.198 178.008C571.726 177.832 572.233 177.617 572.722 177.363C572.771 177.344 572.844 177.31 572.941 177.261C573.039 177.212 573.107 177.188 573.146 177.188C573.254 177.188 573.376 177.275 573.513 177.451C573.659 177.617 573.781 177.808 573.879 178.022C573.986 178.228 574.04 178.379 574.04 178.477C574.04 178.691 573.825 178.931 573.396 179.194C572.966 179.458 572.39 179.683 571.667 179.868C570.954 180.054 570.188 180.146 569.367 180.146ZM572.092 172.207C572.092 169.473 571.052 168.105 568.972 168.105C566.735 168.105 565.52 169.473 565.324 172.207H572.092ZM583.43 180.146C581.271 180.146 579.665 179.585 578.61 178.462C577.565 177.329 577.043 175.601 577.043 173.276C577.043 170.972 577.556 169.224 578.581 168.032C579.606 166.831 581.115 166.23 583.107 166.23C584.885 166.23 586.223 166.807 587.121 167.959C588.029 169.111 588.483 170.801 588.483 173.027C588.483 173.125 588.43 173.262 588.322 173.438C588.225 173.604 588.103 173.755 587.956 173.892C587.819 174.019 587.702 174.082 587.604 174.082H579.387C579.494 175.537 579.865 176.602 580.5 177.275C581.145 177.939 582.111 178.271 583.4 178.271C584.123 178.271 584.743 178.184 585.261 178.008C585.788 177.832 586.296 177.617 586.784 177.363C586.833 177.344 586.906 177.31 587.004 177.261C587.102 177.212 587.17 177.188 587.209 177.188C587.316 177.188 587.438 177.275 587.575 177.451C587.722 177.617 587.844 177.808 587.941 178.022C588.049 178.228 588.103 178.379 588.103 178.477C588.103 178.691 587.888 178.931 587.458 179.194C587.028 179.458 586.452 179.683 585.729 179.868C585.017 180.054 584.25 180.146 583.43 180.146ZM586.154 172.207C586.154 169.473 585.114 168.105 583.034 168.105C580.798 168.105 579.582 169.473 579.387 172.207H586.154ZM596.071 180.146C595.056 180.146 594.167 179.854 593.405 179.268C592.644 178.672 592.053 177.847 591.633 176.792C591.223 175.737 591.018 174.541 591.018 173.203C591.018 171.729 591.237 170.469 591.677 169.424C592.126 168.369 592.751 167.573 593.552 167.036C594.353 166.499 595.275 166.23 596.32 166.23C597.072 166.23 597.736 166.343 598.312 166.567C598.898 166.792 599.475 167.119 600.041 167.549V160.986C600.041 160.605 600.383 160.415 601.066 160.415H601.184C601.877 160.415 602.224 160.605 602.224 160.986V176.147C602.224 177.28 602.277 178.101 602.385 178.608C602.492 179.106 602.546 179.38 602.546 179.429C602.546 179.644 602.38 179.8 602.048 179.897C601.726 179.985 601.423 180.029 601.14 180.029C600.944 180.029 600.788 179.937 600.671 179.751C600.554 179.565 600.471 179.38 600.422 179.194C600.383 178.999 600.314 178.667 600.217 178.198C598.977 179.497 597.595 180.146 596.071 180.146ZM596.525 178.257C597.102 178.257 597.697 178.101 598.312 177.788C598.938 177.476 599.514 177.031 600.041 176.455V169.321C599.104 168.54 598.034 168.149 596.833 168.149C595.671 168.179 594.792 168.604 594.196 169.424C593.61 170.244 593.317 171.436 593.317 172.998C593.317 174.678 593.591 175.977 594.138 176.895C594.694 177.803 595.49 178.257 596.525 178.257ZM616.828 180.146C615.959 180.146 615.183 179.883 614.499 179.355C613.815 178.828 613.474 177.896 613.474 176.558V168.252H612.17C611.984 168.252 611.848 168.193 611.76 168.076C611.682 167.949 611.643 167.749 611.643 167.476V167.153C611.643 166.88 611.682 166.685 611.76 166.567C611.848 166.44 611.984 166.377 612.17 166.377H613.474L613.781 163.652C613.801 163.271 614.079 163.081 614.616 163.081H614.865C615.139 163.081 615.339 163.13 615.466 163.228C615.593 163.315 615.656 163.457 615.656 163.652V166.377H617.839C618.024 166.377 618.156 166.44 618.234 166.567C618.322 166.685 618.366 166.88 618.366 167.153V167.476C618.366 167.749 618.322 167.949 618.234 168.076C618.156 168.193 618.024 168.252 617.839 168.252H615.656V176.353C615.656 177.065 615.778 177.563 616.022 177.847C616.276 178.13 616.618 178.271 617.048 178.271C617.38 178.271 617.634 178.252 617.81 178.213C617.995 178.174 618.117 178.154 618.176 178.154C618.332 178.154 618.459 178.311 618.557 178.623C618.664 178.936 618.718 179.185 618.718 179.37C618.718 179.888 618.088 180.146 616.828 180.146ZM623.054 180.044C622.36 180.044 622.014 179.854 622.014 179.473V160.986C622.014 160.605 622.36 160.415 623.054 160.415H623.156C623.859 160.415 624.211 160.605 624.211 160.986V168.018C624.719 167.5 625.314 167.075 625.998 166.743C626.682 166.401 627.409 166.23 628.181 166.23C629.274 166.23 630.236 166.538 631.066 167.153C631.906 167.769 632.326 168.862 632.326 170.435V179.473C632.326 179.854 631.979 180.044 631.286 180.044H631.184C630.48 180.044 630.129 179.854 630.129 179.473V170.654C630.129 169.863 629.904 169.243 629.455 168.794C629.006 168.345 628.347 168.12 627.478 168.12C626.901 168.12 626.369 168.257 625.881 168.53C625.402 168.804 625.002 169.102 624.68 169.424C624.367 169.736 624.211 169.912 624.211 169.951V179.473C624.211 179.854 623.859 180.044 623.156 180.044H623.054ZM637.746 180.044C637.375 180.044 637.106 180 636.94 179.912C636.774 179.814 636.691 179.668 636.691 179.473V170.332C636.691 169.199 636.638 168.384 636.53 167.886C636.423 167.378 636.369 167.1 636.369 167.051C636.369 166.836 636.53 166.685 636.853 166.597C637.185 166.499 637.497 166.45 637.79 166.45C638.024 166.45 638.2 166.577 638.317 166.831C638.435 167.075 638.537 167.422 638.625 167.871L638.698 168.179C639.626 166.88 640.632 166.23 641.716 166.23C642.214 166.23 642.59 166.323 642.844 166.509C643.098 166.685 643.225 166.924 643.225 167.227C643.225 167.52 643.171 167.832 643.063 168.164C642.966 168.486 642.849 168.647 642.712 168.647C642.644 168.647 642.521 168.618 642.346 168.56C642.189 168.491 642.033 168.442 641.877 168.413C641.721 168.374 641.521 168.354 641.276 168.354C640.876 168.354 640.495 168.472 640.134 168.706C639.782 168.94 639.484 169.199 639.24 169.482C638.996 169.766 638.874 169.922 638.874 169.951V179.473C638.874 179.668 638.791 179.814 638.625 179.912C638.459 180 638.2 180.044 637.849 180.044H637.746ZM651.34 180.146C649.377 180.146 647.878 179.561 646.843 178.389C645.817 177.207 645.305 175.493 645.305 173.247C645.305 171.001 645.827 169.272 646.872 168.062C647.917 166.841 649.406 166.23 651.34 166.23C653.254 166.23 654.719 166.836 655.734 168.047C656.75 169.248 657.258 170.981 657.258 173.247C657.258 175.503 656.755 177.217 655.749 178.389C654.753 179.561 653.283 180.146 651.34 180.146ZM651.267 178.271C652.536 178.271 653.474 177.861 654.079 177.041C654.685 176.211 654.987 174.932 654.987 173.203C654.987 171.465 654.685 170.181 654.079 169.351C653.474 168.521 652.536 168.105 651.267 168.105C650.007 168.105 649.079 168.521 648.483 169.351C647.888 170.171 647.59 171.455 647.59 173.203C647.59 174.941 647.883 176.221 648.469 177.041C649.064 177.861 649.997 178.271 651.267 178.271ZM664.89 180.146C663.562 180.146 662.521 179.775 661.77 179.033C661.018 178.281 660.642 177.246 660.642 175.928V166.904C660.642 166.523 660.993 166.333 661.696 166.333H661.799C662.492 166.333 662.839 166.523 662.839 166.904V175.723C662.839 176.523 663.068 177.148 663.527 177.598C663.996 178.037 664.65 178.257 665.49 178.257C666.076 178.257 666.662 178.096 667.248 177.773C667.834 177.441 668.342 176.992 668.771 176.426V166.904C668.771 166.523 669.118 166.333 669.812 166.333H669.914C670.617 166.333 670.969 166.523 670.969 166.904V176.147C670.969 177.28 671.018 178.101 671.115 178.608C671.213 179.106 671.262 179.38 671.262 179.429C671.262 179.644 671.101 179.8 670.778 179.897C670.456 179.985 670.153 180.029 669.87 180.029C669.626 180.029 669.445 179.893 669.328 179.619C669.211 179.336 669.123 179.048 669.064 178.755C669.016 178.462 668.981 178.276 668.962 178.198C668.415 178.813 667.78 179.292 667.058 179.634C666.345 179.976 665.622 180.146 664.89 180.146ZM679.787 185.522C678.127 185.522 676.813 185.264 675.847 184.746C674.88 184.229 674.396 183.413 674.396 182.3C674.396 181.538 674.616 180.874 675.056 180.308C675.495 179.741 676.066 179.316 676.77 179.033L676.799 178.975C676.457 178.711 676.193 178.408 676.008 178.066C675.832 177.725 675.744 177.319 675.744 176.851C675.744 175.718 676.232 174.81 677.209 174.126C676.477 173.774 675.92 173.281 675.539 172.646C675.158 172.002 674.968 171.279 674.968 170.479C674.968 169.678 675.163 168.955 675.554 168.311C675.954 167.666 676.54 167.158 677.312 166.787C678.083 166.416 679.011 166.23 680.095 166.23C680.671 166.23 681.184 166.279 681.633 166.377H686.364C686.55 166.377 686.682 166.44 686.76 166.567C686.848 166.685 686.892 166.88 686.892 167.153V167.476C686.892 167.749 686.848 167.949 686.76 168.076C686.682 168.193 686.55 168.252 686.364 168.252C685.71 168.252 685.104 168.228 684.548 168.179L684.519 168.223C684.743 168.535 684.909 168.887 685.017 169.277C685.134 169.658 685.192 170.059 685.192 170.479C685.192 171.279 684.992 172.002 684.592 172.646C684.201 173.291 683.62 173.799 682.849 174.17C682.087 174.541 681.159 174.727 680.065 174.727C679.245 174.756 678.625 174.907 678.205 175.181C677.795 175.454 677.59 175.903 677.59 176.528C677.59 176.987 677.736 177.339 678.029 177.583C678.332 177.827 678.708 177.998 679.157 178.096C679.606 178.193 680.231 178.286 681.032 178.374L681.794 178.462C682.604 178.569 683.283 178.716 683.83 178.901C684.377 179.087 684.826 179.395 685.178 179.824C685.539 180.254 685.72 180.845 685.72 181.597C685.72 182.856 685.217 183.823 684.211 184.497C683.205 185.181 681.73 185.522 679.787 185.522ZM680.065 172.998C681.022 172.998 681.784 172.803 682.351 172.412C682.917 172.021 683.2 171.382 683.2 170.493C683.2 168.813 682.155 167.974 680.065 167.974C678.005 167.974 676.975 168.813 676.975 170.493C676.975 171.382 677.253 172.021 677.81 172.412C678.376 172.803 679.128 172.998 680.065 172.998ZM680.065 183.75C681.276 183.75 682.175 183.589 682.761 183.267C683.347 182.954 683.64 182.476 683.64 181.831C683.64 181.411 683.483 181.084 683.171 180.85C682.858 180.625 682.473 180.464 682.014 180.366C681.564 180.278 680.969 180.195 680.227 180.117C679.719 180.059 679.299 180.005 678.967 179.956C678.645 179.907 678.347 179.839 678.073 179.751C676.921 180.239 676.345 180.947 676.345 181.875C676.345 183.125 677.585 183.75 680.065 183.75ZM690.876 180.044C690.183 180.044 689.836 179.854 689.836 179.473V160.986C689.836 160.605 690.183 160.415 690.876 160.415H690.979C691.682 160.415 692.033 160.605 692.033 160.986V168.018C692.541 167.5 693.137 167.075 693.82 166.743C694.504 166.401 695.231 166.23 696.003 166.23C697.097 166.23 698.059 166.538 698.889 167.153C699.729 167.769 700.148 168.862 700.148 170.435V179.473C700.148 179.854 699.802 180.044 699.108 180.044H699.006C698.303 180.044 697.951 179.854 697.951 179.473V170.654C697.951 169.863 697.727 169.243 697.277 168.794C696.828 168.345 696.169 168.12 695.3 168.12C694.724 168.12 694.191 168.257 693.703 168.53C693.225 168.804 692.824 169.102 692.502 169.424C692.189 169.736 692.033 169.912 692.033 169.951V179.473C692.033 179.854 691.682 180.044 690.979 180.044H690.876ZM39.1523 231.146C38.2832 231.146 37.5068 230.883 36.8232 230.355C36.1396 229.828 35.7979 228.896 35.7979 227.558V219.252H34.4941C34.3086 219.252 34.1719 219.193 34.084 219.076C34.0059 218.949 33.9668 218.749 33.9668 218.476V218.153C33.9668 217.88 34.0059 217.685 34.084 217.567C34.1719 217.44 34.3086 217.377 34.4941 217.377H35.7979L36.1055 214.652C36.125 214.271 36.4033 214.081 36.9404 214.081H37.1895C37.4629 214.081 37.6631 214.13 37.79 214.228C37.917 214.315 37.9805 214.457 37.9805 214.652V217.377H40.1631C40.3486 217.377 40.4805 217.44 40.5586 217.567C40.6465 217.685 40.6904 217.88 40.6904 218.153V218.476C40.6904 218.749 40.6465 218.949 40.5586 219.076C40.4805 219.193 40.3486 219.252 40.1631 219.252H37.9805V227.353C37.9805 228.065 38.1025 228.563 38.3467 228.847C38.6006 229.13 38.9424 229.271 39.3721 229.271C39.7041 229.271 39.958 229.252 40.1338 229.213C40.3193 229.174 40.4414 229.154 40.5 229.154C40.6562 229.154 40.7832 229.311 40.8809 229.623C40.9883 229.936 41.042 230.185 41.042 230.37C41.042 230.888 40.4121 231.146 39.1523 231.146ZM49.7578 231.146C47.5996 231.146 45.9932 230.585 44.9385 229.462C43.8936 228.329 43.3711 226.601 43.3711 224.276C43.3711 221.972 43.8838 220.224 44.9092 219.032C45.9346 217.831 47.4434 217.23 49.4355 217.23C51.2129 217.23 52.5508 217.807 53.4492 218.959C54.3574 220.111 54.8115 221.801 54.8115 224.027C54.8115 224.125 54.7578 224.262 54.6504 224.438C54.5527 224.604 54.4307 224.755 54.2842 224.892C54.1475 225.019 54.0303 225.082 53.9326 225.082H45.7148C45.8223 226.537 46.1934 227.602 46.8281 228.275C47.4727 228.939 48.4395 229.271 49.7285 229.271C50.4512 229.271 51.0713 229.184 51.5889 229.008C52.1162 228.832 52.624 228.617 53.1123 228.363C53.1611 228.344 53.2344 228.31 53.332 228.261C53.4297 228.212 53.498 228.188 53.5371 228.188C53.6445 228.188 53.7666 228.275 53.9033 228.451C54.0498 228.617 54.1719 228.808 54.2695 229.022C54.377 229.228 54.4307 229.379 54.4307 229.477C54.4307 229.691 54.2158 229.931 53.7861 230.194C53.3564 230.458 52.7803 230.683 52.0576 230.868C51.3447 231.054 50.5781 231.146 49.7578 231.146ZM52.4824 223.207C52.4824 220.473 51.4424 219.105 49.3623 219.105C47.126 219.105 45.9102 220.473 45.7148 223.207H52.4824ZM63.7617 231.146C61.6035 231.146 59.9922 230.595 58.9277 229.491C57.873 228.378 57.3457 226.591 57.3457 224.13C57.3457 221.64 57.9365 219.867 59.1182 218.812C60.2998 217.758 61.7695 217.23 63.5273 217.23C64.1816 217.23 64.8115 217.289 65.417 217.406C66.0225 217.514 66.5107 217.66 66.8818 217.846C67.2529 218.031 67.4385 218.227 67.4385 218.432C67.4385 218.568 67.3896 218.749 67.292 218.974C67.2041 219.198 67.0918 219.398 66.9551 219.574C66.8281 219.74 66.7109 219.823 66.6035 219.823C66.5742 219.823 66.5303 219.813 66.4717 219.794C66.4131 219.765 66.3594 219.74 66.3105 219.721C65.4316 219.311 64.4844 219.105 63.4688 219.105C62.2676 219.105 61.3398 219.501 60.6855 220.292C60.0312 221.073 59.7041 222.333 59.7041 224.071C59.7041 225.302 59.8359 226.298 60.0996 227.06C60.3633 227.812 60.7881 228.368 61.374 228.729C61.9697 229.091 62.7607 229.271 63.7471 229.271C64.8311 229.271 65.8076 229.047 66.6768 228.598C66.7646 228.578 66.8281 228.559 66.8672 228.539C66.916 228.51 66.9502 228.495 66.9697 228.495C67.0771 228.495 67.1992 228.578 67.3359 228.744C67.4727 228.91 67.5898 229.101 67.6875 229.315C67.7949 229.53 67.8486 229.701 67.8486 229.828C67.8486 230.033 67.6631 230.238 67.292 230.443C66.9209 230.648 66.418 230.819 65.7832 230.956C65.1582 231.083 64.4844 231.146 63.7617 231.146ZM72.0674 231.044C71.374 231.044 71.0273 230.854 71.0273 230.473V211.986C71.0273 211.605 71.374 211.415 72.0674 211.415H72.1699C72.873 211.415 73.2246 211.605 73.2246 211.986V219.018C73.7324 218.5 74.3281 218.075 75.0117 217.743C75.6953 217.401 76.4229 217.23 77.1943 217.23C78.2881 217.23 79.25 217.538 80.0801 218.153C80.9199 218.769 81.3398 219.862 81.3398 221.435V230.473C81.3398 230.854 80.9932 231.044 80.2998 231.044H80.1973C79.4941 231.044 79.1426 230.854 79.1426 230.473V221.654C79.1426 220.863 78.918 220.243 78.4688 219.794C78.0195 219.345 77.3604 219.12 76.4912 219.12C75.915 219.12 75.3828 219.257 74.8945 219.53C74.416 219.804 74.0156 220.102 73.6934 220.424C73.3809 220.736 73.2246 220.912 73.2246 220.951V230.473C73.2246 230.854 72.873 231.044 72.1699 231.044H72.0674ZM86.6572 231.044C86.2861 231.044 86.0176 231 85.8516 230.912C85.6855 230.814 85.6025 230.668 85.6025 230.473V221.332C85.6025 220.199 85.5488 219.384 85.4414 218.886C85.334 218.378 85.2803 218.1 85.2803 218.051C85.2803 217.836 85.4414 217.685 85.7637 217.597C86.0957 217.499 86.4082 217.45 86.7012 217.45C86.9453 217.45 87.126 217.582 87.2432 217.846C87.3604 218.109 87.4434 218.378 87.4922 218.651C87.5508 218.925 87.5898 219.101 87.6094 219.179C88.1562 218.563 88.7861 218.085 89.499 217.743C90.2217 217.401 90.9492 217.23 91.6816 217.23C93.0098 217.23 94.0449 217.606 94.7871 218.358C95.5391 219.101 95.915 220.126 95.915 221.435V230.473C95.915 230.668 95.832 230.814 95.666 230.912C95.5 231 95.2363 231.044 94.875 231.044H94.7578C94.4062 231.044 94.1475 231 93.9814 230.912C93.8154 230.814 93.7324 230.668 93.7324 230.473V221.654C93.7324 220.854 93.498 220.233 93.0293 219.794C92.5703 219.345 91.9209 219.12 91.0811 219.12C90.4951 219.12 89.9043 219.286 89.3086 219.618C88.7227 219.94 88.2148 220.385 87.7852 220.951V230.473C87.7852 230.668 87.7021 230.814 87.5361 230.912C87.3701 231 87.1113 231.044 86.7598 231.044H86.6572ZM105.334 231.146C103.371 231.146 101.872 230.561 100.837 229.389C99.8115 228.207 99.2988 226.493 99.2988 224.247C99.2988 222.001 99.8213 220.272 100.866 219.062C101.911 217.841 103.4 217.23 105.334 217.23C107.248 217.23 108.713 217.836 109.729 219.047C110.744 220.248 111.252 221.981 111.252 224.247C111.252 226.503 110.749 228.217 109.743 229.389C108.747 230.561 107.277 231.146 105.334 231.146ZM105.261 229.271C106.53 229.271 107.468 228.861 108.073 228.041C108.679 227.211 108.981 225.932 108.981 224.203C108.981 222.465 108.679 221.181 108.073 220.351C107.468 219.521 106.53 219.105 105.261 219.105C104.001 219.105 103.073 219.521 102.478 220.351C101.882 221.171 101.584 222.455 101.584 224.203C101.584 225.941 101.877 227.221 102.463 228.041C103.059 228.861 103.991 229.271 105.261 229.271ZM118.181 231.146C117.312 231.146 116.535 230.883 115.852 230.355C115.168 229.828 114.826 228.896 114.826 227.558V211.986C114.826 211.605 115.173 211.415 115.866 211.415H115.983C116.667 211.415 117.009 211.605 117.009 211.986V227.353C117.009 228.065 117.136 228.563 117.39 228.847C117.644 229.13 117.985 229.271 118.415 229.271C118.737 229.271 118.991 229.252 119.177 229.213C119.362 229.174 119.484 229.154 119.543 229.154C119.699 229.154 119.826 229.311 119.924 229.623C120.031 229.936 120.085 230.185 120.085 230.37C120.085 230.888 119.45 231.146 118.181 231.146ZM127.922 231.146C125.959 231.146 124.46 230.561 123.425 229.389C122.399 228.207 121.887 226.493 121.887 224.247C121.887 222.001 122.409 220.272 123.454 219.062C124.499 217.841 125.988 217.23 127.922 217.23C129.836 217.23 131.301 217.836 132.316 219.047C133.332 220.248 133.84 221.981 133.84 224.247C133.84 226.503 133.337 228.217 132.331 229.389C131.335 230.561 129.865 231.146 127.922 231.146ZM127.849 229.271C129.118 229.271 130.056 228.861 130.661 228.041C131.267 227.211 131.569 225.932 131.569 224.203C131.569 222.465 131.267 221.181 130.661 220.351C130.056 219.521 129.118 219.105 127.849 219.105C126.589 219.105 125.661 219.521 125.065 220.351C124.47 221.171 124.172 222.455 124.172 224.203C124.172 225.941 124.465 227.221 125.051 228.041C125.646 228.861 126.579 229.271 127.849 229.271ZM141.867 236.522C140.207 236.522 138.894 236.264 137.927 235.746C136.96 235.229 136.477 234.413 136.477 233.3C136.477 232.538 136.696 231.874 137.136 231.308C137.575 230.741 138.146 230.316 138.85 230.033L138.879 229.975C138.537 229.711 138.273 229.408 138.088 229.066C137.912 228.725 137.824 228.319 137.824 227.851C137.824 226.718 138.312 225.81 139.289 225.126C138.557 224.774 138 224.281 137.619 223.646C137.238 223.002 137.048 222.279 137.048 221.479C137.048 220.678 137.243 219.955 137.634 219.311C138.034 218.666 138.62 218.158 139.392 217.787C140.163 217.416 141.091 217.23 142.175 217.23C142.751 217.23 143.264 217.279 143.713 217.377H148.444C148.63 217.377 148.762 217.44 148.84 217.567C148.928 217.685 148.972 217.88 148.972 218.153V218.476C148.972 218.749 148.928 218.949 148.84 219.076C148.762 219.193 148.63 219.252 148.444 219.252C147.79 219.252 147.185 219.228 146.628 219.179L146.599 219.223C146.823 219.535 146.989 219.887 147.097 220.277C147.214 220.658 147.272 221.059 147.272 221.479C147.272 222.279 147.072 223.002 146.672 223.646C146.281 224.291 145.7 224.799 144.929 225.17C144.167 225.541 143.239 225.727 142.146 225.727C141.325 225.756 140.705 225.907 140.285 226.181C139.875 226.454 139.67 226.903 139.67 227.528C139.67 227.987 139.816 228.339 140.109 228.583C140.412 228.827 140.788 228.998 141.237 229.096C141.687 229.193 142.312 229.286 143.112 229.374L143.874 229.462C144.685 229.569 145.363 229.716 145.91 229.901C146.457 230.087 146.906 230.395 147.258 230.824C147.619 231.254 147.8 231.845 147.8 232.597C147.8 233.856 147.297 234.823 146.291 235.497C145.285 236.181 143.811 236.522 141.867 236.522ZM142.146 223.998C143.103 223.998 143.864 223.803 144.431 223.412C144.997 223.021 145.28 222.382 145.28 221.493C145.28 219.813 144.235 218.974 142.146 218.974C140.085 218.974 139.055 219.813 139.055 221.493C139.055 222.382 139.333 223.021 139.89 223.412C140.456 223.803 141.208 223.998 142.146 223.998ZM142.146 234.75C143.356 234.75 144.255 234.589 144.841 234.267C145.427 233.954 145.72 233.476 145.72 232.831C145.72 232.411 145.563 232.084 145.251 231.85C144.938 231.625 144.553 231.464 144.094 231.366C143.645 231.278 143.049 231.195 142.307 231.117C141.799 231.059 141.379 231.005 141.047 230.956C140.725 230.907 140.427 230.839 140.153 230.751C139.001 231.239 138.425 231.947 138.425 232.875C138.425 234.125 139.665 234.75 142.146 234.75ZM153.161 236.42C152.595 236.42 152.312 236.278 152.312 235.995C152.312 235.927 152.351 235.785 152.429 235.57L154.611 230.268L150.056 218.109C150.046 218.07 150.031 218.017 150.012 217.948C149.992 217.87 149.982 217.812 149.982 217.772C149.982 217.636 150.075 217.528 150.261 217.45C150.446 217.372 150.729 217.333 151.11 217.333H151.315C151.901 217.333 152.248 217.47 152.355 217.743L155.007 224.804C155.241 225.419 155.52 226.293 155.842 227.426H155.886L156.193 226.459C156.242 226.312 156.325 226.063 156.442 225.712C156.56 225.351 156.667 225.048 156.765 224.804L159.357 217.743C159.445 217.47 159.802 217.333 160.427 217.333H160.515C161.198 217.333 161.54 217.479 161.54 217.772C161.54 217.841 161.516 217.958 161.467 218.124L154.787 235.878C154.631 236.239 154.221 236.42 153.557 236.42H153.161ZM174.05 231.146C172.722 231.146 171.647 230.819 170.827 230.165C170.007 229.511 169.597 228.539 169.597 227.25C169.597 225.893 170.012 224.872 170.842 224.188C171.672 223.495 172.683 223.051 173.874 222.855C175.075 222.65 176.53 222.533 178.239 222.504V221.273C178.239 220.619 178.015 220.097 177.565 219.706C177.126 219.306 176.398 219.105 175.383 219.105C174.611 219.105 173.933 219.198 173.347 219.384C172.771 219.56 172.229 219.774 171.721 220.028C171.506 220.136 171.374 220.189 171.325 220.189C171.208 220.189 171.076 220.106 170.93 219.94C170.793 219.765 170.671 219.569 170.563 219.354C170.466 219.14 170.417 218.983 170.417 218.886C170.417 218.661 170.646 218.417 171.105 218.153C171.574 217.89 172.185 217.67 172.937 217.494C173.688 217.318 174.475 217.23 175.295 217.23C176.926 217.23 178.19 217.587 179.089 218.3C179.987 219.013 180.437 220.014 180.437 221.303V227.147C180.437 228.28 180.485 229.101 180.583 229.608C180.69 230.106 180.744 230.38 180.744 230.429C180.744 230.644 180.578 230.8 180.246 230.897C179.924 230.985 179.621 231.029 179.338 231.029C179.104 231.029 178.928 230.897 178.811 230.634C178.703 230.37 178.596 229.989 178.488 229.491L178.43 229.198C177.893 229.794 177.258 230.268 176.525 230.619C175.803 230.971 174.978 231.146 174.05 231.146ZM174.167 229.257C175.026 229.257 175.759 229.101 176.364 228.788C176.97 228.476 177.595 228.031 178.239 227.455V224.379C176.95 224.389 175.891 224.442 175.061 224.54C174.23 224.638 173.503 224.887 172.878 225.287C172.253 225.678 171.94 226.288 171.94 227.118C171.94 227.812 172.126 228.344 172.497 228.715C172.878 229.076 173.435 229.257 174.167 229.257ZM185.827 231.044C185.456 231.044 185.188 231 185.021 230.912C184.855 230.814 184.772 230.668 184.772 230.473V221.332C184.772 220.199 184.719 219.384 184.611 218.886C184.504 218.378 184.45 218.1 184.45 218.051C184.45 217.836 184.611 217.685 184.934 217.597C185.266 217.499 185.578 217.45 185.871 217.45C186.115 217.45 186.296 217.582 186.413 217.846C186.53 218.109 186.613 218.378 186.662 218.651C186.721 218.925 186.76 219.101 186.779 219.179C187.326 218.563 187.956 218.085 188.669 217.743C189.392 217.401 190.119 217.23 190.852 217.23C192.18 217.23 193.215 217.606 193.957 218.358C194.709 219.101 195.085 220.126 195.085 221.435V230.473C195.085 230.668 195.002 230.814 194.836 230.912C194.67 231 194.406 231.044 194.045 231.044H193.928C193.576 231.044 193.317 231 193.151 230.912C192.985 230.814 192.902 230.668 192.902 230.473V221.654C192.902 220.854 192.668 220.233 192.199 219.794C191.74 219.345 191.091 219.12 190.251 219.12C189.665 219.12 189.074 219.286 188.479 219.618C187.893 219.94 187.385 220.385 186.955 220.951V230.473C186.955 230.668 186.872 230.814 186.706 230.912C186.54 231 186.281 231.044 185.93 231.044H185.827ZM203.435 231.146C202.419 231.146 201.53 230.854 200.769 230.268C200.007 229.672 199.416 228.847 198.996 227.792C198.586 226.737 198.381 225.541 198.381 224.203C198.381 222.729 198.601 221.469 199.04 220.424C199.489 219.369 200.114 218.573 200.915 218.036C201.716 217.499 202.639 217.23 203.684 217.23C204.436 217.23 205.1 217.343 205.676 217.567C206.262 217.792 206.838 218.119 207.404 218.549V211.986C207.404 211.605 207.746 211.415 208.43 211.415H208.547C209.24 211.415 209.587 211.605 209.587 211.986V227.147C209.587 228.28 209.641 229.101 209.748 229.608C209.855 230.106 209.909 230.38 209.909 230.429C209.909 230.644 209.743 230.8 209.411 230.897C209.089 230.985 208.786 231.029 208.503 231.029C208.308 231.029 208.151 230.937 208.034 230.751C207.917 230.565 207.834 230.38 207.785 230.194C207.746 229.999 207.678 229.667 207.58 229.198C206.34 230.497 204.958 231.146 203.435 231.146ZM203.889 229.257C204.465 229.257 205.061 229.101 205.676 228.788C206.301 228.476 206.877 228.031 207.404 227.455V220.321C206.467 219.54 205.397 219.149 204.196 219.149C203.034 219.179 202.155 219.604 201.56 220.424C200.974 221.244 200.681 222.436 200.681 223.998C200.681 225.678 200.954 226.977 201.501 227.895C202.058 228.803 202.854 229.257 203.889 229.257ZM225.803 231.146C223.645 231.146 222.033 230.595 220.969 229.491C219.914 228.378 219.387 226.591 219.387 224.13C219.387 221.64 219.978 219.867 221.159 218.812C222.341 217.758 223.811 217.23 225.568 217.23C226.223 217.23 226.853 217.289 227.458 217.406C228.063 217.514 228.552 217.66 228.923 217.846C229.294 218.031 229.479 218.227 229.479 218.432C229.479 218.568 229.431 218.749 229.333 218.974C229.245 219.198 229.133 219.398 228.996 219.574C228.869 219.74 228.752 219.823 228.645 219.823C228.615 219.823 228.571 219.813 228.513 219.794C228.454 219.765 228.4 219.74 228.352 219.721C227.473 219.311 226.525 219.105 225.51 219.105C224.309 219.105 223.381 219.501 222.727 220.292C222.072 221.073 221.745 222.333 221.745 224.071C221.745 225.302 221.877 226.298 222.141 227.06C222.404 227.812 222.829 228.368 223.415 228.729C224.011 229.091 224.802 229.271 225.788 229.271C226.872 229.271 227.849 229.047 228.718 228.598C228.806 228.578 228.869 228.559 228.908 228.539C228.957 228.51 228.991 228.495 229.011 228.495C229.118 228.495 229.24 228.578 229.377 228.744C229.514 228.91 229.631 229.101 229.729 229.315C229.836 229.53 229.89 229.701 229.89 229.828C229.89 230.033 229.704 230.238 229.333 230.443C228.962 230.648 228.459 230.819 227.824 230.956C227.199 231.083 226.525 231.146 225.803 231.146ZM238.137 231.146C236.174 231.146 234.675 230.561 233.64 229.389C232.614 228.207 232.102 226.493 232.102 224.247C232.102 222.001 232.624 220.272 233.669 219.062C234.714 217.841 236.203 217.23 238.137 217.23C240.051 217.23 241.516 217.836 242.531 219.047C243.547 220.248 244.055 221.981 244.055 224.247C244.055 226.503 243.552 228.217 242.546 229.389C241.55 230.561 240.08 231.146 238.137 231.146ZM238.063 229.271C239.333 229.271 240.271 228.861 240.876 228.041C241.481 227.211 241.784 225.932 241.784 224.203C241.784 222.465 241.481 221.181 240.876 220.351C240.271 219.521 239.333 219.105 238.063 219.105C236.804 219.105 235.876 219.521 235.28 220.351C234.685 221.171 234.387 222.455 234.387 224.203C234.387 225.941 234.68 227.221 235.266 228.041C235.861 228.861 236.794 229.271 238.063 229.271ZM261.53 217.23C262.614 217.23 263.566 217.538 264.387 218.153C265.207 218.769 265.617 219.862 265.617 221.435V230.473C265.617 230.668 265.534 230.814 265.368 230.912C265.202 231 264.938 231.044 264.577 231.044H264.489C264.118 231.044 263.85 231 263.684 230.912C263.518 230.814 263.435 230.668 263.435 230.473V221.654C263.435 220.863 263.22 220.243 262.79 219.794C262.37 219.345 261.75 219.12 260.93 219.12C260.246 219.12 259.626 219.32 259.069 219.721C258.522 220.111 258.078 220.521 257.736 220.951C257.756 221.186 257.766 221.361 257.766 221.479V230.473C257.766 230.854 257.414 231.044 256.711 231.044H256.608C255.915 231.044 255.568 230.854 255.568 230.473V221.654C255.568 220.863 255.354 220.243 254.924 219.794C254.504 219.345 253.884 219.12 253.063 219.12C252.497 219.12 251.979 219.257 251.511 219.53C251.042 219.794 250.651 220.082 250.339 220.395C250.036 220.707 249.885 220.883 249.885 220.922V230.473C249.885 230.668 249.802 230.814 249.636 230.912C249.479 231 249.221 231.044 248.859 231.044H248.742C248.381 231.044 248.117 231 247.951 230.912C247.795 230.814 247.717 230.668 247.717 230.473V221.332C247.717 220.199 247.663 219.384 247.556 218.886C247.448 218.378 247.395 218.1 247.395 218.051C247.395 217.836 247.556 217.685 247.878 217.597C248.21 217.499 248.518 217.45 248.801 217.45C249.045 217.45 249.226 217.582 249.343 217.846C249.46 218.109 249.543 218.378 249.592 218.651C249.65 218.925 249.689 219.101 249.709 219.179C250.188 218.622 250.773 218.158 251.467 217.787C252.16 217.416 252.893 217.23 253.664 217.23C254.455 217.23 255.192 217.392 255.876 217.714C256.56 218.026 257.062 218.583 257.385 219.384C257.922 218.749 258.552 218.231 259.274 217.831C259.997 217.431 260.749 217.23 261.53 217.23ZM270.876 236.42C270.173 236.42 269.821 236.229 269.821 235.849V221.332C269.821 220.199 269.768 219.384 269.66 218.886C269.553 218.378 269.499 218.1 269.499 218.051C269.499 217.836 269.66 217.685 269.982 217.597C270.314 217.499 270.627 217.45 270.92 217.45C271.164 217.45 271.345 217.582 271.462 217.846C271.579 218.109 271.662 218.378 271.711 218.651C271.77 218.925 271.809 219.101 271.828 219.179C273.068 217.88 274.45 217.23 275.974 217.23C277.019 217.23 277.922 217.528 278.684 218.124C279.445 218.72 280.026 219.545 280.427 220.6C280.827 221.654 281.027 222.855 281.027 224.203C281.027 225.668 280.803 226.923 280.354 227.968C279.914 229.013 279.294 229.804 278.493 230.341C277.692 230.878 276.77 231.146 275.725 231.146C274.973 231.146 274.304 231.034 273.718 230.81C273.142 230.585 272.57 230.258 272.004 229.828V235.849C272.004 236.229 271.662 236.42 270.979 236.42H270.876ZM275.227 229.228C276.389 229.198 277.263 228.773 277.849 227.953C278.435 227.133 278.728 225.941 278.728 224.379C278.728 222.699 278.449 221.405 277.893 220.497C277.346 219.579 276.555 219.12 275.52 219.12C274.943 219.12 274.343 219.276 273.718 219.589C273.103 219.901 272.531 220.346 272.004 220.922V228.056C272.961 228.837 274.035 229.228 275.227 229.228ZM288.015 231.146C287.146 231.146 286.369 230.883 285.686 230.355C285.002 229.828 284.66 228.896 284.66 227.558V211.986C284.66 211.605 285.007 211.415 285.7 211.415H285.817C286.501 211.415 286.843 211.605 286.843 211.986V227.353C286.843 228.065 286.97 228.563 287.224 228.847C287.478 229.13 287.819 229.271 288.249 229.271C288.571 229.271 288.825 229.252 289.011 229.213C289.196 229.174 289.318 229.154 289.377 229.154C289.533 229.154 289.66 229.311 289.758 229.623C289.865 229.936 289.919 230.185 289.919 230.37C289.919 230.888 289.284 231.146 288.015 231.146ZM293.596 214.096C292.902 214.096 292.556 213.905 292.556 213.524V211.986C292.556 211.605 292.902 211.415 293.596 211.415H293.903C294.606 211.415 294.958 211.605 294.958 211.986V213.524C294.958 213.905 294.606 214.096 293.903 214.096H293.596ZM293.698 231.044C293.005 231.044 292.658 230.854 292.658 230.473V217.904C292.658 217.523 293.005 217.333 293.698 217.333H293.801C294.504 217.333 294.855 217.523 294.855 217.904V230.473C294.855 230.854 294.504 231.044 293.801 231.044H293.698ZM302.927 231.146C301.599 231.146 300.524 230.819 299.704 230.165C298.884 229.511 298.474 228.539 298.474 227.25C298.474 225.893 298.889 224.872 299.719 224.188C300.549 223.495 301.56 223.051 302.751 222.855C303.952 222.65 305.407 222.533 307.116 222.504V221.273C307.116 220.619 306.892 220.097 306.442 219.706C306.003 219.306 305.275 219.105 304.26 219.105C303.488 219.105 302.81 219.198 302.224 219.384C301.647 219.56 301.105 219.774 300.598 220.028C300.383 220.136 300.251 220.189 300.202 220.189C300.085 220.189 299.953 220.106 299.807 219.94C299.67 219.765 299.548 219.569 299.44 219.354C299.343 219.14 299.294 218.983 299.294 218.886C299.294 218.661 299.523 218.417 299.982 218.153C300.451 217.89 301.062 217.67 301.813 217.494C302.565 217.318 303.352 217.23 304.172 217.23C305.803 217.23 307.067 217.587 307.966 218.3C308.864 219.013 309.313 220.014 309.313 221.303V227.147C309.313 228.28 309.362 229.101 309.46 229.608C309.567 230.106 309.621 230.38 309.621 230.429C309.621 230.644 309.455 230.8 309.123 230.897C308.801 230.985 308.498 231.029 308.215 231.029C307.98 231.029 307.805 230.897 307.688 230.634C307.58 230.37 307.473 229.989 307.365 229.491L307.307 229.198C306.77 229.794 306.135 230.268 305.402 230.619C304.68 230.971 303.854 231.146 302.927 231.146ZM303.044 229.257C303.903 229.257 304.636 229.101 305.241 228.788C305.847 228.476 306.472 228.031 307.116 227.455V224.379C305.827 224.389 304.768 224.442 303.938 224.54C303.107 224.638 302.38 224.887 301.755 225.287C301.13 225.678 300.817 226.288 300.817 227.118C300.817 227.812 301.003 228.344 301.374 228.715C301.755 229.076 302.312 229.257 303.044 229.257ZM314.704 231.044C314.333 231.044 314.064 231 313.898 230.912C313.732 230.814 313.649 230.668 313.649 230.473V221.332C313.649 220.199 313.596 219.384 313.488 218.886C313.381 218.378 313.327 218.1 313.327 218.051C313.327 217.836 313.488 217.685 313.811 217.597C314.143 217.499 314.455 217.45 314.748 217.45C314.992 217.45 315.173 217.582 315.29 217.846C315.407 218.109 315.49 218.378 315.539 218.651C315.598 218.925 315.637 219.101 315.656 219.179C316.203 218.563 316.833 218.085 317.546 217.743C318.269 217.401 318.996 217.23 319.729 217.23C321.057 217.23 322.092 217.606 322.834 218.358C323.586 219.101 323.962 220.126 323.962 221.435V230.473C323.962 230.668 323.879 230.814 323.713 230.912C323.547 231 323.283 231.044 322.922 231.044H322.805C322.453 231.044 322.194 231 322.028 230.912C321.862 230.814 321.779 230.668 321.779 230.473V221.654C321.779 220.854 321.545 220.233 321.076 219.794C320.617 219.345 319.968 219.12 319.128 219.12C318.542 219.12 317.951 219.286 317.355 219.618C316.77 219.94 316.262 220.385 315.832 220.951V230.473C315.832 230.668 315.749 230.814 315.583 230.912C315.417 231 315.158 231.044 314.807 231.044H314.704ZM333.674 231.146C331.516 231.146 329.904 230.595 328.84 229.491C327.785 228.378 327.258 226.591 327.258 224.13C327.258 221.64 327.849 219.867 329.03 218.812C330.212 217.758 331.682 217.23 333.439 217.23C334.094 217.23 334.724 217.289 335.329 217.406C335.935 217.514 336.423 217.66 336.794 217.846C337.165 218.031 337.351 218.227 337.351 218.432C337.351 218.568 337.302 218.749 337.204 218.974C337.116 219.198 337.004 219.398 336.867 219.574C336.74 219.74 336.623 219.823 336.516 219.823C336.486 219.823 336.442 219.813 336.384 219.794C336.325 219.765 336.271 219.74 336.223 219.721C335.344 219.311 334.396 219.105 333.381 219.105C332.18 219.105 331.252 219.501 330.598 220.292C329.943 221.073 329.616 222.333 329.616 224.071C329.616 225.302 329.748 226.298 330.012 227.06C330.275 227.812 330.7 228.368 331.286 228.729C331.882 229.091 332.673 229.271 333.659 229.271C334.743 229.271 335.72 229.047 336.589 228.598C336.677 228.578 336.74 228.559 336.779 228.539C336.828 228.51 336.862 228.495 336.882 228.495C336.989 228.495 337.111 228.578 337.248 228.744C337.385 228.91 337.502 229.101 337.6 229.315C337.707 229.53 337.761 229.701 337.761 229.828C337.761 230.033 337.575 230.238 337.204 230.443C336.833 230.648 336.33 230.819 335.695 230.956C335.07 231.083 334.396 231.146 333.674 231.146ZM346.359 231.146C344.201 231.146 342.595 230.585 341.54 229.462C340.495 228.329 339.973 226.601 339.973 224.276C339.973 221.972 340.485 220.224 341.511 219.032C342.536 217.831 344.045 217.23 346.037 217.23C347.814 217.23 349.152 217.807 350.051 218.959C350.959 220.111 351.413 221.801 351.413 224.027C351.413 224.125 351.359 224.262 351.252 224.438C351.154 224.604 351.032 224.755 350.886 224.892C350.749 225.019 350.632 225.082 350.534 225.082H342.316C342.424 226.537 342.795 227.602 343.43 228.275C344.074 228.939 345.041 229.271 346.33 229.271C347.053 229.271 347.673 229.184 348.19 229.008C348.718 228.832 349.226 228.617 349.714 228.363C349.763 228.344 349.836 228.31 349.934 228.261C350.031 228.212 350.1 228.188 350.139 228.188C350.246 228.188 350.368 228.275 350.505 228.451C350.651 228.617 350.773 228.808 350.871 229.022C350.979 229.228 351.032 229.379 351.032 229.477C351.032 229.691 350.817 229.931 350.388 230.194C349.958 230.458 349.382 230.683 348.659 230.868C347.946 231.054 347.18 231.146 346.359 231.146ZM349.084 223.207C349.084 220.473 348.044 219.105 345.964 219.105C343.728 219.105 342.512 220.473 342.316 223.207H349.084ZM354.973 231.044C354.611 231.044 354.348 231 354.182 230.912C354.016 230.814 353.933 230.668 353.933 230.473V228.759C353.933 228.378 354.279 228.188 354.973 228.188H355.412C356.105 228.188 356.452 228.378 356.452 228.759V230.473C356.452 230.668 356.369 230.814 356.203 230.912C356.037 231 355.773 231.044 355.412 231.044H354.973Z" fill="#41553E"/>
</g>
<defs>
<linearGradient id="paint0_linear_1_2" x1="417.5" y1="101.5" x2="1423.5" y2="358" gradientUnits="userSpaceOnUse">
<stop stop-color="#FFE155"/>
<stop offset="0.362451" stop-color="#AA972B"/>
<stop offset="0.559467" stop-color="#758B48"/>
<stop offset="0.814208" stop-color="#417E35" stop-opacity="0.71"/>
<stop offset="1" stop-color="white"/>
</linearGradient>
<clipPath id="clip0_1_2">
<rect width="1440" height="372" fill="white"/>
</clipPath>
</defs>
</svg>
