<svg width="1440" height="372" viewBox="0 0 1440 372" fill="none" xmlns="http://www.w3.org/2000/svg">
<g clip-path="url(#clip0_1_2)">
<rect width="1440" height="372" fill="url(#paint0_linear_1_2)" fill-opacity="0.4"/>
<path d="M-228.85 488.323C90.9919 450.02 749.59 345.367 825.245 233.178C900.9 120.988 1533.27 47.9101 1839.99 25.3948" stroke="#519D42" stroke-width="2"/>
<path d="M-220.207 509.853C99.6354 471.55 741.881 353.352 817.536 241.162C893.191 128.972 1541.91 69.4401 1848.63 46.9248" stroke="#519D42" stroke-width="2"/>
<path d="M-227.331 525.257C92.5107 486.954 734.756 368.756 810.411 256.566C886.066 144.377 1534.78 84.8444 1841.51 62.3291" stroke="#519D42" stroke-width="2"/>
<path d="M-227.331 525.257C92.5107 486.954 734.756 368.756 810.411 256.566C886.066 144.377 1534.78 84.8444 1841.51 62.3291" stroke="#519D42" stroke-width="2"/>
<path d="M-219.045 524.605C100.797 486.302 766.351 385.271 808.027 261.583C850.585 135.278 1543.07 84.1921 1849.8 61.6768" stroke="#519D42" stroke-width="2"/>
<path d="M-193.462 567.135C126.381 528.832 769.69 392.385 811.366 268.698C853.924 142.393 1568.65 126.722 1875.38 104.207" stroke="#519D42" stroke-width="2"/>
<path d="M-193.278 569.468C126.564 531.166 769.874 394.718 811.55 271.031C854.108 144.726 1568.84 129.056 1875.56 106.54" stroke="#519D42" stroke-width="2"/>
<path d="M-186.513 425.971C133.329 387.668 791.927 283.016 867.582 170.826C943.237 58.6364 1575.6 -14.4416 1882.33 -36.9569" stroke="#519D42" stroke-width="2"/>
<path d="M-177.869 447.501C141.973 409.198 784.218 291 859.873 178.81C935.528 66.6207 1584.25 7.08832 1890.97 -15.427" stroke="#519D42" stroke-width="2"/>
<path d="M-184.994 462.905C134.848 424.603 777.094 306.404 852.748 194.215C928.403 82.025 1577.12 22.4927 1883.85 -0.022605" stroke="#519D42" stroke-width="2"/>
<path d="M-184.994 462.905C134.848 424.603 777.094 306.404 852.748 194.215C928.403 82.025 1577.12 22.4927 1883.85 -0.022605" stroke="#519D42" stroke-width="2"/>
<path d="M-176.708 462.253C143.135 423.95 808.688 322.919 850.364 199.232C892.922 72.9267 1585.41 21.8404 1892.13 -0.674925" stroke="#519D42" stroke-width="2"/>
<path d="M-151.124 504.783C168.718 466.48 812.028 330.033 853.704 206.346C896.262 80.0409 1610.99 64.3704 1917.72 41.8551" stroke="#519D42" stroke-width="2"/>
<path d="M-150.941 507.116C168.902 468.814 812.211 332.367 853.888 208.679C896.446 82.3743 1611.18 66.7038 1917.9 44.1885" stroke="#519D42" stroke-width="2"/>
<path d="M-228.85 488.323C90.9919 450.02 749.59 345.367 825.245 233.178C900.9 120.988 1533.27 47.9101 1839.99 25.3948" stroke="#519D42" stroke-width="2"/>
<path d="M-220.207 509.853C99.6354 471.55 741.881 353.352 817.536 241.162C893.191 128.972 1541.91 69.4401 1848.63 46.9248" stroke="#519D42" stroke-width="2"/>
<path d="M-227.331 525.257C92.5107 486.954 734.756 368.756 810.411 256.566C886.066 144.377 1534.78 84.8444 1841.51 62.3291" stroke="#519D42" stroke-width="2"/>
<path d="M-227.331 525.257C92.5107 486.954 734.756 368.756 810.411 256.566C886.066 144.377 1534.78 84.8444 1841.51 62.3291" stroke="#519D42" stroke-width="2"/>
<path d="M-219.045 524.605C100.797 486.302 766.351 385.271 808.027 261.583C850.585 135.278 1543.07 84.1921 1849.8 61.6768" stroke="#519D42" stroke-width="2"/>
<path d="M-193.462 567.135C126.381 528.832 769.69 392.385 811.366 268.698C853.924 142.393 1568.65 126.722 1875.38 104.207" stroke="#519D42" stroke-width="2"/>
<path d="M-193.278 569.468C126.564 531.165 769.874 394.718 811.55 271.031C854.108 144.726 1568.84 129.055 1875.56 106.54" stroke="#519D42" stroke-width="2"/>
<path d="M-186.513 425.971C133.329 387.668 791.927 283.016 867.582 170.826C943.237 58.6363 1575.6 -14.4416 1882.33 -36.9569" stroke="#519D42" stroke-width="2"/>
<path d="M-177.869 447.501C141.973 409.198 784.218 291 859.873 178.81C935.528 66.6207 1584.25 7.08831 1890.97 -15.427" stroke="#519D42" stroke-width="2"/>
<path d="M-184.994 462.905C134.848 424.603 777.094 306.404 852.748 194.215C928.403 82.025 1577.12 22.4927 1883.85 -0.0226202" stroke="#519D42" stroke-width="2"/>
<path d="M-184.994 462.905C134.848 424.603 777.094 306.404 852.748 194.215C928.403 82.025 1577.12 22.4927 1883.85 -0.0226202" stroke="#519D42" stroke-width="2"/>
<path d="M-176.708 462.253C143.135 423.95 808.688 322.919 850.364 199.232C892.922 72.9267 1585.41 21.8403 1892.13 -0.674941" stroke="#519D42" stroke-width="2"/>
<path d="M-151.124 504.783C168.718 466.48 812.028 330.033 853.704 206.346C896.262 80.0409 1610.99 64.3704 1917.72 41.8551" stroke="#519D42" stroke-width="2"/>
<path d="M-150.941 507.116C168.902 468.814 812.211 332.367 853.888 208.679C896.446 82.3743 1611.18 66.7038 1917.9 44.1885" stroke="#519D42" stroke-width="2"/>
<path d="M1543.21 -630.925C1311.38 -407.277 849.564 73.7953 856.994 208.906C864.423 344.017 404.456 784.082 173.543 987.225" stroke="#519D42" stroke-width="2"/>
<path d="M1523.33 -642.869C1291.49 -419.221 850.889 62.776 858.318 197.887C865.748 332.998 384.566 772.138 153.654 975.281" stroke="#519D42" stroke-width="2"/>
<path d="M1519.7 -659.45C1287.87 -435.802 847.267 46.1947 854.697 181.306C862.127 316.417 380.945 755.556 150.033 958.7" stroke="#519D42" stroke-width="2"/>
<path d="M1519.7 -659.45C1287.87 -435.802 847.267 46.1947 854.697 181.306C862.127 316.417 380.945 755.556 150.033 958.7" stroke="#519D42" stroke-width="2"/>
<path d="M1513.49 -653.927C1281.66 -430.279 812.11 52.1061 853.568 175.867C895.904 302.247 374.733 761.08 143.821 964.223" stroke="#519D42" stroke-width="2"/>
<path d="M1467.42 -672.383C1235.58 -448.735 805.153 48.4513 846.611 172.212C888.946 298.592 328.661 742.623 97.7483 945.767" stroke="#519D42" stroke-width="2"/>
<path d="M1465.86 -674.132C1234.03 -450.485 803.598 46.7022 845.056 170.463C887.391 296.843 327.105 740.874 96.193 944.018" stroke="#519D42" stroke-width="2"/>
<path d="M1547.11 -555.659C1315.28 -332.011 853.462 149.062 860.891 284.173C868.321 419.284 408.353 859.348 177.441 1062.49" stroke="#519D42" stroke-width="2"/>
<path d="M1527.22 -567.602C1295.39 -343.955 854.786 138.042 862.216 273.153C869.646 408.264 388.464 847.404 157.552 1050.55" stroke="#519D42" stroke-width="2"/>
<path d="M1523.6 -584.184C1291.77 -360.536 851.165 121.461 858.595 256.572C866.024 391.683 384.843 830.823 153.93 1033.97" stroke="#519D42" stroke-width="2"/>
<path d="M1523.6 -584.184C1291.77 -360.536 851.165 121.461 858.595 256.572C866.024 391.683 384.843 830.823 153.93 1033.97" stroke="#519D42" stroke-width="2"/>
<path d="M1517.39 -578.661C1285.55 -355.013 816.008 127.372 857.466 251.133C899.801 377.513 378.631 836.346 147.719 1039.49" stroke="#519D42" stroke-width="2"/>
<path d="M1471.32 -597.117C1239.48 -373.469 809.051 123.718 850.508 247.478C892.844 373.858 332.558 817.89 101.646 1021.03" stroke="#519D42" stroke-width="2"/>
<path d="M1469.76 -598.866C1237.93 -375.218 807.495 121.968 848.953 245.729C891.288 372.109 331.003 816.141 100.09 1019.28" stroke="#519D42" stroke-width="2"/>
<path d="M39.9258 165.062C39.4199 165.062 39.0508 165 38.8184 164.877C38.5859 164.74 38.4697 164.535 38.4697 164.262V142.257H31.4561C31.1963 142.257 31.0117 142.168 30.9023 141.99C30.793 141.812 30.7383 141.539 30.7383 141.17V140.575C30.7383 140.192 30.793 139.919 30.9023 139.755C31.0117 139.577 31.1963 139.488 31.4561 139.488H48.5596C48.8193 139.488 49.0039 139.577 49.1133 139.755C49.2227 139.919 49.2773 140.192 49.2773 140.575V141.17C49.2773 141.539 49.2227 141.812 49.1133 141.99C49.0039 142.168 48.8193 142.257 48.5596 142.257H41.6895V164.262C41.6895 164.795 41.1973 165.062 40.2129 165.062H39.9258ZM54.7734 165.062C54.2539 165.062 53.8779 165 53.6455 164.877C53.4131 164.74 53.2969 164.535 53.2969 164.262V151.465C53.2969 149.879 53.2217 148.737 53.0713 148.04C52.9209 147.329 52.8457 146.939 52.8457 146.871C52.8457 146.57 53.0713 146.358 53.5225 146.235C53.9873 146.099 54.4248 146.03 54.835 146.03C55.1631 146.03 55.4092 146.208 55.5732 146.563C55.7373 146.905 55.8809 147.391 56.0039 148.02L56.1064 148.45C57.4053 146.632 58.8135 145.723 60.3311 145.723C61.0283 145.723 61.5547 145.853 61.9102 146.112C62.2656 146.358 62.4434 146.693 62.4434 147.117C62.4434 147.527 62.3682 147.965 62.2178 148.43C62.0811 148.881 61.917 149.106 61.7256 149.106C61.6299 149.106 61.459 149.065 61.2129 148.983C60.9941 148.888 60.7754 148.819 60.5566 148.778C60.3379 148.724 60.0576 148.696 59.7158 148.696C59.1553 148.696 58.6221 148.86 58.1162 149.188C57.624 149.517 57.207 149.879 56.8652 150.275C56.5234 150.672 56.3525 150.891 56.3525 150.932V164.262C56.3525 164.535 56.2363 164.74 56.0039 164.877C55.7715 165 55.4092 165.062 54.917 165.062H54.7734ZM71.3643 165.205C69.5049 165.205 68.001 164.747 66.8525 163.831C65.7041 162.915 65.1299 161.555 65.1299 159.75C65.1299 157.85 65.7109 156.421 66.873 155.464C68.0352 154.493 69.4502 153.871 71.1182 153.598C72.7998 153.311 74.8369 153.146 77.2295 153.105V151.383C77.2295 150.467 76.915 149.735 76.2861 149.188C75.6709 148.628 74.6523 148.348 73.2305 148.348C72.1504 148.348 71.2002 148.478 70.3799 148.737C69.5732 148.983 68.8145 149.284 68.1035 149.64C67.8027 149.79 67.6182 149.865 67.5498 149.865C67.3857 149.865 67.2012 149.749 66.9961 149.517C66.8047 149.271 66.6338 148.997 66.4834 148.696C66.3467 148.396 66.2783 148.177 66.2783 148.04C66.2783 147.726 66.5996 147.384 67.2422 147.015C67.8984 146.646 68.7529 146.338 69.8057 146.092C70.8584 145.846 71.959 145.723 73.1074 145.723C75.3906 145.723 77.1611 146.222 78.4189 147.22C79.6768 148.218 80.3057 149.619 80.3057 151.424V159.606C80.3057 161.192 80.374 162.341 80.5107 163.052C80.6611 163.749 80.7363 164.132 80.7363 164.2C80.7363 164.501 80.5039 164.72 80.0391 164.856C79.5879 164.979 79.1641 165.041 78.7676 165.041C78.4395 165.041 78.1934 164.856 78.0293 164.487C77.8789 164.118 77.7285 163.585 77.5781 162.888L77.4961 162.478C76.7441 163.312 75.8555 163.975 74.8301 164.467C73.8184 164.959 72.6631 165.205 71.3643 165.205ZM71.5283 162.56C72.7314 162.56 73.7568 162.341 74.6045 161.903C75.4521 161.466 76.3271 160.844 77.2295 160.037V155.73C75.4248 155.744 73.9414 155.819 72.7793 155.956C71.6172 156.093 70.5986 156.441 69.7236 157.002C68.8486 157.549 68.4111 158.403 68.4111 159.565C68.4111 160.536 68.6709 161.281 69.1904 161.801C69.7236 162.307 70.5029 162.56 71.5283 162.56ZM87.8525 165.062C87.333 165.062 86.957 165 86.7246 164.877C86.4922 164.74 86.376 164.535 86.376 164.262V151.465C86.376 149.879 86.3008 148.737 86.1504 148.04C86 147.329 85.9248 146.939 85.9248 146.871C85.9248 146.57 86.1504 146.358 86.6016 146.235C87.0664 146.099 87.5039 146.03 87.9141 146.03C88.2559 146.03 88.5088 146.215 88.6729 146.584C88.8369 146.953 88.9531 147.329 89.0215 147.712C89.1035 148.095 89.1582 148.341 89.1855 148.45C89.9512 147.589 90.833 146.919 91.8311 146.44C92.8428 145.962 93.8613 145.723 94.8867 145.723C96.7461 145.723 98.1953 146.249 99.2344 147.302C100.287 148.341 100.813 149.776 100.813 151.608V164.262C100.813 164.535 100.697 164.74 100.465 164.877C100.232 165 99.8633 165.062 99.3574 165.062H99.1934C98.7012 165.062 98.3389 165 98.1064 164.877C97.874 164.74 97.7578 164.535 97.7578 164.262V151.916C97.7578 150.795 97.4297 149.927 96.7734 149.312C96.1309 148.683 95.2217 148.368 94.0459 148.368C93.2256 148.368 92.3984 148.601 91.5645 149.065C90.7441 149.517 90.0332 150.139 89.4316 150.932V164.262C89.4316 164.535 89.3154 164.74 89.083 164.877C88.8506 165 88.4883 165.062 87.9961 165.062H87.8525ZM110.616 165.349C109.591 165.349 108.634 165.219 107.745 164.959C106.856 164.699 106.146 164.385 105.612 164.016C105.093 163.633 104.833 163.298 104.833 163.011C104.833 162.874 104.901 162.655 105.038 162.354C105.188 162.054 105.359 161.787 105.551 161.555C105.756 161.309 105.94 161.186 106.104 161.186C106.146 161.186 106.269 161.254 106.474 161.391C107.021 161.746 107.595 162.047 108.196 162.293C108.812 162.539 109.543 162.662 110.391 162.662C112.77 162.662 113.959 161.678 113.959 159.709C113.959 159.148 113.843 158.677 113.61 158.294C113.392 157.911 113.016 157.576 112.482 157.289C111.963 156.988 111.245 156.701 110.329 156.428C109.017 156.045 107.991 155.607 107.253 155.115C106.528 154.623 106.016 154.049 105.715 153.393C105.414 152.723 105.264 151.916 105.264 150.973C105.264 149.961 105.517 149.052 106.022 148.245C106.542 147.438 107.26 146.81 108.176 146.358C109.105 145.907 110.151 145.682 111.313 145.682C112.12 145.682 112.893 145.757 113.631 145.907C114.383 146.058 114.984 146.256 115.436 146.502C115.9 146.734 116.133 146.98 116.133 147.24C116.133 147.432 116.064 147.691 115.928 148.02C115.805 148.334 115.647 148.614 115.456 148.86C115.265 149.093 115.094 149.209 114.943 149.209C114.916 149.209 114.745 149.127 114.431 148.963C114.116 148.785 113.713 148.628 113.221 148.491C112.742 148.341 112.209 148.266 111.621 148.266C110.691 148.266 109.919 148.478 109.304 148.901C108.702 149.312 108.401 149.865 108.401 150.562C108.401 151.383 108.62 152.039 109.058 152.531C109.495 153.023 110.22 153.427 111.231 153.741C112.79 154.22 113.979 154.698 114.8 155.177C115.62 155.655 116.201 156.243 116.543 156.94C116.898 157.624 117.076 158.526 117.076 159.647C117.076 160.714 116.789 161.685 116.215 162.56C115.641 163.421 114.861 164.104 113.877 164.61C112.893 165.103 111.806 165.349 110.616 165.349ZM123.987 165.062C123.481 165.062 123.112 165 122.88 164.877C122.647 164.74 122.531 164.535 122.531 164.262V148.553H121.075C120.583 148.553 120.337 148.19 120.337 147.466V147.015C120.337 146.29 120.583 145.928 121.075 145.928H122.531V142.462C122.531 140.548 123.003 139.235 123.946 138.524C124.903 137.8 125.997 137.438 127.228 137.438C129.005 137.438 129.894 137.807 129.894 138.545C129.894 138.668 129.859 138.873 129.791 139.16C129.736 139.434 129.647 139.68 129.524 139.898C129.415 140.117 129.285 140.227 129.135 140.227C129.053 140.227 128.882 140.199 128.622 140.145C128.362 140.09 128.007 140.062 127.556 140.062C127.146 140.062 126.797 140.124 126.51 140.247C126.236 140.37 126.011 140.63 125.833 141.026C125.669 141.423 125.587 141.997 125.587 142.749V145.928H128.766C129.025 145.928 129.21 146.017 129.319 146.194C129.442 146.358 129.504 146.632 129.504 147.015V147.466C129.504 147.849 129.442 148.129 129.319 148.307C129.21 148.471 129.025 148.553 128.766 148.553H125.587V164.262C125.587 164.535 125.471 164.74 125.238 164.877C125.006 165 124.644 165.062 124.151 165.062H123.987ZM140.906 165.205C138.158 165.205 136.06 164.385 134.61 162.744C133.175 161.09 132.457 158.69 132.457 155.546C132.457 152.401 133.188 149.981 134.651 148.286C136.114 146.577 138.199 145.723 140.906 145.723C143.586 145.723 145.637 146.57 147.059 148.266C148.48 149.947 149.191 152.374 149.191 155.546C149.191 158.704 148.487 161.104 147.079 162.744C145.685 164.385 143.627 165.205 140.906 165.205ZM140.804 162.58C142.581 162.58 143.894 162.006 144.741 160.857C145.589 159.695 146.013 157.904 146.013 155.484C146.013 153.051 145.589 151.253 144.741 150.091C143.894 148.929 142.581 148.348 140.804 148.348C139.04 148.348 137.741 148.929 136.907 150.091C136.073 151.239 135.656 153.037 135.656 155.484C135.656 157.918 136.066 159.709 136.887 160.857C137.721 162.006 139.026 162.58 140.804 162.58ZM155.959 165.062C155.439 165.062 155.063 165 154.831 164.877C154.599 164.74 154.482 164.535 154.482 164.262V151.465C154.482 149.879 154.407 148.737 154.257 148.04C154.106 147.329 154.031 146.939 154.031 146.871C154.031 146.57 154.257 146.358 154.708 146.235C155.173 146.099 155.61 146.03 156.021 146.03C156.349 146.03 156.595 146.208 156.759 146.563C156.923 146.905 157.066 147.391 157.189 148.02L157.292 148.45C158.591 146.632 159.999 145.723 161.517 145.723C162.214 145.723 162.74 145.853 163.096 146.112C163.451 146.358 163.629 146.693 163.629 147.117C163.629 147.527 163.554 147.965 163.403 148.43C163.267 148.881 163.103 149.106 162.911 149.106C162.815 149.106 162.645 149.065 162.398 148.983C162.18 148.888 161.961 148.819 161.742 148.778C161.523 148.724 161.243 148.696 160.901 148.696C160.341 148.696 159.808 148.86 159.302 149.188C158.81 149.517 158.393 149.879 158.051 150.275C157.709 150.672 157.538 150.891 157.538 150.932V164.262C157.538 164.535 157.422 164.74 157.189 164.877C156.957 165 156.595 165.062 156.103 165.062H155.959ZM186.987 145.723C188.505 145.723 189.838 146.153 190.986 147.015C192.135 147.876 192.709 149.407 192.709 151.608V164.262C192.709 164.535 192.593 164.74 192.36 164.877C192.128 165 191.759 165.062 191.253 165.062H191.13C190.61 165.062 190.234 165 190.002 164.877C189.77 164.74 189.653 164.535 189.653 164.262V151.916C189.653 150.809 189.353 149.94 188.751 149.312C188.163 148.683 187.295 148.368 186.146 148.368C185.189 148.368 184.321 148.648 183.542 149.209C182.776 149.756 182.154 150.33 181.676 150.932C181.703 151.26 181.717 151.506 181.717 151.67V164.262C181.717 164.795 181.225 165.062 180.24 165.062H180.097C179.126 165.062 178.641 164.795 178.641 164.262V151.916C178.641 150.809 178.34 149.94 177.738 149.312C177.15 148.683 176.282 148.368 175.134 148.368C174.341 148.368 173.616 148.56 172.96 148.942C172.304 149.312 171.757 149.715 171.319 150.152C170.896 150.59 170.684 150.836 170.684 150.891V164.262C170.684 164.535 170.567 164.74 170.335 164.877C170.116 165 169.754 165.062 169.248 165.062H169.084C168.578 165.062 168.209 165 167.977 164.877C167.758 164.74 167.648 164.535 167.648 164.262V151.465C167.648 149.879 167.573 148.737 167.423 148.04C167.272 147.329 167.197 146.939 167.197 146.871C167.197 146.57 167.423 146.358 167.874 146.235C168.339 146.099 168.77 146.03 169.166 146.03C169.508 146.03 169.761 146.215 169.925 146.584C170.089 146.953 170.205 147.329 170.273 147.712C170.355 148.095 170.41 148.341 170.438 148.45C171.107 147.671 171.928 147.021 172.898 146.502C173.869 145.982 174.895 145.723 175.975 145.723C177.082 145.723 178.114 145.948 179.071 146.399C180.028 146.837 180.732 147.616 181.184 148.737C181.936 147.849 182.817 147.124 183.829 146.563C184.841 146.003 185.894 145.723 186.987 145.723ZM200.092 141.334C199.121 141.334 198.636 141.067 198.636 140.534V138.381C198.636 137.848 199.121 137.581 200.092 137.581H200.522C201.507 137.581 201.999 137.848 201.999 138.381V140.534C201.999 141.067 201.507 141.334 200.522 141.334H200.092ZM200.235 165.062C199.265 165.062 198.779 164.795 198.779 164.262V146.666C198.779 146.133 199.265 145.866 200.235 145.866H200.379C201.363 145.866 201.855 146.133 201.855 146.666V164.262C201.855 164.795 201.363 165.062 200.379 165.062H200.235ZM209.751 165.062C209.231 165.062 208.855 165 208.623 164.877C208.391 164.74 208.274 164.535 208.274 164.262V151.465C208.274 149.879 208.199 148.737 208.049 148.04C207.898 147.329 207.823 146.939 207.823 146.871C207.823 146.57 208.049 146.358 208.5 146.235C208.965 146.099 209.402 146.03 209.812 146.03C210.154 146.03 210.407 146.215 210.571 146.584C210.735 146.953 210.852 147.329 210.92 147.712C211.002 148.095 211.057 148.341 211.084 148.45C211.85 147.589 212.731 146.919 213.729 146.44C214.741 145.962 215.76 145.723 216.785 145.723C218.645 145.723 220.094 146.249 221.133 147.302C222.186 148.341 222.712 149.776 222.712 151.608V164.262C222.712 164.535 222.596 164.74 222.363 164.877C222.131 165 221.762 165.062 221.256 165.062H221.092C220.6 165.062 220.237 165 220.005 164.877C219.772 164.74 219.656 164.535 219.656 164.262V151.916C219.656 150.795 219.328 149.927 218.672 149.312C218.029 148.683 217.12 148.368 215.944 148.368C215.124 148.368 214.297 148.601 213.463 149.065C212.643 149.517 211.932 150.139 211.33 150.932V164.262C211.33 164.535 211.214 164.74 210.981 164.877C210.749 165 210.387 165.062 209.895 165.062H209.751ZM234.668 172.731C232.344 172.731 230.505 172.369 229.151 171.645C227.798 170.92 227.121 169.778 227.121 168.22C227.121 167.153 227.429 166.224 228.044 165.431C228.659 164.638 229.459 164.043 230.443 163.646L230.484 163.564C230.006 163.195 229.637 162.771 229.377 162.293C229.131 161.814 229.008 161.247 229.008 160.591C229.008 159.005 229.691 157.733 231.059 156.776C230.033 156.284 229.254 155.594 228.721 154.705C228.188 153.803 227.921 152.791 227.921 151.67C227.921 150.549 228.194 149.537 228.741 148.635C229.302 147.732 230.122 147.021 231.202 146.502C232.282 145.982 233.581 145.723 235.099 145.723C235.905 145.723 236.623 145.791 237.252 145.928H243.876C244.136 145.928 244.32 146.017 244.43 146.194C244.553 146.358 244.614 146.632 244.614 147.015V147.466C244.614 147.849 244.553 148.129 244.43 148.307C244.32 148.471 244.136 148.553 243.876 148.553C242.96 148.553 242.112 148.519 241.333 148.45L241.292 148.512C241.606 148.949 241.839 149.441 241.989 149.988C242.153 150.521 242.235 151.082 242.235 151.67C242.235 152.791 241.955 153.803 241.395 154.705C240.848 155.607 240.034 156.318 238.954 156.838C237.888 157.357 236.589 157.617 235.058 157.617C233.909 157.658 233.041 157.87 232.453 158.253C231.879 158.636 231.592 159.265 231.592 160.14C231.592 160.782 231.797 161.274 232.207 161.616C232.631 161.958 233.157 162.197 233.786 162.334C234.415 162.471 235.29 162.601 236.411 162.724L237.478 162.847C238.612 162.997 239.562 163.202 240.328 163.462C241.094 163.722 241.723 164.152 242.215 164.754C242.721 165.355 242.974 166.183 242.974 167.235C242.974 168.999 242.27 170.353 240.861 171.296C239.453 172.253 237.389 172.731 234.668 172.731ZM235.058 155.197C236.397 155.197 237.464 154.924 238.257 154.377C239.05 153.83 239.446 152.935 239.446 151.69C239.446 149.339 237.983 148.163 235.058 148.163C232.173 148.163 230.73 149.339 230.73 151.69C230.73 152.935 231.12 153.83 231.899 154.377C232.692 154.924 233.745 155.197 235.058 155.197ZM235.058 170.25C236.753 170.25 238.011 170.024 238.831 169.573C239.651 169.136 240.062 168.466 240.062 167.563C240.062 166.976 239.843 166.518 239.405 166.189C238.968 165.875 238.428 165.649 237.785 165.513C237.156 165.39 236.322 165.273 235.283 165.164C234.572 165.082 233.984 165.007 233.52 164.938C233.068 164.87 232.651 164.774 232.269 164.651C230.655 165.335 229.849 166.326 229.849 167.625C229.849 169.375 231.585 170.25 235.058 170.25ZM258.785 165C258.402 165 258.122 164.911 257.944 164.733C257.767 164.556 257.678 164.282 257.678 163.913V140.575C257.678 140.192 257.767 139.919 257.944 139.755C258.122 139.577 258.402 139.488 258.785 139.488H271.5C271.76 139.488 271.944 139.57 272.054 139.734C272.177 139.898 272.238 140.179 272.238 140.575V141.17C272.238 141.539 272.177 141.812 272.054 141.99C271.944 142.168 271.76 142.257 271.5 142.257H260.897V150.562H270.413C270.673 150.562 270.857 150.651 270.967 150.829C271.09 151.007 271.151 151.287 271.151 151.67V152.224C271.151 152.606 271.09 152.887 270.967 153.064C270.857 153.229 270.673 153.311 270.413 153.311H260.897V162.231H271.541C271.801 162.231 271.985 162.32 272.095 162.498C272.218 162.662 272.279 162.936 272.279 163.318V163.913C272.279 164.282 272.218 164.556 272.095 164.733C271.985 164.911 271.801 165 271.541 165H258.785ZM278.698 165.062C278.179 165.062 277.803 165 277.57 164.877C277.338 164.74 277.222 164.535 277.222 164.262V151.465C277.222 149.879 277.146 148.737 276.996 148.04C276.846 147.329 276.771 146.939 276.771 146.871C276.771 146.57 276.996 146.358 277.447 146.235C277.912 146.099 278.35 146.03 278.76 146.03C279.102 146.03 279.354 146.215 279.519 146.584C279.683 146.953 279.799 147.329 279.867 147.712C279.949 148.095 280.004 148.341 280.031 148.45C280.797 147.589 281.679 146.919 282.677 146.44C283.688 145.962 284.707 145.723 285.732 145.723C287.592 145.723 289.041 146.249 290.08 147.302C291.133 148.341 291.659 149.776 291.659 151.608V164.262C291.659 164.535 291.543 164.74 291.311 164.877C291.078 165 290.709 165.062 290.203 165.062H290.039C289.547 165.062 289.185 165 288.952 164.877C288.72 164.74 288.604 164.535 288.604 164.262V151.916C288.604 150.795 288.275 149.927 287.619 149.312C286.977 148.683 286.067 148.368 284.892 148.368C284.071 148.368 283.244 148.601 282.41 149.065C281.59 149.517 280.879 150.139 280.277 150.932V164.262C280.277 164.535 280.161 164.74 279.929 164.877C279.696 165 279.334 165.062 278.842 165.062H278.698ZM303 165.205C301.783 165.205 300.696 164.836 299.739 164.098C298.782 163.359 298.304 162.054 298.304 160.181V148.553H296.479C296.219 148.553 296.027 148.471 295.904 148.307C295.795 148.129 295.74 147.849 295.74 147.466V147.015C295.74 146.632 295.795 146.358 295.904 146.194C296.027 146.017 296.219 145.928 296.479 145.928H298.304L298.734 142.113C298.762 141.58 299.151 141.313 299.903 141.313H300.252C300.635 141.313 300.915 141.382 301.093 141.519C301.271 141.642 301.359 141.84 301.359 142.113V145.928H304.415C304.675 145.928 304.859 146.017 304.969 146.194C305.092 146.358 305.153 146.632 305.153 147.015V147.466C305.153 147.849 305.092 148.129 304.969 148.307C304.859 148.471 304.675 148.553 304.415 148.553H301.359V159.894C301.359 160.892 301.53 161.589 301.872 161.985C302.228 162.382 302.706 162.58 303.308 162.58C303.772 162.58 304.128 162.553 304.374 162.498C304.634 162.443 304.805 162.416 304.887 162.416C305.105 162.416 305.283 162.635 305.42 163.072C305.57 163.51 305.646 163.858 305.646 164.118C305.646 164.843 304.764 165.205 303 165.205ZM317.848 165.205C314.826 165.205 312.577 164.419 311.101 162.847C309.638 161.261 308.906 158.841 308.906 155.587C308.906 152.36 309.624 149.913 311.06 148.245C312.495 146.563 314.607 145.723 317.396 145.723C319.885 145.723 321.758 146.529 323.016 148.143C324.287 149.756 324.923 152.121 324.923 155.238C324.923 155.375 324.848 155.566 324.697 155.812C324.561 156.045 324.39 156.257 324.185 156.448C323.993 156.626 323.829 156.715 323.692 156.715H312.188C312.338 158.752 312.857 160.242 313.746 161.186C314.648 162.115 316.002 162.58 317.807 162.58C318.818 162.58 319.687 162.457 320.411 162.211C321.149 161.965 321.86 161.664 322.544 161.309C322.612 161.281 322.715 161.233 322.852 161.165C322.988 161.097 323.084 161.062 323.139 161.062C323.289 161.062 323.46 161.186 323.651 161.432C323.856 161.664 324.027 161.931 324.164 162.231C324.314 162.519 324.39 162.73 324.39 162.867C324.39 163.168 324.089 163.503 323.487 163.872C322.886 164.241 322.079 164.556 321.067 164.815C320.069 165.075 318.996 165.205 317.848 165.205ZM321.662 154.09C321.662 150.262 320.206 148.348 317.294 148.348C314.163 148.348 312.461 150.262 312.188 154.09H321.662ZM331.342 165.062C330.822 165.062 330.446 165 330.214 164.877C329.981 164.74 329.865 164.535 329.865 164.262V151.465C329.865 149.879 329.79 148.737 329.64 148.04C329.489 147.329 329.414 146.939 329.414 146.871C329.414 146.57 329.64 146.358 330.091 146.235C330.556 146.099 330.993 146.03 331.403 146.03C331.731 146.03 331.978 146.208 332.142 146.563C332.306 146.905 332.449 147.391 332.572 148.02L332.675 148.45C333.974 146.632 335.382 145.723 336.899 145.723C337.597 145.723 338.123 145.853 338.479 146.112C338.834 146.358 339.012 146.693 339.012 147.117C339.012 147.527 338.937 147.965 338.786 148.43C338.649 148.881 338.485 149.106 338.294 149.106C338.198 149.106 338.027 149.065 337.781 148.983C337.562 148.888 337.344 148.819 337.125 148.778C336.906 148.724 336.626 148.696 336.284 148.696C335.724 148.696 335.19 148.86 334.685 149.188C334.192 149.517 333.775 149.879 333.434 150.275C333.092 150.672 332.921 150.891 332.921 150.932V164.262C332.921 164.535 332.805 164.74 332.572 164.877C332.34 165 331.978 165.062 331.485 165.062H331.342ZM344.528 172.588C343.544 172.588 343.052 172.321 343.052 171.788V151.465C343.052 149.879 342.977 148.737 342.826 148.04C342.676 147.329 342.601 146.939 342.601 146.871C342.601 146.57 342.826 146.358 343.277 146.235C343.742 146.099 344.18 146.03 344.59 146.03C344.932 146.03 345.185 146.215 345.349 146.584C345.513 146.953 345.629 147.329 345.697 147.712C345.779 148.095 345.834 148.341 345.861 148.45C347.598 146.632 349.532 145.723 351.665 145.723C353.128 145.723 354.393 146.14 355.459 146.974C356.525 147.808 357.339 148.963 357.899 150.439C358.46 151.916 358.74 153.598 358.74 155.484C358.74 157.535 358.426 159.292 357.797 160.755C357.182 162.218 356.313 163.325 355.192 164.077C354.071 164.829 352.779 165.205 351.316 165.205C350.264 165.205 349.327 165.048 348.507 164.733C347.7 164.419 346.9 163.961 346.107 163.359V171.788C346.107 172.321 345.629 172.588 344.672 172.588H344.528ZM350.619 162.519C352.246 162.478 353.47 161.883 354.29 160.734C355.11 159.586 355.521 157.918 355.521 155.73C355.521 153.379 355.131 151.567 354.352 150.296C353.586 149.011 352.479 148.368 351.029 148.368C350.223 148.368 349.382 148.587 348.507 149.024C347.646 149.462 346.846 150.084 346.107 150.891V160.878C347.447 161.972 348.951 162.519 350.619 162.519ZM365.59 165.062C365.07 165.062 364.694 165 364.462 164.877C364.229 164.74 364.113 164.535 364.113 164.262V151.465C364.113 149.879 364.038 148.737 363.888 148.04C363.737 147.329 363.662 146.939 363.662 146.871C363.662 146.57 363.888 146.358 364.339 146.235C364.804 146.099 365.241 146.03 365.651 146.03C365.979 146.03 366.226 146.208 366.39 146.563C366.554 146.905 366.697 147.391 366.82 148.02L366.923 148.45C368.222 146.632 369.63 145.723 371.147 145.723C371.845 145.723 372.371 145.853 372.727 146.112C373.082 146.358 373.26 146.693 373.26 147.117C373.26 147.527 373.185 147.965 373.034 148.43C372.897 148.881 372.733 149.106 372.542 149.106C372.446 149.106 372.275 149.065 372.029 148.983C371.811 148.888 371.592 148.819 371.373 148.778C371.154 148.724 370.874 148.696 370.532 148.696C369.972 148.696 369.438 148.86 368.933 149.188C368.44 149.517 368.023 149.879 367.682 150.275C367.34 150.672 367.169 150.891 367.169 150.932V164.262C367.169 164.535 367.053 164.74 366.82 164.877C366.588 165 366.226 165.062 365.733 165.062H365.59ZM378.797 141.334C377.826 141.334 377.341 141.067 377.341 140.534V138.381C377.341 137.848 377.826 137.581 378.797 137.581H379.228C380.212 137.581 380.704 137.848 380.704 138.381V140.534C380.704 141.067 380.212 141.334 379.228 141.334H378.797ZM378.94 165.062C377.97 165.062 377.484 164.795 377.484 164.262V146.666C377.484 146.133 377.97 145.866 378.94 145.866H379.084C380.068 145.866 380.561 146.133 380.561 146.666V164.262C380.561 164.795 380.068 165.062 379.084 165.062H378.94ZM390.917 165.349C389.892 165.349 388.935 165.219 388.046 164.959C387.157 164.699 386.446 164.385 385.913 164.016C385.394 163.633 385.134 163.298 385.134 163.011C385.134 162.874 385.202 162.655 385.339 162.354C385.489 162.054 385.66 161.787 385.852 161.555C386.057 161.309 386.241 161.186 386.405 161.186C386.446 161.186 386.569 161.254 386.774 161.391C387.321 161.746 387.896 162.047 388.497 162.293C389.112 162.539 389.844 162.662 390.691 162.662C393.07 162.662 394.26 161.678 394.26 159.709C394.26 159.148 394.144 158.677 393.911 158.294C393.692 157.911 393.316 157.576 392.783 157.289C392.264 156.988 391.546 156.701 390.63 156.428C389.317 156.045 388.292 155.607 387.554 155.115C386.829 154.623 386.316 154.049 386.016 153.393C385.715 152.723 385.564 151.916 385.564 150.973C385.564 149.961 385.817 149.052 386.323 148.245C386.843 147.438 387.561 146.81 388.477 146.358C389.406 145.907 390.452 145.682 391.614 145.682C392.421 145.682 393.193 145.757 393.932 145.907C394.684 146.058 395.285 146.256 395.736 146.502C396.201 146.734 396.434 146.98 396.434 147.24C396.434 147.432 396.365 147.691 396.229 148.02C396.105 148.334 395.948 148.614 395.757 148.86C395.565 149.093 395.395 149.209 395.244 149.209C395.217 149.209 395.046 149.127 394.731 148.963C394.417 148.785 394.014 148.628 393.521 148.491C393.043 148.341 392.51 148.266 391.922 148.266C390.992 148.266 390.22 148.478 389.604 148.901C389.003 149.312 388.702 149.865 388.702 150.562C388.702 151.383 388.921 152.039 389.358 152.531C389.796 153.023 390.521 153.427 391.532 153.741C393.091 154.22 394.28 154.698 395.101 155.177C395.921 155.655 396.502 156.243 396.844 156.94C397.199 157.624 397.377 158.526 397.377 159.647C397.377 160.714 397.09 161.685 396.516 162.56C395.941 163.421 395.162 164.104 394.178 164.61C393.193 165.103 392.106 165.349 390.917 165.349ZM409.846 165.205C406.824 165.205 404.575 164.419 403.099 162.847C401.636 161.261 400.904 158.841 400.904 155.587C400.904 152.36 401.622 149.913 403.058 148.245C404.493 146.563 406.605 145.723 409.395 145.723C411.883 145.723 413.756 146.529 415.014 148.143C416.285 149.756 416.921 152.121 416.921 155.238C416.921 155.375 416.846 155.566 416.695 155.812C416.559 156.045 416.388 156.257 416.183 156.448C415.991 156.626 415.827 156.715 415.69 156.715H404.186C404.336 158.752 404.855 160.242 405.744 161.186C406.646 162.115 408 162.58 409.805 162.58C410.816 162.58 411.685 162.457 412.409 162.211C413.147 161.965 413.858 161.664 414.542 161.309C414.61 161.281 414.713 161.233 414.85 161.165C414.986 161.097 415.082 161.062 415.137 161.062C415.287 161.062 415.458 161.186 415.649 161.432C415.854 161.664 416.025 161.931 416.162 162.231C416.312 162.519 416.388 162.73 416.388 162.867C416.388 163.168 416.087 163.503 415.485 163.872C414.884 164.241 414.077 164.556 413.065 164.815C412.067 165.075 410.994 165.205 409.846 165.205ZM413.66 154.09C413.66 150.262 412.204 148.348 409.292 148.348C406.161 148.348 404.459 150.262 404.186 154.09H413.66ZM425.657 165.349C424.632 165.349 423.675 165.219 422.786 164.959C421.897 164.699 421.187 164.385 420.653 164.016C420.134 163.633 419.874 163.298 419.874 163.011C419.874 162.874 419.942 162.655 420.079 162.354C420.229 162.054 420.4 161.787 420.592 161.555C420.797 161.309 420.981 161.186 421.146 161.186C421.187 161.186 421.31 161.254 421.515 161.391C422.062 161.746 422.636 162.047 423.237 162.293C423.853 162.539 424.584 162.662 425.432 162.662C427.811 162.662 429 161.678 429 159.709C429 159.148 428.884 158.677 428.651 158.294C428.433 157.911 428.057 157.576 427.523 157.289C427.004 156.988 426.286 156.701 425.37 156.428C424.058 156.045 423.032 155.607 422.294 155.115C421.569 154.623 421.057 154.049 420.756 153.393C420.455 152.723 420.305 151.916 420.305 150.973C420.305 149.961 420.558 149.052 421.063 148.245C421.583 147.438 422.301 146.81 423.217 146.358C424.146 145.907 425.192 145.682 426.354 145.682C427.161 145.682 427.934 145.757 428.672 145.907C429.424 146.058 430.025 146.256 430.477 146.502C430.941 146.734 431.174 146.98 431.174 147.24C431.174 147.432 431.105 147.691 430.969 148.02C430.846 148.334 430.688 148.614 430.497 148.86C430.306 149.093 430.135 149.209 429.984 149.209C429.957 149.209 429.786 149.127 429.472 148.963C429.157 148.785 428.754 148.628 428.262 148.491C427.783 148.341 427.25 148.266 426.662 148.266C425.732 148.266 424.96 148.478 424.345 148.901C423.743 149.312 423.442 149.865 423.442 150.562C423.442 151.383 423.661 152.039 424.099 152.531C424.536 153.023 425.261 153.427 426.272 153.741C427.831 154.22 429.021 154.698 429.841 155.177C430.661 155.655 431.242 156.243 431.584 156.94C431.939 157.624 432.117 158.526 432.117 159.647C432.117 160.714 431.83 161.685 431.256 162.56C430.682 163.421 429.902 164.104 428.918 164.61C427.934 165.103 426.847 165.349 425.657 165.349ZM452.338 165.062C451.832 165.062 451.463 165 451.23 164.877C450.998 164.74 450.882 164.535 450.882 164.262V142.257H443.868C443.608 142.257 443.424 142.168 443.314 141.99C443.205 141.812 443.15 141.539 443.15 141.17V140.575C443.15 140.192 443.205 139.919 443.314 139.755C443.424 139.577 443.608 139.488 443.868 139.488H460.972C461.231 139.488 461.416 139.577 461.525 139.755C461.635 139.919 461.689 140.192 461.689 140.575V141.17C461.689 141.539 461.635 141.812 461.525 141.99C461.416 142.168 461.231 142.257 460.972 142.257H454.102V164.262C454.102 164.795 453.609 165.062 452.625 165.062H452.338ZM467.247 165.062C466.276 165.062 465.791 164.795 465.791 164.262V138.381C465.791 137.848 466.276 137.581 467.247 137.581H467.391C468.375 137.581 468.867 137.848 468.867 138.381V148.225C469.578 147.5 470.412 146.905 471.369 146.44C472.326 145.962 473.345 145.723 474.425 145.723C475.956 145.723 477.303 146.153 478.465 147.015C479.641 147.876 480.229 149.407 480.229 151.608V164.262C480.229 164.795 479.743 165.062 478.772 165.062H478.629C477.645 165.062 477.152 164.795 477.152 164.262V151.916C477.152 150.809 476.838 149.94 476.209 149.312C475.58 148.683 474.657 148.368 473.44 148.368C472.634 148.368 471.889 148.56 471.205 148.942C470.535 149.325 469.975 149.742 469.523 150.193C469.086 150.631 468.867 150.877 468.867 150.932V164.262C468.867 164.795 468.375 165.062 467.391 165.062H467.247ZM487.816 165.062C487.297 165.062 486.921 165 486.688 164.877C486.456 164.74 486.34 164.535 486.34 164.262V151.465C486.34 149.879 486.265 148.737 486.114 148.04C485.964 147.329 485.889 146.939 485.889 146.871C485.889 146.57 486.114 146.358 486.565 146.235C487.03 146.099 487.468 146.03 487.878 146.03C488.206 146.03 488.452 146.208 488.616 146.563C488.78 146.905 488.924 147.391 489.047 148.02L489.149 148.45C490.448 146.632 491.856 145.723 493.374 145.723C494.071 145.723 494.598 145.853 494.953 146.112C495.309 146.358 495.486 146.693 495.486 147.117C495.486 147.527 495.411 147.965 495.261 148.43C495.124 148.881 494.96 149.106 494.769 149.106C494.673 149.106 494.502 149.065 494.256 148.983C494.037 148.888 493.818 148.819 493.6 148.778C493.381 148.724 493.101 148.696 492.759 148.696C492.198 148.696 491.665 148.86 491.159 149.188C490.667 149.517 490.25 149.879 489.908 150.275C489.566 150.672 489.396 150.891 489.396 150.932V164.262C489.396 164.535 489.279 164.74 489.047 164.877C488.814 165 488.452 165.062 487.96 165.062H487.816ZM506.848 165.205C504.1 165.205 502.001 164.385 500.552 162.744C499.116 161.09 498.398 158.69 498.398 155.546C498.398 152.401 499.13 149.981 500.593 148.286C502.056 146.577 504.141 145.723 506.848 145.723C509.527 145.723 511.578 146.57 513 148.266C514.422 149.947 515.133 152.374 515.133 155.546C515.133 158.704 514.429 161.104 513.021 162.744C511.626 164.385 509.568 165.205 506.848 165.205ZM506.745 162.58C508.522 162.58 509.835 162.006 510.683 160.857C511.53 159.695 511.954 157.904 511.954 155.484C511.954 153.051 511.53 151.253 510.683 150.091C509.835 148.929 508.522 148.348 506.745 148.348C504.981 148.348 503.683 148.929 502.849 150.091C502.015 151.239 501.598 153.037 501.598 155.484C501.598 157.918 502.008 159.709 502.828 160.857C503.662 162.006 504.968 162.58 506.745 162.58ZM525.817 165.205C523.958 165.205 522.502 164.686 521.449 163.646C520.396 162.594 519.87 161.145 519.87 159.299V146.666C519.87 146.133 520.362 145.866 521.347 145.866H521.49C522.461 145.866 522.946 146.133 522.946 146.666V159.012C522.946 160.133 523.268 161.008 523.91 161.637C524.566 162.252 525.482 162.56 526.658 162.56C527.479 162.56 528.299 162.334 529.119 161.883C529.939 161.418 530.65 160.789 531.252 159.996V146.666C531.252 146.133 531.737 145.866 532.708 145.866H532.852C533.836 145.866 534.328 146.133 534.328 146.666V159.606C534.328 161.192 534.396 162.341 534.533 163.052C534.67 163.749 534.738 164.132 534.738 164.2C534.738 164.501 534.513 164.72 534.062 164.856C533.61 164.979 533.187 165.041 532.79 165.041C532.448 165.041 532.195 164.85 532.031 164.467C531.867 164.07 531.744 163.667 531.662 163.257C531.594 162.847 531.546 162.587 531.519 162.478C530.753 163.339 529.864 164.009 528.853 164.487C527.854 164.966 526.843 165.205 525.817 165.205ZM546.674 172.731C544.35 172.731 542.511 172.369 541.157 171.645C539.804 170.92 539.127 169.778 539.127 168.22C539.127 167.153 539.435 166.224 540.05 165.431C540.665 164.638 541.465 164.043 542.449 163.646L542.49 163.564C542.012 163.195 541.643 162.771 541.383 162.293C541.137 161.814 541.014 161.247 541.014 160.591C541.014 159.005 541.697 157.733 543.064 156.776C542.039 156.284 541.26 155.594 540.727 154.705C540.193 153.803 539.927 152.791 539.927 151.67C539.927 150.549 540.2 149.537 540.747 148.635C541.308 147.732 542.128 147.021 543.208 146.502C544.288 145.982 545.587 145.723 547.104 145.723C547.911 145.723 548.629 145.791 549.258 145.928H555.882C556.142 145.928 556.326 146.017 556.436 146.194C556.559 146.358 556.62 146.632 556.62 147.015V147.466C556.62 147.849 556.559 148.129 556.436 148.307C556.326 148.471 556.142 148.553 555.882 148.553C554.966 148.553 554.118 148.519 553.339 148.45L553.298 148.512C553.612 148.949 553.845 149.441 553.995 149.988C554.159 150.521 554.241 151.082 554.241 151.67C554.241 152.791 553.961 153.803 553.4 154.705C552.854 155.607 552.04 156.318 550.96 156.838C549.894 157.357 548.595 157.617 547.063 157.617C545.915 157.658 545.047 157.87 544.459 158.253C543.885 158.636 543.598 159.265 543.598 160.14C543.598 160.782 543.803 161.274 544.213 161.616C544.637 161.958 545.163 162.197 545.792 162.334C546.421 162.471 547.296 162.601 548.417 162.724L549.483 162.847C550.618 162.997 551.568 163.202 552.334 163.462C553.1 163.722 553.729 164.152 554.221 164.754C554.727 165.355 554.979 166.183 554.979 167.235C554.979 168.999 554.275 170.353 552.867 171.296C551.459 172.253 549.395 172.731 546.674 172.731ZM547.063 155.197C548.403 155.197 549.47 154.924 550.263 154.377C551.056 153.83 551.452 152.935 551.452 151.69C551.452 149.339 549.989 148.163 547.063 148.163C544.179 148.163 542.736 149.339 542.736 151.69C542.736 152.935 543.126 153.83 543.905 154.377C544.698 154.924 545.751 155.197 547.063 155.197ZM547.063 170.25C548.759 170.25 550.017 170.024 550.837 169.573C551.657 169.136 552.067 168.466 552.067 167.563C552.067 166.976 551.849 166.518 551.411 166.189C550.974 165.875 550.434 165.649 549.791 165.513C549.162 165.39 548.328 165.273 547.289 165.164C546.578 165.082 545.99 165.007 545.525 164.938C545.074 164.87 544.657 164.774 544.274 164.651C542.661 165.335 541.854 166.326 541.854 167.625C541.854 169.375 543.591 170.25 547.063 170.25ZM562.198 165.062C561.228 165.062 560.742 164.795 560.742 164.262V138.381C560.742 137.848 561.228 137.581 562.198 137.581H562.342C563.326 137.581 563.818 137.848 563.818 138.381V148.225C564.529 147.5 565.363 146.905 566.32 146.44C567.277 145.962 568.296 145.723 569.376 145.723C570.907 145.723 572.254 146.153 573.416 147.015C574.592 147.876 575.18 149.407 575.18 151.608V164.262C575.18 164.795 574.694 165.062 573.724 165.062H573.58C572.596 165.062 572.104 164.795 572.104 164.262V151.916C572.104 150.809 571.789 149.94 571.16 149.312C570.531 148.683 569.608 148.368 568.392 148.368C567.585 148.368 566.84 148.56 566.156 148.942C565.486 149.325 564.926 149.742 564.475 150.193C564.037 150.631 563.818 150.877 563.818 150.932V164.262C563.818 164.795 563.326 165.062 562.342 165.062H562.198ZM591.791 165.062C590.807 165.062 590.314 164.795 590.314 164.262V140.206C590.314 139.659 590.807 139.386 591.791 139.386H592.078C593.049 139.386 593.534 139.659 593.534 140.206V164.262C593.534 164.795 593.049 165.062 592.078 165.062H591.791ZM601.696 165.062C601.177 165.062 600.801 165 600.568 164.877C600.336 164.74 600.22 164.535 600.22 164.262V151.465C600.22 149.879 600.145 148.737 599.994 148.04C599.844 147.329 599.769 146.939 599.769 146.871C599.769 146.57 599.994 146.358 600.445 146.235C600.91 146.099 601.348 146.03 601.758 146.03C602.1 146.03 602.353 146.215 602.517 146.584C602.681 146.953 602.797 147.329 602.865 147.712C602.947 148.095 603.002 148.341 603.029 148.45C603.795 147.589 604.677 146.919 605.675 146.44C606.687 145.962 607.705 145.723 608.73 145.723C610.59 145.723 612.039 146.249 613.078 147.302C614.131 148.341 614.657 149.776 614.657 151.608V164.262C614.657 164.535 614.541 164.74 614.309 164.877C614.076 165 613.707 165.062 613.201 165.062H613.037C612.545 165.062 612.183 165 611.95 164.877C611.718 164.74 611.602 164.535 611.602 164.262V151.916C611.602 150.795 611.273 149.927 610.617 149.312C609.975 148.683 609.065 148.368 607.89 148.368C607.069 148.368 606.242 148.601 605.408 149.065C604.588 149.517 603.877 150.139 603.275 150.932V164.262C603.275 164.535 603.159 164.74 602.927 164.877C602.694 165 602.332 165.062 601.84 165.062H601.696ZM621.999 165.062C621.479 165.062 621.104 165 620.871 164.877C620.639 164.74 620.522 164.535 620.522 164.262V151.465C620.522 149.879 620.447 148.737 620.297 148.04C620.146 147.329 620.071 146.939 620.071 146.871C620.071 146.57 620.297 146.358 620.748 146.235C621.213 146.099 621.65 146.03 622.061 146.03C622.402 146.03 622.655 146.215 622.819 146.584C622.983 146.953 623.1 147.329 623.168 147.712C623.25 148.095 623.305 148.341 623.332 148.45C624.098 147.589 624.979 146.919 625.978 146.44C626.989 145.962 628.008 145.723 629.033 145.723C630.893 145.723 632.342 146.249 633.381 147.302C634.434 148.341 634.96 149.776 634.96 151.608V164.262C634.96 164.535 634.844 164.74 634.611 164.877C634.379 165 634.01 165.062 633.504 165.062H633.34C632.848 165.062 632.485 165 632.253 164.877C632.021 164.74 631.904 164.535 631.904 164.262V151.916C631.904 150.795 631.576 149.927 630.92 149.312C630.277 148.683 629.368 148.368 628.192 148.368C627.372 148.368 626.545 148.601 625.711 149.065C624.891 149.517 624.18 150.139 623.578 150.932V164.262C623.578 164.535 623.462 164.74 623.229 164.877C622.997 165 622.635 165.062 622.143 165.062H621.999ZM648.146 165.205C645.398 165.205 643.3 164.385 641.851 162.744C640.415 161.09 639.697 158.69 639.697 155.546C639.697 152.401 640.429 149.981 641.892 148.286C643.354 146.577 645.439 145.723 648.146 145.723C650.826 145.723 652.877 146.57 654.299 148.266C655.721 149.947 656.432 152.374 656.432 155.546C656.432 158.704 655.728 161.104 654.319 162.744C652.925 164.385 650.867 165.205 648.146 165.205ZM648.044 162.58C649.821 162.58 651.134 162.006 651.981 160.857C652.829 159.695 653.253 157.904 653.253 155.484C653.253 153.051 652.829 151.253 651.981 150.091C651.134 148.929 649.821 148.348 648.044 148.348C646.28 148.348 644.981 148.929 644.147 150.091C643.313 151.239 642.896 153.037 642.896 155.484C642.896 157.918 643.307 159.709 644.127 160.857C644.961 162.006 646.267 162.58 648.044 162.58ZM666.665 165.062C665.804 165.062 665.312 164.87 665.188 164.487L659.323 146.953C659.241 146.707 659.2 146.55 659.2 146.481C659.2 146.29 659.33 146.14 659.59 146.03C659.85 145.921 660.246 145.866 660.779 145.866H660.964C661.812 145.866 662.297 146.058 662.42 146.44L666.132 158.068C666.433 158.971 666.781 160.201 667.178 161.76L667.403 162.621H667.567L667.813 161.534C668.114 160.099 668.395 158.971 668.654 158.15L672.407 146.44C672.53 146.058 673.029 145.866 673.904 145.866H674.007C674.923 145.866 675.381 146.071 675.381 146.481C675.381 146.618 675.333 146.782 675.237 146.974L669.393 164.487C669.27 164.87 668.777 165.062 667.916 165.062H666.665ZM684.138 165.205C682.278 165.205 680.774 164.747 679.626 163.831C678.478 162.915 677.903 161.555 677.903 159.75C677.903 157.85 678.484 156.421 679.646 155.464C680.809 154.493 682.224 153.871 683.892 153.598C685.573 153.311 687.61 153.146 690.003 153.105V151.383C690.003 150.467 689.688 149.735 689.06 149.188C688.444 148.628 687.426 148.348 686.004 148.348C684.924 148.348 683.974 148.478 683.153 148.737C682.347 148.983 681.588 149.284 680.877 149.64C680.576 149.79 680.392 149.865 680.323 149.865C680.159 149.865 679.975 149.749 679.77 149.517C679.578 149.271 679.407 148.997 679.257 148.696C679.12 148.396 679.052 148.177 679.052 148.04C679.052 147.726 679.373 147.384 680.016 147.015C680.672 146.646 681.526 146.338 682.579 146.092C683.632 145.846 684.732 145.723 685.881 145.723C688.164 145.723 689.935 146.222 691.192 147.22C692.45 148.218 693.079 149.619 693.079 151.424V159.606C693.079 161.192 693.147 162.341 693.284 163.052C693.435 163.749 693.51 164.132 693.51 164.2C693.51 164.501 693.277 164.72 692.812 164.856C692.361 164.979 691.938 165.041 691.541 165.041C691.213 165.041 690.967 164.856 690.803 164.487C690.652 164.118 690.502 163.585 690.352 162.888L690.27 162.478C689.518 163.312 688.629 163.975 687.604 164.467C686.592 164.959 685.437 165.205 684.138 165.205ZM684.302 162.56C685.505 162.56 686.53 162.341 687.378 161.903C688.226 161.466 689.101 160.844 690.003 160.037V155.73C688.198 155.744 686.715 155.819 685.553 155.956C684.391 156.093 683.372 156.441 682.497 157.002C681.622 157.549 681.185 158.403 681.185 159.565C681.185 160.536 681.444 161.281 681.964 161.801C682.497 162.307 683.276 162.56 684.302 162.56ZM704.625 165.205C703.408 165.205 702.321 164.836 701.364 164.098C700.407 163.359 699.929 162.054 699.929 160.181V148.553H698.104C697.844 148.553 697.652 148.471 697.529 148.307C697.42 148.129 697.365 147.849 697.365 147.466V147.015C697.365 146.632 697.42 146.358 697.529 146.194C697.652 146.017 697.844 145.928 698.104 145.928H699.929L700.359 142.113C700.387 141.58 700.776 141.313 701.528 141.313H701.877C702.26 141.313 702.54 141.382 702.718 141.519C702.896 141.642 702.984 141.84 702.984 142.113V145.928H706.04C706.3 145.928 706.484 146.017 706.594 146.194C706.717 146.358 706.778 146.632 706.778 147.015V147.466C706.778 147.849 706.717 148.129 706.594 148.307C706.484 148.471 706.3 148.553 706.04 148.553H702.984V159.894C702.984 160.892 703.155 161.589 703.497 161.985C703.853 162.382 704.331 162.58 704.933 162.58C705.397 162.58 705.753 162.553 705.999 162.498C706.259 162.443 706.43 162.416 706.512 162.416C706.73 162.416 706.908 162.635 707.045 163.072C707.195 163.51 707.271 163.858 707.271 164.118C707.271 164.843 706.389 165.205 704.625 165.205ZM713.156 141.334C712.186 141.334 711.7 141.067 711.7 140.534V138.381C711.7 137.848 712.186 137.581 713.156 137.581H713.587C714.571 137.581 715.063 137.848 715.063 138.381V140.534C715.063 141.067 714.571 141.334 713.587 141.334H713.156ZM713.3 165.062C712.329 165.062 711.844 164.795 711.844 164.262V146.666C711.844 146.133 712.329 145.866 713.3 145.866H713.443C714.428 145.866 714.92 146.133 714.92 146.666V164.262C714.92 164.795 714.428 165.062 713.443 165.062H713.3ZM728.66 165.205C725.912 165.205 723.813 164.385 722.364 162.744C720.929 161.09 720.211 158.69 720.211 155.546C720.211 152.401 720.942 149.981 722.405 148.286C723.868 146.577 725.953 145.723 728.66 145.723C731.34 145.723 733.391 146.57 734.812 148.266C736.234 149.947 736.945 152.374 736.945 155.546C736.945 158.704 736.241 161.104 734.833 162.744C733.438 164.385 731.381 165.205 728.66 165.205ZM728.558 162.58C730.335 162.58 731.647 162.006 732.495 160.857C733.343 159.695 733.767 157.904 733.767 155.484C733.767 153.051 733.343 151.253 732.495 150.091C731.647 148.929 730.335 148.348 728.558 148.348C726.794 148.348 725.495 148.929 724.661 150.091C723.827 151.239 723.41 153.037 723.41 155.484C723.41 157.918 723.82 159.709 724.641 160.857C725.475 162.006 726.78 162.58 728.558 162.58ZM743.569 165.062C743.05 165.062 742.674 165 742.441 164.877C742.209 164.74 742.093 164.535 742.093 164.262V151.465C742.093 149.879 742.018 148.737 741.867 148.04C741.717 147.329 741.642 146.939 741.642 146.871C741.642 146.57 741.867 146.358 742.318 146.235C742.783 146.099 743.221 146.03 743.631 146.03C743.973 146.03 744.226 146.215 744.39 146.584C744.554 146.953 744.67 147.329 744.738 147.712C744.82 148.095 744.875 148.341 744.902 148.45C745.668 147.589 746.55 146.919 747.548 146.44C748.56 145.962 749.578 145.723 750.604 145.723C752.463 145.723 753.912 146.249 754.951 147.302C756.004 148.341 756.53 149.776 756.53 151.608V164.262C756.53 164.535 756.414 164.74 756.182 164.877C755.949 165 755.58 165.062 755.074 165.062H754.91C754.418 165.062 754.056 165 753.823 164.877C753.591 164.74 753.475 164.535 753.475 164.262V151.916C753.475 150.795 753.146 149.927 752.49 149.312C751.848 148.683 750.938 148.368 749.763 148.368C748.942 148.368 748.115 148.601 747.281 149.065C746.461 149.517 745.75 150.139 745.148 150.932V164.262C745.148 164.535 745.032 164.74 744.8 164.877C744.567 165 744.205 165.062 743.713 165.062H743.569ZM773.039 165.062C772.055 165.062 771.562 164.795 771.562 164.262V140.206C771.562 139.659 772.055 139.386 773.039 139.386H773.326C774.297 139.386 774.782 139.659 774.782 140.206V164.262C774.782 164.795 774.297 165.062 773.326 165.062H773.039ZM782.944 165.062C782.425 165.062 782.049 165 781.816 164.877C781.584 164.74 781.468 164.535 781.468 164.262V151.465C781.468 149.879 781.393 148.737 781.242 148.04C781.092 147.329 781.017 146.939 781.017 146.871C781.017 146.57 781.242 146.358 781.693 146.235C782.158 146.099 782.596 146.03 783.006 146.03C783.348 146.03 783.601 146.215 783.765 146.584C783.929 146.953 784.045 147.329 784.113 147.712C784.195 148.095 784.25 148.341 784.277 148.45C785.043 147.589 785.925 146.919 786.923 146.44C787.935 145.962 788.953 145.723 789.979 145.723C791.838 145.723 793.287 146.249 794.326 147.302C795.379 148.341 795.905 149.776 795.905 151.608V164.262C795.905 164.535 795.789 164.74 795.557 164.877C795.324 165 794.955 165.062 794.449 165.062H794.285C793.793 165.062 793.431 165 793.198 164.877C792.966 164.74 792.85 164.535 792.85 164.262V151.916C792.85 150.795 792.521 149.927 791.865 149.312C791.223 148.683 790.313 148.368 789.138 148.368C788.317 148.368 787.49 148.601 786.656 149.065C785.836 149.517 785.125 150.139 784.523 150.932V164.262C784.523 164.535 784.407 164.74 784.175 164.877C783.942 165 783.58 165.062 783.088 165.062H782.944ZM39.9258 236.062C39.4199 236.062 39.0508 236 38.8184 235.877C38.5859 235.74 38.4697 235.535 38.4697 235.262V213.257H31.4561C31.1963 213.257 31.0117 213.168 30.9023 212.99C30.793 212.812 30.7383 212.539 30.7383 212.17V211.575C30.7383 211.192 30.793 210.919 30.9023 210.755C31.0117 210.577 31.1963 210.488 31.4561 210.488H48.5596C48.8193 210.488 49.0039 210.577 49.1133 210.755C49.2227 210.919 49.2773 211.192 49.2773 211.575V212.17C49.2773 212.539 49.2227 212.812 49.1133 212.99C49.0039 213.168 48.8193 213.257 48.5596 213.257H41.6895V235.262C41.6895 235.795 41.1973 236.062 40.2129 236.062H39.9258ZM60.0234 236.205C57.002 236.205 54.7529 235.419 53.2764 233.847C51.8135 232.261 51.082 229.841 51.082 226.587C51.082 223.36 51.7998 220.913 53.2354 219.245C54.6709 217.563 56.7832 216.723 59.5723 216.723C62.0605 216.723 63.9336 217.529 65.1914 219.143C66.4629 220.756 67.0986 223.121 67.0986 226.238C67.0986 226.375 67.0234 226.566 66.873 226.812C66.7363 227.045 66.5654 227.257 66.3604 227.448C66.1689 227.626 66.0049 227.715 65.8682 227.715H54.3633C54.5137 229.752 55.0332 231.242 55.9219 232.186C56.8242 233.115 58.1777 233.58 59.9824 233.58C60.9941 233.58 61.8623 233.457 62.5869 233.211C63.3252 232.965 64.0361 232.664 64.7197 232.309C64.7881 232.281 64.8906 232.233 65.0273 232.165C65.1641 232.097 65.2598 232.062 65.3145 232.062C65.4648 232.062 65.6357 232.186 65.8271 232.432C66.0322 232.664 66.2031 232.931 66.3398 233.231C66.4902 233.519 66.5654 233.73 66.5654 233.867C66.5654 234.168 66.2646 234.503 65.6631 234.872C65.0615 235.241 64.2549 235.556 63.2432 235.815C62.2451 236.075 61.1719 236.205 60.0234 236.205ZM63.8379 225.09C63.8379 221.262 62.3818 219.348 59.4697 219.348C56.3389 219.348 54.6367 221.262 54.3633 225.09H63.8379ZM79.6289 236.205C76.6074 236.205 74.3516 235.433 72.8613 233.888C71.3848 232.329 70.6465 229.827 70.6465 226.382C70.6465 222.896 71.4736 220.414 73.1279 218.938C74.7822 217.461 76.8398 216.723 79.3008 216.723C80.2168 216.723 81.0986 216.805 81.9463 216.969C82.7939 217.119 83.4775 217.324 83.9971 217.584C84.5166 217.844 84.7764 218.117 84.7764 218.404C84.7764 218.596 84.708 218.849 84.5713 219.163C84.4482 219.478 84.291 219.758 84.0996 220.004C83.9219 220.236 83.7578 220.353 83.6074 220.353C83.5664 220.353 83.5049 220.339 83.4229 220.312C83.3408 220.271 83.2656 220.236 83.1973 220.209C81.9668 219.635 80.6406 219.348 79.2188 219.348C77.5371 219.348 76.2383 219.901 75.3223 221.009C74.4062 222.103 73.9482 223.866 73.9482 226.3C73.9482 228.022 74.1328 229.417 74.502 230.483C74.8711 231.536 75.4658 232.315 76.2861 232.821C77.1201 233.327 78.2275 233.58 79.6084 233.58C81.126 233.58 82.4932 233.266 83.71 232.637C83.833 232.609 83.9219 232.582 83.9766 232.555C84.0449 232.514 84.0928 232.493 84.1201 232.493C84.2705 232.493 84.4414 232.609 84.6328 232.842C84.8242 233.074 84.9883 233.341 85.125 233.642C85.2754 233.942 85.3506 234.182 85.3506 234.359C85.3506 234.646 85.0908 234.934 84.5713 235.221C84.0518 235.508 83.3477 235.747 82.459 235.938C81.584 236.116 80.6406 236.205 79.6289 236.205ZM91.2568 236.062C90.2861 236.062 89.8008 235.795 89.8008 235.262V209.381C89.8008 208.848 90.2861 208.581 91.2568 208.581H91.4004C92.3848 208.581 92.877 208.848 92.877 209.381V219.225C93.5879 218.5 94.4219 217.905 95.3789 217.44C96.3359 216.962 97.3545 216.723 98.4346 216.723C99.9658 216.723 101.312 217.153 102.475 218.015C103.65 218.876 104.238 220.407 104.238 222.608V235.262C104.238 235.795 103.753 236.062 102.782 236.062H102.639C101.654 236.062 101.162 235.795 101.162 235.262V222.916C101.162 221.809 100.848 220.94 100.219 220.312C99.5898 219.683 98.667 219.368 97.4502 219.368C96.6436 219.368 95.8984 219.56 95.2148 219.942C94.5449 220.325 93.9844 220.742 93.5332 221.193C93.0957 221.631 92.877 221.877 92.877 221.932V235.262C92.877 235.795 92.3848 236.062 91.4004 236.062H91.2568ZM111.683 236.062C111.163 236.062 110.787 236 110.555 235.877C110.322 235.74 110.206 235.535 110.206 235.262V222.465C110.206 220.879 110.131 219.737 109.98 219.04C109.83 218.329 109.755 217.939 109.755 217.871C109.755 217.57 109.98 217.358 110.432 217.235C110.896 217.099 111.334 217.03 111.744 217.03C112.086 217.03 112.339 217.215 112.503 217.584C112.667 217.953 112.783 218.329 112.852 218.712C112.934 219.095 112.988 219.341 113.016 219.45C113.781 218.589 114.663 217.919 115.661 217.44C116.673 216.962 117.691 216.723 118.717 216.723C120.576 216.723 122.025 217.249 123.064 218.302C124.117 219.341 124.644 220.776 124.644 222.608V235.262C124.644 235.535 124.527 235.74 124.295 235.877C124.062 236 123.693 236.062 123.188 236.062H123.023C122.531 236.062 122.169 236 121.937 235.877C121.704 235.74 121.588 235.535 121.588 235.262V222.916C121.588 221.795 121.26 220.927 120.604 220.312C119.961 219.683 119.052 219.368 117.876 219.368C117.056 219.368 116.229 219.601 115.395 220.065C114.574 220.517 113.863 221.139 113.262 221.932V235.262C113.262 235.535 113.146 235.74 112.913 235.877C112.681 236 112.318 236.062 111.826 236.062H111.683ZM137.83 236.205C135.082 236.205 132.983 235.385 131.534 233.744C130.099 232.09 129.381 229.69 129.381 226.546C129.381 223.401 130.112 220.981 131.575 219.286C133.038 217.577 135.123 216.723 137.83 216.723C140.51 216.723 142.561 217.57 143.982 219.266C145.404 220.947 146.115 223.374 146.115 226.546C146.115 229.704 145.411 232.104 144.003 233.744C142.608 235.385 140.551 236.205 137.83 236.205ZM137.728 233.58C139.505 233.58 140.817 233.006 141.665 231.857C142.513 230.695 142.937 228.904 142.937 226.484C142.937 224.051 142.513 222.253 141.665 221.091C140.817 219.929 139.505 219.348 137.728 219.348C135.964 219.348 134.665 219.929 133.831 221.091C132.997 222.239 132.58 224.037 132.58 226.484C132.58 228.918 132.99 230.709 133.811 231.857C134.645 233.006 135.95 233.58 137.728 233.58ZM155.815 236.205C154.599 236.205 153.512 235.836 152.555 235.098C151.598 234.359 151.119 233.054 151.119 231.181V209.381C151.119 208.848 151.604 208.581 152.575 208.581H152.739C153.696 208.581 154.175 208.848 154.175 209.381V230.894C154.175 231.892 154.353 232.589 154.708 232.985C155.063 233.382 155.542 233.58 156.144 233.58C156.595 233.58 156.95 233.553 157.21 233.498C157.47 233.443 157.641 233.416 157.723 233.416C157.941 233.416 158.119 233.635 158.256 234.072C158.406 234.51 158.481 234.858 158.481 235.118C158.481 235.843 157.593 236.205 155.815 236.205ZM169.453 236.205C166.705 236.205 164.606 235.385 163.157 233.744C161.722 232.09 161.004 229.69 161.004 226.546C161.004 223.401 161.735 220.981 163.198 219.286C164.661 217.577 166.746 216.723 169.453 216.723C172.133 216.723 174.184 217.57 175.605 219.266C177.027 220.947 177.738 223.374 177.738 226.546C177.738 229.704 177.034 232.104 175.626 233.744C174.231 235.385 172.174 236.205 169.453 236.205ZM169.351 233.58C171.128 233.58 172.44 233.006 173.288 231.857C174.136 230.695 174.56 228.904 174.56 226.484C174.56 224.051 174.136 222.253 173.288 221.091C172.44 219.929 171.128 219.348 169.351 219.348C167.587 219.348 166.288 219.929 165.454 221.091C164.62 222.239 164.203 224.037 164.203 226.484C164.203 228.918 164.613 230.709 165.434 231.857C166.268 233.006 167.573 233.58 169.351 233.58ZM188.977 243.731C186.652 243.731 184.813 243.369 183.46 242.645C182.106 241.92 181.43 240.778 181.43 239.22C181.43 238.153 181.737 237.224 182.353 236.431C182.968 235.638 183.768 235.043 184.752 234.646L184.793 234.564C184.314 234.195 183.945 233.771 183.686 233.293C183.439 232.814 183.316 232.247 183.316 231.591C183.316 230.005 184 228.733 185.367 227.776C184.342 227.284 183.562 226.594 183.029 225.705C182.496 224.803 182.229 223.791 182.229 222.67C182.229 221.549 182.503 220.537 183.05 219.635C183.61 218.732 184.431 218.021 185.511 217.502C186.591 216.982 187.89 216.723 189.407 216.723C190.214 216.723 190.932 216.791 191.561 216.928H198.185C198.444 216.928 198.629 217.017 198.738 217.194C198.861 217.358 198.923 217.632 198.923 218.015V218.466C198.923 218.849 198.861 219.129 198.738 219.307C198.629 219.471 198.444 219.553 198.185 219.553C197.269 219.553 196.421 219.519 195.642 219.45L195.601 219.512C195.915 219.949 196.147 220.441 196.298 220.988C196.462 221.521 196.544 222.082 196.544 222.67C196.544 223.791 196.264 224.803 195.703 225.705C195.156 226.607 194.343 227.318 193.263 227.838C192.196 228.357 190.897 228.617 189.366 228.617C188.218 228.658 187.35 228.87 186.762 229.253C186.188 229.636 185.9 230.265 185.9 231.14C185.9 231.782 186.105 232.274 186.516 232.616C186.939 232.958 187.466 233.197 188.095 233.334C188.724 233.471 189.599 233.601 190.72 233.724L191.786 233.847C192.921 233.997 193.871 234.202 194.637 234.462C195.402 234.722 196.031 235.152 196.523 235.754C197.029 236.355 197.282 237.183 197.282 238.235C197.282 239.999 196.578 241.353 195.17 242.296C193.762 243.253 191.697 243.731 188.977 243.731ZM189.366 226.197C190.706 226.197 191.772 225.924 192.565 225.377C193.358 224.83 193.755 223.935 193.755 222.69C193.755 220.339 192.292 219.163 189.366 219.163C186.481 219.163 185.039 220.339 185.039 222.69C185.039 223.935 185.429 224.83 186.208 225.377C187.001 225.924 188.054 226.197 189.366 226.197ZM189.366 241.25C191.062 241.25 192.319 241.024 193.14 240.573C193.96 240.136 194.37 239.466 194.37 238.563C194.37 237.976 194.151 237.518 193.714 237.189C193.276 236.875 192.736 236.649 192.094 236.513C191.465 236.39 190.631 236.273 189.592 236.164C188.881 236.082 188.293 236.007 187.828 235.938C187.377 235.87 186.96 235.774 186.577 235.651C184.964 236.335 184.157 237.326 184.157 238.625C184.157 240.375 185.894 241.25 189.366 241.25ZM204.788 243.588C203.995 243.588 203.599 243.39 203.599 242.993C203.599 242.897 203.653 242.699 203.763 242.398L206.818 234.975L200.44 217.953C200.427 217.898 200.406 217.823 200.379 217.728C200.352 217.618 200.338 217.536 200.338 217.481C200.338 217.29 200.468 217.14 200.728 217.03C200.987 216.921 201.384 216.866 201.917 216.866H202.204C203.024 216.866 203.51 217.058 203.66 217.44L207.372 227.325C207.7 228.187 208.09 229.41 208.541 230.996H208.603L209.033 229.643C209.102 229.438 209.218 229.089 209.382 228.597C209.546 228.091 209.696 227.667 209.833 227.325L213.463 217.44C213.586 217.058 214.085 216.866 214.96 216.866H215.083C216.04 216.866 216.519 217.071 216.519 217.481C216.519 217.577 216.484 217.741 216.416 217.974L207.064 242.829C206.846 243.335 206.271 243.588 205.342 243.588H204.788ZM234.032 236.205C232.173 236.205 230.669 235.747 229.521 234.831C228.372 233.915 227.798 232.555 227.798 230.75C227.798 228.85 228.379 227.421 229.541 226.464C230.703 225.493 232.118 224.871 233.786 224.598C235.468 224.311 237.505 224.146 239.897 224.105V222.383C239.897 221.467 239.583 220.735 238.954 220.188C238.339 219.628 237.32 219.348 235.898 219.348C234.818 219.348 233.868 219.478 233.048 219.737C232.241 219.983 231.482 220.284 230.771 220.64C230.471 220.79 230.286 220.865 230.218 220.865C230.054 220.865 229.869 220.749 229.664 220.517C229.473 220.271 229.302 219.997 229.151 219.696C229.015 219.396 228.946 219.177 228.946 219.04C228.946 218.726 229.268 218.384 229.91 218.015C230.566 217.646 231.421 217.338 232.474 217.092C233.526 216.846 234.627 216.723 235.775 216.723C238.059 216.723 239.829 217.222 241.087 218.22C242.345 219.218 242.974 220.619 242.974 222.424V230.606C242.974 232.192 243.042 233.341 243.179 234.052C243.329 234.749 243.404 235.132 243.404 235.2C243.404 235.501 243.172 235.72 242.707 235.856C242.256 235.979 241.832 236.041 241.436 236.041C241.107 236.041 240.861 235.856 240.697 235.487C240.547 235.118 240.396 234.585 240.246 233.888L240.164 233.478C239.412 234.312 238.523 234.975 237.498 235.467C236.486 235.959 235.331 236.205 234.032 236.205ZM234.196 233.56C235.399 233.56 236.425 233.341 237.272 232.903C238.12 232.466 238.995 231.844 239.897 231.037V226.73C238.093 226.744 236.609 226.819 235.447 226.956C234.285 227.093 233.267 227.441 232.392 228.002C231.517 228.549 231.079 229.403 231.079 230.565C231.079 231.536 231.339 232.281 231.858 232.801C232.392 233.307 233.171 233.56 234.196 233.56ZM250.521 236.062C250.001 236.062 249.625 236 249.393 235.877C249.16 235.74 249.044 235.535 249.044 235.262V222.465C249.044 220.879 248.969 219.737 248.818 219.04C248.668 218.329 248.593 217.939 248.593 217.871C248.593 217.57 248.818 217.358 249.27 217.235C249.734 217.099 250.172 217.03 250.582 217.03C250.924 217.03 251.177 217.215 251.341 217.584C251.505 217.953 251.621 218.329 251.689 218.712C251.771 219.095 251.826 219.341 251.854 219.45C252.619 218.589 253.501 217.919 254.499 217.44C255.511 216.962 256.529 216.723 257.555 216.723C259.414 216.723 260.863 217.249 261.902 218.302C262.955 219.341 263.481 220.776 263.481 222.608V235.262C263.481 235.535 263.365 235.74 263.133 235.877C262.9 236 262.531 236.062 262.025 236.062H261.861C261.369 236.062 261.007 236 260.774 235.877C260.542 235.74 260.426 235.535 260.426 235.262V222.916C260.426 221.795 260.098 220.927 259.441 220.312C258.799 219.683 257.89 219.368 256.714 219.368C255.894 219.368 255.066 219.601 254.232 220.065C253.412 220.517 252.701 221.139 252.1 221.932V235.262C252.1 235.535 251.983 235.74 251.751 235.877C251.519 236 251.156 236.062 250.664 236.062H250.521ZM275.171 236.205C273.749 236.205 272.505 235.795 271.438 234.975C270.372 234.141 269.545 232.985 268.957 231.509C268.383 230.032 268.096 228.357 268.096 226.484C268.096 224.42 268.403 222.656 269.019 221.193C269.647 219.717 270.522 218.603 271.644 217.851C272.765 217.099 274.057 216.723 275.52 216.723C276.572 216.723 277.502 216.88 278.309 217.194C279.129 217.509 279.936 217.967 280.729 218.568V209.381C280.729 208.848 281.207 208.581 282.164 208.581H282.328C283.299 208.581 283.784 208.848 283.784 209.381V230.606C283.784 232.192 283.859 233.341 284.01 234.052C284.16 234.749 284.235 235.132 284.235 235.2C284.235 235.501 284.003 235.72 283.538 235.856C283.087 235.979 282.663 236.041 282.267 236.041C281.993 236.041 281.774 235.911 281.61 235.651C281.446 235.392 281.33 235.132 281.262 234.872C281.207 234.599 281.111 234.134 280.975 233.478C279.238 235.296 277.304 236.205 275.171 236.205ZM275.807 233.56C276.613 233.56 277.447 233.341 278.309 232.903C279.184 232.466 279.99 231.844 280.729 231.037V221.05C279.416 219.956 277.919 219.409 276.237 219.409C274.61 219.45 273.38 220.045 272.546 221.193C271.726 222.342 271.315 224.01 271.315 226.197C271.315 228.549 271.698 230.367 272.464 231.652C273.243 232.924 274.357 233.56 275.807 233.56ZM300.621 236.062C299.637 236.062 299.145 235.795 299.145 235.262V211.575C299.145 211.192 299.233 210.919 299.411 210.755C299.589 210.577 299.869 210.488 300.252 210.488H306.384C309.296 210.488 311.483 211.001 312.946 212.026C314.423 213.052 315.161 214.686 315.161 216.928C315.161 218.445 314.792 219.724 314.054 220.763C313.329 221.788 312.304 222.561 310.978 223.08V223.224C311.688 223.47 312.27 223.948 312.721 224.659C313.186 225.356 313.698 226.396 314.259 227.776L317.109 234.975C317.178 235.221 317.212 235.392 317.212 235.487C317.212 235.87 316.699 236.062 315.674 236.062H315.305C314.936 236.062 314.614 236.014 314.341 235.918C314.081 235.809 313.917 235.665 313.849 235.487L311.08 228.33C310.725 227.4 310.308 226.676 309.829 226.156C309.351 225.637 308.783 225.274 308.127 225.069C307.471 224.864 306.644 224.762 305.646 224.762H302.364V235.262C302.364 235.795 301.879 236.062 300.908 236.062H300.621ZM307.163 221.993C308.024 221.993 308.811 221.788 309.521 221.378C310.246 220.968 310.813 220.421 311.224 219.737C311.647 219.04 311.859 218.302 311.859 217.522C311.859 216.087 311.422 215.021 310.547 214.323C309.672 213.612 308.462 213.257 306.917 213.257H302.364V221.993H307.163ZM328.84 236.205C325.818 236.205 323.569 235.419 322.093 233.847C320.63 232.261 319.898 229.841 319.898 226.587C319.898 223.36 320.616 220.913 322.052 219.245C323.487 217.563 325.6 216.723 328.389 216.723C330.877 216.723 332.75 217.529 334.008 219.143C335.279 220.756 335.915 223.121 335.915 226.238C335.915 226.375 335.84 226.566 335.689 226.812C335.553 227.045 335.382 227.257 335.177 227.448C334.985 227.626 334.821 227.715 334.685 227.715H323.18C323.33 229.752 323.85 231.242 324.738 232.186C325.641 233.115 326.994 233.58 328.799 233.58C329.811 233.58 330.679 233.457 331.403 233.211C332.142 232.965 332.853 232.664 333.536 232.309C333.604 232.281 333.707 232.233 333.844 232.165C333.98 232.097 334.076 232.062 334.131 232.062C334.281 232.062 334.452 232.186 334.644 232.432C334.849 232.664 335.02 232.931 335.156 233.231C335.307 233.519 335.382 233.73 335.382 233.867C335.382 234.168 335.081 234.503 334.479 234.872C333.878 235.241 333.071 235.556 332.06 235.815C331.062 236.075 329.988 236.205 328.84 236.205ZM332.654 225.09C332.654 221.262 331.198 219.348 328.286 219.348C325.155 219.348 323.453 221.262 323.18 225.09H332.654ZM346.805 243.731C344.48 243.731 342.642 243.369 341.288 242.645C339.935 241.92 339.258 240.778 339.258 239.22C339.258 238.153 339.565 237.224 340.181 236.431C340.796 235.638 341.596 235.043 342.58 234.646L342.621 234.564C342.143 234.195 341.773 233.771 341.514 233.293C341.268 232.814 341.145 232.247 341.145 231.591C341.145 230.005 341.828 228.733 343.195 227.776C342.17 227.284 341.391 226.594 340.857 225.705C340.324 224.803 340.058 223.791 340.058 222.67C340.058 221.549 340.331 220.537 340.878 219.635C341.438 218.732 342.259 218.021 343.339 217.502C344.419 216.982 345.718 216.723 347.235 216.723C348.042 216.723 348.76 216.791 349.389 216.928H356.013C356.272 216.928 356.457 217.017 356.566 217.194C356.689 217.358 356.751 217.632 356.751 218.015V218.466C356.751 218.849 356.689 219.129 356.566 219.307C356.457 219.471 356.272 219.553 356.013 219.553C355.097 219.553 354.249 219.519 353.47 219.45L353.429 219.512C353.743 219.949 353.976 220.441 354.126 220.988C354.29 221.521 354.372 222.082 354.372 222.67C354.372 223.791 354.092 224.803 353.531 225.705C352.984 226.607 352.171 227.318 351.091 227.838C350.024 228.357 348.726 228.617 347.194 228.617C346.046 228.658 345.178 228.87 344.59 229.253C344.016 229.636 343.729 230.265 343.729 231.14C343.729 231.782 343.934 232.274 344.344 232.616C344.768 232.958 345.294 233.197 345.923 233.334C346.552 233.471 347.427 233.601 348.548 233.724L349.614 233.847C350.749 233.997 351.699 234.202 352.465 234.462C353.23 234.722 353.859 235.152 354.352 235.754C354.857 236.355 355.11 237.183 355.11 238.235C355.11 239.999 354.406 241.353 352.998 242.296C351.59 243.253 349.525 243.731 346.805 243.731ZM347.194 226.197C348.534 226.197 349.601 225.924 350.394 225.377C351.187 224.83 351.583 223.935 351.583 222.69C351.583 220.339 350.12 219.163 347.194 219.163C344.31 219.163 342.867 220.339 342.867 222.69C342.867 223.935 343.257 224.83 344.036 225.377C344.829 225.924 345.882 226.197 347.194 226.197ZM347.194 241.25C348.89 241.25 350.147 241.024 350.968 240.573C351.788 240.136 352.198 239.466 352.198 238.563C352.198 237.976 351.979 237.518 351.542 237.189C351.104 236.875 350.564 236.649 349.922 236.513C349.293 236.39 348.459 236.273 347.42 236.164C346.709 236.082 346.121 236.007 345.656 235.938C345.205 235.87 344.788 235.774 344.405 235.651C342.792 236.335 341.985 237.326 341.985 238.625C341.985 240.375 343.722 241.25 347.194 241.25ZM366.185 236.205C364.325 236.205 362.869 235.686 361.816 234.646C360.764 233.594 360.237 232.145 360.237 230.299V217.666C360.237 217.133 360.729 216.866 361.714 216.866H361.857C362.828 216.866 363.313 217.133 363.313 217.666V230.012C363.313 231.133 363.635 232.008 364.277 232.637C364.934 233.252 365.85 233.56 367.025 233.56C367.846 233.56 368.666 233.334 369.486 232.883C370.307 232.418 371.018 231.789 371.619 230.996V217.666C371.619 217.133 372.104 216.866 373.075 216.866H373.219C374.203 216.866 374.695 217.133 374.695 217.666V230.606C374.695 232.192 374.764 233.341 374.9 234.052C375.037 234.749 375.105 235.132 375.105 235.2C375.105 235.501 374.88 235.72 374.429 235.856C373.978 235.979 373.554 236.041 373.157 236.041C372.815 236.041 372.562 235.85 372.398 235.467C372.234 235.07 372.111 234.667 372.029 234.257C371.961 233.847 371.913 233.587 371.886 233.478C371.12 234.339 370.231 235.009 369.22 235.487C368.222 235.966 367.21 236.205 366.185 236.205ZM385.503 236.205C384.286 236.205 383.199 235.836 382.242 235.098C381.285 234.359 380.807 233.054 380.807 231.181V209.381C380.807 208.848 381.292 208.581 382.263 208.581H382.427C383.384 208.581 383.862 208.848 383.862 209.381V230.894C383.862 231.892 384.04 232.589 384.396 232.985C384.751 233.382 385.229 233.58 385.831 233.58C386.282 233.58 386.638 233.553 386.897 233.498C387.157 233.443 387.328 233.416 387.41 233.416C387.629 233.416 387.807 233.635 387.943 234.072C388.094 234.51 388.169 234.858 388.169 235.118C388.169 235.843 387.28 236.205 385.503 236.205ZM396.7 236.205C394.841 236.205 393.337 235.747 392.188 234.831C391.04 233.915 390.466 232.555 390.466 230.75C390.466 228.85 391.047 227.421 392.209 226.464C393.371 225.493 394.786 224.871 396.454 224.598C398.136 224.311 400.173 224.146 402.565 224.105V222.383C402.565 221.467 402.251 220.735 401.622 220.188C401.007 219.628 399.988 219.348 398.566 219.348C397.486 219.348 396.536 219.478 395.716 219.737C394.909 219.983 394.15 220.284 393.439 220.64C393.139 220.79 392.954 220.865 392.886 220.865C392.722 220.865 392.537 220.749 392.332 220.517C392.141 220.271 391.97 219.997 391.819 219.696C391.683 219.396 391.614 219.177 391.614 219.04C391.614 218.726 391.936 218.384 392.578 218.015C393.234 217.646 394.089 217.338 395.142 217.092C396.194 216.846 397.295 216.723 398.443 216.723C400.727 216.723 402.497 217.222 403.755 218.22C405.013 219.218 405.642 220.619 405.642 222.424V230.606C405.642 232.192 405.71 233.341 405.847 234.052C405.997 234.749 406.072 235.132 406.072 235.2C406.072 235.501 405.84 235.72 405.375 235.856C404.924 235.979 404.5 236.041 404.104 236.041C403.775 236.041 403.529 235.856 403.365 235.487C403.215 235.118 403.064 234.585 402.914 233.888L402.832 233.478C402.08 234.312 401.191 234.975 400.166 235.467C399.154 235.959 397.999 236.205 396.7 236.205ZM396.864 233.56C398.067 233.56 399.093 233.341 399.94 232.903C400.788 232.466 401.663 231.844 402.565 231.037V226.73C400.761 226.744 399.277 226.819 398.115 226.956C396.953 227.093 395.935 227.441 395.06 228.002C394.185 228.549 393.747 229.403 393.747 230.565C393.747 231.536 394.007 232.281 394.526 232.801C395.06 233.307 395.839 233.56 396.864 233.56ZM417.188 236.205C415.971 236.205 414.884 235.836 413.927 235.098C412.97 234.359 412.491 233.054 412.491 231.181V219.553H410.666C410.406 219.553 410.215 219.471 410.092 219.307C409.982 219.129 409.928 218.849 409.928 218.466V218.015C409.928 217.632 409.982 217.358 410.092 217.194C410.215 217.017 410.406 216.928 410.666 216.928H412.491L412.922 213.113C412.949 212.58 413.339 212.313 414.091 212.313H414.439C414.822 212.313 415.103 212.382 415.28 212.519C415.458 212.642 415.547 212.84 415.547 213.113V216.928H418.603C418.862 216.928 419.047 217.017 419.156 217.194C419.279 217.358 419.341 217.632 419.341 218.015V218.466C419.341 218.849 419.279 219.129 419.156 219.307C419.047 219.471 418.862 219.553 418.603 219.553H415.547V230.894C415.547 231.892 415.718 232.589 416.06 232.985C416.415 233.382 416.894 233.58 417.495 233.58C417.96 233.58 418.315 233.553 418.562 233.498C418.821 233.443 418.992 233.416 419.074 233.416C419.293 233.416 419.471 233.635 419.607 234.072C419.758 234.51 419.833 234.858 419.833 235.118C419.833 235.843 418.951 236.205 417.188 236.205ZM431.543 236.205C428.795 236.205 426.696 235.385 425.247 233.744C423.812 232.09 423.094 229.69 423.094 226.546C423.094 223.401 423.825 220.981 425.288 219.286C426.751 217.577 428.836 216.723 431.543 216.723C434.223 216.723 436.273 217.57 437.695 219.266C439.117 220.947 439.828 223.374 439.828 226.546C439.828 229.704 439.124 232.104 437.716 233.744C436.321 235.385 434.264 236.205 431.543 236.205ZM431.44 233.58C433.218 233.58 434.53 233.006 435.378 231.857C436.226 230.695 436.649 228.904 436.649 226.484C436.649 224.051 436.226 222.253 435.378 221.091C434.53 219.929 433.218 219.348 431.44 219.348C429.677 219.348 428.378 219.929 427.544 221.091C426.71 222.239 426.293 224.037 426.293 226.484C426.293 228.918 426.703 230.709 427.523 231.857C428.357 233.006 429.663 233.58 431.44 233.58ZM446.596 236.062C446.076 236.062 445.7 236 445.468 235.877C445.235 235.74 445.119 235.535 445.119 235.262V222.465C445.119 220.879 445.044 219.737 444.894 219.04C444.743 218.329 444.668 217.939 444.668 217.871C444.668 217.57 444.894 217.358 445.345 217.235C445.81 217.099 446.247 217.03 446.657 217.03C446.985 217.03 447.231 217.208 447.396 217.563C447.56 217.905 447.703 218.391 447.826 219.02L447.929 219.45C449.228 217.632 450.636 216.723 452.153 216.723C452.851 216.723 453.377 216.853 453.732 217.112C454.088 217.358 454.266 217.693 454.266 218.117C454.266 218.527 454.19 218.965 454.04 219.43C453.903 219.881 453.739 220.106 453.548 220.106C453.452 220.106 453.281 220.065 453.035 219.983C452.816 219.888 452.598 219.819 452.379 219.778C452.16 219.724 451.88 219.696 451.538 219.696C450.978 219.696 450.444 219.86 449.938 220.188C449.446 220.517 449.029 220.879 448.688 221.275C448.346 221.672 448.175 221.891 448.175 221.932V235.262C448.175 235.535 448.059 235.74 447.826 235.877C447.594 236 447.231 236.062 446.739 236.062H446.596ZM460.274 243.588C459.481 243.588 459.085 243.39 459.085 242.993C459.085 242.897 459.14 242.699 459.249 242.398L462.305 234.975L455.927 217.953C455.913 217.898 455.893 217.823 455.865 217.728C455.838 217.618 455.824 217.536 455.824 217.481C455.824 217.29 455.954 217.14 456.214 217.03C456.474 216.921 456.87 216.866 457.403 216.866H457.69C458.511 216.866 458.996 217.058 459.146 217.44L462.858 227.325C463.187 228.187 463.576 229.41 464.027 230.996H464.089L464.52 229.643C464.588 229.438 464.704 229.089 464.868 228.597C465.032 228.091 465.183 227.667 465.319 227.325L468.949 217.44C469.072 217.058 469.571 216.866 470.446 216.866H470.569C471.526 216.866 472.005 217.071 472.005 217.481C472.005 217.577 471.971 217.741 471.902 217.974L462.551 242.829C462.332 243.335 461.758 243.588 460.828 243.588H460.274ZM495.322 236.205C491.33 236.205 488.377 235.152 486.463 233.047C484.549 230.941 483.592 227.667 483.592 223.224C483.592 214.569 487.522 210.242 495.384 210.242C496.532 210.242 497.646 210.365 498.727 210.611C499.807 210.844 500.682 211.138 501.352 211.493C502.021 211.849 502.356 212.19 502.356 212.519C502.356 212.724 502.281 212.997 502.131 213.339C501.994 213.681 501.83 213.981 501.639 214.241C501.447 214.501 501.276 214.631 501.126 214.631C501.058 214.631 500.866 214.542 500.552 214.364C499.841 213.981 499.096 213.66 498.316 213.4C497.537 213.141 496.587 213.011 495.466 213.011C492.526 213.011 490.359 213.831 488.965 215.472C487.584 217.099 486.894 219.696 486.894 223.265C486.894 226.751 487.577 229.321 488.944 230.976C490.325 232.616 492.451 233.437 495.322 233.437C496.525 233.437 497.558 233.293 498.419 233.006C499.28 232.719 500.107 232.363 500.9 231.939C501.283 231.734 501.516 231.632 501.598 231.632C501.748 231.632 501.919 231.762 502.11 232.021C502.315 232.281 502.493 232.575 502.644 232.903C502.794 233.218 502.869 233.443 502.869 233.58C502.869 233.922 502.521 234.305 501.823 234.729C501.14 235.139 500.217 235.487 499.055 235.774C497.906 236.062 496.662 236.205 495.322 236.205ZM514.559 236.205C511.811 236.205 509.712 235.385 508.263 233.744C506.827 232.09 506.109 229.69 506.109 226.546C506.109 223.401 506.841 220.981 508.304 219.286C509.767 217.577 511.852 216.723 514.559 216.723C517.238 216.723 519.289 217.57 520.711 219.266C522.133 220.947 522.844 223.374 522.844 226.546C522.844 229.704 522.14 232.104 520.731 233.744C519.337 235.385 517.279 236.205 514.559 236.205ZM514.456 233.58C516.233 233.58 517.546 233.006 518.394 231.857C519.241 230.695 519.665 228.904 519.665 226.484C519.665 224.051 519.241 222.253 518.394 221.091C517.546 219.929 516.233 219.348 514.456 219.348C512.692 219.348 511.394 219.929 510.56 221.091C509.726 222.239 509.309 224.037 509.309 226.484C509.309 228.918 509.719 230.709 510.539 231.857C511.373 233.006 512.679 233.58 514.456 233.58ZM547.31 216.723C548.827 216.723 550.16 217.153 551.309 218.015C552.457 218.876 553.031 220.407 553.031 222.608V235.262C553.031 235.535 552.915 235.74 552.683 235.877C552.45 236 552.081 236.062 551.575 236.062H551.452C550.933 236.062 550.557 236 550.324 235.877C550.092 235.74 549.976 235.535 549.976 235.262V222.916C549.976 221.809 549.675 220.94 549.073 220.312C548.485 219.683 547.617 219.368 546.469 219.368C545.512 219.368 544.644 219.648 543.864 220.209C543.099 220.756 542.477 221.33 541.998 221.932C542.025 222.26 542.039 222.506 542.039 222.67V235.262C542.039 235.795 541.547 236.062 540.562 236.062H540.419C539.448 236.062 538.963 235.795 538.963 235.262V222.916C538.963 221.809 538.662 220.94 538.061 220.312C537.473 219.683 536.604 219.368 535.456 219.368C534.663 219.368 533.938 219.56 533.282 219.942C532.626 220.312 532.079 220.715 531.642 221.152C531.218 221.59 531.006 221.836 531.006 221.891V235.262C531.006 235.535 530.89 235.74 530.657 235.877C530.438 236 530.076 236.062 529.57 236.062H529.406C528.9 236.062 528.531 236 528.299 235.877C528.08 235.74 527.971 235.535 527.971 235.262V222.465C527.971 220.879 527.896 219.737 527.745 219.04C527.595 218.329 527.52 217.939 527.52 217.871C527.52 217.57 527.745 217.358 528.196 217.235C528.661 217.099 529.092 217.03 529.488 217.03C529.83 217.03 530.083 217.215 530.247 217.584C530.411 217.953 530.527 218.329 530.596 218.712C530.678 219.095 530.732 219.341 530.76 219.45C531.43 218.671 532.25 218.021 533.221 217.502C534.191 216.982 535.217 216.723 536.297 216.723C537.404 216.723 538.437 216.948 539.394 217.399C540.351 217.837 541.055 218.616 541.506 219.737C542.258 218.849 543.14 218.124 544.151 217.563C545.163 217.003 546.216 216.723 547.31 216.723ZM560.394 243.588C559.409 243.588 558.917 243.321 558.917 242.788V222.465C558.917 220.879 558.842 219.737 558.691 219.04C558.541 218.329 558.466 217.939 558.466 217.871C558.466 217.57 558.691 217.358 559.143 217.235C559.607 217.099 560.045 217.03 560.455 217.03C560.797 217.03 561.05 217.215 561.214 217.584C561.378 217.953 561.494 218.329 561.562 218.712C561.645 219.095 561.699 219.341 561.727 219.45C563.463 217.632 565.397 216.723 567.53 216.723C568.993 216.723 570.258 217.14 571.324 217.974C572.391 218.808 573.204 219.963 573.765 221.439C574.325 222.916 574.605 224.598 574.605 226.484C574.605 228.535 574.291 230.292 573.662 231.755C573.047 233.218 572.179 234.325 571.058 235.077C569.937 235.829 568.645 236.205 567.182 236.205C566.129 236.205 565.192 236.048 564.372 235.733C563.565 235.419 562.766 234.961 561.973 234.359V242.788C561.973 243.321 561.494 243.588 560.537 243.588H560.394ZM566.484 233.519C568.111 233.478 569.335 232.883 570.155 231.734C570.976 230.586 571.386 228.918 571.386 226.73C571.386 224.379 570.996 222.567 570.217 221.296C569.451 220.011 568.344 219.368 566.895 219.368C566.088 219.368 565.247 219.587 564.372 220.024C563.511 220.462 562.711 221.084 561.973 221.891V231.878C563.312 232.972 564.816 233.519 566.484 233.519ZM584.388 236.205C583.171 236.205 582.084 235.836 581.127 235.098C580.17 234.359 579.691 233.054 579.691 231.181V209.381C579.691 208.848 580.177 208.581 581.147 208.581H581.312C582.269 208.581 582.747 208.848 582.747 209.381V230.894C582.747 231.892 582.925 232.589 583.28 232.985C583.636 233.382 584.114 233.58 584.716 233.58C585.167 233.58 585.522 233.553 585.782 233.498C586.042 233.443 586.213 233.416 586.295 233.416C586.514 233.416 586.691 233.635 586.828 234.072C586.979 234.51 587.054 234.858 587.054 235.118C587.054 235.843 586.165 236.205 584.388 236.205ZM592.201 212.334C591.23 212.334 590.745 212.067 590.745 211.534V209.381C590.745 208.848 591.23 208.581 592.201 208.581H592.632C593.616 208.581 594.108 208.848 594.108 209.381V211.534C594.108 212.067 593.616 212.334 592.632 212.334H592.201ZM592.345 236.062C591.374 236.062 590.889 235.795 590.889 235.262V217.666C590.889 217.133 591.374 216.866 592.345 216.866H592.488C593.473 216.866 593.965 217.133 593.965 217.666V235.262C593.965 235.795 593.473 236.062 592.488 236.062H592.345ZM605.265 236.205C603.405 236.205 601.901 235.747 600.753 234.831C599.604 233.915 599.03 232.555 599.03 230.75C599.03 228.85 599.611 227.421 600.773 226.464C601.936 225.493 603.351 224.871 605.019 224.598C606.7 224.311 608.737 224.146 611.13 224.105V222.383C611.13 221.467 610.815 220.735 610.187 220.188C609.571 219.628 608.553 219.348 607.131 219.348C606.051 219.348 605.101 219.478 604.28 219.737C603.474 219.983 602.715 220.284 602.004 220.64C601.703 220.79 601.519 220.865 601.45 220.865C601.286 220.865 601.102 220.749 600.896 220.517C600.705 220.271 600.534 219.997 600.384 219.696C600.247 219.396 600.179 219.177 600.179 219.04C600.179 218.726 600.5 218.384 601.143 218.015C601.799 217.646 602.653 217.338 603.706 217.092C604.759 216.846 605.859 216.723 607.008 216.723C609.291 216.723 611.062 217.222 612.319 218.22C613.577 219.218 614.206 220.619 614.206 222.424V230.606C614.206 232.192 614.274 233.341 614.411 234.052C614.562 234.749 614.637 235.132 614.637 235.2C614.637 235.501 614.404 235.72 613.939 235.856C613.488 235.979 613.064 236.041 612.668 236.041C612.34 236.041 612.094 235.856 611.93 235.487C611.779 235.118 611.629 234.585 611.479 233.888L611.396 233.478C610.645 234.312 609.756 234.975 608.73 235.467C607.719 235.959 606.563 236.205 605.265 236.205ZM605.429 233.56C606.632 233.56 607.657 233.341 608.505 232.903C609.353 232.466 610.228 231.844 611.13 231.037V226.73C609.325 226.744 607.842 226.819 606.68 226.956C605.518 227.093 604.499 227.441 603.624 228.002C602.749 228.549 602.312 229.403 602.312 230.565C602.312 231.536 602.571 232.281 603.091 232.801C603.624 233.307 604.403 233.56 605.429 233.56ZM621.753 236.062C621.233 236.062 620.857 236 620.625 235.877C620.393 235.74 620.276 235.535 620.276 235.262V222.465C620.276 220.879 620.201 219.737 620.051 219.04C619.9 218.329 619.825 217.939 619.825 217.871C619.825 217.57 620.051 217.358 620.502 217.235C620.967 217.099 621.404 217.03 621.814 217.03C622.156 217.03 622.409 217.215 622.573 217.584C622.737 217.953 622.854 218.329 622.922 218.712C623.004 219.095 623.059 219.341 623.086 219.45C623.852 218.589 624.733 217.919 625.731 217.44C626.743 216.962 627.762 216.723 628.787 216.723C630.646 216.723 632.096 217.249 633.135 218.302C634.188 219.341 634.714 220.776 634.714 222.608V235.262C634.714 235.535 634.598 235.74 634.365 235.877C634.133 236 633.764 236.062 633.258 236.062H633.094C632.602 236.062 632.239 236 632.007 235.877C631.774 235.74 631.658 235.535 631.658 235.262V222.916C631.658 221.795 631.33 220.927 630.674 220.312C630.031 219.683 629.122 219.368 627.946 219.368C627.126 219.368 626.299 219.601 625.465 220.065C624.645 220.517 623.934 221.139 623.332 221.932V235.262C623.332 235.535 623.216 235.74 622.983 235.877C622.751 236 622.389 236.062 621.896 236.062H621.753ZM648.311 236.205C645.289 236.205 643.033 235.433 641.543 233.888C640.066 232.329 639.328 229.827 639.328 226.382C639.328 222.896 640.155 220.414 641.81 218.938C643.464 217.461 645.521 216.723 647.982 216.723C648.898 216.723 649.78 216.805 650.628 216.969C651.476 217.119 652.159 217.324 652.679 217.584C653.198 217.844 653.458 218.117 653.458 218.404C653.458 218.596 653.39 218.849 653.253 219.163C653.13 219.478 652.973 219.758 652.781 220.004C652.604 220.236 652.439 220.353 652.289 220.353C652.248 220.353 652.187 220.339 652.104 220.312C652.022 220.271 651.947 220.236 651.879 220.209C650.648 219.635 649.322 219.348 647.9 219.348C646.219 219.348 644.92 219.901 644.004 221.009C643.088 222.103 642.63 223.866 642.63 226.3C642.63 228.022 642.814 229.417 643.184 230.483C643.553 231.536 644.147 232.315 644.968 232.821C645.802 233.327 646.909 233.58 648.29 233.58C649.808 233.58 651.175 233.266 652.392 232.637C652.515 232.609 652.604 232.582 652.658 232.555C652.727 232.514 652.774 232.493 652.802 232.493C652.952 232.493 653.123 232.609 653.314 232.842C653.506 233.074 653.67 233.341 653.807 233.642C653.957 233.942 654.032 234.182 654.032 234.359C654.032 234.646 653.772 234.934 653.253 235.221C652.733 235.508 652.029 235.747 651.141 235.938C650.266 236.116 649.322 236.205 648.311 236.205ZM666.07 236.205C663.049 236.205 660.8 235.419 659.323 233.847C657.86 232.261 657.129 229.841 657.129 226.587C657.129 223.36 657.847 220.913 659.282 219.245C660.718 217.563 662.83 216.723 665.619 216.723C668.107 216.723 669.98 217.529 671.238 219.143C672.51 220.756 673.146 223.121 673.146 226.238C673.146 226.375 673.07 226.566 672.92 226.812C672.783 227.045 672.612 227.257 672.407 227.448C672.216 227.626 672.052 227.715 671.915 227.715H660.41C660.561 229.752 661.08 231.242 661.969 232.186C662.871 233.115 664.225 233.58 666.029 233.58C667.041 233.58 667.909 233.457 668.634 233.211C669.372 232.965 670.083 232.664 670.767 232.309C670.835 232.281 670.938 232.233 671.074 232.165C671.211 232.097 671.307 232.062 671.361 232.062C671.512 232.062 671.683 232.186 671.874 232.432C672.079 232.664 672.25 232.931 672.387 233.231C672.537 233.519 672.612 233.73 672.612 233.867C672.612 234.168 672.312 234.503 671.71 234.872C671.108 235.241 670.302 235.556 669.29 235.815C668.292 236.075 667.219 236.205 666.07 236.205ZM669.885 225.09C669.885 221.262 668.429 219.348 665.517 219.348C662.386 219.348 660.684 221.262 660.41 225.09H669.885ZM678.129 236.062C677.623 236.062 677.254 236 677.021 235.877C676.789 235.74 676.673 235.535 676.673 235.262V232.862C676.673 232.329 677.158 232.062 678.129 232.062H678.744C679.715 232.062 680.2 232.329 680.2 232.862V235.262C680.2 235.535 680.084 235.74 679.852 235.877C679.619 236 679.25 236.062 678.744 236.062H678.129Z" fill="#41553E"/>
</g>
<defs>
<linearGradient id="paint0_linear_1_2" x1="417.5" y1="101.5" x2="1423.5" y2="358" gradientUnits="userSpaceOnUse">
<stop stop-color="#FFE155"/>
<stop offset="0.362451" stop-color="#AA972B"/>
<stop offset="0.559467" stop-color="#758B48"/>
<stop offset="0.814208" stop-color="#417E35" stop-opacity="0.71"/>
<stop offset="1" stop-color="white"/>
</linearGradient>
<clipPath id="clip0_1_2">
<rect width="1440" height="372" fill="white"/>
</clipPath>
</defs>
</svg>
